<?xml version="1.0" encoding="utf-8"?>
<!-- Generator: Adobe Illustrator 24.2.3, SVG Export Plug-In . SVG Version: 6.00 Build 0)  -->
<svg version="1.1" id="Слой_1" xmlns="http://www.w3.org/2000/svg" xmlns:xlink="http://www.w3.org/1999/xlink" x="0px" y="0px"
	 viewBox="0 0 100 100" style="enable-background:new 0 0 100 100;" xml:space="preserve">
<g>
	<g>
		<path d="M6.42,11.74C30.3,9.52,54.32,8.89,78.27,9.91c2.97,0.13,5.95,0.28,8.92,0.45c2.38,0.14,5.06,0.15,7.15,1.46
			c3.92,2.46,2.72,8.03,1.74,11.73c-1.4,5.29-2.78,10.55-3.69,15.95c-0.94,5.56-1.55,11.19-1.81,16.82
			C90,68.99,91.19,81.7,94.08,94.03c0.4-0.52,0.8-1.05,1.19-1.57c-22.6-2.7-45.49-2.92-68.14-0.62c-2.75,0.28-5.5,0.59-8.24,0.95
			c-2.73,0.35-5.5,0.96-8.25,1.14c-0.91,0.06-2.01,0.05-2.07-1.09c-0.06-1.16,0.69-2.54,1.01-3.63c0.74-2.51,1.26-5.08,1.6-7.68
			c1.39-10.49-0.15-21.09-1.8-31.47c-2.05-12.9-4.14-25.8-6.2-38.7c-0.25-1.57-2.64-0.9-2.39,0.66C2.68,23.81,4.58,35.6,6.47,47.39
			c1.75,10.89,3.66,22.01,2.37,33.07C8.53,83.12,8,85.75,7.26,88.32c-0.59,2.04-1.97,4.64-0.51,6.63c1.28,1.75,3.58,1.54,5.48,1.26
			c2.95-0.44,5.89-0.85,8.85-1.21c11.54-1.4,23.16-2.15,34.78-2.25c13.17-0.11,26.34,0.63,39.42,2.19c0.84,0.1,1.36-0.87,1.19-1.57
			c-2.66-11.36-3.83-23.03-3.49-34.7c0.34-11.63,2.37-22.9,5.41-34.11c1.06-3.91,2.1-8.85-0.31-12.48C95.18,7.73,89.33,8,84.72,7.74
			C72.5,7.08,60.26,6.83,48.02,7.01c-13.89,0.2-27.77,0.96-41.6,2.25C4.85,9.41,4.84,11.89,6.42,11.74L6.42,11.74z"/>
	</g>
</g>
<g>
	<g>
		<path d="M22.14,24.28C26.09,42,28.39,60.05,29.02,78.2c0.05,1.59,2.53,1.6,2.48,0c-0.63-18.36-2.96-36.65-6.97-54.57
			C24.18,22.07,21.79,22.73,22.14,24.28L22.14,24.28z"/>
	</g>
</g>
<g>
	<g>
		<path d="M21.31,22.39c4.04-0.83,7.15-3.79,11.09-4.8c1.63-0.41,3.55-0.53,5.07,0.34c1.66,0.95,2.16,2.81,2.02,4.62
			c-0.29,3.67-2.76,7.11-5.42,9.49c-2.79,2.49-6.26,4.04-9.96,4.55c0.32,0.75,0.64,1.51,0.95,2.26c4.49-1.91,9.61-2.47,14.28-0.88
			c4.1,1.4,7.47,4.45,9.05,8.5c1.64,4.2,1.62,8.83,1.48,13.26c-0.13,4.42-0.08,9.57-3.25,13.05c-3.73,4.1-9.68,4.68-14.86,5.16
			c-1.57,0.15-1.59,2.62,0,2.48c5.4-0.5,11.01-1.13,15.35-4.69c4.14-3.39,4.94-8.68,5.15-13.72c0.22-5.18,0.45-10.66-1.28-15.63
			c-1.64-4.68-5.06-8.33-9.62-10.27c-5.68-2.42-11.98-1.77-17.55,0.6c-1.42,0.6-0.29,2.43,0.95,2.26
			c6.74-0.92,12.94-5.39,15.85-11.56c1.37-2.9,2.14-6.68,0.28-9.56c-1.84-2.84-5.34-3.39-8.45-2.8c-4.27,0.81-7.54,4.08-11.79,4.95
			C19.09,20.32,19.75,22.71,21.31,22.39L21.31,22.39z"/>
	</g>
</g>
<g>
	<g>
		<path d="M58.96,64.49c3.69,0.01,7.39,0.01,11.08,0.02c2.98,0.01,6.88,0.67,8.93-2.05c1.65-2.19,1.4-5.22-0.16-7.38
			c-1.6-2.23-4.13-3.71-6.81-4.23c-5.11-0.98-10.75,1.14-13.37,5.77c-2.61,4.62-2.02,10.89,1.63,14.79
			c4.04,4.32,11.23,5.04,16.09,1.73c1.31-0.89,0.07-3.04-1.25-2.14c-3.49,2.37-8.23,2.27-11.7-0.12c-3.54-2.45-4.68-7.3-3.39-11.28
			c1.32-4.08,5.29-6.53,9.49-6.52c2.06,0.01,4.15,0.61,5.8,1.88c1.63,1.26,2.97,3.4,2.02,5.47c-0.58,1.26-1.73,1.57-3.03,1.61
			c-1.68,0.05-3.36,0-5.04,0c-3.43-0.01-6.86-0.01-10.29-0.02C57.36,62.01,57.36,64.49,58.96,64.49L58.96,64.49z"/>
	</g>
</g>
<g>
	<g>
		<path d="M59.43,44.17c6.12-0.06,12.23-0.13,18.35-0.19c1.59-0.02,1.6-2.49,0-2.48c-6.12,0.06-12.23,0.13-18.35,0.19
			C57.83,41.71,57.83,44.19,59.43,44.17L59.43,44.17z"/>
	</g>
</g>
</svg>
