<?xml version="1.0" encoding="utf-8"?>
<!-- Generator: Adobe Illustrator 24.2.3, SVG Export Plug-In . SVG Version: 6.00 Build 0)  -->
<svg version="1.1" xmlns="http://www.w3.org/2000/svg" xmlns:xlink="http://www.w3.org/1999/xlink" x="0px" y="0px"
	 viewBox="0 0 1984.25 1984.25" style="enable-background:new 0 0 1984.25 1984.25;" xml:space="preserve">
<style type="text/css">
	.st0{fill:#FFF348;}
	.st1{fill:#1D1D1B;}
</style>
<g id="Слой_2">
	<g>
		<g>
			<path class="st0" d="M974.79,496.16c17.91-8.48,35.83-16.97,53.74-25.45c5.12-2.42,10.24-4.85,15.35-7.27
				c-9.09-11.78-18.18-23.56-27.27-35.34c-14.24,12.38-28.48,24.77-42.72,37.15c-14.24,12.38-28.48,24.77-42.72,37.15
				c-8.03,6.98-16.06,13.97-24.09,20.95c-2.19,2.04-3.74,4.45-4.65,7.24c-1.41,2.68-2.05,5.57-1.94,8.67
				c0.27,1.99,0.54,3.99,0.8,5.98c0.7,2.93,2.04,5.48,4.03,7.65c1,1.69,2.35,3.04,4.04,4.04c2.17,1.99,4.72,3.33,7.65,4.03
				c1.99,0.27,3.99,0.54,5.98,0.8c4.06-0.01,7.85-1.04,11.36-3.07c23.49-10.7,46.98-21.39,70.47-32.09
				c23.34-10.63,46.68-21.25,70.02-31.88c13.19-6,26.37-12.01,39.56-18.01c2.62-1.41,4.73-3.35,6.31-5.8
				c1.99-2.17,3.33-4.72,4.03-7.65c0.94-2.99,1.07-5.98,0.4-8.97c-0.14-2.99-1.03-5.78-2.67-8.37c-3.1-4.8-7.71-9.03-13.45-10.34
				c-1.99-0.27-3.99-0.54-5.98-0.8c-4.06,0.01-7.85,1.04-11.36,3.07c-23.49,10.7-46.98,21.39-70.47,32.09
				c-23.34,10.63-46.68,21.25-70.02,31.88c-13.19,6-26.37,12.01-39.56,18.01c9.09,11.78,18.18,23.56,27.27,35.34
				c14.24-12.38,28.48-24.77,42.72-37.15c14.24-12.38,28.48-24.77,42.72-37.15c8.03-6.98,16.06-13.97,24.09-20.95
				c2.19-2.04,3.74-4.45,4.65-7.24c1.41-2.68,2.05-5.57,1.94-8.67c-0.27-1.99-0.54-3.99-0.8-5.98c-0.7-2.93-2.04-5.48-4.03-7.65
				c-1-1.69-2.35-3.04-4.04-4.04c-2.17-1.99-4.72-3.33-7.65-4.03c-1.99-0.27-3.99-0.54-5.98-0.8c-4.06,0.01-7.85,1.04-11.36,3.07
				c-17.91,8.48-35.83,16.97-53.74,25.45c-5.12,2.42-10.24,4.85-15.35,7.27c-2.62,1.41-4.73,3.35-6.31,5.8
				c-1.99,2.17-3.33,4.72-4.03,7.65c-0.94,2.99-1.07,5.98-0.4,8.97c0.14,2.99,1.03,5.78,2.67,8.37c3.1,4.8,7.71,9.03,13.45,10.34
				c1.99,0.27,3.99,0.54,5.98,0.8C967.5,499.22,971.29,498.2,974.79,496.16L974.79,496.16z"/>
		</g>
	</g>
	<g>
		<g>
			<path class="st0" d="M1082.5,457.24c-51.87,41.7-103.74,83.39-155.6,125.09c-4.03,3.24-6.81,10.9-6.59,15.91
				c0.23,5.08,1.71,9.59,4.83,13.63c6.84,8.85,19.17,11.39,29.03,5.8c68.53-38.89,137.05-77.77,205.58-116.66
				c19.35-10.98,38.71-21.97,58.06-32.95c-7.57-12.95-15.14-25.9-22.71-38.86c-85.46,52.78-170.91,105.57-256.37,158.35
				c-24.05,14.86-48.1,29.71-72.15,44.57c-10.01,6.18-14.77,20.4-8.07,30.78c3.1,4.8,7.71,9.03,13.45,10.34
				c6.28,1.43,11.48,0.29,17.34-2.27c57.02-24.9,114.04-49.8,171.06-74.7c16.25-7.1,32.5-14.19,48.76-21.29
				c-9.09-11.78-18.18-23.56-27.27-35.34c-62.4,49.83-124.8,99.66-187.19,149.48c-17.83,14.24-35.66,28.47-53.48,42.71
				c-4.04,3.22-6.81,10.91-6.59,15.91c0.23,5.08,1.71,9.59,4.83,13.63c6.74,8.73,19.3,11.57,29.03,5.8
				c60.92-36.13,121.84-72.26,182.76-108.4c17.37-10.3,34.74-20.6,52.11-30.9c-7.57-12.95-15.14-25.9-22.71-38.86
				c-62.27,45.05-124.54,90.1-186.81,135.16c-17.51,12.67-35.03,25.34-52.54,38.01c-9.17,6.64-13.84,17.11-9.21,28.1
				c3.96,9.39,16.09,17.18,26.54,13.03c56.83-22.58,113.67-45.16,170.5-67.74c-5.78-13.71-11.56-27.42-17.34-41.12
				c-70.2,35.57-136.14,78.94-197.1,128.69c-17.04,13.91-33.63,28.35-49.79,43.27c-8.67,8.01-8.71,23.82,0,31.82
				c4.29,3.94,9.92,6.86,15.91,6.59c6.34-0.28,10.98-2.68,15.91-6.59c1.64-1.3,3.29-2.59,4.94-3.89c0.94-0.74,3.08-2.76-0.83,0.64
				c0.78-0.68,1.68-1.29,2.5-1.91c3.34-2.53,6.7-5.03,10.09-7.49c6.77-4.93,13.65-9.72,20.61-14.37
				c13.93-9.3,28.24-18.04,42.87-26.21c14.63-8.16,29.59-15.73,44.83-22.71c3.57-1.63,7.16-3.23,10.76-4.8
				c0.96-0.42,1.92-0.83,2.88-1.25c0.75-0.32,3.94-1.68,0.93-0.4c-2.85,1.21-0.33,0.14,0.21-0.08c1.45-0.6,2.9-1.2,4.36-1.79
				c7.76-3.16,15.58-6.16,23.46-9.01c17.73-6.4,35.75-11.98,53.98-16.77c-7.3-12.54-14.59-25.07-21.89-37.61
				C944.38,791,892.44,831.39,840.49,871.78c-14.77,11.49-29.55,22.98-44.32,34.46c-4.05,3.15-6.81,10.98-6.59,15.91
				c0.23,5.08,1.71,9.59,4.83,13.63c7.33,9.48,18.59,10.42,29.03,5.8c64.98-28.82,129.96-57.65,194.95-86.47
				c-9.09-11.78-18.18-23.56-27.27-35.34c-48.06,38.36-96.12,76.72-144.18,115.08c-13.83,11.04-27.66,22.08-41.5,33.12
				c-4.04,3.22-6.81,10.92-6.59,15.91c0.23,5.08,1.71,9.59,4.83,13.63c7.11,9.21,18.84,10.85,29.03,5.8
				c52.81-26.21,105.62-52.42,158.42-78.64c-9.09-11.78-18.18-23.56-27.27-35.34c-45.91,42.64-91.82,85.27-137.73,127.91
				c-12.96,12.04-25.92,24.07-38.88,36.11c-8.22,7.64-8.34,21.02-1.76,29.54c6.84,8.86,19.17,11.38,29.03,5.8
				c52.78-29.9,105.56-59.8,158.34-89.69c14.97-8.48,29.94-16.96,44.9-25.44c-7.57-12.95-15.14-25.9-22.71-38.86
				c-62.98,42.08-127.04,84.97-178.96,140.7c-15.27,16.39-29.37,33.93-42.11,52.36c-5.42,7.84-3.4,20.92,3.52,27.27
				c7.67,7.04,18.03,8.27,27.27,3.52c63.9-32.85,127.81-65.69,191.71-98.54c-9.09-11.78-18.18-23.56-27.27-35.34
				c-53.46,44.37-106.92,88.73-160.37,133.1c-8.61,7.14-8.05,21.4-1.76,29.54c2.87,3.72,6.98,6.99,11.69,8.06
				c6.31,1.44,11.45,0.24,17.34-2.27c51.17-21.84,102.33-43.67,153.5-65.51c-9.09-11.78-18.18-23.56-27.27-35.34
				c-47.13,38.46-94.26,76.92-141.39,115.37c-13.53,11.04-27.06,22.08-40.6,33.13c-4.03,3.29-6.82,10.86-6.59,15.91
				c0.23,5.08,1.71,9.59,4.83,13.63c7.15,9.25,18.8,10.78,29.03,5.8c69.13-33.67,138.25-67.34,207.38-101.01
				c-7.57-12.95-15.14-25.9-22.71-38.86c-48.24,30.11-93.22,65.82-133.26,106.22c-11.17,11.27-21.95,22.93-32.35,34.91
				c-7.41,8.54-8.91,20.29-1.76,29.54c6.61,8.55,19.47,11.82,29.03,5.8c54.82-34.58,109.64-69.17,164.46-103.75
				c-9.09-11.78-18.18-23.56-27.27-35.34c-42.76,46.93-85.51,93.86-128.27,140.79c-7.6,8.34-8.78,20.45-1.76,29.54
				c6.76,8.75,19.27,11.54,29.03,5.8c48.85-28.76,97.71-57.52,146.56-86.28c-10.26-10.26-20.52-20.52-30.78-30.78
				c-23.86,36.77-47.72,73.54-71.58,110.31c-5.21,8.02-3.55,20.78,3.52,27.27c7.46,6.85,18.28,8.6,27.27,3.52
				c33.8-19.1,67.61-38.2,101.41-57.3c-10.26-10.26-20.52-20.52-30.78-30.78c-5.05,10.25-10.1,20.5-15.15,30.75
				c-7.69,15.61,1.71,32.95,19.43,33.86c9.06,0.46,18.12,0.93,27.18,1.39c11.77,0.6,23.03-10.78,22.5-22.5
				c-0.57-12.7-9.89-21.86-22.5-22.5c-9.06-0.46-18.12-0.93-27.18-1.39c6.48,11.29,12.95,22.57,19.43,33.86
				c5.05-10.25,10.1-20.5,15.15-30.75c4.29-8.72,4.15-20.23-3.52-27.27c-7.46-6.85-18.28-8.6-27.27-3.52
				c-33.8,19.1-67.61,38.2-101.41,57.3c10.26,10.26,20.52,20.52,30.78,30.78c23.86-36.77,47.72-73.54,71.58-110.31
				c5.21-8.02,3.55-20.78-3.52-27.27c-7.37-6.77-18.39-8.74-27.27-3.52c-48.85,28.76-97.71,57.52-146.56,86.28
				c9.09,11.78,18.18,23.56,27.27,35.34c42.76-46.93,85.51-93.86,128.27-140.79c7.6-8.34,8.78-20.45,1.76-29.54
				c-6.61-8.55-19.47-11.82-29.03-5.8c-54.82,34.58-109.64,69.17-164.46,103.75c9.09,11.78,18.18,23.56,27.27,35.34
				c18.03-20.78,37.22-40.53,57.52-59.09c9.96-9.1,20.17-17.92,30.63-26.44c2.67-2.17,5.35-4.32,8.04-6.46
				c1.24-0.98,2.5-1.96,3.74-2.94c0.44-0.34,2.61-2.02,0.23-0.19c-2.5,1.93,0.39-0.29,0.87-0.66c5.46-4.17,10.99-8.27,16.57-12.28
				c12.67-9.11,25.65-17.78,38.89-26.04c9.98-6.23,14.79-20.37,8.07-30.78c-7.01-10.88-19.44-13.6-30.78-8.07
				c-69.13,33.67-138.25,67.34-207.38,101.01c9.09,11.78,18.18,23.56,27.27,35.34c47.13-38.46,94.26-76.92,141.39-115.37
				c13.53-11.04,27.06-22.08,40.6-33.13c4.03-3.29,6.82-10.86,6.59-15.91c-0.23-5.08-1.71-9.59-4.83-13.63
				c-2.87-3.72-6.98-6.99-11.69-8.06c-6.31-1.44-11.45-0.24-17.34,2.27c-51.17,21.84-102.33,43.67-153.5,65.51
				c9.09,11.78,18.18,23.56,27.27,35.34c53.46-44.37,106.92-88.73,160.37-133.1c8.61-7.14,8.05-21.4,1.76-29.54
				c-7.04-9.12-18.92-10.99-29.03-5.8c-63.9,32.85-127.81,65.69-191.71,98.54c10.26,10.26,20.52,20.52,30.78,30.78
				c2.6-3.76,5.25-7.48,7.98-11.15c1.19-1.6,2.29-3.41,3.66-4.85c-3.51,3.71-1.56,2-0.73,0.95c0.95-1.19,1.88-2.38,2.83-3.57
				c5.69-7.09,11.62-14,17.74-20.72c12.26-13.47,25.32-26.2,38.9-38.33c6.82-6.09,13.78-12.03,20.85-17.84
				c3.15-2.59,6.32-5.15,9.51-7.69c1.8-1.43,3.6-2.85,5.4-4.27c1-0.78,1.98-1.62,3.02-2.35c-2.01,1.41-2.73,2.1-0.31,0.24
				c14.62-11.2,29.57-21.97,44.69-32.5c16.98-11.82,34.18-23.34,51.38-34.83c9.77-6.53,14.93-20.15,8.07-30.78
				c-6.68-10.36-19.82-14.28-30.78-8.07c-52.78,29.9-105.56,59.8-158.34,89.69c-14.97,8.48-29.94,16.96-44.9,25.44
				c9.09,11.78,18.18,23.56,27.27,35.34c45.91-42.64,91.82-85.27,137.73-127.91c12.96-12.04,25.92-24.07,38.88-36.11
				c8.22-7.64,8.34-21.02,1.76-29.54c-7.11-9.21-18.84-10.85-29.03-5.8c-52.81,26.21-105.62,52.42-158.42,78.64
				c9.09,11.78,18.18,23.56,27.27,35.34c48.06-38.36,96.12-76.72,144.18-115.08c13.83-11.04,27.66-22.08,41.5-33.12
				c4.04-3.22,6.81-10.92,6.59-15.91c-0.23-5.08-1.71-9.59-4.83-13.63c-7.33-9.48-18.59-10.42-29.03-5.8
				c-64.98,28.82-129.96,57.65-194.95,86.47c9.09,11.78,18.18,23.56,27.27,35.34c51.95-40.39,103.89-80.79,155.84-121.18
				c14.77-11.49,29.55-22.98,44.32-34.46c7.47-5.81,8.42-19.67,3.52-27.27c-5.47-8.48-15.44-12.96-25.41-10.34
				c-67.59,17.76-132.66,46.58-191.09,84.94c-17.37,11.4-34.07,23.75-50.34,36.66c10.61,10.61,21.21,21.21,31.82,31.82
				c14.18-13.11,28.7-25.84,43.57-38.16c7.23-5.99,14.53-11.88,21.92-17.68c1.89-1.48,3.88-2.89,5.71-4.45
				c-0.48,0.41-3.91,3-0.73,0.57c0.85-0.65,1.7-1.3,2.56-1.95c4.05-3.09,8.13-6.15,12.22-9.18c30.62-22.65,62.45-43.65,95.31-62.89
				c18.75-10.98,37.84-21.36,57.22-31.18c9.98-5.06,13.31-18.38,9.21-28.1c-3.96-9.39-16.09-17.18-26.54-13.03
				c-56.83,22.58-113.67,45.16-170.5,67.74c5.78,13.71,11.56,27.42,17.34,41.12c62.27-45.05,124.54-90.1,186.81-135.16
				c17.51-12.67,35.03-25.34,52.54-38.01c4.88-3.53,8.69-7.44,10.34-13.45c1.48-5.39,0.81-12.56-2.27-17.34
				c-6.57-10.19-19.95-14.5-30.78-8.07c-60.92,36.13-121.84,72.26-182.76,108.4c-17.37,10.3-34.74,20.6-52.11,30.9
				c9.09,11.78,18.18,23.56,27.27,35.34c62.4-49.83,124.8-99.66,187.19-149.48c17.83-14.24,35.66-28.47,53.48-42.71
				c4.04-3.22,6.81-10.91,6.59-15.91c-0.23-5.08-1.71-9.59-4.83-13.63c-7.35-9.52-18.56-10.36-29.03-5.8
				c-57.02,24.9-114.04,49.8-171.06,74.7c-16.25,7.1-32.5,14.19-48.76,21.29c7.57,12.95,15.14,25.9,22.71,38.86
				c85.46-52.78,170.91-105.57,256.37-158.35c24.05-14.86,48.1-29.71,72.15-44.57c10.01-6.18,14.77-20.4,8.07-30.78
				c-6.67-10.35-19.83-14.29-30.78-8.07c-68.53,38.89-137.05,77.77-205.58,116.66c-19.35,10.98-38.71,21.97-58.06,32.95
				c9.09,11.78,18.18,23.56,27.27,35.34c51.87-41.7,103.74-83.39,155.6-125.09c4.21-3.38,6.59-10.76,6.59-15.91
				c0-5.52-2.45-12.11-6.59-15.91c-4.29-3.94-9.92-6.86-15.91-6.59C1092.09,450.93,1087.4,453.3,1082.5,457.24L1082.5,457.24z"/>
		</g>
	</g>
	<g>
		<g>
			<path class="st0" d="M656.46,555.3c-45.29,52.74-90.59,105.48-135.88,158.23c-12.86,14.98-25.73,29.96-38.59,44.94
				c11.78,9.09,23.56,18.18,35.34,27.27c2.96-3.91,5.95-7.8,8.94-11.69c-1.17,1.52-2.35,3.04-3.52,4.55
				c44.1-57.01,92.16-110.95,143.79-161.25c14.6-14.22,29.48-28.15,44.62-41.78c-11.78-9.09-23.56-18.18-35.34-27.27
				c-17.79,35.99-39.14,70.15-63.68,101.94c1.17-1.52,2.35-3.04,3.52-4.55c-25.56,32.99-54.89,62.42-84.75,91.46
				c-28.67,27.88-57.63,55.72-82.47,87.16c-14.9,18.86-28.62,38.53-39.62,59.94c-4.43,8.62-4.06,20.31,3.52,27.27
				c2.87,2.64,6.22,4.59,9.93,5.79c5.03,1.63,12.92,0.76,17.34-2.27c56.74-38.89,110.68-82.03,160.91-129.04
				c14-13.1,27.7-26.5,41.12-40.19c-10.61-10.61-21.21-21.21-31.82-31.82c-38.16,45.03-76.32,90.05-114.47,135.08
				c-10.77,12.71-21.54,25.42-32.31,38.12c-3.75,4.43-6.86,9.83-6.59,15.91c0.23,5.08,1.71,9.59,4.83,13.63
				c6.48,8.38,19.65,12.06,29.03,5.8c41.45-27.69,82.9-55.39,124.36-83.08c-10.26-10.26-20.52-20.52-30.78-30.78
				c-34.1,44.66-68.2,89.32-102.29,133.98c-9.62,12.6-19.23,25.19-28.85,37.79c-0.76,1.79-1.51,3.58-2.27,5.37
				c-0.94,2.99-1.07,5.98-0.4,8.97c0.63,4.72,2.57,9.6,6.19,12.92c2.87,2.64,6.22,4.59,9.93,5.79c4.94,1.6,13.02,0.81,17.34-2.27
				c41.04-29.25,82.08-58.5,123.11-87.76c-10.26-10.26-20.52-20.52-30.78-30.78c-23.21,44.3-46.42,88.61-69.62,132.91
				c-6.59,12.58-13.18,25.16-19.77,37.74c-4.27,8.14-3.95,17.6,1.76,24.99c2.45,3.18,5.3,5.37,9,6.93
				c4.33,1.83,10.09,2.82,14.65,1.13c29.59-10.96,59.19-21.92,88.78-32.87c-9.23-9.23-18.45-18.45-27.68-27.68
				c-9.94,25.94-19.88,51.87-29.83,77.81c-2.8,7.29,0.53,16.64,5.79,21.89c5.43,5.43,14.4,8.31,21.89,5.79
				c6.82-2.3,13.65-4.6,20.47-6.9c-8.47-11.02-16.94-22.04-25.41-33.05c-9.28,12.38-13.65,29.83-12.21,45.16
				c1.65,17.62,8.19,34.47,21.28,46.82c8.57,8.08,23.44,9.13,31.82,0c8.05-8.77,9.14-23.19,0-31.82c-1.85-1.74-3.54-3.61-5.09-5.62
				c1.17,1.52,2.35,3.04,3.52,4.55c-2.36-3.17-4.28-6.56-5.84-10.18c0.76,1.79,1.51,3.58,2.27,5.37c-1.72-4.19-2.88-8.52-3.52-13.01
				c0.27,1.99,0.54,3.99,0.8,5.98c-0.57-4.5-0.6-8.99-0.07-13.49c-0.27,1.99-0.54,3.99-0.8,5.98c0.6-4.48,1.74-8.8,3.47-12.97
				c-0.76,1.79-1.51,3.58-2.27,5.37c1.47-3.37,3.29-6.51,5.49-9.45c2.12-2.83,3.07-7.91,3.07-11.36c0-5.01-1.81-9.72-4.83-13.63
				c-5.23-6.77-15.13-10.94-23.65-8.06c-6.82,2.3-13.65,4.6-20.47,6.9c9.23,9.23,18.45,18.45,27.68,27.68
				c9.94-25.94,19.88-51.87,29.83-77.81c2.8-7.29-0.53-16.64-5.79-21.89c-5.3-5.3-14.54-8.51-21.89-5.79
				c-29.59,10.96-59.19,21.92-88.78,32.87c8.47,11.02,16.94,22.03,25.41,33.05c23.21-44.3,46.42-88.61,69.62-132.91
				c6.59-12.58,13.18-25.16,19.77-37.74c4.49-8.58,4.02-20.35-3.52-27.27c-2.87-2.64-6.22-4.59-9.93-5.79
				c-4.94-1.6-13.02-0.81-17.34,2.27c-41.04,29.25-82.08,58.5-123.11,87.76c10.26,10.26,20.52,20.52,30.78,30.78
				c34.1-44.66,68.2-89.32,102.29-133.98c9.62-12.6,19.23-25.19,28.85-37.79c0.76-1.79,1.51-3.58,2.27-5.37
				c0.94-2.99,1.07-5.98,0.4-8.97c-0.63-4.72-2.57-9.6-6.19-12.92c-7.08-6.5-18.77-9.19-27.27-3.52
				c-41.45,27.69-82.9,55.39-124.36,83.08c9.09,11.78,18.18,23.56,27.27,35.34c38.16-45.03,76.32-90.05,114.47-135.08
				c10.77-12.71,21.54-25.42,32.31-38.12c3.93-4.64,6.59-9.64,6.59-15.91c0-5.52-2.45-12.11-6.59-15.91
				c-8.91-8.18-23.02-8.98-31.82,0c-33.15,33.82-68.09,65.88-104.67,95.96c-10.45,8.6-21.03,17.03-31.74,25.3
				c1.52-1.17,3.04-2.35,4.55-3.52c-19.94,15.39-40.3,30.21-61.07,44.45c10.26,10.26,20.52,20.52,30.78,30.78
				c9.42-18.33,20.77-35.55,33.35-51.86c-1.17,1.52-2.35,3.04-3.52,4.55c28.37-36.61,62.35-68.27,95.37-100.57
				c16.62-16.26,33.08-32.73,48.53-50.12c17.88-20.14,34.53-41.47,49.76-63.67c16.25-23.68,30.78-48.52,43.51-74.27
				c5.02-10.15,3.45-21.88-5.8-29.03c-9.11-7.04-21.12-5.83-29.54,1.76c-28.33,25.5-55.72,52.04-82.08,79.56
				c-26.36,27.52-51.71,56.03-75.96,85.43c-14.67,17.78-28.91,35.91-42.84,54.28c-3.15,4.16-3.82,12.55-2.27,17.34
				c1.53,4.74,4.1,8.63,8.06,11.69c8.28,6.4,22.22,6.77,29.54-1.76c45.29-52.74,90.59-105.48,135.88-158.23
				c12.86-14.98,25.73-29.96,38.59-44.94c3.94-4.59,6.59-9.68,6.59-15.91c0-5.52-2.45-12.11-6.59-15.91
				c-4.29-3.94-9.92-6.86-15.91-6.59C666.67,548.97,660.32,550.81,656.46,555.3L656.46,555.3z"/>
		</g>
	</g>
	<g>
		<g>
			<path class="st1" d="M729.56,531.53c-4.03,2.63-8.06,5.26-12.09,7.89c7.57,12.95,15.14,25.9,22.71,38.86
				c27.71-20.64,55.41-41.29,83.12-61.93c-9.09-11.78-18.18-23.56-27.27-35.34c-43.4,47.82-86.79,95.64-130.19,143.45
				c-7.91,8.72-9.25,23.33,0,31.82c9.4,8.63,22.42,8.38,31.82,0c14.14-12.62,28.51-25,43.11-37.1c7.3-6.05,14.65-12.03,22.06-17.94
				c3.4-2.72,6.82-5.42,10.25-8.11c1.81-1.42,3.63-2.84,5.45-4.26c1.09-0.85,4.04-3.24-0.3,0.22c1.2-0.96,2.44-1.88,3.66-2.81
				c29.69-22.76,60.2-44.43,91.47-64.96c17.99-11.81,36.23-23.24,54.7-34.29c-9.09-11.78-18.18-23.56-27.27-35.34
				c-62.44,66.31-124.89,132.61-187.33,198.92c-17.51,18.6-35.03,37.2-52.54,55.8c-8.07,8.57-9.14,23.43,0,31.82
				c9.24,8.49,22.61,8.58,31.82,0c26.22-24.43,52.45-48.85,79.26-72.63c13.3-11.79,26.75-23.43,40.4-34.81
				c6.92-5.77,13.89-11.47,20.92-17.1c3.41-2.73,6.84-5.45,10.29-8.14c1.62-1.27,3.27-2.5,4.87-3.79c-0.45,0.36-4.02,3.08-0.89,0.69
				c1.23-0.94,2.45-1.88,3.68-2.81c15.97-12.15,32.29-23.85,49-34.98c-9.09-11.78-18.18-23.56-27.27-35.34
				c-60.49,78.22-127.89,151.06-201.25,217.37c-20.85,18.85-42.18,37.16-63.96,54.93c-4.03,3.29-6.82,10.86-6.59,15.91
				c0.23,5.08,1.71,9.59,4.83,13.63c6.89,8.92,19.11,11.29,29.03,5.8c54.11-29.96,108.21-59.92,162.32-89.89
				c15.29-8.46,30.57-16.93,45.86-25.39c-9.09-11.78-18.18-23.56-27.27-35.34c-49.72,50.29-99.43,100.57-149.15,150.86
				c-14.09,14.25-28.19,28.51-42.28,42.76c-7.91,8-8.57,20.73-1.76,29.54c7.07,9.16,18.88,10.93,29.03,5.8
				c58.37-29.53,116.74-59.06,175.11-88.58c-9.09-11.78-18.18-23.56-27.27-35.34c-54.64,45.27-109.28,90.55-163.92,135.82
				c-15.37,12.73-30.74,25.47-46.1,38.2c-4.02,3.33-6.82,10.82-6.59,15.91c0.23,5.08,1.71,9.59,4.83,13.63
				c7.15,9.25,18.8,10.78,29.03,5.8c55.2-26.93,110.41-53.86,165.61-80.79c-9.09-11.78-18.18-23.56-27.27-35.34
				c-41.65,37.79-83.3,75.57-124.95,113.36c-11.96,10.85-23.92,21.7-35.88,32.55c-8.3,7.53-8.28,21.1-1.76,29.54
				c7.29,9.44,18.63,10.49,29.03,5.8c58.23-26.32,116.45-52.64,174.68-78.96c-9.09-11.78-18.18-23.56-27.27-35.34
				c-49.36,40.19-98.73,80.38-148.09,120.57c-14.01,11.41-28.02,22.81-42.04,34.22c-4.03,3.28-6.82,10.86-6.59,15.91
				c0.23,5.08,1.71,9.59,4.83,13.63c6.72,8.7,19.32,11.6,29.03,5.8c23.18-13.88,47.26-26.12,72.07-36.78
				c1.17-0.5,3.96-1.42-1.23,0.52c0.7-0.26,1.39-0.58,2.08-0.86c1.39-0.57,2.77-1.14,4.16-1.7c3.24-1.31,6.5-2.6,9.77-3.85
				c6.3-2.42,12.64-4.73,19.02-6.93c12.76-4.41,25.67-8.38,38.69-11.9c14.96-4.05,30.08-7.48,45.31-10.35
				c-5.78-13.71-11.56-27.42-17.34-41.12c-42.63,30.14-81.79,65.04-115.85,104.64c-10.28,11.95-20.05,24.32-29.5,36.92
				c-2.12,2.82-3.07,7.91-3.07,11.36c0,5.01,1.81,9.72,4.83,13.63c4.95,6.41,15.47,11.47,23.65,8.06
				c44.33-18.48,88.66-36.97,133-55.45c-7.3-12.54-14.59-25.07-21.89-37.61c-37.43,38.74-74.86,77.47-112.29,116.21
				c-6.69,6.93-8.95,18.83-3.52,27.27c5.05,7.83,15.94,13.97,25.41,10.34c40.1-15.36,80.21-30.72,120.31-46.07
				c-8.47-11.02-16.94-22.04-25.41-33.05c-17.48,24.75-34.95,49.5-52.43,74.26c-10.06,14.25,3.45,33.96,19.43,33.86
				c21.6-0.13,43.19-0.27,64.79-0.4c-7.23-9.49-14.46-18.99-21.7-28.48c-3.74,10.9-7.48,21.79-11.22,32.69
				c-3.09,9,1.97,20.99,10.34,25.41c9.52,5.03,19.16,3.07,27.27-3.52c2.4-1.95,4.79-3.89,7.19-5.84c4.2-3.42,6.59-10.73,6.59-15.91
				c0-5.52-2.45-12.11-6.59-15.91c-4.29-3.94-9.92-6.86-15.91-6.59c-6.3,0.28-11.04,2.63-15.91,6.59c-2.4,1.95-4.79,3.89-7.19,5.84
				c12.54,7.3,25.07,14.59,37.61,21.89c3.74-10.9,7.48-21.79,11.22-32.69c4.78-13.93-7.8-28.57-21.7-28.48
				c-21.6,0.13-43.19,0.27-64.79,0.4c6.48,11.29,12.95,22.57,19.43,33.86c17.48-24.75,34.95-49.5,52.43-74.26
				c5.14-7.28,3.3-18.43-1.76-24.99c-5.07-6.56-15.33-11.25-23.65-8.06c-40.1,15.36-80.21,30.72-120.31,46.07
				c7.3,12.54,14.59,25.07,21.89,37.61c37.43-38.74,74.86-77.47,112.29-116.21c6.69-6.93,8.95-18.83,3.52-27.27
				c-2.1-3.25-4.82-5.97-8.07-8.07c-4.22-2.72-12.54-4.27-17.34-2.27c-44.33,18.48-88.66,36.97-133,55.45
				c8.47,11.02,16.94,22.03,25.41,33.05c0.87-1.17,1.75-2.33,2.63-3.49c0.44-0.58,0.89-1.16,1.32-1.74c1.49-1.98-1.34,1.72-1.3,1.67
				c1.97-2.47,3.88-4.97,5.86-7.44c3.94-4.93,7.96-9.8,12.05-14.6c7.87-9.24,16.02-18.25,24.42-27
				c16.98-17.69,35.02-34.36,53.99-49.89c2.82-2.31,5.66-4.59,8.52-6.84c1.33-1.05,2.7-2.07,4.01-3.14c0.05-0.04-3.65,2.79-1.67,1.3
				c0.77-0.59,1.54-1.18,2.32-1.77c5.61-4.26,11.3-8.41,17.04-12.47c9.23-6.53,13.81-17.19,9.21-28.1
				c-4.56-10.82-15.36-15.14-26.54-13.03c-55.48,10.46-109.32,28.93-159.86,54.07c-13.88,6.9-27.46,14.37-40.76,22.33
				c9.09,11.78,18.18,23.56,27.27,35.34c49.36-40.19,98.73-80.38,148.09-120.57c14.01-11.41,28.02-22.81,42.04-34.22
				c4.03-3.28,6.82-10.86,6.59-15.91c-0.23-5.08-1.71-9.59-4.83-13.63c-7.29-9.44-18.63-10.49-29.03-5.8
				c-58.23,26.32-116.45,52.64-174.68,78.96c9.09,11.78,18.18,23.56,27.27,35.34c41.65-37.79,83.3-75.57,124.95-113.36
				c11.96-10.85,23.92-21.7,35.88-32.55c8.3-7.53,8.28-21.1,1.76-29.54c-7.15-9.25-18.8-10.78-29.03-5.8
				c-55.21,26.93-110.41,53.86-165.61,80.79c9.09,11.78,18.18,23.56,27.27,35.34c54.64-45.27,109.28-90.55,163.92-135.82
				c15.37-12.73,30.74-25.47,46.1-38.2c4.02-3.33,6.82-10.82,6.59-15.91c-0.23-5.08-1.71-9.59-4.83-13.63
				c-7.07-9.16-18.88-10.93-29.03-5.8c-58.37,29.53-116.74,59.06-175.11,88.58c9.09,11.78,18.18,23.56,27.27,35.34
				c49.72-50.29,99.43-100.57,149.15-150.86c14.09-14.25,28.19-28.51,42.28-42.76c7.91-8,8.57-20.73,1.76-29.54
				c-6.89-8.92-19.11-11.29-29.03-5.8c-54.11,29.96-108.21,59.92-162.32,89.89c-15.29,8.46-30.57,16.93-45.86,25.39
				c9.09,11.78,18.18,23.56,27.27,35.34C716.21,770.9,787.25,701.6,851.6,626.52c18.29-21.34,36.03-43.15,53.22-65.39
				c3.65-4.72,6.87-9.57,6.59-15.91c-0.23-5.08-1.71-9.59-4.83-13.63c-6.48-8.39-19.64-12.05-29.03-5.8
				c-61.21,40.81-117.1,88.95-171.26,138.58c-15.2,13.93-30.29,27.99-45.38,42.05c10.61,10.61,21.21,21.21,31.82,31.82
				c62.44-66.31,124.89-132.61,187.33-198.92c17.51-18.6,35.03-37.2,52.54-55.8c7.73-8.21,8.7-20.57,1.76-29.54
				c-6.72-8.7-19.32-11.6-29.03-5.8C838.61,488.13,775,533.15,714.88,582.47c-16.64,13.65-32.98,27.66-49.04,41.99
				c10.61,10.61,21.21,21.21,31.82,31.82c43.4-47.82,86.79-95.64,130.19-143.45c7.58-8.36,8.79-20.44,1.76-29.54
				c-6.22-8.06-20.01-12.51-29.03-5.8c-27.71,20.64-55.41,41.29-83.12,61.93c-4.87,3.63-8.66,7.36-10.34,13.45
				c-1.48,5.39-0.81,12.56,2.27,17.34c6.34,9.83,20.24,14.95,30.78,8.07c4.03-2.63,8.06-5.26,12.09-7.89
				c9.85-6.42,14.88-20.22,8.07-30.78C754,529.77,740.1,524.65,729.56,531.53L729.56,531.53z"/>
		</g>
	</g>
	<g>
		<g>
			<path class="st1" d="M1216.66,823.5c3.1,0.12,5.99-0.53,8.67-1.94c2.79-0.91,5.2-2.46,7.24-4.65c2.19-2.04,3.74-4.45,4.65-7.24
				c1.41-2.68,2.05-5.57,1.94-8.67c-0.26-5.82-2.17-11.85-6.59-15.91c-4.4-4.04-9.81-6.59-15.91-6.59c-3.1-0.12-5.99,0.53-8.67,1.94
				c-2.79,0.91-5.2,2.46-7.24,4.65c-2.19,2.04-3.74,4.45-4.65,7.24c-1.41,2.68-2.05,5.57-1.94,8.67c0.26,5.82,2.17,11.85,6.59,15.91
				C1205.15,820.95,1210.56,823.5,1216.66,823.5L1216.66,823.5z"/>
		</g>
	</g>
	<g>
		<g>
			<path class="st1" d="M1451.21,741.46c3.1,0.12,5.99-0.53,8.67-1.94c2.79-0.91,5.2-2.46,7.24-4.65c2.19-2.04,3.74-4.45,4.65-7.24
				c1.41-2.68,2.05-5.57,1.94-8.67c-0.26-5.82-2.17-11.85-6.59-15.91c-4.4-4.04-9.81-6.59-15.91-6.59c-3.1-0.12-5.99,0.53-8.67,1.94
				c-2.79,0.91-5.2,2.46-7.24,4.65c-2.19,2.04-3.74,4.45-4.65,7.24c-1.41,2.68-2.05,5.57-1.94,8.67c0.26,5.82,2.17,11.85,6.59,15.91
				C1439.71,738.91,1445.12,741.46,1451.21,741.46L1451.21,741.46z"/>
		</g>
	</g>
	<g>
		<g>
			<path class="st1" d="M1215.98,831.14c16.48,0,32.26-14.49,31.5-31.5c-0.76-17.07-13.84-31.5-31.5-31.5
				c-16.48,0-32.26,14.49-31.5,31.5C1185.24,816.71,1198.32,831.14,1215.98,831.14L1215.98,831.14z"/>
		</g>
	</g>
	<g>
		<g>
			<path class="st1" d="M1452.23,748.07c16.48,0,32.26-14.49,31.5-31.5c-0.76-17.07-13.84-31.5-31.5-31.5
				c-16.48,0-32.26,14.49-31.5,31.5C1421.5,733.64,1434.57,748.07,1452.23,748.07L1452.23,748.07z"/>
		</g>
	</g>
	<g>
		<g>
			<path class="st1" d="M1523.54,128.23c-0.72,2.53-0.38,2.02,1.01-1.51c-0.45,0.92-0.96,1.81-1.53,2.66
				c2.33-2.86,2.63-3.32,0.89-1.38c-0.72,0.74-1.48,1.43-2.28,2.09c2.5-1.89,3.01-2.32,1.52-1.31c-0.71,0.48-1.43,0.93-2.17,1.36
				c-1.96,1.17-4,2.21-6.04,3.24c-8.35,4.24-16.75,8.38-25.12,12.57c11.17,11.17,22.35,22.35,33.52,33.52
				c1.09-1.83,2.2-3.64,3.4-5.4c0.47-0.7,1.89-3.61,2.79-3.89c-2.22,2.85-2.5,3.25-0.84,1.22c0.69-0.81,1.38-1.62,2.1-2.41
				c1.25-1.38,2.54-2.72,3.87-4.03c1.33-1.31,2.69-2.57,4.1-3.8c0.8-0.7,1.62-1.38,2.44-2.06c-2.67,2.01-3.27,2.47-1.81,1.38
				c3.27-2.32,6.55-4.52,10.04-6.51c11.14-6.35,15.91-22.48,8.79-33.52c-7.25-11.25-21.6-15.58-33.52-8.79
				c-18,10.26-33.09,25.25-43.65,43.07c-5.34,9.01-4.09,22.42,3.83,29.69c8.41,7.72,19.56,8.9,29.69,3.83
				c21.72-10.87,49.78-20.59,56.24-47.01c3.04-12.43-3.96-27.14-17.11-30.14C1541.04,108.24,1526.8,114.92,1523.54,128.23
				L1523.54,128.23z"/>
		</g>
	</g>
	<g>
		<g>
			<path class="st1" d="M993.08,227.66c-8.4-8.49-18.78-15.92-31.53-11.82c-7.8,2.51-13.72,7.61-16.89,15.11
				c-3,7.12-3.03,16.75,1.69,23.27c7.23,9.98,18.62,15.08,30.59,10.02c11.51-4.86,16.88-16.83,14.19-28.9
				c0.59,2.31,0.56,4.62-0.1,6.92c0.79-2.51,0.57-2-0.66,1.53c-0.65,0.82-1.29,1.64-1.94,2.45c1.9-1.79,1.42-1.52-1.42,0.81
				c0.61-0.13,3.59-1.88,4.09-2.28c-3.45,1.41-3.94,1.66-1.47,0.76c8.43-2.25,2.16-5.23-18.83-8.94c-1.11-4.12-2.23-8.24-3.34-12.37
				c0.11-1.95,0.61-3.78,1.49-5.48c0.94-2.01,0.94-2.13,0-0.37c-1.11,1.62-2.07,3.43-3.08,5.11c-2.06,3.41-4.11,6.82-6.17,10.22
				c-5.4,8.96-4.04,22.46,3.83,29.69c3.13,2.87,6.77,4.99,10.81,6.3c5.18,1.68,14.39,0.98,18.88-2.47
				c9.17-7.04,18.34-14.09,27.51-21.13c5.29-4.07,9.41-7.93,11.26-14.64c1.61-5.86,0.89-13.67-2.47-18.88
				c-6.45-10.01-22.65-17.14-33.52-8.79c-9.17,7.04-18.34,14.09-27.51,21.13c11.17,11.17,22.35,22.35,33.52,33.52
				c4.92-8.15,11.83-16.94,13.7-26.41c3.74-18.94-10.21-35.98-29.66-35.38c-11.13,0.34-23.19,6.2-31.15,13.85
				c-10.4,9.99-14.11,23.97-11.01,37.88c14.93-6.29,29.85-12.59,44.78-18.88c-0.15-0.21-0.31-0.43-0.46-0.64
				c1.11,4.12,2.23,8.24,3.34,12.37c0-0.27,0.01-0.55,0.01-0.82c-1.11,4.12-2.23,8.24-3.34,12.37c0.15-0.24,0.29-0.47,0.44-0.71
				c-4.88,3.75-9.76,7.51-14.64,11.26c0.38-0.14,0.76-0.29,1.14-0.43c-4.34,0-8.68,0-13.03,0c-7.66-5.42-9.76-6.48-6.29-3.2
				c0.87,0.88,1.74,1.75,2.6,2.63c9.03,9.12,25.73,9.71,34.65,0C1002.1,252.49,1002.71,237.4,993.08,227.66L993.08,227.66z"/>
		</g>
	</g>
	<g>
		<g>
			<path class="st1" d="M1029.77,230.39c2.69,0,5.52-1.17,7.42-3.08c1.82-1.82,3.19-4.81,3.08-7.42c-0.25-5.69-4.61-10.5-10.5-10.5
				c-2.69,0-5.52,1.17-7.42,3.08c-1.82,1.82-3.19,4.81-3.08,7.42C1019.52,225.58,1023.88,230.39,1029.77,230.39L1029.77,230.39z"/>
		</g>
	</g>
	<g>
		<g>
			<path class="st1" d="M1032.49,230.22c2.69,0,5.52-1.17,7.42-3.08c1.82-1.82,3.19-4.81,3.08-7.42c-0.25-5.69-4.61-10.5-10.5-10.5
				c-2.69,0-5.52,1.17-7.42,3.08c-1.82,1.82-3.19,4.81-3.08,7.42C1022.24,225.41,1026.6,230.22,1032.49,230.22L1032.49,230.22z"/>
		</g>
	</g>
	<g>
		<g>
			<path class="st1" d="M1478.96,166.46c-0.74,1.17-1.53,2.3-2.38,3.39c0.55-0.71,1.09-1.42,1.64-2.13
				c-2.14,2.73-4.58,5.17-7.3,7.32c0.71-0.55,1.42-1.09,2.13-1.64c-0.55,0.42-1.1,0.83-1.67,1.23c5.14,3.95,10.28,7.91,15.42,11.86
				c0.54-2.78,1.09-5.56,1.63-8.34c0.52-2.64,0.83-5.44,1.81-7.95c-0.35,0.84-0.71,1.67-1.06,2.51c0.28-0.61,0.59-1.16,0.99-1.69
				c-0.55,0.71-1.09,1.42-1.64,2.13c0.25-0.29,0.5-0.54,0.79-0.8c-0.71,0.55-1.42,1.09-2.13,1.64c0.31-0.23,0.6-0.41,0.94-0.59
				c-0.84,0.35-1.67,0.71-2.51,1.06c0.12-0.05,0.23-0.09,0.35-0.14c-3.95-5.14-7.91-10.28-11.86-15.42
				c-4.25,7.24-8.94,14.21-14.07,20.86c0.55-0.71,1.09-1.42,1.64-2.13c-2.15,2.78-4.37,5.5-6.66,8.16c-1.76,2.05-3.2,4.61-3.08,7.42
				c0.11,2.37,0.8,4.47,2.25,6.36c1.34,1.74,3.26,3.26,5.45,3.76c2.89,0.66,5.41,0.2,8.09-1.06c2.89-1.36,5.81-2.67,8.76-3.92
				c-0.84,0.35-1.67,0.71-2.51,1.06c5.31-2.23,10.7-4.27,16.16-6.1c2.59-0.87,4.87-2.42,6.28-4.83c1.32-2.25,1.88-5.57,1.06-8.09
				c-0.82-2.54-2.4-4.99-4.83-6.28c-2.42-1.28-5.41-1.96-8.09-1.06c-9.35,3.14-18.51,6.87-27.42,11.07
				c4.24,5.5,8.48,10.99,12.72,16.49c8.34-9.7,15.9-20.1,22.37-31.14c2.14-3.66,1.73-8.35-0.82-11.66c-1.15-1.48-2.47-2.51-4.2-3.23
				c-1.97-0.83-4.77-1.36-6.84-0.53c-2.56,1.03-4.01,1.64-6.06,3.55c-1.09,1.01-2.07,2.3-2.83,3.58c-1.37,2.31-2.05,4.85-2.56,7.45
				c-0.8,4.09-1.6,8.18-2.4,12.26c-0.83,4.24,0.24,8.31,3.76,11.04c1.51,1.17,3.08,1.81,4.97,2.07c2.16,0.29,4.85,0.07,6.7-1.25
				c6.07-4.31,11.11-9.41,15.11-15.71c2.95-4.64,1.12-11.78-3.77-14.37C1488.14,159.95,1482.11,161.5,1478.96,166.46L1478.96,166.46
				z"/>
		</g>
	</g>
	<g>
		<g>
			<path class="st1" d="M1460.01,197.77c-6.98,2.26-13.37,5.97-18.78,10.92c1.83,1.41,3.66,2.83,5.5,4.24
				c3.41-4.88,6.82-9.76,10.23-14.64c1.05-1.51,0.32-3.95-1.26-4.79c-1.79-0.95-3.67-0.35-4.79,1.26
				c-3.41,4.88-6.82,9.76-10.23,14.64c-0.48,0.68-0.6,1.92-0.35,2.7c0.24,0.74,0.64,1.34,1.25,1.82c1.41,1.09,3.29,0.91,4.6-0.27
				c0.6-0.55,1.22-1.09,1.85-1.61c0.29-0.24,0.67-0.46,0.92-0.74c-0.43,0.33-0.49,0.38-0.2,0.16c0.06-0.04,0.11-0.09,0.17-0.13
				c0.17-0.13,0.34-0.26,0.51-0.38c1.32-0.97,2.7-1.86,4.11-2.69c1.42-0.82,2.88-1.57,4.37-2.24c0.16-0.07,0.33-0.14,0.49-0.22
				c0.73-0.32-0.37,0.15-0.05,0.02c0.36-0.15,0.73-0.29,1.09-0.43c0.8-0.31,1.61-0.59,2.42-0.85c1.74-0.56,3.04-2.45,2.44-4.31
				C1463.76,198.47,1461.88,197.16,1460.01,197.77L1460.01,197.77z"/>
		</g>
	</g>
</g>
<g id="Слой_1">
	<g>
		<g>
			<path class="st1" d="M391.16,909.66c37.3-92.19,93.08-176.65,162.62-247.7c71.37-72.92,157.07-131.47,251.47-170.35
				c101.5-41.81,211.93-61.51,321.62-57.53c53.8,1.96,107.75,9.32,159.71,23.58c49.41,13.55,97.5,33.85,138.98,64.28
				c87.04,63.85,130.73,172.4,142.31,277.03c11.6,104.79-9.21,213.35-61.1,305.34c-47.49,84.19-120.33,153.2-205.71,198.18
				c-42.5,22.39-88.17,38.8-135.31,48.16c-57.54,11.42-116.81,12.19-175.02,6c-59.66-6.34-118.38-19.99-175.74-37.33
				c-55.13-16.67-110.25-36.02-156.93-70.69c-44.49-33.05-81.93-75.52-119.61-115.87c-36.99-39.62-72.97-80.6-102.39-126.28
				c-14.44-22.43-27.21-45.93-37.56-70.53c-1.23-2.92-6.07-1.64-4.82,1.33c21.14,50.23,51.93,95.41,86.51,137.3
				c35.6,43.13,74.51,83.9,113.83,123.64c19.79,20,40.44,39.26,63.15,55.93c23.12,16.98,48.44,30.43,74.85,41.52
				c27.25,11.44,55.43,20.58,83.71,29.08c29.2,8.78,58.72,16.55,88.55,22.91c110.97,23.68,227.54,26.71,335.38-12.55
				c91.33-33.25,173.01-92.66,232.43-169.62c64.04-82.94,99.59-185.56,103.53-290.09c2-53.11-4.09-106.61-18.51-157.79
				c-14.64-52-37.51-102.73-71.41-145.09c-66.23-82.75-171.7-120.14-273.37-135.48c-110.21-16.62-223.89-8.59-330.87,22.56
				c-101.56,29.58-196.2,80.26-277.05,148.46c-76.91,64.88-141.16,144.87-187.64,234.13c-11.21,21.53-21.34,43.61-30.44,66.11
				C385.13,911.31,389.96,912.6,391.16,909.66L391.16,909.66z"/>
		</g>
	</g>
	<g>
		<g>
			<path class="st1" d="M1224.35,440.01c-55.59,17-87.56,70.55-110.79,120.12c-14.68,31.33-28.08,63.34-41.05,95.41
				c-13.89,34.35-26.87,69.08-38.3,104.33c-22.36,68.95-38.82,140.18-44.08,212.6c-4.61,63.47-0.04,127.92,15.47,189.72
				c15.26,60.79,41.49,119.11,79.99,168.78c4.73,6.1,9.64,12.06,14.71,17.89c2.12,2.43,5.64-1.12,3.54-3.54
				c-41.03-47.16-69.99-103.67-87.68-163.46c-17.75-59.98-24.53-122.97-22.32-185.4c2.49-70.59,16.57-140.43,36.71-207.99
				c20.63-69.2,47.71-136.28,76.75-202.32c21.91-49.83,48.08-107.17,98.92-133.44c6.24-3.23,12.75-5.82,19.47-7.88
				C1228.75,443.89,1227.44,439.06,1224.35,440.01L1224.35,440.01z"/>
		</g>
	</g>
	<g>
		<g>
			<path class="st1" d="M1406.99,498.54c-5.54-19.74-9.4-39.94-11.47-60.34c-2.07-20.31-2.46-40.79-1.23-61.17
				c1.23-20.48,4.12-40.85,8.58-60.88c4.44-19.96,10.44-39.57,17.93-58.59c7.51-19.08,16.57-37.56,27.06-55.18
				c10.43-17.53,22.28-34.22,35.51-49.75c6.78-7.97,13.86-15.77,21.48-22.96c7.92-7.48,16.93-14.34,27.6-17.24
				c8.44-2.29,18.03-1.4,25.62,3.08c8.15,4.81,12.25,13.68,10.82,23.03c-3.55,23.2-28.66,32.22-47.45,40.19
				c-24.49,10.38-48.99,20.76-73.48,31.15c-5.94,2.52-11.89,5.04-17.83,7.56c-1.25,0.53-1.5,2.36-0.9,3.42
				c0.74,1.29,2.18,1.42,3.42,0.9c25.21-10.68,50.41-21.37,75.62-32.05c11.7-4.96,23.67-9.53,35.05-15.2
				c9.9-4.94,19.46-11.47,25.29-21.1c5.44-8.98,7.54-20.29,3.14-30.11c-3.8-8.48-12.22-13.96-21.07-16
				c-22.22-5.14-41.05,10.05-55.54,24.98c-14.72,15.17-28.06,31.7-39.91,49.2c-11.84,17.48-22.17,35.98-30.94,55.19
				c-8.78,19.25-16.03,39.19-21.62,59.59c-5.62,20.51-9.57,41.47-11.85,62.62c-2.26,21-2.81,42.18-1.58,63.27
				c1.23,21.09,4.23,42.11,9.05,62.68c1.18,5.05,2.48,10.07,3.89,15.06C1403.04,502.96,1407.87,501.64,1406.99,498.54
				L1406.99,498.54z"/>
		</g>
	</g>
	<g>
		<g>
			<path class="st1" d="M1235.15,528.31c0.99-21.52-0.35-43.1-3.78-64.37c-3.41-21.1-8.93-41.86-16.33-61.91
				c-7.47-20.22-16.81-39.75-27.86-58.25c-11.01-18.43-23.73-35.87-37.92-51.99c-14.22-16.16-29.96-30.95-47-44.11
				c-16.92-13.07-35.1-24.49-54.31-33.87c-22.08-10.78-47.72-21.68-72.73-16.16c-19.85,4.38-38.52,23.6-35.44,45.04
				c2.85,19.8,23.7,29.39,41.89,28.32c22.75-1.34,39.71-18.32,52.69-35.51c3.44-4.55,6.7-9.24,9.94-13.93
				c1.83-2.65-2.5-5.16-4.32-2.52c-6.45,9.34-12.99,18.68-20.87,26.9c-7.27,7.58-16,14.56-26.1,17.89
				c-15.45,5.1-36.86,1.96-45.43-13.43c-9.96-17.9,4.92-38.75,21.62-45.69c11.17-4.65,24.06-4.2,35.69-1.73
				c12.03,2.56,23.53,7.21,34.66,12.36c18.76,8.67,36.61,19.27,53.28,31.47c16.75,12.26,32.29,26.2,46.43,41.39
				c14.08,15.11,26.76,31.5,37.89,48.89c11.17,17.45,20.84,35.9,28.7,55.07c7.87,19.19,14,39.1,18.18,59.42
				c4.17,20.25,6.37,40.89,6.44,61.57c0.02,5.06-0.09,10.11-0.33,15.17C1230,531.53,1235,531.52,1235.15,528.31L1235.15,528.31z"/>
		</g>
	</g>
	<g>
		<g>
			<path class="st1" d="M1087.94,1363.56c13.95,15.91,36.86,16.43,55.15,24.3c4.46,1.92,8.8,4.32,12.47,7.52
				c4.15,3.62,7.36,8.11,9.55,13.16c4.52,10.43,4.67,22.5,2.09,33.43c-3.51,14.86-11.36,28.15-19.03,41.17
				c-1.64,2.78,2.68,5.3,4.32,2.52c7.08-12,14.22-24.2,18.26-37.63c3.55-11.79,4.4-24.63,0.76-36.52c-1.74-5.66-4.49-10.96-8.3-15.5
				c-3.45-4.13-7.84-7.46-12.55-10.03c-9.31-5.09-19.76-7.51-29.87-10.43c-10.72-3.1-21.73-6.9-29.3-15.53
				c-0.89-1.02-2.62-0.91-3.54,0C1086.93,1361.03,1087.04,1362.54,1087.94,1363.56L1087.94,1363.56z"/>
		</g>
	</g>
	<g>
		<g>
			<path class="st1" d="M1052.67,1388.81c8.28,1.96,16.54,4.14,24.5,7.17c7.53,2.86,14.99,6.59,21.12,11.89
				c6.37,5.51,11.01,12.61,12.84,20.89c2.28,10.27,0.25,21.13-3.69,30.73c-4.59,11.18-11.82,21.08-18.85,30.81
				c-0.79,1.1-0.19,2.79,0.9,3.42c1.26,0.74,2.63,0.2,3.42-0.9c12.83-17.76,26.74-37.98,23.78-61.09
				c-1.22-9.54-5.51-18.23-12.31-25.04c-6.11-6.12-13.74-10.49-21.65-13.84c-9.25-3.92-18.96-6.56-28.71-8.87
				C1050.87,1383.25,1049.53,1388.07,1052.67,1388.81L1052.67,1388.81z"/>
		</g>
	</g>
	<g>
		<g>
			<path class="st1" d="M629.32,1248.95c14.36,14.84,14.32,37.57,7.08,55.78c-8.42,21.21-27.43,35.38-47.29,45.19
				c-12.08,5.97-24.78,10.55-37.5,14.97c-1.27,0.44-2.12,1.71-1.75,3.08c0.34,1.24,1.79,2.19,3.08,1.75
				c23.37-8.13,47.39-16.99,66.36-33.42c8.58-7.43,15.75-16.31,20.41-26.7c4.48-9.97,6.97-20.96,6.44-31.92
				c-0.58-11.98-4.89-23.58-13.31-32.27C630.61,1243.1,627.07,1246.64,629.32,1248.95L629.32,1248.95z"/>
		</g>
	</g>
	<g>
		<g>
			<path class="st1" d="M600.26,1224.27c2.2,16.76,4.52,34.5-1.06,50.86c-4.54,13.32-14.93,23.98-27.61,29.85
				c-7.02,3.25-14.77,4.84-22.49,4.61c-3.22-0.1-3.22,4.9,0,5c14.98,0.46,29.78-5.65,40.62-15.9c5.32-5.03,9.72-11.13,12.61-17.86
				c3.56-8.28,5.04-17.23,5.27-26.2c0.26-10.17-1.02-20.3-2.34-30.37c-0.18-1.34-1.02-2.5-2.5-2.5
				C601.54,1221.77,600.08,1222.92,600.26,1224.27L600.26,1224.27z"/>
		</g>
	</g>
	<g>
		<g>
			<path class="st1" d="M1202.81,799c-1.22-9.13,6.59-18.08,15.86-17.98c9.16,0.09,17.31,8.16,17.76,17.25
				c0.47,9.67-6.14,18.74-15.37,21.49c-4.99,1.49-10.34,1.3-15.28-0.3c-4.24-1.37-9.63-4.23-11.06-8.81
				c-0.91-2.92,0.5-5.64,2.08-8.05c1.76-2.68,3.76-5.2,5.88-7.6c4.3-4.87,9.17-9.2,14.54-12.86c-1.14-1.14-2.28-2.28-3.42-3.42
				c-6.59,9-11.54,19.14-14.66,29.85c-0.65,2.24,2.59,4.48,4.18,2.43c7.85-10.13,15.71-20.27,23.56-30.4
				c-1.39-0.81-2.79-1.62-4.18-2.43c-4.67,11.76-9.35,23.52-14.02,35.28c-0.92,2.31,2.61,4.27,4.18,2.43
				c6.65-7.78,13.3-15.57,19.94-23.35c-1.39-0.81-2.79-1.62-4.18-2.43c-3.02,9.18-6.05,18.36-9.07,27.54
				c-1.01,3.06,3.82,4.38,4.82,1.33c3.02-9.18,6.05-18.36,9.07-27.54c0.76-2.31-2.56-4.33-4.18-2.43
				c-6.65,7.78-13.3,15.57-19.94,23.35c1.39,0.81,2.79,1.62,4.18,2.43c4.67-11.76,9.35-23.52,14.02-35.28
				c0.9-2.26-2.67-4.38-4.18-2.43c-7.85,10.13-15.71,20.27-23.56,30.4c1.39,0.81,2.79,1.62,4.18,2.43
				c3.01-10.32,7.81-19.98,14.16-28.65c1.47-2.01-1.42-4.79-3.42-3.42c-5.59,3.82-10.75,8.27-15.27,13.32
				c-2.23,2.5-4.31,5.13-6.23,7.88c-1.94,2.78-3.63,5.85-3.78,9.32c-0.28,6.47,5.25,11.47,10.57,14.12
				c5.74,2.86,12.2,3.88,18.55,2.96c12.14-1.75,21.61-11.77,22.81-23.95c1.14-11.58-7.36-22.9-18.84-25.04
				c-6.6-1.23-13.16,0.81-18.05,5.39c-4.62,4.32-7.49,10.83-6.64,17.2c0.18,1.34,1.02,2.5,2.5,2.5
				C1201.53,801.5,1202.99,800.35,1202.81,799L1202.81,799z"/>
		</g>
	</g>
	<g>
		<g>
			<path class="st1" d="M1441.2,730.73c-2.96-3.44-4.28-8.04-4.03-12.54c0.26-4.55,2.39-8.67,5.82-11.63
				c6.47-5.59,18.14-6.19,23.31,1.56c6.02,9.02-4.09,19.58-11.08,24.43c-3.68,2.55-9.49,4.83-13.27,1.14
				c-3.29-3.22-2.97-8.37-1.58-12.37c1.04-2.98,2.68-5.85,4.37-8.52c0.33-0.52,0.69-1.04,1.17-1.43c0.53-0.43,0.6-0.08,0.25-0.35
				c0.73,0.56,0.98,2.05,1.27,2.91c2.29,6.81,4.57,13.62,6.86,20.44c0.94,2.79,4.6,2.09,4.91-0.66c1.15-10.07,2.3-20.14,3.45-30.21
				c-1.55,0.42-3.11,0.84-4.66,1.26c1.53,2.51,3.07,5.03,4.6,7.54c1.67,2.74,6,0.23,4.32-2.52c-1.53-2.51-3.07-5.03-4.6-7.54
				c-1.39-2.27-4.39-1.1-4.66,1.26c-1.15,10.07-2.3,20.14-3.45,30.21c1.64-0.22,3.27-0.44,4.91-0.66
				c-2.44-7.28-4.81-14.58-7.32-21.83c-1.05-3.02-3.34-6.05-6.97-4.87c-3.21,1.05-4.86,4.64-6.37,7.38
				c-3.11,5.65-5.53,12.36-3.06,18.72c1.07,2.75,2.88,5.21,5.51,6.64c3,1.63,6.55,1.84,9.84,1.08c3.31-0.77,6.24-2.62,8.89-4.68
				c2.52-1.96,4.9-4.14,6.96-6.57c4.25-5.01,7.47-11.27,6.21-18c-1.12-5.99-6.04-10.44-11.58-12.46c-5.66-2.07-12.1-1.22-17.36,1.55
				c-5.85,3.08-10.25,8.78-11.34,15.35c-1.13,6.79,0.66,13.69,5.16,18.93c0.88,1.02,2.63,0.9,3.54,0
				C1442.22,733.25,1442.08,731.76,1441.2,730.73L1441.2,730.73z"/>
		</g>
	</g>
	<g>
		<g>
			<path class="st1" d="M1189.2,1034.05c15.68,16.49,37.15,26.64,59.38,30.66c25.48,4.6,51.75,1.35,76.46-5.77
				c20.99-6.04,41.25-14.8,60.06-25.91c18.28-10.8,35.29-23.88,50.24-38.97c14.94-15.07,27.88-32.2,37.96-50.88
				c1.23-2.29,2.42-4.6,3.57-6.93c1.42-2.88-2.89-5.41-4.32-2.52c-9.14,18.56-21.03,35.68-35.06,50.87
				c-14.08,15.24-30.18,28.55-47.68,39.69c-17.54,11.16-36.43,20.18-56.16,26.75c-24.14,8.04-49.79,12.75-75.27,10.06
				c-21.62-2.28-43.23-10.41-59.68-24.86c-2.07-1.82-4.05-3.73-5.95-5.73C1190.51,1028.18,1186.98,1031.72,1189.2,1034.05
				L1189.2,1034.05z"/>
		</g>
	</g>
	<g>
		<g>
			<path class="st1" d="M990.91,434.51c-41.5,38.16-68.99,88.13-90.35,139.69c-10.86,26.2-20.25,52.98-29.47,79.79
				c-10.76,31.31-21.51,62.64-31.56,94.19c-19.99,62.74-37.25,126.62-45.57,192.06c-8.72,68.57-4.39,137.01,2.52,205.52
				c5.86,58.16,9.85,119.8,37.8,172.41c3.4,6.41,7.18,12.6,11.27,18.58c1.81,2.64,6.14,0.14,4.32-2.52
				c-33.53-48.98-40.27-109.64-46.21-167.16c-6.94-67.24-13.49-134.75-7.37-202.33c5.9-65.18,21.62-129.05,40.66-191.53
				c9.57-31.39,20.01-62.51,30.62-93.57c9.4-27.53,18.71-55.11,29.12-82.28c19.99-52.16,44.73-103.99,83.35-145.09
				c4.63-4.92,9.44-9.66,14.41-14.23C996.82,435.87,993.28,432.34,990.91,434.51L990.91,434.51z"/>
		</g>
	</g>
	<g>
		<g>
			<path class="st1" d="M727.59,522.51c-23.34,40.38-43.43,82.6-60.26,126.1c-16.91,43.72-30.51,88.72-40.83,134.44
				c-10.6,46.94-17.76,94.66-21.55,142.62c-3.93,49.88-4.18,100.04-0.77,149.95c3.38,49.45,10.34,98.67,20.85,147.1
				c1.31,6.03,2.68,12.04,4.09,18.05c0.74,3.13,5.56,1.81,4.82-1.33c-11.38-48.26-19.24-97.33-23.45-146.73
				c-4.19-49.17-4.82-98.64-1.87-147.89c2.9-48.39,9.27-96.57,19.14-144.04c9.41-45.27,22-89.88,37.82-133.33
				c15.95-43.82,35.2-86.44,57.76-127.26c2.81-5.08,5.67-10.13,8.57-15.15C733.52,522.24,729.2,519.72,727.59,522.51L727.59,522.51z
				"/>
		</g>
	</g>
	<g>
		<g>
			<path class="st1" d="M1196.09,957.18c5.13,16.24,5.28,33.84,0.44,50.17c-4.38,14.79-12.94,28.1-24.34,38.46
				c-6.26,5.69-13.35,10.4-21,14.01c-1.22,0.58-1.54,2.33-0.9,3.42c0.73,1.25,2.2,1.48,3.42,0.9c14.32-6.76,26.65-17.43,35.66-30.43
				c9.78-14.12,15.14-31.03,15.65-48.18c0.29-10.02-1.09-20.12-4.11-29.67C1199.95,952.8,1195.12,954.1,1196.09,957.18
				L1196.09,957.18z"/>
		</g>
	</g>
	<g>
		<g>
			<path class="st1" d="M864.09,507.44c2.71-39.89,1.64-80.02-3.2-119.72c-4.83-39.68-13.32-78.9-25.48-116.97
				c-9.95-31.15-22.09-62.47-42.54-88.38c-9.43-11.94-20.78-22.52-34.05-30.07c-14.67-8.35-31.3-12.58-48.17-12.58
				c-35.96,0.01-69.16,17.6-94.26,42.47c-12.53,12.41-23.29,26.55-32.74,41.41c-9.46,14.86-17.65,30.51-23.9,46.99
				c-12.01,31.69-17.18,68.23-3.59,100.29c12.93,30.49,40.85,49.71,69.98,63.1c15.63,7.19,31.83,13.04,47.94,19.03
				c19.93,7.4,39.87,14.81,59.8,22.21c39.87,14.81,79.73,29.62,119.6,44.43c9.73,3.61,19.46,7.23,29.19,10.84
				c3.02,1.12,4.32-3.71,1.33-4.82c-39.15-14.54-78.31-29.09-117.46-43.63c-37.9-14.08-75.96-27.77-113.69-42.3
				c-28.79-11.09-58.87-24.49-78.88-48.92c-10.39-12.7-16.97-28.02-19.58-44.19c-2.65-16.39-1.22-33.32,2.47-49.43
				c3.85-16.8,10.14-32.99,17.99-48.31c7.9-15.42,17.28-30.27,27.99-43.9c21.31-27.11,49.26-49.64,83.45-57.46
				c16.92-3.87,34.82-3.94,51.51,1.11c14.39,4.35,27.38,12.44,38.28,22.72c22.44,21.14,36.47,49.98,46.95,78.55
				c13.25,36.12,22.83,73.69,29.1,111.63c6.4,38.75,9.16,78.11,8.26,117.38c-0.22,9.52-0.66,19.03-1.3,28.52
				C858.87,510.65,863.87,510.64,864.09,507.44L864.09,507.44z"/>
		</g>
	</g>
	<g>
		<g>
			<path class="st1" d="M796.64,528.05c0.37-34.46-6.96-68.79-20.98-100.25c-13.72-30.8-34.02-58.56-59.35-80.82
				c-24.34-21.39-52.97-37.81-83.73-47.98c-31.45-10.4-65.27-14.26-98.11-9.23c-31.68,4.85-62.69,18.67-84.47,42.67
				c-19.96,22-32.58,51.67-31.35,81.63c0.6,14.75,4.73,29.13,11.87,42.04c6.9,12.49,16.5,23.39,27.45,32.48
				c22.81,18.95,50.88,30.92,79.25,38.8c35.76,9.94,73.03,14.96,110.12,15.51c37.69,0.56,75.5-3.66,112.13-12.58
				c8.83-2.15,17.59-4.58,26.27-7.27c3.06-0.95,1.76-5.78-1.33-4.82c-35.17,10.91-71.67,17.36-108.45,19.17
				c-36.77,1.82-73.76-0.9-109.83-8.25c-30.01-6.12-59.87-15.11-86.21-31.08c-23.84-14.45-44.57-35.33-52.71-62.59
				c-8.36-28.02-1.59-58.52,13.72-82.89c7.76-12.35,17.81-23.41,29.6-32.04c12.98-9.5,27.66-16.49,43.07-21.04
				c31.12-9.19,64.64-8.82,96.13-1.67c30.99,7.03,60.38,20.5,86.1,39.14c26.3,19.05,48.4,43.6,64.56,71.77
				c16.67,29.06,27.15,61.75,30.27,95.12c0.75,8.04,1.07,16.12,0.99,24.2C791.6,531.27,796.6,531.27,796.64,528.05L796.64,528.05z"
				/>
		</g>
	</g>
</g>
</svg>
