<svg id="Слой_1" data-name="Слой 1" xmlns="http://www.w3.org/2000/svg" viewBox="0 0 1189.85 1387.78"><defs><style>.cls-1{fill:#fff348;}.cls-2{fill:#1d1d1b;}</style></defs><g id="Слой_2" data-name="Слой 2"><path class="cls-1" d="M987.34,496.16a22.29,22.29,0,0,0,11.36,3.07l6-.8c5.74-1.31,10.35-5.54,13.45-10.34a21.71,21.71,0,0,0-1.76-25,16.94,16.94,0,0,0-6.31-5.8L994.71,450,941,424.58a22.44,22.44,0,0,0-11.36-3.07l-6,.8a16.94,16.94,0,0,0-7.65,4,11.33,11.33,0,0,0-4,4,16.94,16.94,0,0,0-4,7.65c-.26,2-.53,4-.8,6a25.06,25.06,0,0,0,6.59,15.91l24.09,20.95L980.51,518l42.72,37.15,27.27-35.34-39.56-18-70-31.88-70.47-32.09a22.44,22.44,0,0,0-11.36-3.07l-6,.8c-5.74,1.31-10.35,5.54-13.45,10.34a21.71,21.71,0,0,0,1.76,25,16.94,16.94,0,0,0,6.31,5.8l39.56,18,70,31.88,70.47,32.09a22.44,22.44,0,0,0,11.36,3.07l6-.8a16.94,16.94,0,0,0,7.65-4,11.33,11.33,0,0,0,4-4,16.94,16.94,0,0,0,4-7.65c.26-2,.53-4,.8-6a25.06,25.06,0,0,0-6.59-15.91l-24.09-21-42.72-37.15L945.52,428.1l-27.27,35.34,15.35,7.27,53.74,25.45Z" transform="translate(-386.14 -106.28)"/><path class="cls-1" d="M879.63,457.24c-4.9-3.94-9.59-6.31-15.91-6.57-6-.27-11.62,2.65-15.91,6.59-4.14,3.8-6.59,10.39-6.59,15.91,0,5.15,2.38,12.53,6.59,15.91l155.6,125.09,27.27-35.34-58.06-33L767,429.22c-10.95-6.22-24.11-2.28-30.78,8.07s-1.94,24.6,8.07,30.78l72.15,44.57L1072.85,671l22.71-38.86-48.76-21.29-171.06-74.7c-10.47-4.56-21.68-3.72-29,5.8a23.27,23.27,0,0,0-4.83,13.63c-.22,5,2.55,12.69,6.59,15.91L902,614.19l187.19,149.48,27.27-35.34-52.11-30.9L881.54,589c-10.83-6.43-24.21-2.12-30.78,8.07-3.08,4.78-3.75,11.95-2.27,17.34,1.65,6,5.46,9.92,10.34,13.45l52.54,38,186.81,135.16,17.34-41.12L945,692.2c-10.45-4.15-22.58,3.64-26.54,13-4.1,9.72-.77,23,9.21,28.1q29.07,14.73,57.22,31.18a1066.08,1066.08,0,0,1,95.31,62.89q6.13,4.54,12.22,9.18l2.56,1.95c3.18,2.43-.25-.16-.73-.57,1.83,1.56,3.82,3,5.71,4.45q11.08,8.7,21.92,17.68,22.3,18.48,43.57,38.16l31.82-31.82c-16.27-12.91-33-25.26-50.34-36.66a650.8,650.8,0,0,0-191.09-84.94c-10-2.62-19.94,1.86-25.41,10.34-4.9,7.6-4,21.46,3.52,27.27l44.32,34.46,155.84,121.18,27.27-35.34-195-86.47c-10.44-4.62-21.7-3.68-29,5.8a23.27,23.27,0,0,0-4.83,13.63c-.22,5,2.55,12.69,6.59,15.91l41.5,33.12,144.18,115.08,27.27-35.34L993.71,885.83c-10.19-5.05-21.92-3.41-29,5.8-6.58,8.52-6.46,21.9,1.76,29.54l38.88,36.11,137.73,127.91,27.27-35.34-44.9-25.44L967.08,934.72c-11-6.21-24.1-2.29-30.78,8.07-6.86,10.63-1.7,24.25,8.07,30.78,17.2,11.49,34.4,23,51.38,34.83,15.12,10.53,30.07,21.3,44.69,32.5,2.42,1.86,1.7,1.17-.31-.24,1,.73,2,1.57,3,2.35l5.4,4.27q4.79,3.81,9.51,7.69,10.61,8.71,20.85,17.84a528.88,528.88,0,0,1,38.9,38.33q9.18,10.08,17.74,20.72l2.83,3.57c.83,1,2.78,2.76-.73-1a51.31,51.31,0,0,1,3.66,4.85q4.1,5.51,8,11.15l30.78-30.78-191.71-98.54c-10.11-5.19-22-3.32-29,5.8-6.29,8.14-6.85,22.4,1.76,29.54l160.37,133.1,27.27-35.34-153.5-65.51c-5.89-2.51-11-3.71-17.34-2.27-4.71,1.07-8.82,4.34-11.69,8.06a23.27,23.27,0,0,0-4.83,13.63c-.23,5,2.56,12.62,6.59,15.91l40.6,33.13L1150,1272.58l27.27-35.34-207.38-101c-11.34-5.53-23.77-2.81-30.78,8.07-6.72,10.41-1.91,24.55,8.07,30.78q19.86,12.39,38.89,26,8.37,6,16.57,12.28c.48.37,3.37,2.59.87.66s-.21-.15.23.19l3.74,2.94q4,3.21,8,6.46,15.69,12.78,30.63,26.44a714.5,714.5,0,0,1,57.52,59.09l27.27-35.34L966.43,1170.09c-9.56-6-22.42-2.75-29,5.8-7,9.09-5.84,21.2,1.76,29.54l128.27,140.79,27.27-35.34L948.14,1224.6c-8.88-5.22-19.9-3.25-27.27,3.52-7.07,6.49-8.73,19.25-3.52,27.27l71.58,110.31,30.78-30.78-101.41-57.3c-9-5.08-19.81-3.33-27.27,3.52-7.67,7-7.81,18.55-3.52,27.27l15.15,30.75,19.43-33.86-27.18,1.39c-12.61.64-21.93,9.8-22.5,22.5-.53,11.72,10.73,23.1,22.5,22.5l27.18-1.39c17.72-.91,27.12-18.25,19.43-33.86l-15.15-30.75-30.78,30.78L997,1373.77c9,5.08,19.81,3.33,27.27-3.52,7.07-6.49,8.73-19.25,3.52-27.27l-71.58-110.31-30.78,30.78L1072,1349.73a22.52,22.52,0,0,0,29-5.8c7-9.09,5.84-21.2-1.76-29.54L971,1173.6l-27.27,35.34,164.46,103.75c9.56,6,22.42,2.75,29-5.8,7.15-9.25,5.65-21-1.76-29.54q-15.6-18-32.35-34.91a738.18,738.18,0,0,0-133.26-106.22l-22.71,38.86,207.38,101c10.23,5,21.88,3.45,29-5.8a23.27,23.27,0,0,0,4.83-13.63c.23-5.05-2.56-12.62-6.59-15.91l-40.6-33.13L999.79,1092.25l-27.27,35.34L1126,1193.1c5.89,2.51,11,3.71,17.34,2.27,4.71-1.07,8.82-4.34,11.69-8.06,6.29-8.14,6.85-22.4-1.76-29.54l-160.37-133.1L965.65,1060l191.71,98.54c9.24,4.75,19.6,3.52,27.27-3.52,6.92-6.35,8.94-19.43,3.52-27.27A463.67,463.67,0,0,0,1146,1075.4c-51.92-55.73-116-98.62-179-140.7l-22.71,38.86L989.27,999l158.34,89.69a22.57,22.57,0,0,0,29-5.8c6.58-8.52,6.46-21.9-1.76-29.54L1136,1017.24,998.27,889.33,971,924.67l158.42,78.64c10.19,5.05,21.92,3.41,29-5.8a23.27,23.27,0,0,0,4.83-13.63c.22-5-2.55-12.69-6.59-15.91l-41.5-33.12L971,819.77l-27.27,35.34,195,86.47c10.44,4.62,21.7,3.68,29-5.8a23.27,23.27,0,0,0,4.83-13.63c.22-4.93-2.54-12.76-6.59-15.91l-44.32-34.46L965.75,750.58l-21.89,37.61q27.35,7.18,54,16.77,11.82,4.27,23.46,9l4.36,1.79c.54.22,3.06,1.29.21.08-3-1.28.18.08.93.4l2.88,1.25q5.4,2.35,10.76,4.8,22.86,10.47,44.83,22.71t42.87,26.21q10.44,7,20.61,14.37,5.09,3.69,10.09,7.49c.82.62,1.72,1.23,2.5,1.91-3.91-3.4-1.77-1.38-.83-.64l4.94,3.89c4.93,3.91,9.57,6.31,15.91,6.59,6,.27,11.62-2.65,15.91-6.59,8.71-8,8.67-23.81,0-31.82Q1173,844,1147.48,823.14a1094.46,1094.46,0,0,0-197.1-128.69L933,735.57l170.5,67.74c10.45,4.15,22.58-3.64,26.54-13,4.63-11,0-21.46-9.21-28.1l-52.54-38L881.52,589l-22.71,38.86,52.11,30.9,182.76,108.4c9.73,5.77,22.29,2.93,29-5.8a23.27,23.27,0,0,0,4.83-13.63c.22-5-2.55-12.69-6.59-15.91l-53.48-42.71L880.28,539.64,853,575l48.76,21.29L1072.83,671c5.86,2.56,11.06,3.7,17.34,2.27,5.74-1.31,10.35-5.54,13.45-10.34,6.7-10.38,1.94-24.6-8.07-30.78l-72.15-44.57L767,429.2l-22.71,38.86L802.38,501,1008,617.67a22.57,22.57,0,0,0,29-5.8,23.27,23.27,0,0,0,4.83-13.63c.22-5-2.56-12.67-6.59-15.91L879.63,457.24Z" transform="translate(-386.14 -106.28)"/><path class="cls-1" d="M1305.67,555.3c-3.86-4.49-10.21-6.33-15.88-6.61-6-.27-11.62,2.65-15.91,6.59s-6.59,10.39-6.59,15.91c0,6.23,2.65,11.32,6.59,15.91L1312.47,632q67.93,79.13,135.88,158.23c7.32,8.53,21.26,8.16,29.54,1.76a23.3,23.3,0,0,0,8.06-11.69c1.55-4.79.88-13.18-2.27-17.34q-20.9-27.56-42.84-54.28-36.37-44.1-76-85.43t-82.08-79.56c-8.42-7.59-20.43-8.8-29.54-1.76s-10.82,18.88-5.8,29A605.56,605.56,0,0,0,1291,645.27a649.12,649.12,0,0,0,49.76,63.67c15.45,17.39,31.91,33.86,48.53,50.12,33,32.3,67,64,95.37,100.57l-3.52-4.55a338.59,338.59,0,0,1,33.35,51.86l30.78-30.78q-31.15-21.36-61.07-44.45l4.55,3.52q-16.07-12.4-31.74-25.3a1325.44,1325.44,0,0,1-104.67-96c-8.8-9-22.91-8.18-31.82,0-4.14,3.8-6.59,10.39-6.59,15.91,0,6.27,2.66,11.27,6.59,15.91l32.31,38.12Q1410,851.46,1467.27,919l27.27-35.34-124.36-83.08c-8.5-5.67-20.19-3-27.27,3.52-3.62,3.32-5.56,8.2-6.19,12.92a17,17,0,0,0,.4,9l2.27,5.37,28.85,37.79,102.29,134,30.78-30.78q-61.55-43.89-123.11-87.76c-4.32-3.08-12.4-3.87-17.34-2.27a26.73,26.73,0,0,0-9.93,5.79c-7.54,6.92-8,18.69-3.52,27.27l19.77,37.74L1436.8,1086l25.41-33-88.78-32.87c-7.35-2.72-16.59.49-21.89,5.79s-8.59,14.6-5.79,21.89q14.93,38.91,29.83,77.81l27.68-27.68-20.47-6.9c-8.52-2.88-18.42,1.29-23.65,8.06a22.29,22.29,0,0,0-4.83,13.63c0,3.45,1,8.53,3.07,11.36a47.15,47.15,0,0,1,5.49,9.45l-2.27-5.37a51.5,51.5,0,0,1,3.47,13c-.26-2-.53-4-.8-6a55.35,55.35,0,0,1-.07,13.49c.26-2,.53-4,.8-6a54.23,54.23,0,0,1-3.52,13l2.27-5.37a50.19,50.19,0,0,1-5.84,10.18l3.52-4.55a47.56,47.56,0,0,1-5.09,5.62c-9.14,8.63-8,23,0,31.82,8.38,9.13,23.25,8.08,31.82,0,13.09-12.35,19.63-29.2,21.28-46.82,1.44-15.33-2.93-32.78-12.21-45.16l-25.41,33.05,20.47,6.9c7.49,2.52,16.46-.36,21.89-5.79,5.26-5.25,8.59-14.6,5.79-21.89q-14.92-38.91-29.83-77.81l-27.68,27.68,88.78,32.87c4.56,1.69,10.32.7,14.65-1.13a21.4,21.4,0,0,0,9-6.93c5.71-7.39,6-16.85,1.76-25l-19.77-37.74-69.62-132.91-30.78,30.78q61.55,43.89,123.11,87.76c4.32,3.08,12.4,3.87,17.34,2.27a26.73,26.73,0,0,0,9.93-5.79c3.62-3.32,5.56-8.2,6.19-12.92a17,17,0,0,0-.4-9l-2.27-5.37-28.85-37.79-102.29-134-30.78,30.78,124.36,83.08c9.38,6.26,22.55,2.58,29-5.8a23.27,23.27,0,0,0,4.83-13.63c.27-6.08-2.84-11.48-6.59-15.91l-32.31-38.12Q1409.56,781.52,1352.31,714l-31.82,31.82q20.13,20.54,41.12,40.19a1364.55,1364.55,0,0,0,160.91,129c4.42,3,12.31,3.9,17.34,2.27a26.73,26.73,0,0,0,9.93-5.79c7.58-7,8-18.65,3.52-27.27-11-21.41-24.72-41.08-39.62-59.94-24.84-31.44-53.8-59.28-82.47-87.16-29.86-29-59.19-58.47-84.75-91.46l3.52,4.55a607.23,607.23,0,0,1-63.68-101.94L1251,575.57q22.71,20.45,44.62,41.78A1544.55,1544.55,0,0,1,1439.38,778.6l-3.52-4.55q4.48,5.84,8.94,11.69l35.34-27.27-38.59-44.94q-67.93-79.12-135.88-158.23Z" transform="translate(-386.14 -106.28)"/><path class="cls-2" d="M1232.57,531.53c-10.54-6.88-24.44-1.76-30.77,8.08-6.81,10.56-1.78,24.36,8.07,30.78l12.09,7.89c10.54,6.88,24.44,1.76,30.78-8.07,3.08-4.78,3.75-12,2.27-17.34-1.68-6.09-5.47-9.82-10.34-13.45l-83.12-61.93c-9-6.71-22.81-2.26-29,5.8-7,9.1-5.82,21.18,1.76,29.54q65.1,71.71,130.19,143.45l31.82-31.82q-24.09-21.5-49-42A1581.55,1581.55,0,0,0,1056.8,448.18c-9.71-5.8-22.31-2.9-29,5.8-6.94,9-6,21.33,1.76,29.54l52.54,55.8L1269.4,738.24l31.82-31.82q-22.63-21.09-45.38-42c-54.16-49.63-110-97.77-171.26-138.58-9.39-6.25-22.55-2.59-29,5.8a23.27,23.27,0,0,0-4.83,13.63c-.28,6.34,2.94,11.19,6.59,15.91q25.79,33.36,53.22,65.39a1674.2,1674.2,0,0,0,212,207l27.27-35.34-45.86-25.39-162.32-89.89a22.53,22.53,0,0,0-27.27,35.34L1156.62,761l149.15,150.86L1333,876.47l-175.11-88.58c-10.15-5.13-22-3.36-29,5.8a23.27,23.27,0,0,0-4.83,13.63c-.23,5.09,2.57,12.58,6.59,15.91l46.1,38.2,163.92,135.82L1368,961.91l-165.61-80.79c-10.23-5-21.88-3.45-29,5.8-6.52,8.44-6.54,22,1.76,29.54L1211,949l125,113.36,27.27-35.34-174.68-79c-10.4-4.69-21.74-3.64-29,5.8a23.27,23.27,0,0,0-4.83,13.63c-.23,5,2.56,12.63,6.59,15.91l42,34.22,148.09,120.57,27.27-35.34q-19.95-11.94-40.76-22.33A615.79,615.79,0,0,0,1178,1026.46c-11.18-2.11-22,2.21-26.54,13s0,21.57,9.21,28.1q8.61,6.09,17,12.47l2.32,1.77c2,1.49-1.72-1.34-1.67-1.3,1.31,1.07,2.68,2.09,4,3.14q4.29,3.38,8.52,6.84a613.88,613.88,0,0,1,54,49.89q12.6,13.13,24.42,27,6.14,7.2,12,14.6c2,2.47,3.89,5,5.86,7.44,0,0-2.79-3.65-1.3-1.67.43.58.88,1.16,1.32,1.74q1.32,1.74,2.63,3.49l25.41-33-133-55.45c-4.8-2-13.12-.45-17.34,2.27a27,27,0,0,0-8.07,8.07c-5.43,8.44-3.17,20.34,3.52,27.27l112.29,116.21,21.89-37.61-120.31-46.07c-8.32-3.19-18.58,1.5-23.65,8.06s-6.9,17.71-1.76,25l52.43,74.26,19.43-33.86-64.79-.4c-13.9-.09-26.48,14.55-21.7,28.48l11.22,32.69L1183,1287l-7.19-5.84c-4.87-4-9.61-6.31-15.91-6.59-6-.27-11.62,2.65-15.91,6.59-4.14,3.8-6.59,10.39-6.59,15.91,0,5.18,2.39,12.49,6.59,15.91l7.19,5.84c8.11,6.59,17.75,8.55,27.27,3.52,8.37-4.42,13.43-16.41,10.34-25.41l-11.22-32.69q-10.86,14.24-21.7,28.48l64.79.4c16,.1,29.49-19.61,19.43-33.86L1187.7,1185l-25.41,33,120.31,46.07c9.47,3.63,20.36-2.51,25.41-10.34,5.43-8.44,3.17-20.34-3.52-27.27L1192.2,1110.27l-21.89,37.61,133,55.45c8.18,3.41,18.7-1.65,23.65-8.06a22.29,22.29,0,0,0,4.83-13.63c0-3.45-1-8.54-3.07-11.36-9.45-12.6-19.22-25-29.5-36.92-34.06-39.6-73.22-74.5-115.85-104.64L1166,1069.84q22.85,4.31,45.31,10.35,19.53,5.28,38.69,11.9,9.57,3.3,19,6.93,4.9,1.88,9.77,3.85l4.16,1.7c.69.28,1.38.6,2.08.86-5.19-1.94-2.4-1-1.23-.52a605.35,605.35,0,0,1,72.07,36.78c9.71,5.8,22.31,2.9,29-5.8a23.27,23.27,0,0,0,4.83-13.63c.23-5-2.56-12.63-6.59-15.91l-42-34.22L1193,951.56l-27.27,35.34,174.68,79c10.4,4.69,21.74,3.64,29-5.8,6.52-8.44,6.54-22-1.76-29.54L1331.84,998,1206.89,884.61,1179.62,920l165.61,80.79c10.23,5,21.88,3.45,29-5.8a23.27,23.27,0,0,0,4.83-13.63c.23-5.09-2.57-12.58-6.59-15.91l-46.1-38.2L1162.48,791.38l-27.27,35.34,175.11,88.58c10.15,5.13,22,3.36,29-5.8a22.56,22.56,0,0,0-1.76-29.54l-42.28-42.76L1146.16,686.34l-27.27,35.34,45.86,25.39L1327.07,837a22.6,22.6,0,0,0,29-5.8,23.27,23.27,0,0,0,4.83-13.63c.23-5-2.56-12.62-6.59-15.91q-32.67-26.65-64-54.93a1671.38,1671.38,0,0,1-201.25-217.37l-27.27,35.34q25.07,16.7,49,35l3.68,2.81c3.13,2.39-.44-.33-.89-.69,1.6,1.29,3.25,2.52,4.87,3.79q5.18,4,10.29,8.14,10.55,8.44,20.92,17.1,20.48,17.07,40.4,34.81c26.81,23.78,53,48.2,79.26,72.63,9.21,8.58,22.58,8.49,31.82,0s8.07-23.25,0-31.82l-52.54-55.8L1061.34,451.69,1034.07,487q27.71,16.58,54.7,34.29,46.9,30.79,91.47,65c1.22.93,2.46,1.85,3.66,2.81-4.34-3.46-1.39-1.07-.3-.22l5.45,4.26q5.15,4,10.25,8.11,11.12,8.87,22.06,17.94,21.9,18.15,43.11,37.1c9.4,8.38,22.42,8.63,31.82,0s7.91-23.1,0-31.82Q1231.19,552.74,1166.1,481l-27.27,35.34L1222,578.28l22.71-38.86-12.09-7.89Z" transform="translate(-386.14 -106.28)"/><path class="cls-2" d="M745.47,823.5a23.38,23.38,0,0,0,15.91-6.59c4.42-4.06,6.33-10.09,6.59-15.91a23.13,23.13,0,0,0-22.5-22.5,23.38,23.38,0,0,0-15.91,6.59c-4.42,4.06-6.33,10.09-6.59,15.91a23.13,23.13,0,0,0,22.5,22.5Z" transform="translate(-386.14 -106.28)"/><path class="cls-2" d="M510.92,741.46a23.41,23.41,0,0,0,15.91-6.59c4.42-4.06,6.33-10.09,6.59-15.91a23.13,23.13,0,0,0-22.5-22.5A23.38,23.38,0,0,0,495,703.05c-4.42,4.06-6.33,10.09-6.59,15.91a23.13,23.13,0,0,0,22.5,22.5Z" transform="translate(-386.14 -106.28)"/><path class="cls-2" d="M746.15,831.14c17.66,0,30.74-14.43,31.5-31.5s-15-31.5-31.5-31.5c-17.66,0-30.74,14.43-31.5,31.5s15,31.5,31.5,31.5Z" transform="translate(-386.14 -106.28)"/><path class="cls-2" d="M509.9,748.07c17.66,0,30.73-14.43,31.5-31.5s-15-31.5-31.5-31.5c-17.66,0-30.74,14.43-31.5,31.5s15,31.5,31.5,31.5Z" transform="translate(-386.14 -106.28)"/><path class="cls-2" d="M438.59,128.23c-3.26-13.31-17.5-20-30.16-17.13-13.15,3-20.15,17.71-17.11,30.14,6.46,26.42,34.52,36.14,56.24,47,10.13,5.07,21.28,3.89,29.69-3.83,7.92-7.27,9.17-20.68,3.83-29.69a120.16,120.16,0,0,0-43.65-43.07c-11.92-6.79-26.27-2.46-33.52,8.79-7.12,11-2.35,27.17,8.79,33.52,3.49,2,6.77,4.19,10,6.51q2.19,1.64-1.81-1.38c.82.68,1.64,1.36,2.44,2.06,1.41,1.23,2.77,2.49,4.1,3.8s2.62,2.65,3.87,4c.72.79,1.41,1.6,2.1,2.41q2.49,3-.84-1.22c.9.28,2.32,3.19,2.79,3.89,1.2,1.76,2.31,3.57,3.4,5.4L472.31,146c-8.37-4.19-16.77-8.33-25.12-12.57-2-1-4.08-2.07-6-3.24-.74-.43-1.46-.88-2.17-1.36-1.49-1-1-.58,1.52,1.31a28.23,28.23,0,0,1-2.28-2.09q-2.61-2.91.89,1.38a22.62,22.62,0,0,1-1.53-2.66q2.09,5.29,1,1.51Z" transform="translate(-386.14 -106.28)"/><path class="cls-2" d="M969.05,227.66c-9.63,9.74-9,24.83,0,34.66s25.62,9.12,34.65,0c.86-.88,1.73-1.75,2.6-2.63q5.21-4.92-6.29,3.2H987l1.14.43-14.64-11.26.44.71q-1.67-6.2-3.34-12.37c0,.27,0,.55,0,.82q1.67-6.19,3.34-12.37l-.46.64,44.78,18.88c3.1-13.91-.61-27.89-11-37.88-8-7.65-20-13.51-31.15-13.85-19.45-.6-33.4,16.44-29.66,35.38,1.87,9.47,8.78,18.26,13.7,26.41l33.52-33.52-27.51-21.13c-10.87-8.35-27.07-1.22-33.52,8.79-3.36,5.21-4.08,13-2.47,18.88,1.85,6.71,6,10.57,11.26,14.64l27.51,21.13c4.49,3.45,13.7,4.15,18.88,2.47a29.23,29.23,0,0,0,10.81-6.3c7.87-7.23,9.23-20.73,3.83-29.69q-3.09-5.1-6.17-10.22c-1-1.68-2-3.49-3.08-5.11q-1.41-2.64,0,.37a13.45,13.45,0,0,1,1.49,5.48q-1.67,6.19-3.34,12.37-31.49,5.57-18.83,8.94,3.71,1.35-1.47-.76a25.31,25.31,0,0,0,4.09,2.28q-4.26-3.5-1.42-.81c-.65-.81-1.29-1.63-1.94-2.45q-1.85-5.29-.66-1.53a13,13,0,0,1-.1-6.92c-2.69,12.07,2.68,24,14.19,28.9,12,5.06,23.36,0,30.59-10,4.72-6.52,4.69-16.15,1.69-23.27a26.43,26.43,0,0,0-16.89-15.11c-12.75-4.1-23.13,3.33-31.53,11.82Z" transform="translate(-386.14 -106.28)"/><path class="cls-2" d="M932.36,230.39a10.49,10.49,0,0,0,7.42-17.92,10.8,10.8,0,0,0-7.42-3.08,10.49,10.49,0,0,0-7.42,17.92,10.8,10.8,0,0,0,7.42,3.08Z" transform="translate(-386.14 -106.28)"/><path class="cls-2" d="M929.64,230.22a10.49,10.49,0,0,0,7.42-17.92,10.8,10.8,0,0,0-7.42-3.08,10.49,10.49,0,0,0-7.42,17.92,10.8,10.8,0,0,0,7.42,3.08Z" transform="translate(-386.14 -106.28)"/><path class="cls-2" d="M483.17,166.46a10.72,10.72,0,0,0-14.33-3.79c-4.89,2.59-6.72,9.73-3.77,14.37a55.69,55.69,0,0,0,15.11,15.71,9.75,9.75,0,0,0,6.7,1.25,10,10,0,0,0,5-2.07c3.52-2.73,4.59-6.8,3.76-11l-2.4-12.26a23,23,0,0,0-2.56-7.45,15.68,15.68,0,0,0-8.89-7.13c-2.07-.83-4.87-.3-6.84.53a10,10,0,0,0-4.2,3.23,10.57,10.57,0,0,0-.82,11.66,213.44,213.44,0,0,0,22.37,31.14L505,184.12a254.19,254.19,0,0,0-27.42-11.07,10.52,10.52,0,0,0-8.09,1.06,10.5,10.5,0,0,0-3.77,14.37,11.15,11.15,0,0,0,6.28,4.83q8.19,2.74,16.16,6.1l-2.51-1.06q4.42,1.88,8.76,3.92a11.85,11.85,0,0,0,8.09,1.06,10,10,0,0,0,5.45-3.76,10.93,10.93,0,0,0,2.25-6.36c.12-2.81-1.32-5.37-3.08-7.42q-3.44-4-6.66-8.16l1.64,2.13A199.39,199.39,0,0,1,488,158.9l-11.86,15.42.35.14L474,173.4a7.05,7.05,0,0,1,.94.59l-2.13-1.64a8.51,8.51,0,0,1,.79.8L472,171a8.91,8.91,0,0,1,1,1.69c-.35-.84-.71-1.67-1.06-2.51a46.51,46.51,0,0,1,1.81,8c.54,2.78,1.09,5.56,1.63,8.34l15.42-11.86c-.57-.4-1.12-.81-1.67-1.23l2.13,1.64a43.58,43.58,0,0,1-7.3-7.32l1.64,2.13c-.85-1.09-1.64-2.22-2.38-3.39Z" transform="translate(-386.14 -106.28)"/><path class="cls-2" d="M502.12,197.77a3.51,3.51,0,0,0-4.29,2.46,3.56,3.56,0,0,0,2.44,4.31c.81.26,1.62.54,2.42.85l1.09.43c.32.13-.78-.34,0,0l.49.22A46.41,46.41,0,0,1,512.7,211l.51.38.17.13c.29.22.23.17-.2-.16a8.27,8.27,0,0,0,.92.74c.63.52,1.25,1.06,1.85,1.61a3.54,3.54,0,0,0,4.6.27,3.68,3.68,0,0,0,1.25-1.82,3.49,3.49,0,0,0-.35-2.7l-10.23-14.64a3.59,3.59,0,0,0-4.79-1.26,3.52,3.52,0,0,0-1.26,4.79l10.23,14.64,5.5-4.24a51.09,51.09,0,0,0-18.78-10.92Z" transform="translate(-386.14 -106.28)"/></g><g id="Слой_1-2" data-name="Слой 1"><path class="cls-2" d="M1571,909.66c1.2,2.94,6,1.65,4.83-1.36q-13.65-33.75-30.44-66.11a776.92,776.92,0,0,0-187.64-234.13,759.71,759.71,0,0,0-277-148.46C973.69,428.45,860,420.42,749.8,437c-101.67,15.34-207.14,52.73-273.37,135.48-33.9,42.36-56.77,93.09-71.41,145.09A512,512,0,0,0,386.51,875.4C390.45,979.93,426,1082.55,490,1165.49c59.42,77,141.1,136.37,232.43,169.62,107.84,39.26,224.41,36.23,335.38,12.55,29.83-6.36,59.35-14.13,88.55-22.91,28.28-8.5,56.46-17.64,83.71-29.08,26.41-11.09,51.73-24.54,74.85-41.52,22.71-16.67,43.36-35.93,63.15-55.93,39.32-39.74,78.23-80.51,113.83-123.64,34.58-41.89,65.37-87.07,86.51-137.3,1.25-3-3.59-4.25-4.82-1.33a460.57,460.57,0,0,1-37.56,70.53c-29.42,45.68-65.4,86.66-102.39,126.28-37.68,40.35-75.12,82.82-119.61,115.87-46.68,34.67-101.8,54-156.93,70.69-57.36,17.34-116.08,31-175.74,37.33-58.21,6.19-117.48,5.42-175-6a499.72,499.72,0,0,1-135.31-48.16c-85.38-45-158.22-114-205.71-198.18-51.89-92-72.7-200.55-61.1-305.34,11.58-104.63,55.27-213.18,142.31-277,41.48-30.43,89.57-50.73,139-64.28,52-14.26,105.91-21.62,159.71-23.58a773.67,773.67,0,0,1,321.62,57.53C1251.28,530.49,1337,589,1408.35,662A766.37,766.37,0,0,1,1571,909.66Z" transform="translate(-386.14 -106.28)"/><path class="cls-2" d="M737.78,440c-3.09-.95-4.4,3.88-1.34,4.82a116.52,116.52,0,0,1,19.47,7.88c50.84,26.27,77,83.61,98.92,133.44,29,66,56.12,133.12,76.75,202.32,20.14,67.56,34.22,137.4,36.71,208,2.21,62.43-4.57,125.42-22.32,185.4-17.69,59.79-46.65,116.3-87.68,163.46-2.1,2.42,1.42,6,3.54,3.54q7.6-8.74,14.71-17.89c38.5-49.67,64.73-108,80-168.78,15.51-61.8,20.08-126.25,15.47-189.72-5.26-72.42-21.72-143.65-44.08-212.6-11.43-35.25-24.41-70-38.3-104.33-13-32.07-26.37-64.08-41-95.41C825.34,510.56,793.37,457,737.78,440Z" transform="translate(-386.14 -106.28)"/><path class="cls-2" d="M555.14,498.54c-.88,3.1,4,4.42,4.81,1.35q2.12-7.49,3.89-15.06a369.23,369.23,0,0,0,9-62.68,383.11,383.11,0,0,0-1.58-63.27,398.75,398.75,0,0,0-11.85-62.62,395.65,395.65,0,0,0-21.62-59.59,379.34,379.34,0,0,0-30.94-55.19A362.59,362.59,0,0,0,467,132.28c-14.49-14.93-33.32-30.12-55.54-25-8.85,2-17.27,7.52-21.07,16-4.4,9.82-2.3,21.13,3.14,30.11,5.83,9.63,15.39,16.16,25.29,21.1,11.38,5.67,23.35,10.24,35.05,15.2l75.62,32a2.57,2.57,0,0,0,3.42-.9c.6-1.06.35-2.89-.9-3.42l-17.83-7.56-73.48-31.15c-18.79-8-43.9-17-47.45-40.19a22.35,22.35,0,0,1,10.82-23c7.59-4.48,17.18-5.37,25.62-3.08,10.67,2.9,19.68,9.76,27.6,17.24a287.68,287.68,0,0,1,21.48,23,362.57,362.57,0,0,1,35.51,49.75,380,380,0,0,1,27.06,55.18,392.7,392.7,0,0,1,17.93,58.59A387,387,0,0,1,567.84,377a378.64,378.64,0,0,1-1.23,61.17,356.67,356.67,0,0,1-11.47,60.34Z" transform="translate(-386.14 -106.28)"/><path class="cls-2" d="M727,528.31c.15,3.21,5.15,3.22,5,0q-.36-7.59-.33-15.17a310.65,310.65,0,0,1,6.44-61.57,334.24,334.24,0,0,1,18.18-59.42,346.92,346.92,0,0,1,66.59-104,329.39,329.39,0,0,1,46.43-41.39,311.9,311.9,0,0,1,53.28-31.47c11.13-5.15,22.63-9.8,34.66-12.36,11.63-2.47,24.52-2.92,35.69,1.73,16.7,6.94,31.58,27.79,21.62,45.69-8.57,15.39-30,18.53-45.43,13.43C959,260.51,950.29,253.53,943,246c-7.88-8.22-14.42-17.56-20.87-26.9-1.82-2.64-6.15-.13-4.32,2.52,3.24,4.69,6.5,9.38,9.94,13.93,13,17.19,29.94,34.17,52.69,35.51,18.19,1.07,39-8.52,41.89-28.32,3.08-21.44-15.59-40.66-35.44-45-25-5.52-50.65,5.38-72.73,16.16a315.26,315.26,0,0,0-54.31,33.87,337.13,337.13,0,0,0-47,44.11A350.74,350.74,0,0,0,747.09,402a332,332,0,0,0-16.33,61.91A313.89,313.89,0,0,0,727,528.31Z" transform="translate(-386.14 -106.28)"/><path class="cls-2" d="M874.19,1363.56a2.51,2.51,0,0,0-3.55-3.54c-7.57,8.63-18.58,12.43-29.3,15.53-10.11,2.92-20.56,5.34-29.87,10.43a43.28,43.28,0,0,0-12.55,10,44.22,44.22,0,0,0-8.3,15.5c-3.64,11.89-2.79,24.73.76,36.52,4,13.43,11.18,25.63,18.26,37.63,1.64,2.78,6,.26,4.32-2.52-7.67-13-15.52-26.31-19-41.17-2.58-10.93-2.43-23,2.09-33.43a36.78,36.78,0,0,1,9.55-13.16,47.28,47.28,0,0,1,12.47-7.52c18.29-7.87,41.2-8.39,55.15-24.3Z" transform="translate(-386.14 -106.28)"/><path class="cls-2" d="M909.46,1388.81c3.14-.74,1.8-5.56-1.35-4.83a178.85,178.85,0,0,0-28.71,8.87c-7.91,3.35-15.54,7.72-21.65,13.84a42.94,42.94,0,0,0-12.31,25c-3,23.11,10.95,43.33,23.78,61.09a2.55,2.55,0,0,0,3.42.9,2.51,2.51,0,0,0,.9-3.42c-7-9.73-14.26-19.63-18.85-30.81-3.94-9.6-6-20.46-3.69-30.73a38.68,38.68,0,0,1,12.84-20.89c6.13-5.3,13.59-9,21.12-11.89a194.71,194.71,0,0,1,24.5-7.17Z" transform="translate(-386.14 -106.28)"/><path class="cls-2" d="M1332.81,1249c2.25-2.31-1.29-5.85-3.52-3.54-8.42,8.69-12.73,20.29-13.31,32.27a70.17,70.17,0,0,0,6.44,31.92,77.57,77.57,0,0,0,20.41,26.7c19,16.43,43,25.29,66.36,33.42a2.53,2.53,0,0,0,3.08-1.75,2.57,2.57,0,0,0-1.75-3.08c-12.72-4.42-25.42-9-37.5-15-19.86-9.81-38.87-24-47.29-45.19-7.24-18.21-7.28-40.94,7.08-55.78Z" transform="translate(-386.14 -106.28)"/><path class="cls-2" d="M1361.87,1224.27c.18-1.35-1.28-2.5-2.5-2.51a2.58,2.58,0,0,0-2.5,2.5c-1.32,10.07-2.6,20.2-2.34,30.37a70.64,70.64,0,0,0,5.27,26.2,54.28,54.28,0,0,0,12.61,17.86c10.84,10.25,25.64,16.36,40.62,15.9,3.22-.1,3.22-5.1,0-5a50.16,50.16,0,0,1-22.49-4.61c-12.68-5.87-23.07-16.53-27.61-29.85-5.58-16.36-3.26-34.1-1.06-50.86Z" transform="translate(-386.14 -106.28)"/><path class="cls-2" d="M759.32,799c-.18,1.35,1.28,2.5,2.49,2.53a2.58,2.58,0,0,0,2.5-2.5c.85-6.37-2-12.88-6.64-17.2a20.67,20.67,0,0,0-18-5.39c-11.48,2.14-20,13.46-18.84,25a27,27,0,0,0,22.81,23.95,31.44,31.44,0,0,0,18.55-3c5.32-2.65,10.85-7.65,10.57-14.12-.15-3.47-1.84-6.54-3.78-9.32a82.29,82.29,0,0,0-21.5-21.2c-2-1.37-4.89,1.41-3.42,3.42a92.08,92.08,0,0,1,14.16,28.65l4.18-2.43-23.56-30.4c-1.51-2-5.08.17-4.18,2.43l14,35.28,4.18-2.43L732.87,789c-1.62-1.9-4.94.12-4.18,2.43q4.53,13.77,9.07,27.54c1,3,5.83,1.73,4.82-1.33q-4.53-13.77-9.07-27.54l-4.18,2.43,19.94,23.35c1.57,1.84,5.1-.12,4.18-2.43l-14-35.28-4.18,2.43L758.81,811c1.59,2,4.83-.19,4.18-2.43a96,96,0,0,0-14.66-29.85l-3.42,3.42A78.06,78.06,0,0,1,759.45,795a67.57,67.57,0,0,1,5.88,7.6c1.58,2.41,3,5.13,2.08,8-1.43,4.58-6.82,7.44-11.06,8.81a25.77,25.77,0,0,1-15.28.3,21.76,21.76,0,0,1-15.37-21.49c.45-9.09,8.6-17.16,17.76-17.25s17.08,8.85,15.86,18Z" transform="translate(-386.14 -106.28)"/><path class="cls-2" d="M520.93,730.73a2.6,2.6,0,0,0,0,3.56,2.54,2.54,0,0,0,3.54,0,23.07,23.07,0,0,0,5.16-18.93,22.25,22.25,0,0,0-28.7-16.9c-5.54,2-10.46,6.47-11.58,12.46-1.26,6.73,2,13,6.21,18a46.56,46.56,0,0,0,7,6.57,23.49,23.49,0,0,0,8.89,4.68,14,14,0,0,0,9.84-1.08,12.53,12.53,0,0,0,5.51-6.64c2.47-6.36,0-13.07-3.06-18.72-1.51-2.74-3.16-6.33-6.37-7.38-3.63-1.18-5.92,1.85-7,4.87-2.51,7.25-4.88,14.55-7.32,21.83l4.91.66-3.45-30.21c-.27-2.36-3.27-3.53-4.66-1.26l-4.6,7.54c-1.68,2.75,2.65,5.26,4.32,2.52l4.6-7.54-4.66-1.26,3.45,30.21a2.51,2.51,0,0,0,4.91.66q3.44-10.23,6.86-20.44c.29-.86.54-2.35,1.27-2.91-.35.27-.28-.08.25.35a5.77,5.77,0,0,1,1.17,1.43,42.59,42.59,0,0,1,4.37,8.52c1.39,4,1.71,9.15-1.58,12.37-3.78,3.69-9.59,1.41-13.27-1.14-7-4.85-17.1-15.41-11.08-24.43,5.17-7.75,16.84-7.15,23.31-1.56A16.56,16.56,0,0,1,525,718.19a17.74,17.74,0,0,1-4,12.54Z" transform="translate(-386.14 -106.28)"/><path class="cls-2" d="M772.93,1034.05c2.22-2.33-1.31-5.87-3.55-3.54q-2.85,3-6,5.73c-16.45,14.45-38.06,22.58-59.68,24.86-25.48,2.69-51.13-2-75.27-10.06a254.57,254.57,0,0,1-56.16-26.75,241.28,241.28,0,0,1-47.68-39.69,215.35,215.35,0,0,1-35.06-50.87c-1.43-2.89-5.74-.36-4.32,2.52q1.73,3.5,3.57,6.93a223,223,0,0,0,38,50.88A249.16,249.16,0,0,0,577,1033a259.46,259.46,0,0,0,60.06,25.91c24.71,7.12,51,10.37,76.46,5.77,22.23-4,43.7-14.17,59.38-30.66Z" transform="translate(-386.14 -106.28)"/><path class="cls-2" d="M971.22,434.51c-2.37-2.17-5.91,1.36-3.54,3.53q7.46,6.85,14.41,14.23c38.62,41.1,63.36,92.93,83.35,145.09,10.41,27.17,19.72,54.75,29.12,82.28,10.61,31.06,21,62.18,30.62,93.57,19,62.48,34.76,126.35,40.66,191.53,6.12,67.58-.43,135.09-7.37,202.33-5.94,57.52-12.68,118.18-46.21,167.16-1.82,2.66,2.51,5.16,4.32,2.52a193.78,193.78,0,0,0,11.27-18.58c28-52.61,31.94-114.25,37.8-172.41,6.91-68.51,11.24-137,2.52-205.52-8.32-65.44-25.58-129.32-45.57-192.06-10-31.55-20.8-62.88-31.56-94.19-9.22-26.81-18.61-53.59-29.47-79.79-21.36-51.56-48.85-101.53-90.35-139.69Z" transform="translate(-386.14 -106.28)"/><path class="cls-2" d="M1234.54,522.51c-1.61-2.79-5.93-.27-4.32,2.53q4.35,7.53,8.57,15.15a898.25,898.25,0,0,1,57.76,127.26,962.09,962.09,0,0,1,37.82,133.33,1002.39,1002.39,0,0,1,19.14,144,1022.52,1022.52,0,0,1-1.87,147.89,1015.11,1015.11,0,0,1-23.45,146.73c-.74,3.14,4.08,4.46,4.82,1.33q2.12-9,4.09-18a1023.68,1023.68,0,0,0,20.08-297.05,1008.41,1008.41,0,0,0-21.55-142.62,956.8,956.8,0,0,0-40.83-134.44,903.25,903.25,0,0,0-60.26-126.1Z" transform="translate(-386.14 -106.28)"/><path class="cls-2" d="M766,957.18c1-3.08-3.86-4.38-4.82-1.32a89.86,89.86,0,0,0,47.2,108.28,2.56,2.56,0,0,0,3.42-.9,2.52,2.52,0,0,0-.9-3.42A84.82,84.82,0,0,1,766,957.18Z" transform="translate(-386.14 -106.28)"/><path class="cls-2" d="M1098,507.44c.22,3.2,5.22,3.21,5,0q-1-14.24-1.3-28.52A632,632,0,0,1,1110,361.54a616.32,616.32,0,0,1,29.1-111.63c10.48-28.57,24.51-57.41,47-78.55a97.29,97.29,0,0,1,38.28-22.72c16.69-5,34.59-5,51.51-1.11,34.19,7.82,62.14,30.35,83.45,57.46a271.82,271.82,0,0,1,28,43.9,208.5,208.5,0,0,1,18,48.31c3.69,16.11,5.12,33,2.47,49.43a93,93,0,0,1-19.58,44.19c-20,24.43-50.09,37.83-78.88,48.92-37.73,14.53-75.79,28.22-113.69,42.3l-117.46,43.63c-3,1.11-1.69,5.94,1.33,4.82l29.19-10.84,119.6-44.43,59.8-22.21c16.11-6,32.31-11.84,47.94-19,29.13-13.39,57-32.61,70-63.1,13.59-32.06,8.42-68.6-3.59-100.29a258.33,258.33,0,0,0-23.9-47,236.76,236.76,0,0,0-32.74-41.41c-25.1-24.87-58.3-42.46-94.26-42.47a97.3,97.3,0,0,0-48.17,12.58c-13.27,7.55-24.62,18.13-34,30.07-20.45,25.91-32.59,57.23-42.54,88.38A638.65,638.65,0,0,0,1098,507.44Z" transform="translate(-386.14 -106.28)"/><path class="cls-2" d="M1165.49,528.05c0,3.22,5,3.22,5,0a233.57,233.57,0,0,1,31.26-119.32A230.33,230.33,0,0,1,1266.3,337a236.25,236.25,0,0,1,86.1-39.14c31.49-7.15,65-7.52,96.13,1.67a139.93,139.93,0,0,1,43.07,21,116.67,116.67,0,0,1,29.6,32c15.31,24.37,22.08,54.87,13.72,82.89-8.14,27.26-28.87,48.14-52.71,62.59-26.34,16-56.2,25-86.21,31.08a441.4,441.4,0,0,1-109.83,8.25,439.22,439.22,0,0,1-108.45-19.17c-3.09-1-4.39,3.87-1.33,4.82q13,4,26.27,7.27a446.67,446.67,0,0,0,112.13,12.58,436.45,436.45,0,0,0,110.12-15.51c28.37-7.88,56.44-19.85,79.25-38.8a115,115,0,0,0,27.45-32.48,94.9,94.9,0,0,0,11.87-42c1.23-30-11.39-59.63-31.35-81.63-21.78-24-52.79-37.82-84.47-42.67-32.84-5-66.66-1.17-98.11,9.23a242.56,242.56,0,0,0-83.73,48,235.24,235.24,0,0,0-59.35,80.82,240.64,240.64,0,0,0-21,100.25Z" transform="translate(-386.14 -106.28)"/></g></svg>