<?xml version="1.0" encoding="utf-8"?>
<!-- Generator: Adobe Illustrator 24.2.3, SVG Export Plug-In . SVG Version: 6.00 Build 0)  -->
<svg version="1.1" xmlns="http://www.w3.org/2000/svg" xmlns:xlink="http://www.w3.org/1999/xlink" x="0px" y="0px"
	 viewBox="0 0 1041.6 105.6" style="enable-background:new 0 0 1041.6 105.6;" xml:space="preserve">
<style type="text/css">
	.st0{fill:#FBEC51;}
	.st1{stroke:#1D1E1B;stroke-width:0.25;stroke-miterlimit:10;}
	.st2{fill:#1D1E1B;}
</style>
<g id="Слой_2">
	<g>
		<g>
			<path class="st0" d="M666.7,9.55c-0.89,3.15-2.09,6.98-5.75,7.72c-0.62,0.12-0.57,1.05,0,1.21c2.52,0.68,3.61,3.16,4.22,5.48
				c0.63,2.4,1.12,4.84,1.67,7.26c0.16,0.71,1.19,0.51,1.23-0.17c0.26-4.64,2.45-8.91,6.01-11.89c0.26-0.22,0.22-0.66,0-0.88
				c-2.82-2.81-5.78-7.37-5.15-11.55c-0.4-0.11-0.8-0.22-1.21-0.33c-0.61,4.11-2.28,7.94-4.94,11.13c-0.41,0.5,0.15,1.44,0.76,0.98
				c2.48-1.88,4.27-4.36,5.23-7.31c0.25-0.78-0.92-1.07-1.21-0.33c-1.27,3.26-2.53,6.53-3.8,9.79c-0.26,0.68,0.79,1.07,1.14,0.48
				c1.61-2.67,3.23-5.33,4.84-8c-0.38-0.16-0.76-0.32-1.14-0.48c-1.15,2.87-2.3,5.73-3.46,8.6c-0.27,0.67,0.79,1.07,1.14,0.48
				c1.28-2.1,2.55-4.2,3.83-6.31c-0.38-0.16-0.76-0.32-1.14-0.48c-0.85,2.78-1.7,5.56-2.55,8.33c-0.17,0.57,0.64,1.11,1.04,0.61
				c1.22-1.52,2.45-3.04,3.67-4.56c-0.33-0.25-0.65-0.5-0.98-0.76c-1.07,1.91-2.13,3.82-3.2,5.73c-0.39,0.7,0.67,1.33,1.08,0.63
				c1.24-2.13,2.48-4.26,3.72-6.38c0.41-0.7-0.67-1.33-1.08-0.63c-1.24,2.13-2.48,4.26-3.72,6.38c0.36,0.21,0.72,0.42,1.08,0.63
				c1.07-1.91,2.13-3.82,3.2-5.73c0.33-0.59-0.52-1.33-0.98-0.76c-1.22,1.52-2.45,3.04-3.67,4.56c0.35,0.2,0.7,0.41,1.04,0.61
				c0.85-2.78,1.7-5.56,2.55-8.33c0.21-0.69-0.78-1.08-1.14-0.48c-1.28,2.1-2.55,4.2-3.83,6.31c0.38,0.16,0.76,0.32,1.14,0.48
				c1.15-2.87,2.3-5.73,3.46-8.6c0.27-0.67-0.79-1.07-1.14-0.48c-1.61,2.67-3.22,5.33-4.84,8c0.38,0.16,0.76,0.32,1.14,0.48
				c1.27-3.26,2.53-6.53,3.8-9.79c-0.4-0.11-0.8-0.22-1.21-0.33c-0.86,2.62-2.46,4.9-4.66,6.57c0.25,0.33,0.5,0.65,0.76,0.98
				c2.79-3.36,4.62-7.36,5.26-11.68c0.12-0.79-1.09-1.13-1.21-0.33c-0.7,4.67,2.29,9.58,5.47,12.76c0-0.29,0-0.59,0-0.88
				c-3.81,3.19-6.09,7.82-6.37,12.77c0.41-0.06,0.82-0.11,1.23-0.17c-0.67-2.94-1.12-6.07-2.18-8.9c-0.81-2.17-2.26-4.09-4.59-4.71
				c0,0.4,0,0.8,0,1.21c4.12-0.82,5.62-5.02,6.62-8.59C668.13,9.11,666.92,8.78,666.7,9.55L666.7,9.55z"/>
		</g>
	</g>
	<g>
		<g>
			<path class="st0" d="M490.45,69.03c0.13,0.17,0.04,0.05,0.02,0.01c-0.02-0.03-0.04-0.07-0.05-0.1c0.02,0.05,0.04,0.1,0.06,0.15
				c-0.04-0.09-0.06-0.18-0.08-0.28c0.01,0.06,0.01,0.11,0.02,0.17c-0.01-0.11-0.01-0.21,0-0.32c-0.01,0.06-0.01,0.11-0.02,0.17
				c0.02-0.1,0.04-0.19,0.08-0.28c-0.02,0.05-0.04,0.1-0.06,0.15c0.02-0.04,0.04-0.09,0.07-0.13c0.01-0.02,0.04-0.05,0.05-0.07
				c-0.01,0.02-0.1,0.13-0.03,0.05c0.02-0.02,0.03-0.03,0.05-0.05c0.07-0.07-0.11,0.07-0.05,0.03c0.05-0.03,0.09-0.06,0.14-0.08
				c-0.05,0.02-0.1,0.04-0.15,0.06c0.06-0.02,0.11-0.04,0.17-0.05c-0.06,0.01-0.11,0.01-0.17,0.02c0.06-0.01,0.11-0.01,0.17,0
				c-0.06-0.01-0.11-0.01-0.17-0.02c0.04,0.01,0.07,0.02,0.11,0.03c-0.05-0.02-0.1-0.04-0.15-0.06c0.02,0.01,0.03,0.02,0.05,0.03
				c0.09,0.04-0.09-0.09-0.05-0.04c0.04,0.04-0.06-0.11-0.04-0.06c0,0.02,0.03,0.05,0.03,0.06c-0.02-0.05-0.04-0.1-0.06-0.15
				c0.02,0.04,0.03,0.09,0.04,0.14c-0.01-0.06-0.01-0.11-0.02-0.17c0.01,0.06,0.01,0.12,0,0.18c0.01-0.06,0.01-0.11,0.02-0.17
				c-0.01,0.1-0.04,0.2-0.08,0.29c0.02-0.05,0.04-0.1,0.06-0.15c-0.04,0.09-0.09,0.17-0.14,0.26c-0.05,0.08,0.04-0.05,0.04-0.05
				c0,0-0.04,0.04-0.05,0.05c-0.07,0.08,0.1-0.06,0.04-0.03c-0.02,0.01-0.04,0.03-0.07,0.04c0.05-0.02,0.1-0.04,0.15-0.06
				c-0.05,0.02-0.09,0.03-0.14,0.04c0.06-0.01,0.11-0.01,0.17-0.02c-0.04,0-0.08,0-0.12,0c0.06,0.01,0.11,0.01,0.17,0.02
				c-0.03-0.01-0.06-0.01-0.08-0.02c0.05,0.02,0.1,0.04,0.15,0.06c-0.02-0.01-0.03-0.02-0.05-0.03c0.05,0.02,0.09,0.06,0.11,0.1
				c0.07,0.09,0-0.01-0.01-0.04c0.02,0.05,0.04,0.1,0.06,0.15c-0.01-0.03-0.02-0.06-0.02-0.09c0.01,0.06,0.01,0.11,0.02,0.17
				c-0.01-0.05-0.01-0.1,0-0.15c-0.01,0.06-0.01,0.11-0.02,0.17c0.01-0.06,0.03-0.11,0.05-0.16c-0.02,0.05-0.04,0.1-0.06,0.15
				c0.03-0.07,0.07-0.13,0.11-0.19c0.02-0.03,0.04-0.06,0.06-0.09c0.01-0.02,0.1-0.14,0.03-0.04c-0.07,0.09,0.01-0.01,0.02-0.02
				c0.02-0.02,0.04-0.05,0.07-0.07c0.1-0.09-0.08,0.05-0.03,0.02c0.03-0.02,0.06-0.04,0.09-0.05c-0.05,0.02-0.1,0.04-0.15,0.06
				c0.04-0.02,0.07-0.03,0.11-0.03c-0.06,0.01-0.11,0.01-0.17,0.02c0.03,0,0.06,0,0.09,0c-0.06-0.01-0.11-0.01-0.17-0.02
				c0.03,0,0.07,0.01,0.1,0.02c-0.05-0.02-0.1-0.04-0.15-0.06c0.02,0.01,0.04,0.03,0.06,0.03c-0.09-0.08-0.12-0.09-0.07-0.05
				c0.01,0.01,0.02,0.02,0.03,0.03c0.04,0.03-0.09-0.15-0.04-0.04c0.01,0.03,0.03,0.05,0.04,0.08c-0.02-0.05-0.04-0.1-0.06-0.15
				c0.03,0.08,0.05,0.16,0.07,0.24c-0.01-0.06-0.01-0.11-0.02-0.17c0.02,0.13,0.01,0.26,0,0.39c0.01-0.06,0.01-0.11,0.02-0.17
				c-0.02,0.12-0.05,0.24-0.09,0.35c0.02-0.05,0.04-0.1,0.06-0.15c-0.02,0.05-0.05,0.11-0.08,0.16c0,0-0.05,0.08-0.05,0.08
				c0,0,0.11-0.13,0.03-0.04c-0.02,0.02-0.04,0.04-0.06,0.06c-0.07,0.07,0.1-0.07,0.04-0.03c-0.05,0.03-0.1,0.06-0.15,0.09
				c0.05-0.02,0.1-0.04,0.15-0.06c-0.06,0.02-0.12,0.04-0.18,0.05c0.06-0.01,0.11-0.01,0.17-0.02c-0.07,0.01-0.14,0.01-0.21,0
				c0.06,0.01,0.11,0.01,0.17,0.02c-0.07-0.01-0.14-0.03-0.21-0.06c0.05,0.02,0.1,0.04,0.15,0.06c-0.05-0.02-0.09-0.04-0.14-0.07
				c-0.02-0.01-0.1-0.07-0.01,0c0.09,0.07,0.01,0-0.01-0.01c-0.01-0.01-0.03-0.03-0.04-0.04c-0.08-0.08,0.06,0.1,0.03,0.04
				c-0.03-0.05-0.06-0.1-0.09-0.15c0.02,0.05,0.04,0.1,0.06,0.15c-0.04-0.09-0.06-0.19-0.08-0.29c0.01,0.06,0.01,0.11,0.02,0.17
				c-0.01-0.1-0.01-0.2,0-0.3c-0.01,0.06-0.01,0.11-0.02,0.17c0.02-0.11,0.05-0.22,0.09-0.32c-0.02,0.05-0.04,0.1-0.06,0.15
				c0.03-0.07,0.06-0.13,0.1-0.19c0.04-0.06,0.08-0.07-0.02,0.03c0.03-0.02,0.05-0.06,0.07-0.08c0.03-0.03,0.05-0.05,0.08-0.07
				c0.08-0.07-0.13,0.08-0.03,0.02c0.06-0.04,0.12-0.07,0.19-0.1c-0.05,0.02-0.1,0.04-0.15,0.06c0.08-0.03,0.15-0.05,0.24-0.06
				c-0.06,0.01-0.11,0.01-0.17,0.02c0.08-0.01,0.16-0.01,0.24,0c-0.06-0.01-0.11-0.01-0.17-0.02c0.08,0.01,0.16,0.03,0.23,0.06
				c-0.05-0.02-0.1-0.04-0.15-0.06c0.04,0.02,0.08,0.04,0.12,0.06c0.02,0.01,0.03,0.02,0.05,0.03c0.05,0.03-0.12-0.11-0.05-0.03
				c0.01,0.01,0.03,0.03,0.04,0.04c0.06,0.06-0.04-0.06-0.04-0.06c0.03,0.01,0.06,0.1,0.07,0.12c-0.02-0.05-0.04-0.1-0.06-0.15
				c0.03,0.07,0.05,0.14,0.06,0.21c-0.01-0.06-0.01-0.11-0.02-0.17c0.01,0.07,0.01,0.13,0,0.19c0.01-0.06,0.01-0.11,0.02-0.17
				c-0.01,0.06-0.03,0.12-0.05,0.19c0.02-0.05,0.04-0.1,0.06-0.15c-0.01,0.03-0.03,0.06-0.05,0.1c-0.05,0.09,0.11-0.11,0.03-0.04
				c-0.02,0.02-0.04,0.04-0.06,0.06c0.09-0.06,0.1-0.08,0.05-0.04c-0.02,0.01-0.04,0.02-0.06,0.03c0.05-0.02,0.1-0.04,0.15-0.06
				c-0.04,0.02-0.09,0.03-0.13,0.04c0.06-0.01,0.11-0.01,0.17-0.02c-0.04,0-0.07,0-0.1,0c0.06,0.01,0.11,0.01,0.17,0.02
				c-0.03-0.01-0.06-0.01-0.09-0.02c0.05,0.02,0.1,0.04,0.15,0.06c-0.02-0.01-0.04-0.02-0.05-0.03c0.08,0.07,0.1,0.09,0.07,0.05
				c-0.03-0.03-0.02-0.01,0.05,0.07c-0.01-0.02-0.02-0.03-0.03-0.05c0.02,0.05,0.04,0.1,0.06,0.15c-0.01-0.03-0.02-0.05-0.02-0.08
				c0.01,0.06,0.01,0.11,0.02,0.17c0-0.02,0-0.04,0-0.06c-0.01,0.06-0.01,0.11-0.02,0.17c0.01-0.03,0.01-0.06,0.02-0.08
				c-0.02,0.05-0.04,0.1-0.06,0.15c0.01-0.02,0.02-0.04,0.03-0.05c-0.07,0.08-0.08,0.1-0.04,0.06c-0.14,0.12-0.06,0.04,0,0.01
				c-0.05,0.02-0.1,0.04-0.15,0.06c0.04-0.02,0.08-0.03,0.13-0.04c-0.06,0.01-0.11,0.01-0.17,0.02c0.1-0.01,0.19-0.01,0.29,0
				c-0.06-0.01-0.11-0.01-0.17-0.02c0.05,0.01,0.1,0.02,0.15,0.02c0.17,0.03,0.33,0.03,0.48-0.06c0.13-0.08,0.25-0.22,0.29-0.37
				c0.07-0.3-0.09-0.71-0.44-0.77c-0.27-0.05-0.52-0.08-0.79-0.03c-0.27,0.06-0.52,0.24-0.67,0.47c-0.34,0.53-0.01,1.28,0.6,1.4
				c0.51,0.1,1.06-0.17,1.27-0.65c0.19-0.41,0.2-0.9-0.04-1.3c-0.23-0.38-0.63-0.62-1.07-0.68c-0.46-0.06-0.88,0.09-1.24,0.37
				c-0.65,0.52-0.89,1.57-0.42,2.29c0.27,0.41,0.67,0.65,1.15,0.7c0.43,0.05,0.89-0.16,1.16-0.48c0.31-0.36,0.45-0.81,0.46-1.28
				c0-0.38-0.11-0.82-0.41-1.08c-0.2-0.18-0.45-0.29-0.72-0.27c-0.29,0.02-0.54,0.14-0.75,0.34c-0.15,0.14-0.27,0.31-0.38,0.48
				c-0.14,0.21-0.23,0.44-0.25,0.7c-0.05,0.57,0.43,1.1,1.01,1.06c0.5-0.03,0.89-0.37,1.09-0.82c0.19-0.41,0.28-0.92,0.02-1.33
				c-0.28-0.44-0.84-0.61-1.32-0.43c-0.45,0.17-0.74,0.5-0.91,0.94c-0.13,0.33-0.14,0.75-0.02,1.09c0.08,0.23,0.18,0.39,0.32,0.58
				c0.09,0.12,0.3,0.18,0.44,0.18c0.15,0,0.34-0.07,0.44-0.18c0.11-0.12,0.19-0.28,0.18-0.44C490.62,69.3,490.55,69.17,490.45,69.03
				L490.45,69.03z"/>
		</g>
	</g>
	<g>
		<g>
			<path class="st0" d="M472.8,71.95c0.63,0.21,0.94,0.92,0.99,1.54c0.07,0.74-0.03,1.61-0.32,2.3c-0.1,0.25-0.25,0.5-0.47,0.66
				c-0.19,0.14-0.42,0.17-0.62,0.08c0.02,0.01-0.05-0.06-0.05-0.06c-0.05-0.15-0.01-0.3,0.03-0.45c0.12-0.44,0.3-0.87,0.45-1.3
				c0.37-1.05,0.75-2.11,1.12-3.16c0.1-0.29-0.09-0.63-0.36-0.74c-0.3-0.12-0.6-0.01-0.78,0.26c-0.5,0.72-0.9,1.5-1.22,2.31
				c-0.15,0.39-0.29,0.79-0.39,1.19c-0.12,0.44-0.31,1-0.05,1.42c0.26,0.43,0.83,0.51,1.25,0.27c0.43-0.25,0.53-0.71,0.56-1.16
				c0.05-0.72,0.36-1.34,0.89-1.83c-0.35-0.09-0.7-0.18-1.04-0.28c0.22,1.07-0.08,2.17-0.73,3.03c-0.2,0.27-0.04,0.7,0.22,0.86
				c0.32,0.19,0.65,0.05,0.86-0.22c0.86-1.13,1.14-2.61,0.86-3.99c-0.1-0.48-0.72-0.57-1.04-0.28c-0.46,0.42-0.79,0.93-1.01,1.51
				c-0.1,0.25-0.16,0.51-0.2,0.77c-0.02,0.17-0.05,0.35-0.05,0.52c0,0.01-0.02,0.1-0.02,0.1c0.02-0.04,0.05-0.08,0.09-0.09
				c0.13-0.09,0.27-0.06,0.42,0.09c0.03,0.11,0.06,0.21,0.09,0.32c-0.04-0.31,0.12-0.69,0.21-0.98c0.1-0.35,0.23-0.7,0.37-1.04
				c0.28-0.66,0.63-1.28,1.04-1.87c-0.38-0.16-0.76-0.32-1.14-0.48c-0.42,1.18-0.84,2.36-1.25,3.53c-0.18,0.52-0.44,1.06-0.41,1.62
				c0.02,0.6,0.36,1.11,0.92,1.33c0.96,0.38,1.96-0.2,2.44-1.04c0.24-0.41,0.38-0.88,0.47-1.34c0.1-0.55,0.18-1.13,0.16-1.69
				c-0.06-1.25-0.67-2.49-1.92-2.9C472.37,70.49,472.04,71.7,472.8,71.95L472.8,71.95z"/>
		</g>
	</g>
	<g>
		<g>
			<path class="st0" d="M343.76,11.21c-0.3,5.36,2.87,10.26,7.78,12.33c0.74,0.31,1.06-0.9,0.33-1.21
				c-4.42-1.85-7.13-6.37-6.87-11.12C345.05,10.4,343.8,10.41,343.76,11.21L343.76,11.21z"/>
		</g>
	</g>
	<g>
		<g>
			<path class="st0" d="M343.92,10.14c-1.26,5.2-6.05,8.22-10.49,10.53c-0.71,0.37-0.08,1.45,0.63,1.08
				c4.73-2.46,9.73-5.75,11.07-11.28C345.31,9.7,344.11,9.36,343.92,10.14L343.92,10.14z"/>
		</g>
	</g>
	<g>
		<g>
			<path class="st0" d="M333.12,21.59c4.62,4.12,7.48,9.99,7.82,16.18c0.04,0.8,1.29,0.81,1.25,0c-0.35-6.51-3.31-12.73-8.18-17.07
				C333.4,20.17,332.52,21.05,333.12,21.59L333.12,21.59z"/>
		</g>
	</g>
	<g>
		<g>
			<path class="st0" d="M351.18,22.08c-3.07,0.61-5.42,2.9-6.93,5.54c-1.74,3.05-2.76,6.58-3.49,10c-0.17,0.78,1.04,1.12,1.21,0.33
				c0.67-3.15,1.6-6.38,3.11-9.24c1.37-2.58,3.48-4.84,6.44-5.43C352.3,23.13,351.97,21.93,351.18,22.08L351.18,22.08z"/>
		</g>
	</g>
	<g>
		<g>
			<path class="st0" d="M343.1,14.49c-2.32,2.74-5.02,5.1-8.06,7.01c0.31,0.24,0.61,0.47,0.92,0.71c-0.02,0.08,2.39-0.21,2.66-0.3
				c0.81-0.28,1.55-0.71,2.22-1.25c1.56-1.25,2.56-3.04,3.52-4.75c-0.36-0.21-0.72-0.42-1.08-0.63c-1.52,3.07-3.68,5.72-6.38,7.83
				c0.29,0.29,0.59,0.59,0.88,0.88c2.48-2.16,4.96-4.33,7.44-6.49c-0.33-0.25-0.65-0.5-0.98-0.76c-1.74,2.92-3.55,5.93-6.34,7.97
				c-0.64,0.47-0.1,1.45,0.63,1.08c3.11-1.6,5.83-3.85,7.99-6.61c0.48-0.62-0.35-1.51-0.88-0.88c-2.54,2.96-5.09,5.92-7.63,8.88
				c-0.43,0.5,0.14,1.41,0.76,0.98c3.15-2.17,5.95-4.77,8.34-7.76c-0.35-0.2-0.7-0.41-1.04-0.61c-1.22,4.1-5.67,6.29-6.53,10.59
				c-0.15,0.72,0.72,1.04,1.14,0.48c2.35-3.11,4.94-6.03,7.73-8.75c-0.33-0.25-0.65-0.5-0.98-0.76c-1.89,4.27-4.75,8.1-7.31,11.98
				c-0.44,0.67,0.64,1.3,1.08,0.63c2.56-3.88,5.42-7.71,7.31-11.98c0.27-0.62-0.44-1.29-0.98-0.76c-2.87,2.8-5.51,5.81-7.93,9
				c0.38,0.16,0.76,0.32,1.14,0.48c0.85-4.24,5.31-6.48,6.53-10.59c0.17-0.57-0.64-1.11-1.04-0.61c-2.32,2.9-5.03,5.45-8.09,7.56
				c0.25,0.33,0.5,0.65,0.76,0.98c2.54-2.96,5.09-5.92,7.63-8.88c-0.29-0.29-0.59-0.59-0.88-0.88c-2.1,2.68-4.7,4.85-7.73,6.41
				c0.21,0.36,0.42,0.72,0.63,1.08c2.98-2.18,4.92-5.29,6.79-8.42c0.38-0.63-0.46-1.21-0.98-0.76c-2.48,2.16-4.96,4.33-7.44,6.49
				c-0.62,0.54,0.27,1.37,0.88,0.88c2.77-2.17,5.02-4.93,6.57-8.08c0.35-0.71-0.68-1.34-1.08-0.63c-1.02,1.83-2.09,3.8-3.93,4.92
				c-0.93,0.56-1.85,0.76-2.92,0.74c-0.76-0.01-1.5,0.06-1.67,0.94c-0.1,0.51,0.43,1.01,0.92,0.71c3.13-1.96,5.93-4.38,8.31-7.21
				C344.5,14.76,343.62,13.88,343.1,14.49L343.1,14.49z"/>
		</g>
	</g>
	<g>
		<g>
			<path class="st0" d="M337.74,39.18c0.24,2.34-0.64,4.57-2.42,6.11c-0.24,0.21-0.25,0.68,0,0.88c2.14,1.79,2.14,4.69,2.1,7.25
				c-0.01,0.69,1.07,0.86,1.23,0.17c0.37-1.68,0.74-3.35,1.12-5.03c0.32-1.44,0.77-3.22,2.4-3.64c0.43-0.11,0.64-0.74,0.28-1.04
				c-1.86-1.6-3.15-3.68-3.71-6.07c-0.16-0.67-1.32-0.54-1.23,0.17c0.34,2.75-0.21,5.91-3,7.15c0.29,0.29,0.57,0.57,0.86,0.86
				c0.35-0.55,1.11-0.64,1.62-0.27c0.55,0.41,0.65,1.12,0.57,1.75c0.42,0,0.83,0,1.25,0c-0.01-1.54,0.37-2.99,1.13-4.33
				c-0.39-0.11-0.78-0.21-1.16-0.32c-0.09,0.69-0.18,1.38-0.27,2.07c-0.09,0.72,1.03,0.81,1.23,0.17c0.22-0.71,0.44-1.41,0.66-2.12
				c0.24-0.77-0.97-1.1-1.21-0.33c-0.22,0.71-0.44,1.41-0.66,2.12c0.41,0.06,0.82,0.11,1.23,0.17c0.09-0.69,0.18-1.38,0.27-2.07
				c0.08-0.64-0.88-0.82-1.16-0.32c-0.86,1.53-1.31,3.21-1.3,4.96c0,0.83,1.15,0.77,1.25,0c0.16-1.2-0.39-2.52-1.54-3.03
				c-1.08-0.48-2.36-0.08-2.98,0.91c-0.36,0.58,0.33,1.09,0.86,0.86c3.17-1.41,4.02-5.08,3.62-8.23c-0.41,0.06-0.82,0.11-1.23,0.17
				c0.62,2.58,2.02,4.9,4.04,6.62c0.09-0.35,0.18-0.7,0.28-1.04c-1.66,0.42-2.57,1.9-3.02,3.46c-0.57,1.99-0.93,4.06-1.38,6.08
				c0.41,0.06,0.82,0.11,1.23,0.17c0.04-2.88-0.08-6.13-2.47-8.13c0,0.29,0,0.59,0,0.88c2-1.73,3.05-4.37,2.78-6.99
				C338.91,38.39,337.66,38.38,337.74,39.18L337.74,39.18z"/>
		</g>
	</g>
	<g>
		<g>
			<path class="st0" d="M294.78,31.15c-2.46,1.67-4.92,3.35-7.38,5.02c-0.66,0.45-0.08,1.47,0.63,1.08
				c2.22-1.22,4.45-2.45,6.67-3.67c-0.29-0.29-0.57-0.57-0.86-0.86c-1.06,1.62-2.13,3.23-3.19,4.85c-0.4,0.6,0.49,1.25,0.98,0.76
				c1.65-1.65,3.31-3.29,4.96-4.94c-0.29-0.29-0.59-0.59-0.88-0.88c-1.57,1.79-3.15,3.58-4.72,5.37c-0.54,0.61,0.27,1.39,0.88,0.88
				c1.5-1.23,2.99-2.46,4.49-3.69c-0.29-0.29-0.59-0.59-0.88-0.88c-2.17,2.55-4.34,5.09-6.52,7.64c-0.43,0.5,0.14,1.42,0.76,0.98
				c2.94-2.11,5.88-4.23,8.82-6.34c-0.25-0.33-0.5-0.65-0.76-0.98c-1.99,1.74-3.98,3.47-5.97,5.21c-0.58,0.51,0.16,1.24,0.76,0.98
				c2.03-0.87,4.06-1.74,6.09-2.62c-0.21-0.36-0.42-0.72-0.63-1.08c-2.65,1.34-5.3,2.68-7.95,4.03c-0.62,0.31-0.19,1.4,0.48,1.14
				c2.9-1.11,5.81-2.21,8.71-3.32c-0.16-0.38-0.32-0.76-0.48-1.14c-5.45,2.43-11.07,5.08-14.44,10.25
				c-0.34,0.52,0.33,1.18,0.86,0.86c6.69-4.21,13.38-8.42,20.07-12.63c-0.21-0.36-0.42-0.72-0.63-1.08
				c-3.31,2.35-6.27,5.11-8.83,8.26c0.29,0.29,0.59,0.59,0.88,0.88c1.11-1.41,2.23-2.82,3.34-4.22c-0.33-0.25-0.65-0.5-0.98-0.76
				c-2.69,3.95-5.89,7.5-9.54,10.59c0.29,0.29,0.59,0.59,0.88,0.88c2.74-3.37,5.96-6.28,9.61-8.64c-0.25-0.33-0.5-0.65-0.76-0.98
				c-4.71,5.05-10.16,9.31-16.21,12.65c0.21,0.36,0.42,0.72,0.63,1.08c5.98-4.01,12.17-7.71,18.54-11.08
				c-0.21-0.36-0.42-0.72-0.63-1.08c-3.46,2.36-6.92,4.72-10.38,7.08c0.31,0.24,0.61,0.47,0.92,0.71c0.57-2.64,1.15-5.29,1.72-7.93
				c0.15-0.7-0.74-1.07-1.14-0.48c-1.13,1.69-2.27,3.37-3.4,5.06c-0.43,0.63,0.47,1.17,0.98,0.76c4.22-3.4,8.43-6.8,12.65-10.19
				c-0.29-0.29-0.59-0.59-0.88-0.88c-5.93,5.02-11.23,10.7-15.85,16.95c0.36,0.21,0.72,0.42,1.08,0.63c1.41-2.64,3.46-4.78,6.05-6.3
				c-0.29-0.29-0.57-0.57-0.86-0.86c-1.27,1.9-2.53,3.79-3.8,5.69c-0.34,0.51,0.34,1.2,0.86,0.86c3.6-2.42,7.2-4.85,10.8-7.27
				c-0.21-0.36-0.42-0.72-0.63-1.08c-5.16,3.54-10.31,7.08-15.47,10.63c-0.65,0.45-0.07,1.5,0.63,1.08c4.9-2.97,9.8-5.94,14.7-8.91
				c-0.25-0.33-0.5-0.65-0.76-0.98c-4.53,3.74-9.06,7.48-13.59,11.22c-0.62,0.51,0.27,1.38,0.88,0.88c4.05-3.28,8.1-6.56,12.16-9.84
				c-0.33-0.25-0.65-0.5-0.98-0.76c-2.76,4.11-6.39,7.51-10.66,10.01c0.25,0.33,0.5,0.65,0.76,0.98c4.33-4.13,9.13-7.72,14.31-10.71
				c-0.21-0.36-0.42-0.72-0.63-1.08c-4.27,2.85-8.15,6.2-11.58,10.02c0.33,0.25,0.65,0.5,0.98,0.76c2.27-3.17,5.33-5.63,8.88-7.22
				c-0.21-0.36-0.42-0.72-0.63-1.08c-4.4,2.72-8.31,6.13-11.57,10.15c-0.5,0.61,0.3,1.46,0.88,0.88c4.58-4.53,9.95-8.12,15.87-10.65
				c-0.21-0.36-0.42-0.72-0.63-1.08c-5.52,3.66-10.45,8.11-14.64,13.24c-0.5,0.61,0.31,1.47,0.88,0.88
				c4.14-4.28,8.85-7.92,14.04-10.84c-0.29-0.29-0.57-0.57-0.86-0.86c-2.77,4.17-5.98,8-9.58,11.47c0.33,0.25,0.65,0.5,0.98,0.76
				c2.41-3.6,5.36-6.76,8.78-9.42c-0.33-0.25-0.65-0.5-0.98-0.76c-1.5,2.59-3,5.17-4.5,7.76c-0.41,0.71,0.62,1.28,1.08,0.63
				c1.46-2.06,2.92-4.11,4.37-6.17c-0.38-0.16-0.76-0.32-1.14-0.48c-0.28,1.03-0.57,2.06-0.85,3.08c-0.17,0.61,0.6,1.03,1.04,0.61
				c0.83-0.79,1.65-1.57,2.48-2.36c0.58-0.56-0.3-1.44-0.88-0.88c-0.83,0.79-1.65,1.57-2.48,2.36c0.35,0.2,0.7,0.41,1.04,0.61
				c0.28-1.03,0.57-2.06,0.85-3.08c0.2-0.72-0.75-1.04-1.14-0.48c-1.46,2.06-2.92,4.11-4.37,6.17c0.36,0.21,0.72,0.42,1.08,0.63
				c1.5-2.59,3-5.17,4.5-7.76c0.38-0.66-0.45-1.17-0.98-0.76c-3.5,2.73-6.51,5.98-8.97,9.67c-0.4,0.6,0.48,1.24,0.98,0.76
				c3.68-3.54,6.95-7.47,9.78-11.73c0.36-0.54-0.33-1.15-0.86-0.86c-5.27,2.98-10.08,6.69-14.29,11.04
				c0.29,0.29,0.59,0.59,0.88,0.88c4.12-5.05,8.95-9.44,14.38-13.05c0.69-0.46,0.1-1.39-0.63-1.08
				c-6.01,2.57-11.47,6.25-16.12,10.85c0.29,0.29,0.59,0.59,0.88,0.88c3.2-3.94,7-7.29,11.32-9.96c0.7-0.43,0.09-1.4-0.63-1.08
				c-3.76,1.69-6.93,4.33-9.33,7.67c-0.41,0.58,0.51,1.28,0.98,0.76c3.36-3.74,7.15-7.04,11.33-9.83c0.66-0.44,0.07-1.49-0.63-1.08
				c-5.28,3.04-10.16,6.7-14.57,10.9c-0.52,0.49,0.15,1.34,0.76,0.98c4.45-2.61,8.23-6.18,11.11-10.46
				c0.43-0.63-0.47-1.17-0.98-0.76c-4.05,3.28-8.1,6.56-12.16,9.84c0.29,0.29,0.59,0.59,0.88,0.88c4.53-3.74,9.06-7.48,13.59-11.22
				c0.55-0.46-0.16-1.34-0.76-0.98c-4.9,2.97-9.8,5.94-14.7,8.91c0.21,0.36,0.42,0.72,0.63,1.08c5.16-3.54,10.31-7.08,15.47-10.63
				c0.66-0.45,0.04-1.53-0.63-1.08c-3.6,2.42-7.2,4.85-10.8,7.27c0.29,0.29,0.57,0.57,0.86,0.86c1.27-1.9,2.53-3.79,3.8-5.69
				c0.36-0.53-0.34-1.16-0.86-0.86c-2.76,1.62-4.99,3.93-6.5,6.75c-0.39,0.73,0.61,1.27,1.08,0.63c4.56-6.15,9.82-11.75,15.66-16.69
				c0.62-0.52-0.27-1.38-0.88-0.88c-4.22,3.4-8.43,6.8-12.65,10.19c0.33,0.25,0.65,0.5,0.98,0.76c1.13-1.69,2.27-3.37,3.4-5.06
				c-0.38-0.16-0.76-0.32-1.14-0.48c-0.57,2.64-1.15,5.29-1.72,7.93c-0.11,0.49,0.44,1.03,0.92,0.71c3.46-2.36,6.92-4.72,10.38-7.08
				c0.66-0.45,0.09-1.46-0.63-1.08c-6.37,3.37-12.55,7.07-18.54,11.08c-0.66,0.44-0.08,1.47,0.63,1.08
				c6.13-3.39,11.69-7.72,16.46-12.84c0.47-0.5-0.14-1.38-0.76-0.98c-3.73,2.42-7.05,5.38-9.86,8.84c-0.51,0.62,0.26,1.41,0.88,0.88
				c3.73-3.16,6.99-6.8,9.73-10.84c0.39-0.58-0.54-1.32-0.98-0.76c-1.11,1.41-2.23,2.82-3.34,4.22c-0.49,0.62,0.37,1.51,0.88,0.88
				c2.49-3.06,5.36-5.77,8.58-8.06c0.64-0.46,0.06-1.51-0.63-1.08c-6.69,4.21-13.38,8.42-20.07,12.63c0.29,0.29,0.57,0.57,0.86,0.86
				c3.23-4.96,8.76-7.47,13.99-9.8c0.64-0.29,0.18-1.4-0.48-1.14c-2.9,1.11-5.81,2.21-8.71,3.32c0.16,0.38,0.32,0.76,0.48,1.14
				c2.65-1.34,5.3-2.68,7.95-4.03c0.73-0.37,0.09-1.39-0.63-1.08c-2.03,0.87-4.06,1.74-6.09,2.62c0.25,0.33,0.5,0.65,0.76,0.98
				c1.99-1.74,3.98-3.47,5.97-5.21c0.53-0.46-0.18-1.4-0.76-0.98c-2.94,2.11-5.88,4.23-8.82,6.34c0.25,0.33,0.5,0.65,0.76,0.98
				c2.17-2.55,4.34-5.09,6.52-7.64c0.53-0.62-0.26-1.39-0.88-0.88c-1.5,1.23-2.99,2.46-4.49,3.69c0.29,0.29,0.59,0.59,0.88,0.88
				c1.57-1.79,3.15-3.58,4.72-5.37c0.53-0.6-0.31-1.46-0.88-0.88c-1.65,1.65-3.31,3.29-4.96,4.94c0.33,0.25,0.65,0.5,0.98,0.76
				c1.06-1.62,2.13-3.23,3.19-4.85c0.36-0.54-0.33-1.14-0.86-0.86c-2.22,1.22-4.45,2.45-6.67,3.67c0.21,0.36,0.42,0.72,0.63,1.08
				c2.46-1.67,4.92-3.35,7.38-5.02C296.07,31.78,295.45,30.69,294.78,31.15L294.78,31.15z"/>
		</g>
	</g>
	<g>
		<g>
			<path class="st0" d="M67.04,9.42c-0.3,0.83-0.6,1.65-0.9,2.48c0.4,0.11,0.8,0.22,1.21,0.33c0.09-0.5,0.18-1,0.26-1.51
				c0.04-0.25-0.01-0.49-0.22-0.66c-0.2-0.15-0.47-0.17-0.69-0.05c-0.3,0.17-0.6,0.37-0.77,0.68c-0.2,0.39-0.19,0.85,0.08,1.2
				c0.19,0.24,0.45,0.36,0.73,0.46c0.05,0.02,0.1,0.03,0.14,0.05c0.02,0.01,0.04,0.02,0.06,0.02c0.07,0.02-0.12-0.06-0.06-0.02
				c0.03,0.02,0.1,0.07,0.13,0.07c-0.03,0-0.11-0.11-0.04-0.03c0.03,0.04,0.07,0.1-0.03-0.04c0.07-0.29,0.15-0.57,0.22-0.86
				c-0.17,0.13-0.35,0.26-0.52,0.39c0.31,0.24,0.61,0.47,0.92,0.71c0.04-0.19,0.1-0.38,0.16-0.56c0.03-0.06,0.02-0.06-0.01,0.02
				c0.01-0.03,0.02-0.06,0.04-0.08c0.02-0.04,0.04-0.08,0.06-0.12c0.04-0.09,0.09-0.17,0.14-0.26c0.05-0.07,0.1-0.18,0.17-0.24
				c-0.11,0.09-0.01,0.02,0.01-0.02c0.03-0.04,0.07-0.08,0.1-0.12c0.14-0.15,0.29-0.29,0.45-0.41c-0.35-0.2-0.7-0.41-1.04-0.61
				c-0.05,0.3-0.11,0.6-0.16,0.91c-0.05,0.25,0.01,0.49,0.22,0.66c0.19,0.15,0.48,0.18,0.69,0.05c0.2-0.12,0.39-0.24,0.59-0.37
				c0.28-0.17,0.41-0.57,0.22-0.86c-0.18-0.28-0.56-0.41-0.86-0.22c-0.2,0.12-0.39,0.24-0.59,0.37c0.31,0.24,0.61,0.47,0.92,0.71
				c0.05-0.3,0.11-0.6,0.16-0.91c0.05-0.27-0.03-0.57-0.29-0.71c-0.27-0.14-0.53-0.08-0.76,0.1c-0.73,0.57-1.26,1.43-1.44,2.34
				c-0.05,0.25,0.01,0.5,0.22,0.66c0.18,0.14,0.5,0.2,0.69,0.05c0.17-0.13,0.35-0.26,0.52-0.39c0.13-0.1,0.25-0.21,0.29-0.37
				c0.04-0.16,0.03-0.34-0.06-0.48c-0.14-0.21-0.32-0.37-0.55-0.47c-0.11-0.05-0.22-0.09-0.34-0.13c-0.04-0.01-0.08-0.03-0.13-0.05
				c-0.11-0.04,0.14,0.08,0.01,0.01c-0.03-0.02-0.06-0.04-0.09-0.05c0.08,0.07,0.1,0.08,0.06,0.04c-0.04-0.05-0.03-0.03,0.04,0.06
				C67,11.16,67,11.15,66.99,11.13c-0.02-0.04-0.01-0.02,0.03,0.07c0.01,0.1,0.01,0.11,0.01,0.04c-0.02,0.09-0.02,0.11,0,0.04
				c0.02-0.06,0.02-0.06-0.01,0.03c0.04-0.06,0.03-0.05-0.02,0.02c0.01-0.02,0.08-0.09,0.1-0.1c-0.07,0.05-0.07,0.05-0.01,0.01
				c0.03-0.02,0.05-0.03,0.08-0.05c0.05-0.03,0.11-0.06,0.16-0.09c-0.31-0.24-0.61-0.47-0.92-0.71c-0.09,0.5-0.18,1-0.26,1.51
				c-0.06,0.32,0.09,0.69,0.44,0.77c0.35,0.08,0.65-0.11,0.77-0.44c0.3-0.83,0.6-1.65,0.9-2.48c0.11-0.31-0.13-0.7-0.44-0.77
				C67.45,8.9,67.16,9.09,67.04,9.42L67.04,9.42z"/>
		</g>
	</g>
	<g>
		<g>
			<path class="st0" d="M85.76,12.73c-1,2.64-2.61,4.95-4.71,6.84c-0.45,0.4-0.05,1.01,0.44,1.07c2.27,0.27,2.69,3.11,3.07,4.9
				c0.46,2.17,0.92,4.34,1.38,6.5c0.15,0.72,1.19,0.51,1.23-0.17c0.06-1.19-0.13-2.35-0.21-3.53c-0.07-1.26,0.16-2.36,0.62-3.53
				c0.77-1.96,1.81-4.72,4.22-5.04c0.69-0.09,0.86-0.97,0.17-1.23c-2.65-0.99-4.22-4.15-4.75-6.75c-0.15-0.72-1.19-0.51-1.23,0.17
				c-0.15,2.68-1.28,5.17-3.18,7.06c-0.43,0.43,0,1.24,0.61,1.04c1.01-0.33,2.06-0.67,2.9-1.36c0.88-0.72,1.3-1.7,1.56-2.79
				c0.2-0.8-0.91-1.06-1.21-0.33c-0.87,2.18-2.02,4.21-3.41,6.09c-0.34,0.45,0.22,1.06,0.71,0.92c1-0.28,1.67-0.99,2.18-1.86
				c0.58-0.99,0.93-2.46,2.12-2.92c-0.26-0.26-0.51-0.51-0.77-0.77c-0.97,2.37-1.94,4.74-2.91,7.11c-0.28,0.69,0.77,1.03,1.14,0.48
				c1.36-2.02,2.73-4.05,4.09-6.07c-0.36-0.21-0.72-0.42-1.08-0.63c-1.39,2.4-2.53,4.92-3.43,7.54c-0.26,0.76,0.95,1.09,1.21,0.33
				c0.86-2.52,1.97-4.94,3.3-7.24c0.41-0.7-0.63-1.29-1.08-0.63c-1.36,2.02-2.73,4.05-4.09,6.07c0.38,0.16,0.76,0.32,1.14,0.48
				c0.97-2.37,1.94-4.74,2.91-7.11c0.17-0.42-0.35-0.93-0.77-0.77c-0.97,0.38-1.59,1.08-2.09,1.98c-0.56,1.02-0.95,2.45-2.21,2.81
				c0.24,0.31,0.47,0.61,0.71,0.92c1.47-1.97,2.63-4.11,3.54-6.39c-0.4-0.11-0.8-0.22-1.21-0.33c-0.5,2.02-1.73,2.68-3.59,3.28
				c0.2,0.35,0.41,0.7,0.61,1.04c2.14-2.14,3.38-4.93,3.55-7.95c-0.41,0.06-0.82,0.11-1.23,0.17c0.63,3.07,2.55,6.47,5.63,7.62
				c0.06-0.41,0.11-0.82,0.17-1.23c-2.65,0.35-3.99,2.56-4.96,4.83c-0.51,1.19-1.02,2.39-1.13,3.7c-0.13,1.61,0.29,3.21,0.2,4.82
				c0.41-0.06,0.82-0.11,1.23-0.17c-0.58-2.72-1.06-5.47-1.75-8.16c-0.52-2.02-1.67-3.89-3.9-4.15c0.15,0.36,0.29,0.71,0.44,1.07
				c2.26-2.04,3.95-4.55,5.03-7.39C87.25,12.31,86.04,11.99,85.76,12.73L85.76,12.73z"/>
		</g>
	</g>
	<g>
		<g>
			<path class="st0" d="M41.34,40.76c-0.07-0.09-0.12-0.18-0.17-0.28c0.08,0.2,0.17,0.4,0.25,0.6
				C41.39,40.97,41.36,40.87,41.34,40.76c0.03,0.22,0.06,0.44,0.09,0.66c-0.01-0.14-0.01-0.27,0-0.41
				c-0.03,0.22-0.06,0.44-0.09,0.66c0.02-0.14,0.06-0.27,0.11-0.41c-0.08,0.2-0.17,0.4-0.25,0.6c0.06-0.13,0.13-0.25,0.21-0.37
				c-0.13,0.17-0.26,0.34-0.39,0.51c0.11-0.14,0.24-0.27,0.38-0.38c-0.17,0.13-0.34,0.26-0.51,0.39c0.15-0.11,0.31-0.2,0.49-0.28
				c-0.2,0.08-0.4,0.17-0.6,0.25c0.33-0.14,0.67-0.22,1.02-0.27c-0.22,0.03-0.44,0.06-0.66,0.09c0.43-0.05,0.85-0.06,1.28-0.01
				c-0.22-0.03-0.44-0.06-0.66-0.09c0.27,0.04,0.52,0.1,0.78,0.2c-0.2-0.08-0.4-0.17-0.6-0.25c0.19,0.08,0.36,0.18,0.53,0.3
				c-0.17-0.13-0.34-0.26-0.51-0.39c0.14,0.11,0.26,0.23,0.37,0.37c-0.13-0.17-0.26-0.34-0.39-0.51c0.09,0.13,0.17,0.26,0.23,0.4
				c-0.08-0.2-0.17-0.4-0.25-0.6c0.08,0.2,0.14,0.4,0.17,0.62c-0.03-0.22-0.06-0.44-0.09-0.66c0.03,0.28,0.03,0.56-0.01,0.85
				c0.03-0.22,0.06-0.44,0.09-0.66c-0.06,0.45-0.2,0.89-0.37,1.31c0.08-0.2,0.17-0.4,0.25-0.6c-0.15,0.35-0.33,0.67-0.56,0.97
				c0.13-0.17,0.26-0.34,0.39-0.51c-0.17,0.21-0.35,0.4-0.56,0.56c0.17-0.13,0.34-0.26,0.51-0.39c-0.19,0.14-0.38,0.25-0.59,0.35
				c0.2-0.08,0.4-0.17,0.6-0.25c-0.21,0.09-0.42,0.15-0.65,0.19c0.22-0.03,0.44-0.06,0.66-0.09c-0.19,0.02-0.37,0.02-0.56,0
				c0.22,0.03,0.44,0.06,0.66,0.09c-0.18-0.03-0.35-0.07-0.51-0.14c0.2,0.08,0.4,0.17,0.6,0.25c-0.16-0.07-0.31-0.16-0.46-0.27
				c0.17,0.13,0.34,0.26,0.51,0.39c-0.11-0.09-0.21-0.2-0.31-0.31c0.13,0.17,0.26,0.34,0.39,0.51c-0.09-0.12-0.16-0.24-0.22-0.38
				c0.08,0.2,0.17,0.4,0.25,0.6c-0.04-0.1-0.06-0.2-0.08-0.3c0.03,0.22,0.06,0.44,0.09,0.66c-0.02-0.16-0.02-0.31,0-0.47
				c-0.03,0.22-0.06,0.44-0.09,0.66c0.02-0.13,0.06-0.26,0.1-0.38c-0.08,0.2-0.17,0.4-0.25,0.6c0.05-0.12,0.12-0.23,0.19-0.34
				c-0.13,0.17-0.26,0.34-0.39,0.51c0.07-0.08,0.14-0.15,0.21-0.22c-0.17,0.13-0.34,0.26-0.51,0.39c0.08-0.06,0.17-0.12,0.26-0.17
				c-0.2,0.08-0.4,0.17-0.6,0.25c0.11-0.04,0.21-0.07,0.32-0.1c-0.22,0.03-0.44,0.06-0.66,0.09c0.11-0.01,0.22-0.02,0.34-0.01
				c-0.22-0.03-0.44-0.06-0.66-0.09c0.11,0.02,0.22,0.04,0.33,0.08c-0.2-0.08-0.4-0.17-0.6-0.25c0.1,0.05,0.2,0.1,0.29,0.17
				c-0.17-0.13-0.34-0.26-0.51-0.39c0.07,0.06,0.12,0.11,0.17,0.18c-0.13-0.17-0.26-0.34-0.39-0.51c0.05,0.07,0.09,0.14,0.12,0.22
				c-0.08-0.2-0.17-0.4-0.25-0.6c0.03,0.08,0.05,0.16,0.07,0.24c-0.03-0.22-0.06-0.44-0.09-0.66c0.01,0.11,0.01,0.22,0,0.34
				c0.03-0.22,0.06-0.44,0.09-0.66c-0.02,0.08-0.04,0.16-0.07,0.24c0.08-0.2,0.17-0.4,0.25-0.6c-0.04,0.08-0.08,0.14-0.13,0.21
				c0.13-0.17,0.26-0.34,0.39-0.51c-0.06,0.07-0.11,0.12-0.18,0.17c0.17-0.13,0.34-0.26,0.51-0.39c-0.07,0.05-0.14,0.08-0.22,0.12
				c0.2-0.08,0.4-0.17,0.6-0.25c-0.08,0.03-0.16,0.05-0.24,0.06c0.22-0.03,0.44-0.06,0.66-0.09c-0.14,0.02-0.28,0.02-0.42,0
				c0.22,0.03,0.44,0.06,0.66,0.09c-0.11-0.02-0.22-0.05-0.33-0.09c0.2,0.08,0.4,0.17,0.6,0.25c-0.15-0.07-0.28-0.15-0.42-0.24
				c0.17,0.13,0.34,0.26,0.51,0.39c-0.21-0.17-0.39-0.36-0.56-0.58c0.13,0.17,0.26,0.34,0.39,0.51c-0.06-0.08-0.12-0.16-0.18-0.24
				c-0.38-0.54-0.84-0.97-1.49-1.15c-0.6-0.16-1.4-0.09-1.93,0.25c-0.53,0.34-1,0.86-1.15,1.49c-0.14,0.62-0.13,1.38,0.25,1.93
				c0.51,0.73,1.08,1.44,1.88,1.88c0.9,0.49,1.96,0.66,2.96,0.39c1.16-0.32,2.1-1.24,2.42-2.4c0.33-1.21-0.02-2.42-0.81-3.35
				c-1.35-1.59-4-1.48-5.39-0.03c-1.25,1.31-1.52,3.49-0.46,5c1.12,1.59,3.1,2.34,4.99,1.8c1.53-0.44,2.82-1.61,3.48-3.05
				c0.3-0.64,0.56-1.3,0.67-2c0.13-0.87,0.19-1.72-0.08-2.58c-0.51-1.62-1.87-2.88-3.55-3.19c-0.85-0.16-1.61-0.18-2.45-0.07
				c-0.83,0.11-1.65,0.32-2.36,0.79c-0.9,0.61-1.62,1.46-1.89,2.54c-0.25,1-0.18,2.25,0.47,3.1c0.41,0.54,0.82,0.96,1.49,1.15
				c0.6,0.16,1.4,0.09,1.93-0.25c0.53-0.34,1-0.86,1.15-1.49C41.73,42.08,41.74,41.29,41.34,40.76L41.34,40.76z"/>
		</g>
	</g>
	<g>
		<g>
			<path class="st0" d="M41.77,40.73c0.09-0.32-0.05,0.09-0.09,0.18c0.22-0.43-0.27,0.27-0.08,0.09c0.21-0.21-0.42,0.25-0.16,0.11
				c0.28-0.14-0.49,0.14-0.19,0.07c0.26-0.07-0.59-0.05-0.13,0.01c-0.11-0.02-0.22-0.04-0.33-0.05c0.06,0.01,0.11,0.02,0.17,0.04
				c0.05,0.02,0.11,0.03,0.16,0.05c-0.09-0.04-0.18-0.08-0.28-0.13c0.08,0.08,0.28,0.14,0.39,0.2c0.22,0.13,0.44,0.26,0.66,0.4
				c0.07,0.04,0.19,0.17,0.27,0.18c-0.11-0.02-0.37-0.34-0.13-0.09c0.05,0.05,0.16,0.2,0.23,0.22c-0.2-0.28-0.26-0.35-0.16-0.19
				c0.07,0.12,0.06,0.09-0.02-0.08c-0.18-0.42,0,0.31-0.04-0.17c-0.05-0.49-0.02,0.15-0.02,0.15c-0.05-0.09,0.13-0.54,0.02-0.18
				c-0.02,0.05-0.11,0.27-0.09,0.31c-0.05-0.13,0.23-0.46,0-0.04c-0.06,0.1-0.12,0.2-0.18,0.3c-0.14,0.23-0.29,0.44-0.45,0.66
				c-0.07,0.09-0.14,0.19-0.2,0.28c-0.2,0.28,0.06,0,0.08-0.1c-0.05,0.2-0.38,0.4-0.52,0.56c-0.18,0.21,0.36-0.19,0.11-0.09
				c-0.39,0.16-0.1,0.05,0.12-0.03c-0.34,0.12,0.19-0.06,0.25-0.02c-0.02-0.01-0.25-0.01-0.28,0c0.13,0.01,0.26,0.03,0.4,0.04
				c-0.19-0.06-0.17-0.05,0.05,0.03c0.31,0.17,0.49,0.28,0.7,0.59c-0.74-1.08-2.23-1.67-3.42-0.9c-1.17,0.76-1.56,2.19-0.9,3.42
				c0.54,1,1.26,1.93,2.34,2.38c1.31,0.55,2.76,0.36,3.95-0.41c1.59-1.04,2.95-2.61,3.75-4.34c1.04-2.25,1.53-4.78-0.15-6.87
				c-1.24-1.54-3.46-2.03-5.34-2.09c-2.48-0.07-5.43,1.35-5.83,4.06c1.64,0.22,3.27,0.44,4.91,0.66c-0.05,0.68-0.03,0.25,0.02,0.05
				c0.14-0.54-0.15,0.56,0.01,0.03c0.03-0.04,0.06-0.09,0.09-0.13c-0.22,0.27-0.27,0.34-0.14,0.2c0.45-0.35-0.23,0.12-0.02,0
				c0.16-0.09,0.08-0.07-0.23,0.07c0.05-0.02,0.11-0.04,0.16-0.05c0.22-0.05,0.22-0.06-0.01-0.02c-0.22,0.02-0.22,0.02,0,0.01
				c0.48,0.14-0.51-0.21,0-0.02c0.47,0.18-0.46-0.26,0.02-0.01c0.84-1.44,1.68-2.88,2.52-4.32c-1.51-0.66-3.15-1.3-4.82-0.76
				c-1.71,0.56-3.1,2.1-3.04,3.97c1.42-0.59,2.85-1.18,4.27-1.77c0.25,0.29,0.3,0.49,0.4,0.83c0.02,0.24,0.03,0.26,0.03,0.06
				c-0.01,0.13-0.03,0.26-0.04,0.39c0.06-0.19,0.06-0.18-0.02,0.03c-0.03,0.12-0.09,0.22-0.18,0.31c-0.15,0.18-0.15,0.18,0,0.02
				c-0.09,0.06-0.17,0.12-0.26,0.18c-0.01-0.03,0.32-0.19,0.35-0.21c0.24-0.16-0.5,0.16-0.06,0.03c0.27-0.08,0.53-0.17,0.8-0.24
				c0.27-0.07,0.57-0.09,0.83-0.18c-0.23,0.07-0.47,0.05-0.08,0.04c0.11,0,0.32,0.04,0.41,0.01c-0.11-0.02-0.23-0.03-0.34-0.05
				c0.08,0.01,0.16,0.03,0.24,0.06c0.13,0.04,0.1,0.03-0.07-0.04c-0.2-0.09-0.2-0.09,0,0.01c0.37,0.26-0.23-0.27-0.04-0.04
				c0.05,0.05,0.24,0.29,0.29,0.3c-0.1-0.03-0.28-0.4-0.09-0.1c0.09,0.14,0.18,0.28,0.26,0.43c0.05,0.1,0.1,0.2,0.16,0.3
				c0.27,0.5-0.17-0.52,0.01,0.02c0.09,0.27,0.18,0.53,0.25,0.8c0.03,0.11,0.05,0.22,0.07,0.33c0.13,0.55-0.03-0.41,0-0.08
				c0.02,0.28,0.05,0.56,0.04,0.84c0,0.14-0.01,0.28-0.01,0.42c0,0.05-0.06,0.6-0.01,0.17c0.05-0.42-0.02,0.08-0.04,0.16
				c-0.03,0.14-0.06,0.27-0.1,0.41c-0.04,0.14-0.08,0.27-0.12,0.4c-0.05,0.15-0.27,0.65,0,0.03c-0.28,0.64-0.44,1.23-0.25,1.93
				c0.16,0.58,0.61,1.21,1.15,1.49c1.09,0.57,2.85,0.38,3.42-0.9c0.89-2,1.16-4.04,0.74-6.2c-0.37-1.91-1.47-4.04-3.21-5.03
				c-1.81-1.04-4.08-0.74-5.94,0.01c-1.35,0.54-2.37,1.35-2.92,2.74c-0.53,1.35-0.14,2.8,0.79,3.86c1.43,1.62,4.34,0.34,4.27-1.77
				c0-0.27-0.02-0.19-0.06,0.25c-0.05,0.11-0.1,0.23-0.16,0.34c0.23-0.4-0.42,0.37-0.06,0.06c-0.31,0.22-0.38,0.27-0.22,0.17
				c0.06-0.04,0.12-0.08,0.19-0.11c-0.36,0.14-0.44,0.17-0.26,0.12c0.07-0.02,0.14-0.04,0.21-0.05c-0.11,0.02-0.23,0.04-0.34,0.05
				c0.12,0,0.24,0,0.36,0.01c-0.1-0.01-0.2-0.02-0.3-0.04c0.12,0.02,0.24,0.05,0.36,0.09c0.15,0.04,0.29,0.09,0.44,0.15
				c0.09,0.03,0.17,0.07,0.26,0.1c-0.31-0.13-0.34-0.14-0.09-0.04c0.64,0.28,1.22,0.45,1.93,0.25c0.58-0.16,1.21-0.61,1.49-1.15
				c0.61-1.15,0.34-2.77-0.9-3.42c-1.56-0.82-3.45-0.9-5,0.03c-1.5,0.9-2.31,2.46-2.43,4.17c-0.09,1.24,1.02,2.3,2.17,2.46
				c1.11,0.15,2.56-0.56,2.74-1.79c0.01-0.1,0.03-0.2,0.06-0.29c0.08-0.25,0.05-0.19-0.09,0.19c0.02-0.04,0.05-0.09,0.07-0.13
				c0.15-0.22,0.1-0.17-0.13,0.15c0.07-0.08,0.14-0.15,0.21-0.21c-0.09,0.07-0.18,0.13-0.27,0.2c0.08-0.06,0.17-0.11,0.25-0.17
				c0.24-0.12,0.17-0.1-0.19,0.06c0-0.05,0.48-0.15,0.51-0.16c0.53-0.16-0.51,0,0.04-0.01c0.2,0,1.12-0.11,1.26,0.05
				c-0.37-0.05-0.46-0.06-0.27-0.03c0.07,0.01,0.15,0.02,0.22,0.04c0.17,0.03,0.34,0.07,0.51,0.12c0.24,0.07,0.6,0.33,0.03-0.03
				c0.12,0.07,0.26,0.14,0.38,0.2c0.41,0.22-0.44-0.4-0.01,0c0.42,0.39-0.21-0.41-0.01,0c-0.13-0.34-0.16-0.41-0.1-0.23
				c0.03,0.08,0.05,0.16,0.06,0.25c-0.04-0.38-0.06-0.43-0.05-0.15c0,0.09,0,0.17-0.01,0.26c-0.02,0.19-0.01,0.12,0.03-0.23
				c-0.02,0.12-0.05,0.23-0.08,0.34c-0.04,0.16-0.09,0.33-0.14,0.49c-0.02,0.05-0.11,0.45-0.17,0.47c0.15-0.34,0.17-0.38,0.06-0.14
				c-0.05,0.1-0.09,0.2-0.15,0.3c-0.15,0.3-0.32,0.59-0.5,0.86c-0.06,0.09-0.12,0.18-0.19,0.27c-0.16,0.22-0.13,0.18,0.09-0.11
				c0,0.09-0.27,0.32-0.33,0.38c-0.26,0.29-0.55,0.55-0.84,0.81c-0.36,0.32,0.43-0.25-0.04,0.02c-0.16,0.09-0.6,0.26-0.02,0.07
				c-0.27,0.07-0.22,0.08,0.17,0.01c0.35,0.07,0.44,0.09,0.26,0.04c-0.19-0.06-0.1-0.02,0.27,0.11c0.31,0.26,0.36,0.29,0.17,0.11
				c-0.35-0.36,0.26,0.47,0.02,0.03c-0.1-0.18-0.21-0.35-0.31-0.53c-1.44,0.84-2.88,1.68-4.32,2.52c1.6,2.33,4.6,2.27,6.56,0.43
				c0.69-0.64,1.25-1.49,1.76-2.28c0.59-0.93,1-2.04,0.99-3.16c-0.02-2.34-1.81-3.96-3.81-4.84c-1.34-0.59-2.76-0.72-4.1-0.02
				c-1.07,0.55-1.85,1.56-2.16,2.72c-0.35,1.26,0.43,2.78,1.75,3.08C40.01,42.78,41.39,42.08,41.77,40.73L41.77,40.73z"/>
		</g>
	</g>
	<g>
		<g>
			<path class="st0" d="M38.18,47.86c0.43,1.1,1.09,2.06,2.17,2.61c1.15,0.59,2.42,0.72,3.67,0.41c2.06-0.52,3.52-2.19,4.63-3.9
				c2.04-3.14,3.9-8.37,0.71-11.41c-1.01-0.96-2.42-1.48-3.81-1.4c-1.34,0.08-2.47,0.54-3.68,1.06c-1.21,0.52-1.57,2.38-0.9,3.42
				c0.81,1.26,2.13,1.45,3.42,0.9c-0.55,0.24,0.08-0.03,0.15-0.06c0.19-0.07,0.38-0.14,0.57-0.2c0.16-0.05,0.43-0.18,0.59-0.15
				c-0.09,0.01-0.17,0.02-0.26,0.03c0.1-0.01,0.2-0.01,0.31-0.01c0.1,0,0.2,0,0.3,0.01c-0.3-0.04-0.35-0.05-0.17,0
				c0.31,0.09-0.36-0.2,0.03,0.01c0.23,0.15,0.19,0.12-0.1-0.08c0.04,0.04,0.08,0.08,0.12,0.12c0.14,0.17,0.15,0.17,0.02,0.02
				c-0.12-0.16-0.13-0.15,0,0.04c0.22,0.54-0.11-0.53,0.03,0.04c0.04,0.17,0.11,0.34,0.12,0.51c-0.02-0.36-0.03-0.17-0.04,0.08
				c0,0.08-0.07,0.74-0.02,0.41c0.05-0.35-0.05,0.23-0.07,0.3c-0.05,0.21-0.1,0.42-0.16,0.62c-0.11,0.39-0.25,0.78-0.39,1.17
				c-0.18,0.5,0.19-0.36-0.07,0.16c-0.07,0.15-0.14,0.31-0.22,0.46c-0.17,0.34-0.35,0.67-0.54,0.99c-0.21,0.35-0.44,0.69-0.68,1.03
				c-0.36,0.52,0.34-0.37-0.08,0.1c-0.13,0.14-0.25,0.29-0.39,0.42c-0.11,0.11-0.24,0.21-0.35,0.32c-0.14,0.12-0.1,0.08,0.13-0.1
				c-0.08,0.05-0.16,0.11-0.25,0.15c-0.08,0.05-0.17,0.09-0.26,0.13c0.08-0.04,0.16-0.07,0.24-0.11c-0.12,0.04-0.24,0.08-0.37,0.1
				c0.1-0.01,0.19-0.02,0.29-0.03c-0.1,0.01-0.19,0.01-0.29,0.01c-0.2-0.01-0.13,0.01,0.22,0.04c-0.08-0.02-0.16-0.04-0.24-0.07
				c-0.18-0.06-0.11-0.03,0.22,0.09c-0.41-0.19,0.28,0.37-0.02,0c0.06,0.09,0.12,0.17,0.18,0.26c-0.13-0.23-0.12-0.18,0.03,0.16
				c-0.48-1.21-1.7-2.19-3.08-1.75C38.75,45.17,37.67,46.56,38.18,47.86L38.18,47.86z"/>
		</g>
	</g>
	<g>
		<g>
			<path class="st0" d="M41.51,38.61c0.78-0.06,1.55-0.08,2.33-0.04c0.35,0.02,0.77,0,1.11,0.09c-0.6-0.16,0.02,0.01,0.14,0.03
				c0.19,0.03,0.38,0.07,0.57,0.11c0.07,0.02,0.5,0.09,0.5,0.13c0-0.08-0.54-0.22-0.06-0.01c0.26,0.11-0.4-0.36-0.1-0.05
				c-0.22-0.23-0.41-0.53-0.42-0.86c-0.03-0.51-0.02-0.1-0.08,0.12c-0.05,0.18-0.11,0.36-0.17,0.54c-0.11,0.36-0.22,0.72-0.33,1.09
				c-0.52,1.7,1.28,3.78,3.08,3.08c1.09-0.42,2-1.06,2.53-2.14c0.57-1.17,0.57-2.47,0.11-3.68c-0.37-0.99-0.79-1.88-1.46-2.7
				c-0.72-0.89-1.76-1.37-2.88-1.52c-1.89-0.25-3.91-0.25-5.79,0.13c-1.99,0.4-3.68,1.61-4.74,3.33c-0.69,1.12-0.28,2.8,0.9,3.42
				c1.22,0.65,2.69,0.29,3.42-0.9c0.05-0.08,0.34-0.44,0.08-0.15c-0.27,0.31,0.09-0.09,0.12-0.12c0.07-0.08,0.16-0.15,0.23-0.23
				c0.31-0.32-0.31,0.19-0.06,0.03c0.08-0.05,0.62-0.32,0.63-0.37c-0.01,0.09-0.48,0.17,0.02,0c0.12-0.04,0.24-0.07,0.37-0.11
				c0.15-0.04,0.31-0.07,0.47-0.1c0.47-0.11-0.31,0.02,0.01-0.01c0.3-0.02,0.6-0.05,0.9-0.07c0.64-0.02,1.28,0,1.91,0.03
				c0.29,0.01,0.58,0.04,0.87,0.05c0.36,0.01-0.07,0.03-0.17-0.04c0,0,0.6,0.18,0.17,0.02c-0.2-0.09-0.2-0.08-0.02,0.02
				c-0.09-0.07-0.18-0.14-0.27-0.21c0.01,0.04,0.17,0.19,0.21,0.22c-0.21-0.29-0.27-0.35-0.16-0.2c0.03,0.04,0.06,0.09,0.08,0.13
				c0.07,0.11,0.13,0.23,0.19,0.34c0.05,0.09,0.09,0.19,0.13,0.28c0.01,0.03,0.19,0.49,0.07,0.17c-0.12-0.34,0.06,0.19,0.08,0.25
				c0.01,0.03,0.11,0.37,0.09,0.38c-0.17,0.08,0.06-0.79-0.02-0.54c-0.08,0.26,0.33-0.52,0.05-0.12c0.07-0.1,0.36-0.37,0.11-0.16
				c0.3-0.21,0.37-0.27,0.21-0.17c-0.16,0.1-0.08,0.07,0.27-0.09c1.03,1.03,2.05,2.05,3.08,3.08c0.32-1.06,0.77-2.15,0.76-3.27
				c-0.02-1.48-1-2.8-2.32-3.39c-1.16-0.53-2.44-0.67-3.7-0.79c-1.01-0.1-2.03-0.09-3.04-0.01c-1.3,0.1-2.56,1.08-2.5,2.5
				C39.07,37.38,40.11,38.73,41.51,38.61L41.51,38.61z"/>
		</g>
	</g>
	<g>
		<g>
			<path class="st0" d="M474.06,76.58c0.9,0.06,1.81-0.32,2.46-0.95c0.27-0.27,0.52-0.61,0.7-0.94c0.11-0.25,0.21-0.5,0.31-0.75
				c0.21-0.46-0.04-0.3-0.76,0.48c-0.04,0.22-0.63-0.24,0.07,0.14c0.32,0.17,0.71,0.26,1.05,0.39c0.78,0.29,1.56,0.58,2.33,0.87
				c0.22-1.64,0.44-3.27,0.66-4.91c-2.53,0.18-4.27,1.63-6.2,3.13c-0.97,0.75-0.89,2.41-0.2,3.28c0.8,1,2.09,1.23,3.23,0.64
				c1.34-0.69,3.03-0.78,4.4-0.13c1.02,0.48,2.19,0.44,3.03-0.39c0.72-0.72,1.05-2.16,0.39-3.03c-1.39-1.82-3.05-3.42-5.13-4.44
				c-1.08-0.53-2.2-0.89-3.39-0.5c-1.53,0.49-2.41,2.18-2.01,3.73c0.54,2.09,2.81,3.54,4.67,4.32c2.09,0.87,4.34,1.01,6.54,0.5
				c1.06-0.25,1.84-1.34,1.84-2.41c0-1.18-0.8-2.01-1.84-2.41c-0.8-0.31-1.6-0.62-2.4-0.94c-2.3-0.9-4.3,2.61-2.43,4.18
				c1.67,1.41,3.66,1.89,5.81,1.47c1.94-0.38,3.56-1.59,5.05-2.83c-1.18-1.18-2.36-2.36-3.54-3.54c-1.17,1-2.15,2.14-3.05,3.38
				c-1.66,2.27,2.15,5.24,3.93,3.03c0.92-1.14,1.85-2.28,2.76-3.43c0.97-1.22,1.84-2.48,1.76-4.12c-0.07-1.6-1.11-3.1-2.69-3.53
				c-1.54-0.41-3.18,0.26-3.96,1.64c1.52,0.2,3.05,0.4,4.57,0.6c0.18,0.54-0.58,1.17-0.91,1.3c-1.03-0.58-2.05-1.16-3.08-1.75
				c0.03,0.15,0.05,0.29,0.08,0.44c0-0.44,0-0.89,0-1.33c-0.56,2.02-0.42,4.66,1.08,6.28c0.86,0.93,2.21,1.31,3.43,0.94
				c0.62-0.19,1.14-0.53,1.63-0.95c0.15-0.13,0.3-0.27,0.44-0.41c-0.47,0.17-0.51,0.21-0.11,0.13c-0.44,0-0.89,0-1.33,0
				c-0.05-0.02-0.09-0.03-0.14-0.05c-0.3-0.3-0.6-0.6-0.9-0.9c0.03,0.07,0.07,0.14,0.1,0.21c-0.11-0.42-0.23-0.84-0.34-1.26
				c0.04-0.2,0.08-0.4,0.12-0.59c0.3-0.3,0.6-0.6,0.9-0.9c-0.13,0.23-0.22,0.29-0.26,0.18c-3.05,1.01-1.82,5.53,1.33,4.82
				c0.63-0.14,1.26-0.28,1.88-0.42c1.32-0.3,2.09-1.82,1.75-3.08c-0.37-1.36-1.75-2.04-3.08-1.75c-0.63,0.14-1.26,0.28-1.88,0.42
				c0.44,1.61,0.89,3.21,1.33,4.82c1.21-0.4,2.35-1.08,2.75-2.37c0.33-1.06,0.15-2.3-0.66-3.11c-0.82-0.82-2.05-1.11-3.16-0.81
				c-0.61,0.17-1.13,0.52-1.6,0.92c-0.15,0.13-0.3,0.26-0.44,0.41c0.04-0.01,0.06-0.04,0.06-0.08c0.44,0,0.89,0,1.33,0
				c0.34,0.11,0.55,0.31,0.64,0.59c-0.03-0.11-0.07-0.22-0.1-0.33c0.03-0.27-0.1-0.57-0.06-0.87c0.09-0.81,0.2-1.44,0.04-2.28
				c-0.23-1.24-1.89-2.2-3.08-1.75c-1.96,0.75-3.31,2.71-2.58,4.85c0.67,1.96,3.47,2.57,4.57,0.6c-0.56,0.22-1.12,0.44-1.69,0.66
				c-0.31-0.3-0.63-0.59-0.94-0.89c-0.1-0.07,0.05-0.29-0.05-0.25c-0.21,0.1-0.66,0.89-0.79,1.05c-0.75,0.94-1.5,1.87-2.26,2.81
				c1.31,1.01,2.62,2.02,3.93,3.03c0.65-0.89,1.44-1.66,2.27-2.37c1.03-0.88,0.9-2.63,0-3.54c-1.03-1.03-2.5-0.87-3.54,0
				c-0.66,0.55-1.39,1.11-2.22,1.39c-0.52,0.17-1.21,0.27-1.57-0.03c-0.81,1.39-1.62,2.79-2.43,4.18c0.8,0.31,1.6,0.62,2.4,0.94
				c0-1.61,0-3.21,0-4.82c-1,0.24-1.94,0.19-2.99-0.16c-0.46-0.15-0.93-0.38-1.37-0.69c-0.15-0.1-0.24-0.17-0.36-0.28
				c-0.12-0.1-0.23-0.21-0.34-0.32c-0.37-0.45-0.34-0.27,0.09,0.53c-0.11,0.42-0.23,0.84-0.34,1.26c-0.04,0.04-0.08,0.08-0.12,0.11
				c-0.37,0.21-0.74,0.43-1.1,0.64c-0.33,0.12-0.64-0.18-0.15,0.16c0.43,0.29,0.91,0.51,1.33,0.83c0.62,0.46,1.23,1.05,1.7,1.66
				c1.14-1.14,2.28-2.28,3.42-3.42c-3.08-1.44-6.41-1.43-9.45,0.13c1.01,1.31,2.02,2.62,3.03,3.93c0.72-0.56,1.77-1.6,2.66-1.66
				c2.87-0.21,3.32-3.91,0.66-4.91c-1.52-0.57-3.25-1.52-4.9-1.54c-0.82-0.01-1.59,0.19-2.27,0.65c-0.44,0.29-0.82,0.7-1.1,1.15
				c-0.15,0.29-0.28,0.58-0.4,0.89c-0.36,0.75,0.03,0.56,1.17-0.56c-1.35-0.09-2.5,1.21-2.5,2.5
				C471.56,75.51,472.71,76.49,474.06,76.58L474.06,76.58z"/>
		</g>
	</g>
	<g>
		<g>
			<path class="st0" d="M838.61,33.57c0.36-2.6,3.1-3.21,5.31-3.61c3.23-0.58,6.48-1.03,9.72-1.54c0.81-0.13,1.62-0.26,2.43-0.38
				c0.4-0.06,1.32-0.35,1.69-0.14c0.46,0.26,0.46,1.14,0.37,1.64c-0.45,2.56-3.4,3.99-5.49,4.97c-2.6,1.23-5.45,2.08-8.34,1.98
				c-1.04-0.04-5.87-0.67-5.23-2.41c0.35-0.93,1.56-1.63,2.41-2c1.35-0.6,2.85-0.79,4.31-0.88c1.5-0.09,3.02-0.1,4.52-0.13
				c0.8-0.02,1.6-0.04,2.4-0.06c0.4-0.01,0.8-0.02,1.2-0.03c0.21,0,0.98,0.13,1.16,0.02c0.23-0.15-0.05,0.83-0.12-0.17
				c-0.09-1.23,0.02-0.53-0.28-0.45c-0.56,0.14-1.2,0.74-1.79,0.95c-1.55,0.54-3.2,0.82-4.8,1.18c-1.88,0.42-3.77,0.83-5.65,1.25
				c-0.94,0.21-1.88,0.42-2.83,0.62c-0.31,0.07-0.63,0.14-0.94,0.21c-0.31,0.07-0.63,0.14-0.94,0.21c-0.64,0.12-0.63,0.14,0.03,0.05
				c0.37,0.21,0.74,0.43,1.1,0.64c-0.05-0.06-0.11-0.13-0.16-0.19c0.24,0.59,0.49,1.18,0.73,1.77c-0.01-0.09-0.01-0.18-0.01-0.27
				c-0.11,0.42-0.23,0.84-0.34,1.26c-0.38,0.36-0.33,0.4,0.15,0.11c0.2-0.09,0.41-0.18,0.62-0.26c0.54-0.21,1.1-0.4,1.66-0.58
				c1.12-0.35,2.26-0.62,3.42-0.81c1.08-0.17,2.18-0.25,3.27-0.26c0.97-0.01,2.17-0.12,3.08,0.25c-0.37-0.21-0.74-0.43-1.1-0.64
				c0.08,0.09,0.15,0.18,0.23,0.27c-0.24-0.59-0.49-1.18-0.73-1.77c0.01,0.11,0.01,0.22,0.02,0.34c0.11-0.42,0.23-0.84,0.34-1.26
				c-0.05,0.06-0.09,0.13-0.14,0.19c0.3-0.3,0.6-0.6,0.9-0.9c0.4-0.23-0.58,0.13-0.72,0.16c-0.36,0.08-0.73,0.15-1.09,0.2
				c-0.88,0.12-1.78,0.14-2.67,0.12c-0.82-0.02-1.62-0.1-2.43-0.26c-0.55-0.11-1.9-0.64-2.23-0.57c0.17-0.03-0.69,1.42-0.49,1.56
				c0.18,0.12,0.77,0.03,1.03,0.04c0.94,0.03,1.88,0.1,2.81,0.19c0.87,0.09,1.73,0.2,2.59,0.35c0.68,0.12,1.99,0.21,2.5,0.49
				c-0.3-0.3-0.6-0.6-0.9-0.9c0.05,0.08,0.11,0.16,0.16,0.23c-0.11-0.42-0.23-0.84-0.34-1.26c0,0.09,0,0.18,0,0.27
				c0.11-0.42,0.23-0.84,0.34-1.26c-0.05,0.08-0.09,0.16-0.14,0.24c0.3-0.3,0.6-0.6,0.9-0.9c0.36-0.08,0.27-0.11-0.28-0.07
				c-0.32-0.01-0.64-0.02-0.96-0.03c-0.56-0.02-1.12-0.03-1.69-0.05c-0.56-0.02-1.12-0.03-1.69-0.05c-0.32-0.01-0.64-0.02-0.96-0.03
				c-0.79-0.11-0.57,0.17,0.64,0.84c0,0.44,0,0.89,0,1.33c-0.01,0.08-0.49,0.49-0.46,0.52c0.03,0.03,0.97-0.3,1.1-0.34
				c0.59-0.17,1.18-0.32,1.78-0.46c1.28-0.29,2.57-0.49,3.89-0.58c2.62-0.19,5.24-0.05,7.81,0.47c0-1.61,0-3.21,0-4.82
				c-4.05,1.28-8.09,1.54-12.3,1.1c-4.2-0.44-8.42-0.92-12.4,0.88c-1.78,0.81-3.51,2.28-3.42,4.42c0.1,2.3,2.16,3.39,3.96,4.32
				c3.71,1.93,7.77,3.05,11.72,1.1c2.89-1.42,0.35-5.74-2.52-4.32c-2.36,1.16-5.16-0.29-7.24-1.4c-0.24-0.13-0.5-0.31-0.76-0.41
				c-0.11-0.08-0.22-0.15-0.35-0.19c-0.49-0.19-0.52,0.3-0.09,1.48c0.26-0.03,0.9-0.56,1.19-0.68c1.26-0.51,2.63-0.66,3.97-0.68
				c3.27-0.04,6.5,0.69,9.78,0.7c3.31,0.01,6.64-0.52,9.79-1.52c2.2-0.7,2.55-4.31,0-4.82c-4.1-0.82-8.19-0.92-12.32-0.28
				c-1.86,0.29-3.79,0.69-5.53,1.43c-1.97,0.84-3.24,3.01-2.04,5.04c1.16,1.96,3.49,1.84,5.47,1.9c1.92,0.05,4.6,0.62,6.3-0.42
				c2.18-1.34,1.82-4.46-0.48-5.42c-1.78-0.75-3.98-0.89-5.88-1.13c-3.22-0.4-9.65-1.3-9.4,3.77c0.22,4.45,6.62,5.13,9.98,5.15
				c1.87,0.01,3.97-0.17,5.75-0.8c2.28-0.81,3-3.75,0.95-5.29c-1.5-1.12-4.12-0.92-5.92-0.86c-1.97,0.07-3.96,0.35-5.88,0.82
				c-1.83,0.45-3.86,1.05-5.49,2.01c-2.09,1.22-2.42,4.3-0.03,5.43c1.7,0.8,4.03-0.17,5.75-0.55c2.04-0.45,4.08-0.9,6.13-1.35
				c3.63-0.8,8.5-1.25,10.87-4.51c1.23-1.69,1.32-4.01-0.17-5.58c-1.32-1.39-3.2-1.59-5.02-1.55c-4.05,0.09-8.47-0.23-12.41,0.89
				c-3.44,0.98-7.48,3.78-7.29,7.81c0.18,4.07,4.68,6.06,8.17,6.59c4.08,0.62,8.04-0.28,11.79-1.89c3.25-1.4,6.74-3.32,8.33-6.67
				c1.53-3.24,1.14-7.82-2.57-9.4c-2.03-0.87-4.32-0.2-6.41,0.13c-2.1,0.33-4.2,0.66-6.31,1c-3.68,0.58-7.69,0.84-10.64,3.37
				c-1.3,1.12-2.31,2.72-2.55,4.44c-0.18,1.34,0.32,2.68,1.75,3.08C836.7,35.63,838.43,34.91,838.61,33.57L838.61,33.57z"/>
		</g>
	</g>
	<g>
		<g>
			<path class="st0" d="M972.64,21.1c3.22,0,3.22-5,0-5C969.42,16.1,969.42,21.1,972.64,21.1L972.64,21.1z"/>
		</g>
	</g>
	<g>
		<g>
			<path class="st0" d="M970.55,11.79c1.8,2.18,3.13,4.71,3.83,7.45c0.52,1.99,0.75,4.79,3.29,5.14c-0.05-0.38-0.1-0.76-0.15-1.14
				c-5.7,3.89-6.65,10.99-7.27,17.34c0.41-0.06,0.82-0.11,1.23-0.17c-1.42-5.6,1.53-15.63-6.18-17.74c0.09,0.35,0.18,0.7,0.28,1.04
				c2.96-3.61,4.96-7.85,5.81-12.45c0.14-0.79-1.06-1.12-1.21-0.33c-0.72,3.89-1.99,7.61-3.83,11.11c-0.37,0.71,0.64,1.31,1.08,0.63
				c2.01-3.13,3.51-6.53,4.48-10.13c0.21-0.8-0.91-1.06-1.21-0.33c-1.46,3.63-2.92,7.27-4.38,10.9c-0.23,0.57,0.66,1.08,1.04,0.61
				c2.1-2.59,3.71-5.46,4.81-8.6c0.23-0.66-0.86-1.13-1.14-0.48c-1.24,2.87-2.48,5.74-3.72,8.61c-0.31,0.72,0.66,1.34,1.08,0.63
				c1.17-1.97,2.4-3.91,3.51-5.91c0.75-1.35,1.24-2.86,0.31-4.24c-0.31-0.46-1.24-0.35-1.16,0.32c0.41,3.73-1.43,7.04-3.23,10.16
				c0.36,0.21,0.72,0.42,1.08,0.63c1.16-2.3,2.35-4.6,4.36-6.28c-0.33-0.25-0.65-0.5-0.98-0.76c-1.11,2.48-2.22,4.96-3.32,7.43
				c-0.32,0.73,0.62,1.31,1.08,0.63c1.31-1.94,2.62-3.89,3.92-5.83c-0.36-0.21-0.72-0.42-1.08-0.63c-1.17,1.99-2.35,3.99-3.52,5.98
				c-0.42,0.71,0.61,1.26,1.08,0.63c1.2-1.61,2.39-3.22,3.59-4.83c-0.36-0.21-0.72-0.42-1.08-0.63c-1.16,2.29-2.32,4.59-3.47,6.88
				c0.36,0,0.72,0,1.08,0c-0.62-1.03,0.91-1.85,1.53-2.38c0.56-0.49,1.05-1.06,1.47-1.68c0.84-1.26,1.27-2.71,1.38-4.21
				c-0.42,0-0.83,0-1.25,0c-0.15,3.21-1.38,6.22-3.53,8.61c-0.54,0.6,0.28,1.41,0.88,0.88c1.87-1.64,3.44-3.54,4.7-5.69
				c-0.36-0.21-0.72-0.42-1.08-0.63c-0.87,1.94-1.73,3.88-2.6,5.83c-0.33,0.73,0.61,1.29,1.08,0.63c1.11-1.54,2.22-3.08,3.33-4.63
				c-0.36-0.21-0.72-0.42-1.08-0.63c-1.35,1.98-2.7,3.96-4.06,5.94c0.36,0,0.72,0,1.08,0c-0.32-0.67-0.34-1.29-0.13-2
				c-0.41-0.06-0.82-0.11-1.23-0.17c-0.24,3.02-0.47,6.05-0.71,9.07c-0.06,0.8,1.19,0.8,1.25,0c0.24-3.02,0.47-6.05,0.71-9.07
				c0.06-0.72-1.03-0.82-1.23-0.17c-0.31,1.04-0.21,1.99,0.26,2.96c0.22,0.46,0.84,0.35,1.08,0c1.35-1.98,2.7-3.96,4.06-5.94
				c0.46-0.67-0.62-1.28-1.08-0.63c-1.11,1.54-2.22,3.08-3.33,4.63c0.36,0.21,0.72,0.42,1.08,0.63c0.87-1.94,1.73-3.88,2.6-5.83
				c0.32-0.72-0.66-1.34-1.08-0.63c-1.21,2.06-2.71,3.86-4.5,5.43c0.29,0.29,0.59,0.59,0.88,0.88c2.38-2.65,3.73-5.94,3.9-9.5
				c0.04-0.81-1.19-0.8-1.25,0c-0.16,2.21-1.23,3.99-2.92,5.36c-1.1,0.89-2.16,2.09-1.29,3.54c0.23,0.38,0.86,0.43,1.08,0
				c1.16-2.29,2.32-4.59,3.47-6.88c0.37-0.73-0.61-1.27-1.08-0.63c-1.2,1.61-2.39,3.22-3.59,4.83c0.36,0.21,0.72,0.42,1.08,0.63
				c1.17-1.99,2.35-3.99,3.52-5.98c0.41-0.7-0.63-1.29-1.08-0.63c-1.31,1.94-2.62,3.89-3.92,5.83c0.36,0.21,0.72,0.42,1.08,0.63
				c1.11-2.48,2.22-4.96,3.32-7.43c0.29-0.65-0.42-1.23-0.98-0.76c-2.08,1.75-3.35,4.14-4.56,6.53c-0.36,0.71,0.67,1.33,1.08,0.63
				c1.91-3.3,3.83-6.86,3.4-10.8c-0.39,0.11-0.78,0.21-1.16,0.32c1.02,1.51-0.51,3.33-1.28,4.63c-0.84,1.42-1.69,2.84-2.53,4.26
				c0.36,0.21,0.72,0.42,1.08,0.63c1.24-2.87,2.48-5.74,3.72-8.61c-0.38-0.16-0.76-0.32-1.14-0.48c-1.03,2.93-2.53,5.64-4.49,8.05
				c0.35,0.2,0.7,0.41,1.04,0.61c1.46-3.63,2.92-7.27,4.38-10.9c-0.4-0.11-0.8-0.22-1.21-0.33c-0.94,3.49-2.4,6.78-4.35,9.83
				c0.36,0.21,0.72,0.42,1.08,0.63c1.89-3.59,3.22-7.42,3.96-11.41c-0.4-0.11-0.8-0.22-1.21-0.33c-0.8,4.38-2.66,8.45-5.49,11.9
				c-0.29,0.35-0.21,0.91,0.28,1.04c3.27,0.89,4.48,4.33,4.71,7.39c0.23,3.17-0.19,6.35,0.61,9.48c0.18,0.72,1.16,0.5,1.23-0.17
				c0.57-5.84,1.38-12.65,6.65-16.26c0.39-0.26,0.43-1.06-0.15-1.14c-1.63-0.23-1.9-1.91-2.18-3.25c-0.25-1.16-0.58-2.3-1.02-3.4
				c-0.82-2.05-1.97-3.92-3.37-5.62C970.92,10.29,970.04,11.18,970.55,11.79L970.55,11.79z"/>
		</g>
	</g>
	<g>
		<g>
			<path class="st0" d="M960.2,42.51c0.55,1.02,1,2.07,1.34,3.17c0.33,1.07,0.71,2.25,0.81,3.37c0.11,1.17-0.17,2.41-0.44,3.54
				c-0.27,1.14-0.63,2.26-1.07,3.35c-0.26,0.66,0.82,1.11,1.14,0.48c0.74-1.45,1.43-2.93,2.23-4.34c0.73-1.3,1.61-2.5,2.91-3.28
				c0.37-0.22,0.44-0.88,0-1.08c-2.39-1.08-2.99-3.78-3.42-6.13c-0.11-0.59-1.12-0.61-1.21,0c-0.29,2.07-1.01,4-2.15,5.75
				c-0.39,0.6,0.49,1.26,0.98,0.76c0.89-0.92,1.66-1.93,2.31-3.03c-0.36-0.21-0.72-0.42-1.08-0.63c-0.62,1.17-0.9,2.44-0.78,3.76
				c0.06,0.61,0.81,0.86,1.16,0.32c0.4-0.61,0.81-1.23,1.21-1.84c-0.38-0.16-0.76-0.32-1.14-0.48c-0.23,0.83-0.46,1.67-0.69,2.5
				c-0.2,0.73,0.74,1.02,1.14,0.48c0.3-0.4,0.61-0.81,0.91-1.21c-0.38-0.16-0.76-0.32-1.14-0.48c-0.09,0.5-0.18,0.99-0.27,1.49
				c-0.12,0.64,0.55,1,1.04,0.61c0.41-0.33,0.82-0.65,1.23-0.98c-0.33-0.25-0.65-0.5-0.98-0.76c-0.29,0.44-0.58,0.89-0.86,1.33
				c-0.4,0.62,0.47,1.22,0.98,0.76c0.24-0.21,0.47-0.43,0.71-0.64c0.6-0.54-0.29-1.42-0.88-0.88c-0.24,0.21-0.47,0.43-0.71,0.64
				c0.33,0.25,0.65,0.5,0.98,0.76c0.29-0.44,0.58-0.89,0.86-1.33c0.42-0.64-0.47-1.17-0.98-0.76c-0.41,0.33-0.82,0.65-1.23,0.98
				c0.35,0.2,0.7,0.41,1.04,0.61c0.09-0.5,0.18-0.99,0.27-1.49c0.13-0.72-0.72-1.05-1.14-0.48c-0.3,0.4-0.61,0.81-0.91,1.21
				c0.38,0.16,0.76,0.32,1.14,0.48c0.23-0.83,0.46-1.67,0.69-2.5c0.19-0.7-0.76-1.06-1.14-0.48c-0.4,0.61-0.81,1.23-1.21,1.84
				c0.39,0.11,0.78,0.21,1.16,0.32c-0.1-1.1,0.09-2.15,0.61-3.13c0.38-0.71-0.67-1.33-1.08-0.63c-0.6,1.01-1.3,1.93-2.12,2.77
				c0.33,0.25,0.65,0.5,0.98,0.76c1.19-1.83,1.97-3.88,2.28-6.04c-0.4,0-0.8,0-1.21,0c0.49,2.66,1.31,5.66,4,6.87
				c0-0.36,0-0.72,0-1.08c-2.88,1.73-4.14,5.22-5.59,8.07c0.38,0.16,0.76,0.32,1.14,0.48c0.49-1.21,0.88-2.45,1.16-3.73
				c0.26-1.2,0.52-2.5,0.37-3.73c-0.29-2.38-1.16-4.83-2.3-6.93C960.9,41.17,959.82,41.8,960.2,42.51L960.2,42.51z"/>
		</g>
	</g>
</g>
<g id="Слой_1">
	<g>
		<path class="st1" d="M48.78,16.43c5.35,1.76,9.69,4.99,13,9.68c2.66,3.8,4.47,7.9,5.44,12.32c0.97,4.42,1.45,8.63,1.45,12.63
			c0,10.14-2.04,18.74-6.11,25.77c-5.52,9.49-14.05,14.23-25.59,14.23H4.07V14.78h32.89C41.7,14.85,45.63,15.4,48.78,16.43z
			 M19.55,28.03v49.79h14.72c7.53,0,12.79-3.71,15.76-11.13c1.62-4.07,2.44-8.92,2.44-14.54c0-7.76-1.22-13.72-3.65-17.88
			c-2.44-4.16-7.28-6.24-14.54-6.24H19.55z"/>
		<path class="st1" d="M102.44,14.78h18.04l26.99,76.29h-17.29l-5.03-15.68H97.05l-5.17,15.68H75.21L102.44,14.78z M101.39,62.24
			h19.54l-9.64-30.02L101.39,62.24z"/>
		<path class="st1" d="M206.06,16.74c2.81,1.21,5.19,2.98,7.14,5.33c1.62,1.93,2.89,4.07,3.84,6.42c0.94,2.35,1.41,5.02,1.41,8.02
			c0,3.62-0.91,7.19-2.74,10.69c-1.83,3.5-4.85,5.98-9.06,7.43c3.52,1.42,6.01,3.42,7.48,6.03c1.47,2.61,2.2,6.58,2.2,11.93v5.12
			c0,3.49,0.14,5.85,0.42,7.09c0.42,1.97,1.4,3.42,2.94,4.35v1.92h-17.6c-0.48-1.69-0.83-3.05-1.04-4.09
			c-0.41-2.14-0.64-4.33-0.67-6.57l-0.1-7.09c-0.07-4.87-0.91-8.11-2.52-9.73c-1.62-1.62-4.64-2.43-9.08-2.43h-15.57v29.92h-15.58
			V14.78h36.49C199.24,14.88,203.25,15.54,206.06,16.74z M173.12,28.03v20.5h17.16c3.41,0,5.96-0.41,7.67-1.24
			c3.02-1.45,4.52-4.31,4.52-8.59c0-4.62-1.46-7.73-4.38-9.32c-1.64-0.9-4.1-1.35-7.37-1.35H173.12z"/>
		<path class="st1" d="M248.27,91.07h-15.84V14.78h15.84V91.07z"/>
		<path class="st1" d="M284.99,14.78h18.04l26.99,76.29h-17.29l-5.03-15.68H279.6l-5.17,15.68h-16.67L284.99,14.78z M283.94,62.24
			h19.54l-9.64-30.02L283.94,62.24z"/>
		<path class="st1" d="M368.92,14.78h16.71l30.28,53.2v-53.2h14.85v76.29h-15.94l-31.06-54.13v54.13h-14.85V14.78z"/>
		<path class="st1" d="M501.31,28.29h-39.54v16.2H498v13.25h-36.23v19.62h41.41v13.72h-56.99V14.78h55.12V28.29z"/>
		<path class="st1" d="M516.68,14.78h15.68v31.43l29.48-31.43h20.6l-31.31,31.38l32.91,44.91h-20.5l-23.51-33.3l-7.68,7.79v25.52
			h-15.68V14.78z"/>
		<path class="st1" d="M641.86,16.74c2.81,1.21,5.19,2.98,7.14,5.33c1.61,1.93,2.89,4.07,3.83,6.42c0.94,2.35,1.41,5.02,1.41,8.02
			c0,3.62-0.92,7.19-2.74,10.69c-1.83,3.5-4.85,5.98-9.06,7.43c3.52,1.42,6.01,3.42,7.48,6.03s2.2,6.58,2.2,11.93v5.12
			c0,3.49,0.14,5.85,0.42,7.09c0.42,1.97,1.4,3.42,2.94,4.35v1.92h-17.6c-0.48-1.69-0.83-3.05-1.04-4.09
			c-0.41-2.14-0.64-4.33-0.67-6.57l-0.1-7.09c-0.07-4.87-0.91-8.11-2.52-9.73c-1.62-1.62-4.64-2.43-9.08-2.43h-15.57v29.92h-15.58
			V14.78h36.49C635.04,14.88,639.06,15.54,641.86,16.74z M608.92,28.03v20.5h17.16c3.41,0,5.96-0.41,7.67-1.24
			c3.01-1.45,4.52-4.31,4.52-8.59c0-4.62-1.46-7.73-4.38-9.32c-1.64-0.9-4.1-1.35-7.37-1.35H608.92z"/>
		<path class="st1" d="M691.34,14.78h18.04l26.99,76.29h-17.29l-5.04-15.68h-28.09l-5.17,15.68h-16.68L691.34,14.78z M690.29,62.24
			h19.54l-9.64-30.02L690.29,62.24z"/>
		<path class="st1" d="M757.56,67.52c0.49,3.49,1.46,6.09,2.91,7.82c2.64,3.14,7.17,4.71,13.58,4.71c3.84,0,6.96-0.41,9.35-1.24
			c4.54-1.59,6.82-4.54,6.82-8.85c0-2.52-1.11-4.47-3.34-5.85c-2.23-1.35-5.76-2.54-10.59-3.57l-8.26-1.81
			c-8.12-1.79-13.69-3.74-16.73-5.85c-5.14-3.52-7.71-9.02-7.71-16.51c0-6.83,2.51-12.51,7.54-17.03
			c5.03-4.52,12.42-6.78,22.16-6.78c8.14,0,15.08,2.13,20.83,6.39c5.75,4.26,8.76,10.45,9.04,18.56h-15.32
			c-0.28-4.59-2.33-7.85-6.16-9.78c-2.55-1.28-5.71-1.92-9.5-1.92c-4.21,0-7.57,0.83-10.08,2.48c-2.51,1.66-3.77,3.97-3.77,6.94
			c0,2.73,1.24,4.76,3.71,6.11c1.59,0.9,4.97,1.95,10.13,3.16l13.39,3.16c5.87,1.38,10.27,3.23,13.2,5.54
			c4.55,3.59,6.82,8.78,6.82,15.58c0,6.97-2.69,12.76-8.08,17.36c-5.39,4.61-13,6.91-22.83,6.91c-10.04,0-17.94-2.27-23.7-6.81
			c-5.75-4.54-8.63-10.77-8.63-18.71H757.56z"/>
		<path class="st1" d="M875.52,84.29c-5.76,5.94-14.1,8.9-25,8.9c-10.9,0-19.24-2.97-25-8.9c-7.73-7.28-11.59-17.77-11.59-31.47
			c0-13.97,3.86-24.46,11.59-31.47c5.76-5.93,14.09-8.9,25-8.9c10.9,0,19.24,2.97,25,8.9c7.69,7,11.54,17.49,11.54,31.47
			C887.06,66.52,883.21,77.01,875.52,84.29z M865.56,72.69c3.71-4.66,5.56-11.28,5.56-19.87c0-8.56-1.86-15.17-5.56-19.85
			c-3.71-4.68-8.72-7.01-15.04-7.01s-11.35,2.33-15.11,6.99c-3.76,4.66-5.64,11.28-5.64,19.88c0,8.59,1.88,15.22,5.64,19.87
			c3.76,4.66,8.8,6.99,15.11,6.99S861.85,77.35,865.56,72.69z"/>
		<path class="st1" d="M943.87,14.78h16.56l-26.01,76.29h-15.06l-25.8-76.29h17.03l16.56,57.92L943.87,14.78z"/>
		<path class="st1" d="M991.74,14.78h18.04l26.99,76.29h-17.29l-5.04-15.68h-28.09l-5.17,15.68h-16.68L991.74,14.78z M990.69,62.24
			h19.54l-9.64-30.02L990.69,62.24z"/>
	</g>
	<g>
		<g>
			<g>
				<path d="M825.44,54.21c2.43-0.07,4.87-0.22,7.3-0.15c2.43,0.07,4.83,0.45,7.22,0.88c0.79,0.14,1.12-1.06,0.33-1.21
					c-2.44-0.44-4.9-0.84-7.38-0.92c-2.49-0.08-4.98,0.08-7.46,0.15C824.64,52.98,824.63,54.23,825.44,54.21L825.44,54.21z"/>
			</g>
		</g>
		<g>
			<g>
				<path d="M824.99,63.92c2.97-1.36,6.2-1.53,9.39-1.95c1.94-0.26,3.78-0.9,5.73-1.11c0.79-0.09,0.8-1.34,0-1.25
					c-2.13,0.23-4.13,0.93-6.25,1.18c-3.25,0.38-6.49,0.68-9.51,2.06C823.63,63.17,824.27,64.25,824.99,63.92L824.99,63.92z"/>
			</g>
		</g>
		<g>
			<g>
				<path d="M840.94,54.54c0.88-5.23,7.32-6.16,11.01-8.67c0.93-0.63,1.67-1.39,2.43-2.21c0.15-0.16,0.36-0.44,0.59-0.48
					c0.49-0.1,0.7,0.47,0.72,0.84c0.03,0.58-0.23,1.21-0.47,1.73c-0.96,1.99-2.85,3.35-5.02,3.71c-0.79,0.13-0.46,1.34,0.33,1.21
					c2.02-0.33,3.83-1.48,5.05-3.12c1.01-1.36,2.32-4.26,0.33-5.4c-0.84-0.49-1.73-0.1-2.34,0.55c-0.84,0.9-1.63,1.72-2.68,2.38
					c-2.13,1.33-4.55,2.09-6.69,3.39c-2.13,1.29-4.04,3.21-4.46,5.75C839.6,55,840.8,55.33,840.94,54.54L840.94,54.54z"/>
			</g>
		</g>
		<g>
			<g>
				<path d="M852.68,49.82c0.82,0.26,1.65,0.52,2.47,0.78c0.72,0.23,1.49,0.42,2.11,0.87c0.48,0.35,0.93,1.02,0.63,1.63
					c-0.34,0.69-1.25,0.85-1.93,0.96c-1.66,0.26-3.33,0.47-4.99,0.7c-0.66,0.09-1.65,0.34-2.22-0.16c-0.56-0.5-0.02-1.24,0.65-1.03
					c0.77,0.24,1.1-0.96,0.33-1.21c-1.56-0.49-3.05,1.16-2.23,2.64c0.92,1.66,3.22,1.03,4.71,0.83c0.97-0.14,1.94-0.27,2.91-0.41
					c0.9-0.13,1.84-0.19,2.67-0.6c1.54-0.76,1.85-2.56,0.76-3.85c-0.6-0.71-1.49-1.07-2.35-1.35c-1.06-0.35-2.13-0.68-3.19-1.02
					C852.24,48.37,851.91,49.57,852.68,49.82L852.68,49.82z"/>
			</g>
		</g>
		<g>
			<g>
				<path d="M856.4,55.39c0.4,0.14,0.99,0.3,1.16,0.74c0.15,0.38-0.23,0.55-0.53,0.65c-0.44,0.15-0.93,0.19-1.39,0.27
					c-0.63,0.1-1.25,0.2-1.88,0.3c-1.17,0.19-2.35,0.39-3.53,0.56c-0.45,0.06-1.05,0.16-1.46-0.11c-0.2-0.14-0.43-0.5-0.22-0.71
					c0.57-0.57-0.32-1.46-0.88-0.88c-1.1,1.11-0.04,2.73,1.27,2.97c0.79,0.14,1.6-0.05,2.37-0.17c0.92-0.15,1.85-0.29,2.77-0.44
					c0.9-0.14,1.8-0.26,2.7-0.43c0.59-0.11,1.21-0.31,1.63-0.76c0.47-0.51,0.53-1.26,0.21-1.87c-0.39-0.74-1.16-1.05-1.91-1.31
					C855.98,53.92,855.65,55.13,856.4,55.39L856.4,55.39z"/>
			</g>
		</g>
		<g>
			<g>
				<path d="M856.71,58.25c0.83,0.05,1.13,1.09,0.49,1.6c-0.32,0.26-0.76,0.36-1.16,0.46c-0.51,0.13-1.03,0.24-1.56,0.31
					c-1.02,0.15-2.06,0.19-3.08,0.13c-0.48-0.03-0.98-0.04-1.45-0.17c-0.19-0.05-0.69-0.27-0.44-0.48c0.61-0.52-0.27-1.4-0.88-0.88
					c-0.51,0.43-0.54,1.2-0.22,1.75c0.37,0.63,1.1,0.83,1.77,0.92c1.59,0.21,3.21,0.17,4.8-0.09c1.29-0.21,3.06-0.47,3.64-1.82
					c0.61-1.42-0.42-2.89-1.91-2.98C855.91,56.95,855.91,58.2,856.71,58.25L856.71,58.25z"/>
			</g>
		</g>
		<g>
			<g>
				<path d="M855.53,61.51c0.29,0.17,1.02,0.56,0.65,0.96c-0.21,0.22-0.55,0.28-0.84,0.33c-0.4,0.07-0.8,0.11-1.2,0.16
					c-0.82,0.09-1.65,0.14-2.48,0.15c-0.35,0.01-1.82,0.19-1.75-0.38c0.04-0.34-0.31-0.63-0.63-0.63c-0.37,0-0.59,0.29-0.63,0.63
					c-0.06,0.55,0.27,1.07,0.73,1.34c0.5,0.3,1.11,0.29,1.67,0.29c1.23,0.01,2.46-0.07,3.68-0.22c1.02-0.13,2.28-0.26,2.7-1.37
					c0.4-1.05-0.46-1.85-1.28-2.34C855.47,60.01,854.84,61.09,855.53,61.51L855.53,61.51z"/>
			</g>
		</g>
		<g>
			<g>
				<path d="M853.16,63.09c-2.12,0.66-4.37,0.69-6.51,0.06c-2.21-0.66-4-2.08-5.75-3.53c-0.61-0.51-1.5,0.37-0.88,0.88
					c1.92,1.59,3.87,3.13,6.3,3.85c2.33,0.69,4.85,0.66,7.17-0.06C854.26,64.06,853.93,62.85,853.16,63.09L853.16,63.09z"/>
			</g>
		</g>
		<g>
			<g>
				<path d="M850.8,52.5c-0.2-5.25-0.4-10.5-0.61-15.74c-0.03-0.8-1.28-0.81-1.25,0c0.2,5.25,0.4,10.5,0.61,15.74
					C849.58,53.3,850.83,53.31,850.8,52.5L850.8,52.5z"/>
			</g>
		</g>
		<g>
			<g>
				<path d="M851.94,52.08c-0.21-5.19-0.42-10.38-0.63-15.57c-0.03-0.8-1.28-0.81-1.25,0c0.21,5.19,0.42,10.38,0.63,15.57
					C850.72,52.88,851.97,52.88,851.94,52.08L851.94,52.08z"/>
			</g>
		</g>
		<g>
			<g>
				<path d="M850.13,36.66c0.15-1.12,0.3-2.24,0.46-3.36c-0.4,0-0.8,0-1.21,0c0.19,1.04,0.38,2.08,0.57,3.12
					c0.06,0.32,0.47,0.53,0.77,0.44c0.35-0.11,0.5-0.42,0.44-0.77c-0.19-1.04-0.38-2.08-0.57-3.12c-0.05-0.26-0.35-0.47-0.6-0.46
					c-0.25,0.01-0.57,0.18-0.6,0.46c-0.15,1.12-0.3,2.24-0.46,3.36c-0.04,0.32,0.08,0.69,0.44,0.77
					C849.66,37.17,850.08,37.01,850.13,36.66L850.13,36.66z"/>
			</g>
		</g>
	</g>
	<g>
		<g>
			<path d="M664.21,8.21c-0.28,3.5-2.44,6.71-5.53,8.35c-0.71,0.38-0.08,1.46,0.63,1.08c3.5-1.85,5.84-5.49,6.15-9.43
				C665.53,7.41,664.28,7.41,664.21,8.21L664.21,8.21z"/>
		</g>
	</g>
	<g>
		<g>
			<path d="M664.15,8.21c-0.04,4.29,1.81,8.42,5.06,11.22c0.09-0.35,0.18-0.7,0.28-1.04c-2.32,0.34-4.13,2.08-5.06,4.17
				c-1.15,2.59-0.96,5.49-0.76,8.24c0.06,0.79,1.25,0.81,1.25,0c0-5.19-2.04-10.18-5.69-13.86c-0.57-0.57-1.45,0.31-0.88,0.88
				c3.42,3.46,5.33,8.12,5.33,12.98c0.42,0,0.83,0,1.25,0c-0.3-4.02-0.37-10.44,4.9-11.21c0.46-0.07,0.61-0.76,0.28-1.04
				c-3.02-2.6-4.73-6.35-4.7-10.34C665.4,7.41,664.15,7.4,664.15,8.21L664.15,8.21z"/>
		</g>
	</g>
	<g>
		<g>
			<path d="M345,10.35c-0.83,5.05-4,9.53-8.52,11.95c-0.71,0.38-0.08,1.46,0.63,1.08c4.77-2.55,8.22-7.35,9.1-12.69
				C346.33,9.89,345.13,9.56,345,10.35L345,10.35z"/>
		</g>
	</g>
	<g>
		<g>
			<path d="M345.05,10.5c0.5,6.01,3.93,11.55,9.12,14.64c0.69,0.41,1.32-0.67,0.63-1.08c-4.79-2.85-8.04-8-8.5-13.56
				C346.23,9.71,344.98,9.7,345.05,10.5L345.05,10.5z"/>
		</g>
	</g>
	<g>
		<g>
			<path d="M335.73,23.53c6.39,1.57,10.64,7.77,9.65,14.31c0.41,0.06,0.82,0.11,1.23,0.17c0.13-2.75,0.69-5.46,1.67-8.03
				c0.8-2.09,2.41-5.57,5.25-4.47c0.75,0.29,1.08-0.92,0.33-1.21c-2.95-1.14-5.18,1.62-6.23,3.99c-1.36,3.07-2.11,6.36-2.28,9.71
				c-0.03,0.69,1.12,0.87,1.23,0.17c1.09-7.2-3.42-14.11-10.53-15.85C335.28,22.13,334.94,23.34,335.73,23.53L335.73,23.53z"/>
		</g>
	</g>
	<g>
		<g>
			<path d="M336.69,35.45c0.57,3.25-0.99,6.73-3.76,8.5c-0.68,0.43-0.05,1.51,0.63,1.08c3.28-2.09,5.01-6.09,4.34-9.91
				C337.76,34.32,336.55,34.66,336.69,35.45L336.69,35.45z"/>
		</g>
	</g>
	<g>
		<g>
			<path d="M337.01,35.12c-0.9,3.5,1.48,7.45,5.04,8.22c0.78,0.17,1.12-1.03,0.33-1.21c-2.88-0.63-4.9-3.8-4.16-6.68
				C338.41,34.67,337.21,34.34,337.01,35.12L337.01,35.12z"/>
		</g>
	</g>
	<g>
		<g>
			<path d="M342.48,42.22c-2.16,0.72-4.03,2.29-4.99,4.38c-1.07,2.3-1,4.95,0.09,7.23c0.35,0.73,1.43,0.09,1.08-0.63
				c-1.83-3.81,0.16-8.44,4.16-9.77C343.57,43.18,343.25,41.97,342.48,42.22L342.48,42.22z"/>
		</g>
	</g>
	<g>
		<g>
			<path d="M332.55,44.63c1.58,0.44,2.73,1.78,3.33,3.26c0.78,1.92,0.74,4.06,0.73,6.1c-0.01,0.8,1.24,0.81,1.25,0
				c0.02-2.31,0.01-4.7-0.95-6.85c-0.77-1.73-2.18-3.2-4.03-3.72C332.11,43.2,331.77,44.41,332.55,44.63L332.55,44.63z"/>
		</g>
	</g>
	<g>
		<g>
			<path d="M82.6,13.34c-0.64,3.11-2.66,5.8-5.46,7.29c-0.71,0.38-0.08,1.46,0.63,1.08c3.07-1.62,5.33-4.63,6.04-8.03
				C83.97,12.89,82.76,12.55,82.6,13.34L82.6,13.34z"/>
		</g>
	</g>
	<g>
		<g>
			<path d="M77.54,21.8c1.59-0.83,3.38,0.83,4.12,2.09c1.02,1.72,1.01,3.81,1.02,5.75c0,0.8,1.25,0.81,1.25,0
				c0-2.34-0.06-4.86-1.48-6.84c-1.21-1.68-3.46-3.16-5.54-2.08C76.19,21.09,76.82,22.17,77.54,21.8L77.54,21.8z"/>
		</g>
	</g>
	<g>
		<g>
			<path d="M82.59,12.82c0.63,3.35,3.38,6.02,6.75,6.54c0.33,0.05,0.67-0.08,0.77-0.44c0.08-0.3-0.1-0.72-0.44-0.77
				c-2.98-0.45-5.32-2.7-5.87-5.66c-0.06-0.33-0.46-0.52-0.77-0.44C82.68,12.15,82.53,12.49,82.59,12.82L82.59,12.82z"/>
		</g>
	</g>
	<g>
		<g>
			<path d="M89.53,18.57c-2.13,0.57-3.46,2.41-4.25,4.36c-0.94,2.34-1.54,4.86-2.26,7.28c-0.23,0.77,0.97,1.1,1.21,0.33
				c0.65-2.17,1.23-4.38,1.98-6.52c0.63-1.81,1.68-3.71,3.66-4.25C90.63,19.57,90.31,18.36,89.53,18.57L89.53,18.57z"/>
		</g>
	</g>
	<g>
		<g>
			<path d="M470.06,76.67c-1.84-0.33-4.01-1.43-4.5-3.4c-0.23-0.91-0.01-1.85,0.69-2.48c0.69-0.62,1.59-0.96,2.33-1.52
				c1.34-1.03,1.85-2.7,0.78-4.14c-1.16-1.57-3.14-1.72-4.94-1.74c-0.8-0.01-0.81,1.24,0,1.25c1,0.01,2.08,0,2.99,0.45
				c0.72,0.35,1.46,1.15,1.28,2.01c-0.18,0.88-1.11,1.38-1.82,1.8c-0.73,0.42-1.46,0.86-1.97,1.54c-1.01,1.36-0.81,3.28,0.13,4.63
				c1.08,1.55,2.87,2.5,4.7,2.83C470.52,78.01,470.86,76.81,470.06,76.67L470.06,76.67z"/>
		</g>
	</g>
	<g>
		<g>
			<path d="M471.18,76.88c-0.35-4.46,3.63-8.15,8.08-7.16c1.1,0.24,2.04,0.75,2.92,1.45c0.79,0.63,1.55,1.33,2.48,1.75
				c1.44,0.64,3.21,0.49,4.16-0.87c0.46-0.66-0.62-1.29-1.08-0.63c-0.63,0.91-1.96,0.69-2.81,0.25c-0.95-0.5-1.7-1.3-2.57-1.92
				c-1.67-1.19-3.78-1.63-5.8-1.33c-4.06,0.6-6.94,4.42-6.62,8.47C469.99,77.68,471.24,77.69,471.18,76.88L471.18,76.88z"/>
		</g>
	</g>
	<g>
		<g>
			<path d="M490.36,70.98c-0.69,0.31-1.53,0.04-2.02-0.5c-0.54-0.6-0.65-1.49-0.4-2.24c0.48-1.5,2.46-2.6,3.91-1.7
				c0.66,0.41,1.07,1.24,0.87,2c-0.2,0.78,1,1.11,1.21,0.33c0.29-1.12-0.14-2.35-1.01-3.09c-0.95-0.81-2.26-1-3.43-0.61
				c-2.34,0.77-3.85,3.73-2.27,5.89c0.88,1.19,2.43,1.61,3.78,1.01c0.31-0.14,0.38-0.59,0.22-0.86
				C491.03,70.88,490.67,70.84,490.36,70.98L490.36,70.98z"/>
		</g>
	</g>
	<g>
		<g>
			<path d="M493.2,69.65c2.04,1.06,4.08,2.11,6.12,3.17c-0.04-0.33-0.08-0.65-0.13-0.98c-0.71,0.68-1.51,1.24-2.39,1.67
				c-0.93,0.46-1.92,0.68-2.93,0.9c-0.97,0.22-1.92,0.52-2.68,1.18c-0.68,0.6-1.15,1.49-1.05,2.41c0.04,0.34,0.26,0.62,0.63,0.63
				c0.31,0,0.66-0.29,0.63-0.63c-0.21-1.99,2.51-2.29,3.87-2.63c1.81-0.44,3.46-1.37,4.81-2.66c0.28-0.27,0.23-0.8-0.13-0.98
				c-2.04-1.06-4.08-2.11-6.12-3.17C493.11,68.2,492.48,69.28,493.2,69.65L493.2,69.65z"/>
		</g>
	</g>
	<g>
		<g>
			<path d="M497.38,72.55c0.06,0.17,0.11,0.34,0.17,0.51c0.02,0.08,0.06,0.15,0.11,0.21c0.04,0.07,0.1,0.12,0.18,0.16
				c0.07,0.05,0.15,0.07,0.23,0.07c0.08,0.02,0.17,0.01,0.25-0.01c0.05-0.02,0.1-0.04,0.15-0.06c0.09-0.06,0.17-0.13,0.22-0.22
				c0.02-0.05,0.04-0.1,0.06-0.15c0.03-0.11,0.03-0.22,0-0.33c-0.06-0.17-0.11-0.34-0.17-0.51c-0.02-0.08-0.06-0.15-0.11-0.21
				c-0.04-0.07-0.1-0.12-0.18-0.16c-0.07-0.05-0.15-0.07-0.23-0.07c-0.08-0.02-0.17-0.01-0.25,0.01c-0.05,0.02-0.1,0.04-0.15,0.06
				c-0.09,0.06-0.17,0.13-0.22,0.22c-0.02,0.05-0.04,0.1-0.06,0.15C497.35,72.33,497.35,72.44,497.38,72.55L497.38,72.55z"/>
		</g>
	</g>
	<g>
		<g>
			<path d="M493.74,72.24c0.8,0,0.81-1.25,0-1.25C492.94,70.99,492.94,72.24,493.74,72.24L493.74,72.24z"/>
		</g>
	</g>
	<g>
		<g>
			<path d="M18.42,28.72c5.62-0.57,11.28,1.72,14.69,6.28c1.62,2.17,2.71,4.74,3.1,7.43c0.35,2.47,0.14,5.13,1.78,7.19
				c1.54,1.94,5.31,3.9,2.52,6.53c-0.74,0.7-1.61,1.26-2.28,2.04c-0.75,0.87-1.16,1.94-1.37,3.06c-0.45,2.45-0.01,5.14-1.16,7.44
				c-1.36,2.69-4.42,2.77-7.05,2.99c-2.49,0.21-4.76,0.73-6.77,2.29c-1.98,1.54-3.37,3.71-3.92,6.15c-0.18,0.78,1.03,1.12,1.21,0.33
				c0.59-2.63,2.23-4.89,4.58-6.24c2.39-1.37,5.08-1.17,7.72-1.55c2.37-0.35,4.45-1.4,5.48-3.67c1.1-2.43,0.65-5.07,1.17-7.61
				c0.29-1.39,0.98-2.41,2.05-3.31c0.83-0.7,1.76-1.36,2.28-2.34c1.25-2.37-0.78-4.35-2.41-5.81c-1.18-1.06-1.89-2.18-2.18-3.76
				c-0.27-1.47-0.25-2.98-0.51-4.46c-0.45-2.64-1.57-5.18-3.16-7.33c-3.64-4.92-9.7-7.51-15.77-6.9
				C17.63,27.55,17.62,28.8,18.42,28.72L18.42,28.72z"/>
		</g>
	</g>
	<g>
		<g>
			<path d="M37.77,46.86c0.98-0.68,1.82-1.53,2.47-2.53c0.18-0.27,0.06-0.7-0.22-0.86c-0.31-0.16-0.66-0.07-0.86,0.22
				c-0.07,0.11-0.14,0.22-0.22,0.32c-0.04,0.05-0.08,0.11-0.12,0.16c-0.02,0.03-0.11,0.13,0,0c-0.02,0.02-0.03,0.04-0.05,0.06
				c-0.17,0.21-0.34,0.41-0.53,0.6c-0.18,0.19-0.37,0.36-0.57,0.53c-0.05,0.04-0.1,0.08-0.15,0.12c-0.03,0.02-0.05,0.04-0.08,0.06
				c-0.09,0.07,0.08-0.06,0.02-0.01c-0.11,0.08-0.22,0.16-0.33,0.24c-0.27,0.19-0.42,0.56-0.22,0.86
				C37.09,46.91,37.48,47.06,37.77,46.86L37.77,46.86z"/>
		</g>
	</g>
	<g>
		<g>
			<path d="M28.63,30.32c-3.38,1.94-4.1,6.59-1.2,9.32c1.53,1.44,3.81,2.2,4.26,4.49c0.5,2.55-0.96,5.06-1.33,7.53
				c-0.6,4.09,2.26,6.65,5.78,8.04c2.09,0.83,4.35,1.27,6.28,2.47c2.13,1.31,3.19,3.52,3.78,5.87c1.14,4.51,1.12,10.36,5.97,12.68
				c0.72,0.35,1.36-0.73,0.63-1.08c-4.2-2.02-4.35-7.2-5.22-11.17c-0.84-3.88-2.71-6.79-6.46-8.34c-3.23-1.33-8.55-2.02-9.49-6.12
				c-0.93-4.04,3.2-8.27,0.42-12.13c-1.14-1.58-3.13-2.21-4.3-3.75c-1.72-2.27-0.89-5.36,1.5-6.74C29.95,31,29.33,29.92,28.63,30.32
				L28.63,30.32z"/>
		</g>
	</g>
	<g>
		<g>
			<path d="M22.41,28.47c-3.36,2.66-5.42,6.87-5.25,11.19c0.09,2.23,0.73,4.44,1.85,6.37c1.14,1.98,2.8,3.3,4.43,4.84
				c3.33,3.15,1.85,7.81,4.09,11.44c2.34,3.79,7.75,2.73,10.26,6.31c3.33,4.73,1.18,11.11,2.62,16.39c0.21,0.78,1.42,0.45,1.21-0.33
				c-1.27-4.65,0.09-9.61-1.52-14.2c-0.59-1.69-1.54-3.24-2.99-4.32c-1.57-1.17-3.51-1.52-5.31-2.17c-2.26-0.82-3.53-2.27-4.07-4.6
				c-0.43-1.85-0.48-3.78-1.03-5.61c-0.59-1.95-1.79-3.29-3.3-4.6c-1.87-1.62-3.41-3.42-4.25-5.79c-1.83-5.1-0.07-10.69,4.14-14.03
				C23.93,28.86,23.04,27.98,22.41,28.47L22.41,28.47z"/>
		</g>
	</g>
	<g>
		<g>
			<path d="M18.52,59.79c2.48,3.47,2.38,8.16,5.13,11.49c1.4,1.69,3.74,2.23,5,4.01c1.47,2.09,1.35,4.8,1.26,7.23
				c-0.03,0.8,1.22,0.8,1.25,0c0.08-2.29,0.13-4.64-0.83-6.78c-0.41-0.91-1.01-1.74-1.79-2.37c-0.94-0.76-2.09-1.2-3.02-1.97
				c-3.63-2.98-3.29-8.56-5.92-12.23C19.14,58.51,18.06,59.13,18.52,59.79L18.52,59.79z"/>
		</g>
	</g>
	<g>
		<g>
			<path class="st2" d="M283.66,75.4c-0.65,5.05-1.3,10.1-1.96,15.14c-0.1,0.8,1.15,0.79,1.25,0c0.65-5.05,1.3-10.1,1.96-15.14
				C285.02,74.6,283.77,74.61,283.66,75.4L283.66,75.4z"/>
		</g>
	</g>
	<g>
		<g>
			<path class="st2" d="M293.8,75.4c0,5.18,0,10.36,0,15.53c0,0.8,1.25,0.81,1.25,0c0-5.18,0-10.36,0-15.53
				C295.05,74.59,293.8,74.59,293.8,75.4L293.8,75.4z"/>
		</g>
	</g>
	<g>
		<g>
			<path class="st2" d="M66.56,6.51c0.12,0.95-0.08,1.78-0.58,2.58c-0.46,0.73-1.2,1.32-2.02,1.58c-0.32,0.1-0.53,0.44-0.44,0.77
				c0.09,0.32,0.44,0.54,0.77,0.44c2.22-0.68,3.82-3.03,3.52-5.36c-0.04-0.33-0.26-0.63-0.63-0.63C66.88,5.89,66.51,6.17,66.56,6.51
				L66.56,6.51z"/>
		</g>
	</g>
	<g>
		<g>
			<path class="st2" d="M66.69,6.33c-0.44,2.56,1.62,5.15,4.24,5.22c0.34,0.01,0.63-0.29,0.63-0.63c0-0.35-0.29-0.62-0.63-0.63
				c-0.06,0-0.12,0-0.18-0.01c-0.04,0-0.08-0.01-0.12-0.01c0.06,0.01,0.06,0.01,0.02,0c-0.13-0.02-0.26-0.05-0.38-0.08
				c-0.12-0.03-0.23-0.07-0.34-0.11c0.11,0.04-0.06-0.03-0.07-0.03c-0.05-0.03-0.11-0.05-0.16-0.08c-0.11-0.06-0.21-0.12-0.31-0.18
				c-0.05-0.03-0.1-0.07-0.15-0.1c-0.06-0.04-0.06-0.05-0.02-0.01c-0.02-0.02-0.05-0.04-0.07-0.06c-0.19-0.16-0.37-0.34-0.53-0.53
				c0,0-0.12-0.15-0.05-0.06c-0.04-0.05-0.07-0.1-0.11-0.15c-0.07-0.1-0.13-0.2-0.19-0.31c-0.03-0.06-0.07-0.12-0.1-0.19
				c-0.01-0.02-0.08-0.17-0.06-0.12c0.02,0.05-0.04-0.1-0.05-0.12C68.05,8.07,68.02,8,68,7.94c-0.03-0.11-0.06-0.23-0.09-0.35
				c-0.01-0.06-0.02-0.12-0.03-0.18c0.02,0.13,0-0.06,0-0.07c-0.01-0.12-0.01-0.24-0.01-0.36c0-0.07,0.01-0.14,0.01-0.21
				c0-0.03,0.01-0.06,0.01-0.09c-0.01,0.07-0.01,0.06,0-0.01c0.06-0.33-0.09-0.67-0.44-0.77C67.16,5.81,66.75,6,66.69,6.33
				L66.69,6.33z"/>
		</g>
	</g>
	<g>
		<g>
			<path class="st2" d="M71.47,10.37c-1.49-0.54-3.07,0.3-3.96,1.49c-1.02,1.37-1.09,3.2-1.14,4.84c-0.03,0.8,1.22,0.8,1.25,0
				c0.04-1.35,0.07-2.84,0.83-4.01c0.58-0.89,1.69-1.48,2.69-1.12c0.32,0.12,0.68-0.13,0.77-0.44C72,10.79,71.78,10.49,71.47,10.37
				L71.47,10.37z"/>
		</g>
	</g>
	<g>
		<g>
			<path class="st2" d="M64.3,11.57c0.02-0.03,0.03-0.06,0.05-0.08c-0.05,0.06-0.05,0.07-0.01,0.02c0.1-0.08-0.1,0.05,0.02-0.02
				c0.03-0.02,0.05-0.03,0.08-0.05c-0.07,0.03-0.09,0.03-0.04,0.02c0.05-0.01,0.11-0.03,0.16-0.04c-0.12,0.04-0.04,0,0.02,0
				c0.07,0,0.13,0,0.2,0.01c-0.11-0.01-0.03,0,0.03,0.01c0.05,0.01,0.1,0.03,0.15,0.04c0.07,0.03,0.06,0.02-0.01,0
				c0.03,0.01,0.06,0.03,0.09,0.05c0.04,0.02,0.09,0.05,0.13,0.08c-0.12-0.08,0.02,0.03,0.04,0.05c0.08,0.07,0.02,0,0.07,0.09
				c0.04,0.05,0.07,0.11,0.1,0.17c0.01,0.02,0.1,0.22,0.08,0.15c0.05,0.13,0.09,0.27,0.13,0.41c0.14,0.57,0.14,1.14,0.26,1.78
				c0.12,0.63,0.39,1.25,0.87,1.68c0.25,0.22,0.64,0.25,0.88,0c0.23-0.23,0.25-0.66,0-0.88c-0.06-0.06-0.12-0.11-0.18-0.18
				c-0.05-0.06-0.05-0.06-0.02-0.02c-0.02-0.03-0.05-0.07-0.07-0.1c-0.04-0.07-0.08-0.14-0.12-0.22c0.04,0.09-0.04-0.12-0.05-0.14
				c-0.05-0.14-0.08-0.29-0.11-0.43c-0.02-0.08-0.03-0.17-0.05-0.25c-0.01-0.04-0.01-0.09-0.02-0.13c0.01,0.06,0.01,0.05,0-0.03
				c-0.08-0.74-0.15-1.5-0.48-2.18c-0.3-0.6-0.85-1.05-1.52-1.16c-0.69-0.11-1.41,0.1-1.77,0.74c-0.17,0.29-0.07,0.68,0.22,0.86
				C63.74,11.96,64.14,11.86,64.3,11.57L64.3,11.57z"/>
		</g>
	</g>
	<g>
		<g>
			<path class="st2" d="M302.54,75.4c0.67,5.22,1.35,10.45,2.02,15.67c0.1,0.79,1.35,0.8,1.25,0c-0.67-5.22-1.35-10.45-2.02-15.67
				C303.69,74.61,302.44,74.6,302.54,75.4L302.54,75.4z"/>
		</g>
	</g>
	<g>
		<g>
			<path d="M973.4,9.47c-0.51,6.07-3.12,11.85-7.3,16.28c-0.55,0.58,0.33,1.47,0.88,0.88c4.42-4.68,7.12-10.75,7.66-17.16
				C974.71,8.67,973.46,8.68,973.4,9.47L973.4,9.47z"/>
		</g>
	</g>
	<g>
		<g>
			<path d="M973.89,9.57c0.1,6.12,2.96,13.02,8.85,15.65c0.73,0.33,1.36-0.75,0.63-1.08c-5.5-2.46-8.14-8.85-8.23-14.57
				C975.12,8.77,973.87,8.76,973.89,9.57L973.89,9.57z"/>
		</g>
	</g>
	<g>
		<g>
			<path d="M966.31,26.59c2.87,0.53,5.32,2.52,6.29,5.3c0.54,1.55,0.72,3.24,0.83,4.87c0.11,1.72-0.19,3.43-0.06,5.16
				c0.06,0.8,1.31,0.8,1.25,0c-0.15-1.92,0.18-3.82,0.01-5.74c-0.17-1.8-0.37-3.62-1.08-5.3c-1.21-2.85-3.86-4.94-6.9-5.49
				C965.86,25.24,965.52,26.45,966.31,26.59L966.31,26.59z"/>
		</g>
	</g>
	<g>
		<g>
			<path d="M974.62,41.91c0.02-1.8,0.07-3.61,0.06-5.41c-0.01-1.77-0.09-3.41,0.55-5.1c1.29-3.39,4.64-6.34,8.46-5.6
				c0.79,0.15,1.12-1.05,0.33-1.21c-4.06-0.79-7.73,1.79-9.5,5.33c-0.92,1.85-1.15,3.69-1.11,5.73c0.04,2.08-0.03,4.17-0.05,6.25
				C973.36,42.72,974.61,42.72,974.62,41.91L974.62,41.91z"/>
		</g>
	</g>
	<g>
		<g>
			<path d="M962.73,39.3c-1.14,2.66-2.91,4.97-5.23,6.7c-0.43,0.32-0.39,0.96,0.15,1.14c3.64,1.27,3.76,5.81,3.75,9
				c0,0.68,1.12,0.88,1.23,0.17c0.41-2.78,1.09-6.6,4.46-7.11c0.39-0.06,0.58-0.61,0.37-0.92c-2.01-3.02-3.18-6.49-3.36-10.12
				c-0.04-0.8-1.29-0.81-1.25,0c0.19,3.84,1.4,7.55,3.53,10.75c0.12-0.31,0.25-0.61,0.37-0.92c-3.83,0.57-4.86,4.76-5.33,7.98
				c0.41,0.06,0.82,0.11,1.23,0.17c0.01-3.85-0.4-8.72-4.67-10.2c0.05,0.38,0.1,0.76,0.15,1.14c2.49-1.86,4.45-4.29,5.68-7.15
				C964.12,39.2,963.05,38.56,962.73,39.3L962.73,39.3z"/>
		</g>
	</g>
</g>
</svg>
