<?xml version="1.0" encoding="utf-8"?>
<!-- Generator: Adobe Illustrator 24.2.3, SVG Export Plug-In . SVG Version: 6.00 Build 0)  -->
<svg version="1.1" id="Слой_1" xmlns="http://www.w3.org/2000/svg" xmlns:xlink="http://www.w3.org/1999/xlink" x="0px" y="0px"
	 viewBox="0 0 200 200" style="enable-background:new 0 0 200 200;" xml:space="preserve">
<style type="text/css">
	.st0{fill:#FFFFFF;}
</style>
<path class="st0" d="M48.66,160.72c25.98,0.62,51.96,1.24,77.94,1.86c6.47,0.15,12.93,0.31,19.4,0.46c2.78,0.07,6.22,0.62,8.68-1
	c2.32-1.54,2.88-4.28,2.57-6.88c-0.37-3.07-1.12-6.1-1.54-9.17c-0.41-3.03-0.69-6.07-0.86-9.12c-0.35-6.3-0.19-12.61,0.46-18.89
	c1.39-13.34,4.74-27.15,0.32-40.29c-0.42-1.24-1.73-2.17-3.08-1.75c-11.62,3.69-23.89,3.41-35.93,2.93
	c-12.68-0.51-25.37-1.05-38.05-1.57c-6.33-0.26-12.66-0.65-19-0.77c-2.56-0.05-5.28,0.18-7.54,1.51c-2.38,1.42-3.79,3.91-4.38,6.57
	c-1.25,5.6-0.79,11.72-0.44,17.4c0.37,6.01,0.96,12.01,0.87,18.03c-0.05,3.19-0.28,6.38-0.91,9.52c-0.65,3.25-1.77,6.34-2.98,9.42
	c-2.45,6.21-4.86,12.98-2.62,19.64c1.02,3.03,5.85,1.73,4.82-1.33c-1.84-5.46,0.27-11.03,2.28-16.12c1.04-2.65,2.1-5.29,2.81-8.05
	c0.72-2.79,1.14-5.65,1.39-8.52c0.97-11.55-1.46-23.07-0.84-34.63c0.12-2.18,0.15-4.91,1.53-6.73c1.27-1.68,3.71-1.73,5.62-1.72
	c6.04,0.05,12.11,0.48,18.15,0.73c12.39,0.51,24.78,1.02,37.17,1.54c13.16,0.54,26.66,1.02,39.38-3.02
	c-1.03-0.58-2.05-1.16-3.08-1.75c3.75,11.14,1.49,23.02,0.04,34.36c-1.54,12.04-1.54,24.07,0.35,36.07
	c0.22,1.42,0.47,2.84,0.75,4.25c0.2,1.03,0.52,2.18,0.39,3.25c-0.23,1.9-3.53,1.16-4.85,1.12c-6.3-0.15-12.6-0.3-18.9-0.45
	c-12.58-0.3-25.17-0.6-37.75-0.9c-14.06-0.34-28.12-0.67-42.17-1.01C45.45,155.64,45.45,160.64,48.66,160.72L48.66,160.72z"/>
<path class="st0" d="M86.16,107.05c6.23-0.17,12.46-0.35,18.7-0.52c3.12-0.09,6.23-0.18,9.35-0.26c0.63-0.02,1.28-0.06,1.91,0.02
	c0.54,0.07,0.33,0.27,0.19-0.01c0.5,1,0.18,2.7,0.2,3.79c0.1,6.31,0.19,12.62,0.29,18.92c0.02,1.19,0.19,2.49-0.03,3.67
	c-0.17,0.92-0.84,0.99-1.7,1.04c-2.99,0.18-6.06-0.04-9.06-0.07c-7.12-0.08-14.24-0.16-21.36-0.24c0.83,0.83,1.67,1.67,2.5,2.5
	c-0.43-10-0.86-20-1.28-30c-0.14-3.21-5.14-3.22-5,0c0.43,10,0.86,20,1.28,30c0.06,1.36,1.1,2.48,2.5,2.5
	c7.12,0.08,14.24,0.16,21.36,0.24c3.22,0.04,6.59,0.36,9.8,0.01c3.59-0.39,5.73-2.69,6-6.28c0.25-3.4-0.06-6.93-0.11-10.34
	c-0.05-3.49-0.11-6.97-0.16-10.46c-0.05-3.08,0.61-7.39-2.4-9.34c-1.21-0.79-2.66-0.98-4.08-0.97c-1.76,0-3.52,0.1-5.27,0.14
	c-7.87,0.22-15.74,0.44-23.62,0.66C82.95,102.14,82.93,107.14,86.16,107.05L86.16,107.05z"/>
<path class="st0" d="M43.33,73.82C60.96,61.12,77.56,47,92.85,31.56c4.3-4.34,8.5-8.79,12.59-13.33c-1.31-0.17-2.62-0.34-3.93-0.51
	c10.05,19.03,27.83,32.24,46.08,42.79c5.57,3.22,11.24,6.25,16.91,9.28c2.84,1.52,5.37-2.8,2.52-4.32
	c-18.67-9.98-37.86-20.26-51.85-36.57c-3.61-4.21-6.76-8.8-9.35-13.71c-0.73-1.38-2.87-1.67-3.93-0.51
	c-14.36,15.92-30.02,30.66-46.81,44c-4.68,3.72-9.45,7.32-14.3,10.81c-1.09,0.79-1.62,2.18-0.9,3.42
	C40.54,74.01,42.23,74.62,43.33,73.82L43.33,73.82z"/>
</svg>
