<?xml version="1.0" encoding="utf-8"?>
<!-- Generator: Adobe Illustrator 24.2.3, SVG Export Plug-In . SVG Version: 6.00 Build 0)  -->
<svg version="1.1" id="Слой_1" xmlns="http://www.w3.org/2000/svg" xmlns:xlink="http://www.w3.org/1999/xlink" x="0px" y="0px"
	 viewBox="0 0 200 200" style="enable-background:new 0 0 200 200;" xml:space="preserve">
<g>
	<g>
		<path d="M28.28,26.07c-7.05,18.95,1.35,38.51,2.15,57.7c0.8,19.13-6.64,37.34-8.47,56.21c-0.77,7.98-0.58,16.52,3.19,23.79
			c3.89,7.49,11.39,11.23,19.48,12.34c4.11,0.57,8.25,0.62,12.39,0.58c5.17-0.05,10.33-0.11,15.5-0.17
			c10.33-0.11,20.66-0.23,31-0.34c20.33-0.22,40.66-0.31,60.99-0.67c4.15-0.07,8.6-0.4,12.23-2.64c3.34-2.06,5.46-5.45,6.41-9.21
			c0.94-3.73,0.92-7.66,0.72-11.47c-0.27-5.1-0.58-10.2-0.88-15.31c-1.18-20.6-2.36-41.2-3.54-61.8c-0.29-5.15-0.59-10.3-0.88-15.45
			c-0.27-4.65-0.42-9.32-0.86-13.96c-0.39-4.07-1.09-8.14-2.96-11.82c-1.89-3.72-5.05-6.5-8.87-8.13c-3.87-1.65-8.03-2.2-12.19-2.64
			c-5.01-0.52-10.03-0.95-15.06-1.3c-10-0.7-20.03-1.09-30.06-1.15c-20.22-0.13-40.45,1.04-60.52,3.5
			c-4.92,0.6-9.82,1.28-14.72,2.03c-1.34,0.2-2.07,1.88-1.75,3.08c0.39,1.43,1.74,1.95,3.08,1.75c19.28-2.95,38.75-4.67,58.25-5.19
			c19.48-0.52,38.99,0.17,58.39,2.06c3.94,0.38,7.94,0.74,11.69,2.08c3.41,1.22,6.02,3.52,7.59,6.78c1.55,3.23,1.98,6.97,2.24,10.5
			c0.36,4.72,0.56,9.45,0.83,14.18c1.14,19.85,2.27,39.71,3.41,59.56c0.57,9.97,1.14,19.94,1.71,29.9
			c0.35,6.16,1.09,15.32-5.75,18.36c-3.54,1.57-7.72,1.31-11.49,1.36c-4.96,0.05-9.92,0.11-14.87,0.16
			c-9.83,0.11-19.67,0.22-29.5,0.32c-19.96,0.22-39.93,0.44-59.89,0.66c-7.34,0.08-15.54,0.22-21.97-3.89
			c-6.14-3.92-8.29-11.36-8.65-18.26c-0.46-8.72,1.24-17.47,3.04-25.95c1.93-9.09,4.16-18.13,5.22-27.38
			c1.1-9.61,0.19-18.99-1.42-28.48c-1.55-9.17-3.42-18.37-2.93-27.73c0.22-4.31,1.03-8.55,2.54-12.6c0.47-1.27-0.53-2.74-1.75-3.08
			C29.96,23.94,28.75,24.8,28.28,26.07L28.28,26.07z"/>
	</g>
</g>
<g>
	<g>
		<path d="M85.45,129.42c-12.01-3.39-21.56-14.17-22.77-26.71c-0.64-6.63,0.7-13.4,4.02-19.19c3.3-5.77,8.46-10.19,14.5-12.92
			c6.19-2.79,13.16-3.37,19.77-1.92c3.79,0.83,7.46,2.17,10.98,3.78c3.39,1.55,6.79,3.23,9.92,5.27c2.82,1.83,5.31,4.09,6.95,7.05
			c1.52,2.74,2.24,5.88,2.43,8.99c0.2,3.33-0.1,6.67-0.74,9.94c-0.67,3.42-1.54,6.92-2.98,10.11c-1.47,3.26-3.5,6.07-6.25,8.37
			c-2.57,2.16-5.64,3.74-8.68,5.13c-3.26,1.49-6.62,2.86-10.01,4.01c-3.27,1.11-6.79,1.91-10.21,0.97c-1.43-0.39-2.7-1.07-3.76-2.1
			c-2.31-2.25-5.85,1.28-3.54,3.54c2.82,2.75,6.7,4,10.6,3.98c4.38-0.02,8.52-1.59,12.53-3.19c7.08-2.81,14.64-5.85,19.66-11.87
			c5.21-6.26,7.4-14.84,8.21-22.8c0.77-7.59-0.53-15.6-5.71-21.48c-2.63-2.99-6.08-5.19-9.56-7.07c-3.81-2.06-7.74-3.93-11.8-5.44
			C101.28,63,93,61.97,84.93,64.05c-7.25,1.87-14.08,6-18.9,11.76c-5.04,6.02-7.93,13.53-8.43,21.36
			c-0.96,14.85,7.85,29.21,21.45,35.23c1.65,0.73,3.33,1.36,5.07,1.85C87.22,135.12,88.55,130.3,85.45,129.42L85.45,129.42z"/>
	</g>
</g>
<g>
	<g>
		<path d="M136.14,55.01c-0.13-0.08-0.26-0.17-0.38-0.26c0.04,0.03,0.27,0.22,0.06,0.04c-0.2-0.18-0.4-0.36-0.58-0.55
			c-0.1-0.11-0.21-0.23-0.3-0.35c0.07,0.09,0.23,0.35-0.02-0.05c-0.16-0.26-0.31-0.52-0.46-0.79c-0.04-0.08-0.19-0.44-0.03-0.03
			c-0.04-0.11-0.08-0.21-0.12-0.32c-0.08-0.25-0.15-0.51-0.21-0.77c-0.11-0.47-0.03-0.13-0.02-0.01c-0.02-0.15-0.03-0.31-0.03-0.47
			c-0.01-0.31,0-0.64,0.04-0.95c-0.07,0.47,0.08-0.25,0.12-0.38c0.03-0.12,0.28-0.78,0.11-0.41c0.13-0.29,0.28-0.57,0.45-0.83
			c0.06-0.1,0.13-0.2,0.2-0.29c0.14-0.2-0.18,0.15,0.13-0.14c0.2-0.19,0.38-0.4,0.6-0.57c0.31-0.25-0.27,0.17,0.08-0.04
			c0.11-0.06,0.21-0.13,0.32-0.19c0.14-0.08,0.29-0.16,0.44-0.23c-0.1,0.05-0.38,0.12,0.09-0.03c0.32-0.1,0.63-0.19,0.96-0.25
			c-0.43,0.08,0.31-0.02,0.44-0.02c0.12,0,0.86,0.05,0.44-0.01c0.31,0.05,0.61,0.14,0.92,0.22c0.03,0.01,0.38,0.13,0.12,0.03
			c-0.29-0.11,0.25,0.12,0.31,0.15c0.23,0.12,0.45,0.26,0.67,0.41c0.32,0.21-0.26-0.24,0.03,0.02c0.08,0.07,0.17,0.15,0.25,0.22
			c0.22,0.2,0.42,0.42,0.62,0.65c-0.28-0.32,0.17,0.26,0.26,0.41c0.14,0.22,0.25,0.46,0.37,0.69c0.17,0.33-0.08-0.34,0,0.03
			c0.03,0.11,0.07,0.21,0.11,0.32c0.09,0.3,0.16,0.61,0.21,0.92c-0.01-0.05-0.04-0.35-0.02-0.06c0.01,0.2,0.02,0.41,0.02,0.61
			c0,0.16-0.01,0.33-0.02,0.49c0,0.02-0.04,0.42-0.01,0.16c0.04-0.29-0.04,0.21-0.05,0.27c-0.02,0.12-0.05,0.24-0.08,0.36
			c-0.08,0.32-0.18,0.63-0.3,0.94c0.02-0.05,0.13-0.29,0.01-0.03c-0.09,0.19-0.18,0.37-0.28,0.55c-0.16,0.29-0.34,0.57-0.53,0.83
			c0.22-0.3-0.03,0.03-0.07,0.07c-0.14,0.15-0.28,0.3-0.42,0.45c-0.09,0.09-0.18,0.17-0.27,0.25c0.01-0.01-0.49,0.41-0.31,0.27
			c0.21-0.16-0.2,0.13-0.24,0.16c-0.17,0.11-0.34,0.22-0.52,0.33c-0.28,0.16-0.58,0.32-0.87,0.45c0.1-0.05,0.38-0.14-0.09,0.03
			c-0.16,0.05-0.31,0.11-0.47,0.16c-0.35,0.11-0.71,0.2-1.08,0.27c-0.12,0.02-0.24,0.05-0.36,0.07c0.49-0.08-0.28,0.02-0.31,0.02
			c-1.3,0.09-2.56,1.08-2.5,2.5c0.06,1.27,1.1,2.6,2.5,2.5c3.8-0.28,7.3-2.02,9.48-5.21c2.07-3.03,2.35-7.05,0.75-10.33
			c-1.54-3.17-5.07-5.4-8.62-5.15c-3.87,0.27-7.12,2.81-8.23,6.55c-1.21,4.09,0.7,8.38,4.19,10.65c1.1,0.72,2.81,0.26,3.42-0.9
			C137.7,57.18,137.31,55.77,136.14,55.01L136.14,55.01z"/>
	</g>
</g>
<g>
	<g>
		<path d="M7.57,10.92C6.61,35.39,5.66,59.86,4.7,84.33c-0.95,24.21-2,48.53-0.55,72.75c0.59,9.79,2.51,20.17,11.16,26.09
			c3.84,2.63,8.47,3.97,13.02,4.73c5.28,0.89,10.66,1.19,15.99,1.64c24.38,2.05,48.78,4.58,73.24,5.47
			c12.18,0.44,24.39,0.41,36.55-0.53c10.11-0.78,21.05-1.66,29.93-7.03c8.41-5.09,13.04-13.93,14.37-23.47
			c1.51-10.85-0.94-21.47-3.21-32.03c-1.23-5.71-2.32-11.43-2.65-17.27c-0.33-5.99-0.05-12,0.41-17.98
			c0.94-12.04,2.28-23.97,2-36.07c-0.14-6.03-0.56-12.05-1.27-18.03c-0.59-5-1.32-10.06-3.14-14.79c-1.89-4.89-4.79-9.05-9.05-12.14
			c-4.31-3.13-9.56-4.93-14.65-6.34c-10.95-3.04-22.41-3.79-33.73-3.67c-11.8,0.12-23.59,1.03-35.37,1.71
			C85.68,8.06,73.6,8.79,61.52,9.45c-10.88,0.59-21.96,1.03-32.74-0.81C23.64,7.77,18.55,6.4,13.77,4.31
			c-1.24-0.54-2.68-0.36-3.42,0.9C9.73,6.27,10,8.08,11.24,8.63c20.51,8.98,43.62,6.21,65.31,4.96c11.97-0.69,23.94-1.38,35.91-2.08
			c11.1-0.64,22.25-1.28,33.37-0.56c5.5,0.36,10.98,1.08,16.35,2.33c4.98,1.16,10.08,2.64,14.53,5.22
			c4.09,2.38,7.08,5.88,8.87,10.26c1.79,4.38,2.55,9.15,3.11,13.83c1.38,11.65,1.68,23.42,0.89,35.13
			c-0.79,11.74-2.54,23.46-2.11,35.26c0.43,11.69,3.92,22.81,5.69,34.29c1.36,8.85,1.3,18.65-3.03,26.74
			c-2.09,3.91-5.13,7.09-8.95,9.33c-4.01,2.35-8.53,3.64-13.07,4.5c-5.18,0.98-10.48,1.41-15.73,1.78
			c-5.91,0.41-11.84,0.62-17.77,0.67c-23.87,0.19-47.68-2.15-71.45-4.15c-5.95-0.5-11.9-1-17.86-1.5
			c-5.15-0.43-10.36-0.68-15.46-1.52c-4.34-0.72-8.68-1.89-12.31-4.47c-3.61-2.57-5.71-6.59-6.85-10.79
			c-1.25-4.6-1.49-9.38-1.71-14.12c-0.28-5.94-0.42-11.89-0.47-17.84c-0.1-11.9,0.19-23.81,0.6-35.7
			c0.82-23.98,1.85-47.96,2.79-71.94c0.23-5.78,0.45-11.55,0.68-17.33C12.7,7.71,7.7,7.71,7.57,10.92L7.57,10.92z"/>
	</g>
</g>
</svg>
