<?xml version="1.0" encoding="UTF-8"?>
<!DOCTYPE svg PUBLIC "-//W3C//DTD SVG 1.1//EN" "http://www.w3.org/Graphics/SVG/1.1/DTD/svg11.dtd">
<!-- Creator: CorelDRAW 2019 (64-Bit) -->
<svg xmlns="http://www.w3.org/2000/svg" xml:space="preserve" width="145.521mm" height="145.521mm" version="1.1" style="shape-rendering:geometricPrecision; text-rendering:geometricPrecision; image-rendering:optimizeQuality; fill-rule:evenodd; clip-rule:evenodd"
viewBox="0 0 14552.08 14552.08"
 xmlns:xlink="http://www.w3.org/1999/xlink"
 xmlns:xodm="http://www.corel.com/coreldraw/odm/2003">
 <defs>
  <style type="text/css">
   <![CDATA[
    .fil0 {fill:black;fill-rule:nonzero}
   ]]>
  </style>
 </defs>
 <g id="Слой_x0020_1">
  <metadata id="CorelCorpID_0Corel-Layer"/>
  <path class="fil0" d="M11803.59 11598.71c-122.4,-399.87 -244.18,-801.46 -365.34,-1202.96 -299.14,174.86 -597.8,349.02 -896.8,523.53 -298.02,173.94 -596.41,348.24 -894.3,522.21 -129.9,547.11 -258.55,1093.72 -387.83,1638.76 -272.9,158.8 -545.18,317.54 -816.86,475.71 -271.6,158.13 -499.13,309.17 -769.55,466.95l0.03 -7214.98c711.32,-419.91 3416.35,-1972.66 4127.67,-2392.57 346.6,999.5 685.07,1975.78 1032.18,2975.15 347.33,1000 694.46,2001.56 1041.68,3002.56 -345.98,201.32 -691.86,402.86 -1036.69,603.58 -345.24,200.97 -690.08,401.48 -1034.19,602.06zm-1790.47 -1946.44c350.34,-205.21 701.32,-410.59 1053.54,-616.46 -88.05,-295.82 -177.01,-592.25 -264.78,-888.06 -87.71,-295.58 -175.49,-592.75 -263.55,-889.06 -88.06,399.64 -175.49,799.59 -262.92,1198 -87.43,398.35 -174.87,797.36 -262.29,1195.58z"/>
  <path class="fil0" d="M7605.64 14024.42c-307.87,-179.19 -592.14,-352.91 -899.32,-531.65 -306.67,-178.44 -612.65,-356.94 -919.29,-535.23 -464.01,-1043.63 -927.76,-2086.63 -1390.16,-3127.54 -461.87,-1039.7 -922.41,-2077.69 -1383.3,-3114.34 29.35,788.02 58.39,1576.13 87.43,2364.28 29.04,788.24 59.33,1576.91 89.31,2364.94 -302.89,-176.05 -604.5,-351.95 -905.55,-527.18 -300.97,-175.17 -601.4,-350.01 -900.55,-524.63 0,-1185.04 0,-2371.48 0,-3557.23 0,-1185.73 0,-2372.89 0,-3560.06 349.1,199.88 698.26,399.75 1048.56,599.88 350.4,200.18 700.71,400.68 1052.31,601.63 410.93,900.8 822.44,1802.73 1234.66,2704.35 412.76,902.77 826.23,1808.1 1239.66,2713.14 -29.35,-683.11 -58.4,-1367.97 -86.81,-2050.57 -28.41,-682.58 -58.07,-1367.23 -86.18,-2051.1 306.01,174.93 612,350.16 918.66,525.39 307.2,175.55 591.53,312.88 900.66,489.24 0,1198.18 23.61,2435.05 23.61,3631.8 0,1196.76 -23.7,2388.84 -23.7,3584.88z"/>
  <path class="fil0" d="M7639.34 6756.43c-1026.61,-586.66 -2059.31,-1177.25 -3096.87,-1770.33 -1043.19,-596.29 -2093.21,-1196.88 -3148.26,-1800.32 444.65,-257.64 891.71,-516.41 1338.96,-775.07 448.92,-259.63 898.75,-519.78 1350.2,-780.91 590.23,-341.43 1186.57,-594.01 1787.9,-758.23 603.09,-164.71 1210.81,-239.93 1821.66,-225.56 611.58,14.39 1173.52,85.6 1683.83,214.06 510.19,128.43 972.32,313.14 1381.25,554.57 465.95,275.09 806.9,569.82 1023.84,882.51 216.51,312.05 310.6,643.03 281.21,992.35 -29.27,347.74 -177.6,679.21 -445.3,993.62 -266.89,313.47 -651.65,610.31 -1153.74,891.4 -474.01,265.35 -947.33,530.56 -1418.27,794.18 -470.19,263.21 -939.26,525.9 -1406.41,787.73zm720.92 -2013.08c186.11,-105.2 372.8,-210.62 559.59,-315.92 355.93,-200.67 504.43,-460.48 443.22,-776.87 -61.59,-318.34 -355.78,-632.19 -887.17,-942.3 -456.5,-266.4 -961.2,-434.78 -1511.99,-503.2 -549.98,-68.32 -1032.97,16.34 -1443.29,252.05 -186.73,107.28 -373.47,214.49 -560.2,321.58 571.22,329.97 1140.12,658.9 1707.4,986.66 566.18,327.13 1130.15,653.08 1692.44,978z"/>
 </g>
</svg>
