<?xml version="1.0" encoding="utf-8"?>
<!-- Generator: Adobe Illustrator 24.2.3, SVG Export Plug-In . SVG Version: 6.00 Build 0)  -->
<svg version="1.1" xmlns="http://www.w3.org/2000/svg" xmlns:xlink="http://www.w3.org/1999/xlink" x="0px" y="0px"
	 viewBox="0 0 841.89 1190.55" style="enable-background:new 0 0 841.89 1190.55;" xml:space="preserve">
<style type="text/css">
	.st0{fill:url(#SVGID_1_);}
	.st1{opacity:0.32;fill:#08A9DF;}
	.st2{fill:#08A9DF;}
	.st3{fill:#FFFFFF;}
	.st4{font-family:'by-boryaaa';}
	.st5{font-size:113.2977px;}
	.st6{font-size:113px;}
	.st7{font-size:132.1694px;}
	.st8{font-size:124.8332px;}
	.st9{font-size:131.1658px;}
	.st10{font-size:88.8477px;}
	.st11{font-size:93.4818px;}
	.st12{font-size:100.6147px;}
	.st13{font-size:66.3066px;}
	.st14{font-size:102.2425px;}
	.st15{font-size:100.5736px;}
	.st16{font-size:106.4072px;}
	.st17{fill:none;stroke:#FFFFFF;stroke-width:5;stroke-miterlimit:10;}
	.st18{fill:#FFFFFF;stroke:#FFFFFF;stroke-width:5;stroke-miterlimit:10;}
	.st19{font-size:74.9921px;}
	.st20{fill:#E7B5D4;}
	.st21{display:none;}
	.st22{display:inline;opacity:0.48;fill:#08A9DF;}
	.st23{display:inline;opacity:0.49;fill:#08A9DF;}
	.st24{display:inline;fill:#08A9DF;}
	.st25{font-family:'Cramaten';}
	.st26{font-size:295px;}
	.st27{fill:#36A9E1;}
	.st28{fill:#727272;}
	.st29{fill:#E7B5D5;}
	.st30{fill:url(#SVGID_2_);}
	.st31{fill:none;}
	.st32{fill:url(#SVGID_3_);}
	.st33{opacity:0.73;fill:#0077B5;}
	.st34{fill:#D69CC6;}
	.st35{fill:url(#SVGID_4_);}
	.st36{fill:url(#SVGID_5_);}
	.st37{fill:#383838;}
	.st38{fill:#A68DAF;}
	.st39{fill:url(#SVGID_6_);}
	.st40{fill:#7ECDEB;}
	.st41{fill:none;stroke:#3C3C3B;stroke-width:4;stroke-linecap:round;stroke-miterlimit:10;}
	.st42{fill:none;stroke:#3C3C3B;stroke-width:2;stroke-linecap:round;stroke-miterlimit:10;}
	.st43{fill:#F1865D;}
	.st44{fill:none;stroke:#706F6F;stroke-linecap:round;stroke-linejoin:round;stroke-miterlimit:10;}
	.st45{fill:none;stroke:#3C3C3B;stroke-linecap:round;stroke-linejoin:round;stroke-miterlimit:10;}
	.st46{fill:#9D9D9C;stroke:#575756;stroke-width:2;stroke-linecap:round;stroke-miterlimit:10;}
	.st47{fill:none;stroke:#4A494A;stroke-linecap:round;stroke-linejoin:round;stroke-miterlimit:10;}
	.st48{fill:#7C7C7C;}
	.st49{opacity:0.54;}
	.st50{fill:#D69DC6;}
	.st51{fill:url(#SVGID_7_);}
	.st52{fill:url(#SVGID_8_);}
	.st53{fill:#CE6943;}
	.st54{fill:#FAF199;}
	.st55{fill:none;stroke:#3C3C3B;stroke-linecap:round;stroke-miterlimit:10;}
	.st56{fill:url(#SVGID_9_);}
	.st57{fill:url(#SVGID_10_);}
	.st58{fill:#CA4A17;}
	.st59{fill:none;stroke:#CCC0D5;stroke-miterlimit:10;}
	.st60{fill:#F9B233;}
	.st61{fill:#927D9A;}
	.st62{fill:url(#SVGID_11_);}
	.st63{fill:url(#SVGID_12_);}
	.st64{fill:url(#SVGID_13_);}
	.st65{fill:url(#SVGID_14_);}
	.st66{fill:url(#SVGID_15_);}
	.st67{fill:url(#SVGID_16_);}
	.st68{fill:url(#SVGID_17_);}
	.st69{fill:url(#SVGID_18_);}
	.st70{fill:url(#SVGID_19_);}
	.st71{fill:url(#SVGID_20_);}
	.st72{fill:url(#SVGID_21_);}
	.st73{fill:url(#SVGID_22_);}
	.st74{fill:url(#SVGID_23_);}
	.st75{fill:url(#SVGID_24_);}
	.st76{fill:url(#SVGID_25_);}
	.st77{fill:url(#SVGID_26_);}
	.st78{fill:url(#SVGID_27_);}
	.st79{fill:url(#SVGID_28_);}
	.st80{fill:url(#SVGID_29_);}
	.st81{fill:url(#SVGID_30_);}
	.st82{fill:url(#SVGID_31_);}
	.st83{fill:url(#SVGID_32_);}
	.st84{fill:url(#SVGID_33_);}
	.st85{fill:url(#SVGID_34_);}
	.st86{fill:url(#SVGID_35_);}
	.st87{fill:url(#SVGID_36_);}
	.st88{fill:url(#SVGID_37_);}
	.st89{fill:url(#SVGID_38_);}
	.st90{fill:url(#SVGID_39_);}
	.st91{fill:url(#SVGID_40_);}
	.st92{fill:url(#SVGID_41_);}
	.st93{fill:url(#SVGID_42_);}
	.st94{fill:url(#SVGID_43_);}
	.st95{fill:url(#SVGID_44_);}
	.st96{fill:url(#SVGID_45_);}
	.st97{fill:url(#SVGID_46_);}
	.st98{fill:url(#SVGID_47_);}
	.st99{fill:url(#SVGID_48_);}
	.st100{fill:url(#SVGID_49_);}
	.st101{fill:url(#SVGID_50_);}
	.st102{fill:url(#SVGID_51_);}
	.st103{fill:url(#SVGID_52_);}
	.st104{fill:url(#SVGID_53_);}
</style>
<g id="Слой_5">
	<radialGradient id="SVGID_1_" cx="420.955" cy="430.8296" r="515.5322" gradientUnits="userSpaceOnUse">
		<stop  offset="0.1273" style="stop-color:#F0F6EB"/>
		<stop  offset="0.2015" style="stop-color:#C1CBD2"/>
		<stop  offset="0.2892" style="stop-color:#98A7B9"/>
		<stop  offset="0.3818" style="stop-color:#7A8CA5"/>
		<stop  offset="0.4802" style="stop-color:#677A97"/>
		<stop  offset="0.5883" style="stop-color:#5C708E"/>
		<stop  offset="0.7248" style="stop-color:#596D8B"/>
	</radialGradient>
	<path class="st0" d="M516.43,923.52l-0.02-0.01c-0.01,0.01-0.01,0.01-0.01,0.01l0.16,0.05L516.43,923.52z M516.43,923.52
		l-0.02-0.01c-0.01,0.01-0.01,0.01-0.01,0.01l0.16,0.05L516.43,923.52z M516.43,923.52l-0.02-0.01c-0.01,0.01-0.01,0.01-0.01,0.01
		l0.16,0.05L516.43,923.52z M516.43,923.52l-0.02-0.01c-0.01,0.01-0.01,0.01-0.01,0.01l0.16,0.05L516.43,923.52z M516.43,923.52
		l-0.02-0.01c-0.01,0.01-0.01,0.01-0.01,0.01l0.16,0.05L516.43,923.52z M516.43,923.52l-0.02-0.01c-0.01,0.01-0.01,0.01-0.01,0.01
		l0.16,0.05L516.43,923.52z M0.01-0.02v1190.55H841.9V-0.02H0.01z M239.08,1052.9c-13.32-10.16-1.47-48.1,26.47-84.75
		c9.43-12.37,19.49-23.01,29.19-31.29c3.56,1.22,7.11,2.42,10.65,3.6c3.98,2.71,9.72,6.63,16,10.97c5.67,3.91,11.77,8.15,17.4,12.14
		c7.02,4.97,13.31,9.54,17.14,12.56l-17.14,5.63l-10.08,3.31c-0.55,0.18-1.1,0.35-1.66,0.49c-1.77,2.92-3.66,5.86-5.66,8.81
		c-2.37,3.52-4.91,7.05-7.59,10.57C285.86,1041.59,252.41,1063.06,239.08,1052.9z M605.54,1046.22c-0.01,0.01-0.03,0.02-0.04,0.03
		c-3.94,3.28-10.02,3.5-17.4,1.17c-4.88-1.55-10.34-4.21-16.12-7.84c-7.75-4.87-16.1-11.49-24.46-19.51
		c-5.23-5.02-10.47-10.59-15.58-16.63c-0.76-0.9-1.34-1.6-1.82-2.21c-2.51-3.17-2.42-3.74-11.32-15.1c-0.62-0.35-2.9-1.15-6.07-2.17
		c-4.69-1.53-11.32-3.55-17.4-5.37c-5.81-1.74-11.12-3.29-13.73-4.06c0.15-0.26,0.31-0.54,0.48-0.85
		c2.69-4.69,7.92-13.81,13.25-23.12c1.46-2.53,2.92-5.08,4.34-7.55c0.21-0.38,0.43-0.75,0.64-1.12c0.11-0.19,0.21-0.38,0.32-0.56
		l1.53-2.67c0.1-0.17,0.2-0.34,0.29-0.51l0.47-0.82l0.43-0.75c0.26-0.45,0.52-0.9,0.78-1.35c0.12-0.22,0.24-0.43,0.36-0.64
		l1.42-2.48h0.01c0.06-0.11,0.13-0.23,0.19-0.34l1-1.74l2.04-3.57l1.2-2.09l1.34-2.33c0.01,0,0.02,0,0.02,0
		c0.01-0.02,0.02-0.05,0.03-0.07c0.02-0.05,0.05-0.1,0.08-0.15l0.07-0.14l0.02-0.03c0,0,0.18,0.07,0.51,0.19
		c0.09,0.04,0.19,0.07,0.31,0.11c0.88,0.34,2.4,0.91,4.25,1.6c1.1,0.41,2.32,0.87,3.58,1.34c0.04,0.02,0.08,0.03,0.12,0.04
		c1.08,0.41,2.19,0.83,3.3,1.25h0.01c0.08,0.03,0.16,0.06,0.24,0.09c1.73,0.65,3.42,1.29,4.92,1.85c0.13,0.05,0.26,0.1,0.39,0.15
		c0.19,0.07,0.37,0.14,0.55,0.21c0.01,0,0.02,0.01,0.03,0.01c1.53,0.57,2.78,1.05,3.54,1.34c0.32,0.12,0.55,0.21,0.69,0.26
		c0.06,0.02,0.1,0.04,0.12,0.05c0.01,0,0.01,0.01,0.01,0.01c0.49,0.19,0.95,0.39,1.4,0.58c1.68,0.73,3.04,1.39,3.94,1.95
		c0.25,0.14,0.5,0.3,0.75,0.46c0.45,0.3,3.15,2.53,6.95,5.81c4.8,4.14,11.37,9.97,17.39,15.75c4.27,4.11,8.27,8.2,11.17,11.65
		c4.38,5.22,8.41,10.48,12.02,15.69c7.75,11.13,13.67,22.01,17.4,31.65C611.36,1028.83,611.84,1040.93,605.54,1046.22z
		 M516.41,923.51C516.4,923.52,516.4,923.52,516.41,923.51l0.15,0.06l-0.13-0.05L516.41,923.51z M516.43,923.52l-0.02-0.01
		c-0.01,0.01-0.01,0.01-0.01,0.01l0.16,0.05L516.43,923.52z M516.43,923.52l-0.02-0.01c-0.01,0.01-0.01,0.01-0.01,0.01l0.16,0.05
		L516.43,923.52z M516.43,923.52l-0.02-0.01c-0.01,0.01-0.01,0.01-0.01,0.01l0.16,0.05L516.43,923.52z M516.43,923.52l-0.02-0.01
		c-0.01,0.01-0.01,0.01-0.01,0.01l0.16,0.05L516.43,923.52z M516.43,923.52l-0.02-0.01c-0.01,0.01-0.01,0.01-0.01,0.01l0.16,0.05
		L516.43,923.52z M516.43,923.52l-0.02-0.01c-0.01,0.01-0.01,0.01-0.01,0.01l0.16,0.05L516.43,923.52z"/>
	<path class="st1" d="M508.43,682.92c0.03-0.16,0.06-0.32,0.09-0.48c0.01-0.05,0.01-0.08,0.02-0.12c0-0.01,0-0.02,0.01-0.03
		c0.01-0.04,0.01-0.08,0.02-0.13c-0.12,0.39-0.27,0.77-0.37,1.17c-0.49,1.79-0.84,3.6-1.15,5.43c0.33-1.12,0.64-2.25,0.9-3.39
		C508.11,684.55,508.28,683.74,508.43,682.92z"/>
	<path class="st2" d="M449.91,876.02c-0.03-0.09-0.06-0.18-0.08-0.27c-0.01-0.03-0.01-0.05-0.02-0.07c0-0.01,0-0.01-0.01-0.02
		c-0.01-0.02-0.02-0.05-0.02-0.07c0.04,0.23,0.07,0.47,0.12,0.7c0.22,1.05,0.53,2.09,0.85,3.11c-0.13-0.67-0.27-1.33-0.44-1.99
		C450.18,876.95,450.05,876.48,449.91,876.02z"/>
</g>
<g id="Слой_7">
	<text transform="matrix(0.9229 0.0307 -0.0192 0.9998 583.0862 466.5203)" class="st3 st4 st5">БЕСИТ</text>
	<text transform="matrix(0.8377 -0.4894 0.5048 0.8632 143.5529 754.6364)" class="st3 st4 st6">БЕСИТ</text>
	<text transform="matrix(0.3036 0.853 -0.9497 0.3132 276.1326 42.8047)" class="st3 st4 st7">БЕСИТ</text>
	<text transform="matrix(0.7342 0.6582 -0.6473 0.7622 -12.9416 198.0558)" class="st3 st4 st6">БУЛЛИНГ</text>
	<text transform="matrix(0.5848 0.7875 -0.8165 0.5773 11.1344 42.7531)" class="st3 st4 st6">ДОМАШКА</text>
	<text transform="matrix(0.8976 -0.3742 0.3956 0.9184 698.0901 407.1078)" class="st3 st4 st8">ШУМ</text>
	<text transform="matrix(0.8809 0.432 -0.4191 0.9079 529.6902 528.9904)" class="st3 st4 st6">ШУМ</text>
	<text transform="matrix(0.9474 -0.3299 0.3089 0.9511 35.7679 709.1185)" class="st3 st4 st9">ШУМ</text>
	<text transform="matrix(0.7103 0.6609 -0.6822 0.7312 511.9122 575.252)" class="st3 st4 st10">ПРОБЛЕМЫ</text>
	<text transform="matrix(0.5078 -0.9732 0.8866 0.4626 525.1302 311.7283)" class="st3 st4 st11">ПРОБЛЕМЫ</text>
	<text transform="matrix(0.9636 0.162 -0.1849 0.9828 35.7892 447.6828)" class="st3 st4 st6">ЗЛОСТЬ</text>
	<text transform="matrix(0.1175 -0.9737 0.9953 0.0967 501.6392 223.4933)" class="st3 st4 st12">ЗЛОСТЬ</text>
	<text transform="matrix(0.8948 0.4017 -0.3883 0.9215 676.4265 515.2868)" class="st3 st4 st13">ЗЛОСТЬ</text>
	<text transform="matrix(0.735 -0.6513 0.6449 0.7643 605.9823 385.8935)" class="st3 st4 st14">ЯРОСТЬ</text>
	<text transform="matrix(0.9668 -0.1183 0.1362 0.9907 8.0935 582.0461)" class="st3 st4 st6">ЯРОСТЬ</text>
	<text transform="matrix(0.7224 -0.7187 0.6883 0.7254 615.675 274.4517)" class="st3 st4 st15">АГРЕССИЯ</text>
	<text transform="matrix(0.5514 0.8042 -0.8152 0.5791 115.3525 31.1967)" class="st3 st4 st16">АГРЕССИЯ</text>
	<g>
		<path class="st17" d="M93.43,349.82"/>
	</g>
	<g>
		<path class="st18" d="M767.16,147.89"/>
	</g>
	<text transform="matrix(0.9338 0.3427 -0.3446 0.9388 0.0306 336.9673)" class="st3 st4 st19">#!*@</text>
	<text transform="matrix(0.8123 0.5832 -0.5832 0.8123 676.3824 631.047)" class="st3 st4 st6">#*!</text>
	<path class="st3" d="M31.49,895.45v118c5.22,0,9.37-1.28,12.47-3.83c3.09-2.55,5.46-6.54,7.1-11.95c1.64-5.41,2.65-12.34,3.04-20.8
		c0.38-8.45,0.58-18.58,0.58-30.38v-51.04h17.39v57.23c0,9.44-0.25,18.39-0.73,26.84c-0.48,8.46-1.69,16.13-3.62,23.01
		c-1.55,5.51-3.58,10.13-6.09,13.87c3.28,1.77,5.84,4.28,7.68,7.52c1.83,3.25,2.75,6.84,2.75,10.77v67.26H54.68v-64.9
		c0-1.57-0.58-2.95-1.74-4.13c-1.16-1.18-2.51-1.77-4.06-1.77H31.49v70.8H14.09v-206.5H31.49z"/>
	<path class="st3" d="M110.34,895.45h16.24c5.8,0,10.73,2.07,14.79,6.2c4.06,4.13,6.09,9.14,6.09,15.04v164.02
		c0,5.9-2.03,10.92-6.09,15.04c-4.06,4.13-8.99,6.2-14.79,6.2h-16.24c-5.8,0-10.73-2.07-14.79-6.2s-6.09-9.14-6.09-15.04V916.69
		c0-5.9,2.03-10.92,6.09-15.04S104.54,895.45,110.34,895.45z M112.66,1084.25h11.6c1.54,0,2.9-0.59,4.06-1.77
		c1.16-1.18,1.74-2.55,1.74-4.13v-159.3c0-1.57-0.58-2.95-1.74-4.13c-1.16-1.18-2.51-1.77-4.06-1.77h-11.6
		c-1.55,0-2.9,0.59-4.06,1.77c-1.16,1.18-1.74,2.56-1.74,4.13v159.3c0,1.58,0.58,2.95,1.74,4.13
		C109.76,1083.66,111.11,1084.25,112.66,1084.25z"/>
	<path class="st3" d="M164.84,895.45h17.39v118h23.19v-118h17.39v118v88.5h-17.39v-70.8h-23.19v70.8h-17.39V895.45z"/>
	<path class="st3" d="M361.98,937.45v9.03c0,3.56-0.02,6.97-0.06,10.22c5.92,1.83,11.71,3.6,17.33,5.29
		c0.08-4.49,0.12-9.07,0.12-13.74v-5.09L361.98,937.45z M378.35,909.91c-0.97-3.07-2.66-5.82-5.06-8.27
		c-4.06-4.13-8.99-6.19-14.79-6.19h-37.11v55.98c5.67,3.91,11.77,8.15,17.4,12.14v-50.42h17.39c1.55,0,2.9,0.59,4.06,1.77
		c0.23,0.24,0.45,0.48,0.62,0.74c0.75,1,1.12,2.13,1.12,3.39v27.43c0,3.56-0.02,6.97-0.06,10.22c0,0.65-0.01,1.3-0.02,1.93
		c-0.07,5.71-0.21,10.93-0.4,15.67c-0.03,0.87-0.06,1.73-0.1,2.57c-0.07,1.52-0.16,2.98-0.27,4.4c-0.08,1-0.17,1.97-0.26,2.92
		c-0.54,5.23-1.38,9.72-2.51,13.47c-1.65,5.41-4.02,9.4-7.11,11.95c-3.09,2.56-7.24,3.84-12.46,3.84v-31.69l-10.08,3.31
		c-0.55,0.18-1.1,0.35-1.66,0.49c-1.77,2.92-3.66,5.86-5.66,8.81v107.58h17.4v-70.8c18.36,0,30.44-9.54,36.24-28.62
		c1.4-4.8,2.42-10.06,3.06-15.78c0.34-2.93,0.57-5.98,0.7-9.15c0.12-2.98,0.23-6,0.31-9.07c0.04-1.52,0.08-3.05,0.11-4.6
		c0.02-0.64,0.03-1.29,0.04-1.94c0.08-4.49,0.12-9.07,0.12-13.74v-31.56C379.37,914.28,379.03,912.02,378.35,909.91z"/>
	<path class="st20" d="M355.93,976.13l-17.14,5.63l-10.08,3.31c-0.55,0.18-1.1,0.35-1.66,0.49c-1.77,2.92-3.66,5.86-5.66,8.81
		c-2.37,3.52-4.91,7.05-7.59,10.57c-27.94,36.65-61.39,58.12-74.72,47.96c-13.32-10.16-1.47-48.1,26.47-84.75
		c9.43-12.37,19.49-23.01,29.19-31.29c3.56,1.22,7.11,2.42,10.65,3.6c3.98,2.71,9.72,6.63,16,10.97c5.67,3.91,11.77,8.15,17.4,12.14
		C345.81,968.54,352.1,973.11,355.93,976.13z"/>
	<path class="st3" d="M417.64,895.45h16.24c5.8,0,10.73,2.07,14.79,6.2c4.06,4.13,6.09,9.14,6.09,15.04v164.02
		c0,5.9-2.03,10.92-6.09,15.04c-4.06,4.13-8.99,6.2-14.79,6.2h-16.24c-5.8,0-10.73-2.07-14.79-6.2s-6.09-9.14-6.09-15.04V916.69
		c0-5.9,2.03-10.92,6.09-15.04S411.84,895.45,417.64,895.45z M419.96,1084.25h11.6c1.54,0,2.9-0.59,4.06-1.77
		c1.16-1.18,1.74-2.55,1.74-4.13v-159.3c0-1.57-0.58-2.95-1.74-4.13c-1.16-1.18-2.51-1.77-4.06-1.77h-11.6
		c-1.55,0-2.9,0.59-4.06,1.77c-1.16,1.18-1.74,2.56-1.74,4.13v159.3c0,1.58,0.58,2.95,1.74,4.13
		C417.06,1083.66,418.41,1084.25,419.96,1084.25z"/>
	<path class="st3" d="M588.1,1047.42v54.53h17.4v-55.7C601.56,1049.53,595.48,1049.75,588.1,1047.42z M588.1,895.45v86.59
		c7.75,11.13,13.67,22.01,17.4,31.65V895.45H588.1z M547.52,1101.95h17.39v-55.17l7.07-7.2c-7.75-4.87-16.1-11.49-24.46-19.51
		V1101.95z M564.91,895.45h-17.39v43.5c4.8,4.14,11.37,9.97,17.39,15.75V895.45z"/>
	<path class="st3" d="M715.66,895.45v51.04c0,11.8,0.19,21.93,0.58,30.38c0.38,8.46,1.4,15.39,3.04,20.8
		c1.64,5.41,4.01,9.39,7.1,11.95c3.09,2.56,7.25,3.83,12.47,3.83v-118h17.39v185.26c0,5.9-2.03,10.92-6.09,15.04
		c-4.06,4.13-8.99,6.2-14.79,6.2h-16.24c-5.8,0-10.73-2.07-14.79-6.2s-6.09-9.14-6.09-15.04v-8.26h17.39v5.9
		c0,1.58,0.58,2.95,1.74,4.13c1.16,1.18,2.51,1.77,4.06,1.77h11.6c1.54,0,2.9-0.59,4.06-1.77c1.16-1.18,1.74-2.55,1.74-4.13v-47.2
		c-18.55,0-30.64-9.54-36.24-28.62c-2.13-6.88-3.38-14.7-3.77-23.45c-0.39-8.75-0.58-18.04-0.58-27.88v-55.75H715.66z"/>
	<path class="st3" d="M773.64,895.45h17.39v126.26l23.19-23.6V895.45h17.39v206.5h-17.39v-78.76l-23.19,23.6v55.17h-17.39V895.45z
		 M799.15,863l3.48,5.02l3.48-5.02h17.39l-12.18,17.7h-17.39L781.76,863H799.15z"/>
</g>
<g id="Слой_8">
</g>
<g id="Слой_6" class="st21">
	<path class="st22" d="M334.57,612.16c-0.1,0-0.19,0.01-0.29,0.01c-0.03,0-0.05,0-0.07,0c-0.01,0-0.01,0-0.02,0
		c-0.02,0-0.05,0-0.07,0c0.24,0.02,0.47,0.06,0.71,0.08c1.07,0.07,2.15,0.06,3.23,0.02c-0.68-0.06-1.36-0.1-2.04-0.11
		C335.53,612.15,335.05,612.15,334.57,612.16z"/>
	<path class="st23" d="M381.26,564.46c-0.08-0.07-0.17-0.15-0.25-0.22c-0.03-0.03-0.04-0.04-0.06-0.05
		c-0.01-0.01-0.01-0.01-0.02-0.01c-0.02-0.02-0.05-0.04-0.07-0.06c0.19,0.21,0.36,0.43,0.56,0.63c0.88,0.92,1.82,1.77,2.79,2.6
		c-0.54-0.59-1.1-1.17-1.68-1.73C382.11,565.23,381.68,564.84,381.26,564.46z"/>
	<path class="st24" d="M309.38,528.98c-0.04,0.01-0.09,0.01-0.13,0.02c-0.01,0-0.02,0-0.03,0c0,0,0,0-0.01,0
		c-0.01,0-0.02,0-0.03,0.01c0.11,0,0.22,0.01,0.33,0c0.5-0.02,1-0.08,1.5-0.14c-0.32,0-0.64,0.02-0.95,0.04
		C309.83,528.93,309.61,528.95,309.38,528.98z"/>
	<path class="st22" d="M-561.48,603.9c-0.1,0-0.19,0.01-0.29,0.01c-0.03,0-0.05,0-0.07,0c-0.01,0-0.01,0-0.02,0
		c-0.02,0-0.05,0-0.07,0c0.24,0.02,0.47,0.06,0.71,0.08c1.07,0.07,2.15,0.06,3.23,0.02c-0.68-0.06-1.36-0.1-2.04-0.11
		C-560.51,603.89-560.99,603.89-561.48,603.9z"/>
	<path class="st23" d="M-514.79,556.21c-0.08-0.07-0.17-0.15-0.25-0.22c-0.03-0.03-0.04-0.04-0.06-0.05
		c-0.01-0.01-0.01-0.01-0.02-0.01c-0.02-0.02-0.05-0.04-0.07-0.06c0.19,0.21,0.36,0.43,0.56,0.63c0.88,0.92,1.83,1.77,2.79,2.6
		c-0.54-0.59-1.1-1.17-1.68-1.73C-513.94,556.97-514.36,556.59-514.79,556.21z"/>
	<path class="st24" d="M-586.66,520.72c-0.04,0.01-0.09,0.01-0.13,0.02c-0.01,0-0.02,0-0.03,0c0,0,0,0-0.01,0
		c-0.01,0-0.02,0-0.03,0.01c0.11,0,0.22,0.01,0.33,0c0.5-0.02,1-0.08,1.5-0.14c-0.32,0-0.64,0.02-0.95,0.04
		C-586.21,520.67-586.44,520.69-586.66,520.72z"/>
</g>
<g id="Слой_4">
</g>
<g id="Слой_3">
	<g class="st21">
	</g>
	<text transform="matrix(1 0 0 1 239.8489 1102.2018)" class="st3 st25 st26">т</text>
	<circle class="st27" cx="483.64" cy="474.5" r="21.42"/>
	<path class="st28" d="M510.35,924.37l-1.2,2.09c-1.54,0.13-2.45,0.11-2.08-0.2C508.04,925.45,509.13,924.82,510.35,924.37z"/>
	<path class="st28" d="M516.56,923.57l-0.16-0.05c0,0,0,0,0.01-0.01l0.02,0.01L516.56,923.57z"/>
	<path class="st28" d="M522.76,924.53c0,0-0.87,0.15-2.2,0.36c-1.26-0.47-2.48-0.93-3.58-1.34
		C518.78,923.65,520.72,923.98,522.76,924.53z"/>
	<path class="st29" d="M540.57,932.8c-0.25-0.16-0.5-0.32-0.75-0.46c-0.03-0.04-0.06-0.09-0.1-0.13
		C540,932.4,540.28,932.6,540.57,932.8z"/>
	<g id="XMLID_4_">
		<g>
			<radialGradient id="SVGID_2_" cx="311.5308" cy="750.4057" r="106.0976" gradientUnits="userSpaceOnUse">
				<stop  offset="0.4608" style="stop-color:#F6EB63"/>
				<stop  offset="0.4712" style="stop-color:#F4E775"/>
				<stop  offset="0.5011" style="stop-color:#F0DB9A"/>
				<stop  offset="0.5325" style="stop-color:#EDD1B2"/>
				<stop  offset="0.565" style="stop-color:#EAC7C1"/>
				<stop  offset="0.599" style="stop-color:#E9BFCB"/>
				<stop  offset="0.6351" style="stop-color:#E7B9D1"/>
				<stop  offset="0.6747" style="stop-color:#E7B6D4"/>
				<stop  offset="0.7248" style="stop-color:#E7B5D4"/>
			</radialGradient>
			<path class="st30" d="M484.85,763.46c0.95,14.39,1.36,28.76,1.29,43.12c-0.06,3.59-0.05,7.18-0.16,10.77
				c-0.11,3.58-0.12,7.17-0.41,10.75c-0.55,7.16-1.9,14.29-4.17,21.39c-2.31,7.09-5.47,14.16-9.91,21.17
				c-2.23,3.51-4.72,7.01-7.7,10.49c-0.69,0.87-1.53,1.74-2.3,2.61c-0.76,0.87-1.62,1.74-2.48,2.6c-1.72,1.73-3.56,3.46-5.75,5.18
				c-21.15,16.52-50.7,14.88-69.91-2.56c-2.06-1.87-3.77-3.73-5.35-5.58c-0.8-0.93-1.59-1.86-2.29-2.78
				c-0.7-0.92-1.48-1.85-2.1-2.77c-2.72-3.69-4.95-7.36-6.92-11.02c-3.91-7.32-6.55-14.6-8.33-21.85
				c-1.75-7.24-2.57-14.45-2.6-21.63c-0.02-3.59,0.23-7.17,0.39-10.76c0.14-3.58,0.42-7.16,0.62-10.74
				c0.98-14.33,2.43-28.63,4.43-42.92c1.99-14.29,4.52-28.55,7.4-42.81c0.71-3.56,1.46-7.12,2.23-10.69
				c0.77-3.56,1.5-7.12,2.3-10.68l4.76-21.37c3.14-14.24,6.35-28.48,9.13-42.74c2.87-14.26,5.36-28.52,7.52-42.8
				c2.19-14.28,4-28.58,4.84-42.91c1.02-17.39,15.94-30.67,33.34-29.65c16.91,0.99,29.92,15.19,29.7,31.96
				c-0.21,14.35,0.56,28.74,1.69,43.14c1.11,14.4,2.55,28.81,4.37,43.24c1.73,14.42,3.89,28.86,5.99,43.3l3.18,21.65
				c0.54,3.61,1.01,7.22,1.51,10.83c0.51,3.61,0.99,7.21,1.45,10.82C482.44,734.65,483.92,749.06,484.85,763.46z"/>
		</g>
		<g>
		</g>
	</g>
	<g>
		<path class="st31" d="M415.06,851.7"/>
	</g>
	<g>
		<path class="st31" d="M429.85,560"/>
	</g>
	<linearGradient id="SVGID_3_" gradientUnits="userSpaceOnUse" x1="363.2746" y1="476.4971" x2="406.1146" y2="476.4971">
		<stop  offset="0.0122" style="stop-color:#FBED60"/>
		<stop  offset="0.0356" style="stop-color:#F5EB68"/>
		<stop  offset="0.2438" style="stop-color:#B5D69D"/>
		<stop  offset="0.4404" style="stop-color:#6CC2BC"/>
		<stop  offset="0.6197" style="stop-color:#00B2D0"/>
		<stop  offset="0.7784" style="stop-color:#00A7DB"/>
		<stop  offset="0.9106" style="stop-color:#00A1E2"/>
		<stop  offset="1" style="stop-color:#009FE3"/>
	</linearGradient>
	<circle class="st32" cx="384.69" cy="476.5" r="21.42"/>
	<path class="st33" d="M471.16,491.84c13.78-12.04,18.63-31.12,18.63-31.12s1.8,3.57,10.05-0.27c-0.24-0.12-1.08-1.58-3.52-3.23
		c-4.16,1.83-7.08-0.38-8.28-1.25c-4.57,12.22-17.86,29.77-20.82,32.28C468.22,489.39,469.6,490.83,471.16,491.84z"/>
	<path class="st29" d="M439.93,497.91l3.43,29.96c0.85,7.46-4.5,14.19-11.96,15.04c-7.46,0.85-14.19-4.5-15.04-11.96
		c-0.12-1.02-0.11-2.1,0-3.09l3.43-29.96c0.64-5.56,5.66-9.56,11.23-8.92C435.78,489.54,439.4,493.33,439.93,497.91z"/>
	<path class="st34" d="M380.56,446.98c1.1,5.01-0.65,9.36-3.43,11.93c-3.16-7.25-5.99-15.12-8.59-23.41
		c0.17-0.01,0.35-0.01,0.53-0.01C375.41,435.49,379.2,440.78,380.56,446.98z"/>
	<path class="st34" d="M495.83,432.09c-1.78,7.11-4.27,15.44-7.79,23.89c-3.09-2.48-5.14-7.07-3.97-12.4
		c1.36-6.2,5.14-11.49,11.49-11.49H495.83z"/>
	<g id="XMLID_3_">
		<g>
			<linearGradient id="SVGID_4_" gradientUnits="userSpaceOnUse" x1="357.5846" y1="448.4164" x2="380.8975" y2="448.4164">
				<stop  offset="0.0624" style="stop-color:#FBED60"/>
				<stop  offset="0.1114" style="stop-color:#F8E67C"/>
				<stop  offset="0.1752" style="stop-color:#F5DF93"/>
				<stop  offset="0.2484" style="stop-color:#F3D9A3"/>
				<stop  offset="0.3339" style="stop-color:#F1D4AD"/>
				<stop  offset="0.4397" style="stop-color:#EFD0B4"/>
				<stop  offset="0.5881" style="stop-color:#EECEB8"/>
				<stop  offset="1" style="stop-color:#EECEB9"/>
			</linearGradient>
			<path class="st35" d="M380.56,446.98c1.1,5.01-0.65,9.36-3.43,11.93c-2.32,2.14-5.36,3.04-8.06,2.02
				c-7.51-2.8-11.49-7.61-11.49-13.95c0-6.17,4.86-11.2,10.96-11.48c0.17-0.01,0.35-0.01,0.53-0.01
				C375.41,435.49,379.2,440.78,380.56,446.98z"/>
		</g>
		<g>
		</g>
	</g>
	<linearGradient id="SVGID_5_" gradientUnits="userSpaceOnUse" x1="362.2568" y1="421.4625" x2="507.0546" y2="421.4625">
		<stop  offset="0.0624" style="stop-color:#FBED60"/>
		<stop  offset="0.0934" style="stop-color:#F8E67E"/>
		<stop  offset="0.1406" style="stop-color:#F3DB9C"/>
		<stop  offset="0.1938" style="stop-color:#F0D2B0"/>
		<stop  offset="0.2526" style="stop-color:#EDCABF"/>
		<stop  offset="0.3189" style="stop-color:#EAC2C8"/>
		<stop  offset="0.3965" style="stop-color:#E9BCCE"/>
		<stop  offset="0.4923" style="stop-color:#E7B8D2"/>
		<stop  offset="0.6268" style="stop-color:#E7B5D4"/>
		<stop  offset="1" style="stop-color:#E7B5D4"/>
	</linearGradient>
	<path class="st36" d="M507.05,443.58c0,6.34-3.98,11.14-11.49,13.95c-2.5,0.94-5.28,0.25-7.52-1.55
		c-3.49,8.43-8.01,16.96-13.82,24.49c-11.48,14.87-29.58,25.56-44.37,25.45c-0.48-0.01-0.95-0.02-1.42-0.05
		c-9.05-0.52-24.24-7.13-35.4-20.21c-6.17-7.24-11.37-16.35-15.9-26.75c-1.02-2.27-8.42-23.42-8.59-23.41
		c-1.43-4.57-2.8-9.27-4.11-14.06c-12.31-44.97,29.95-84.43,66.89-84.43c36.95,0,76,38.47,66.89,84.43
		c-0.6,3.02-1.37,6.64-2.38,10.65C502.05,432.24,507.05,437.32,507.05,443.58z"/>
	<path class="st37" d="M454.04,342.06c0,0-0.01,0.01-0.03,0.02c0,0.03,0,0.04,0,0.04h-0.07c-0.03,0-0.05,0.01-0.08,0.01
		c0.05-0.02,0.1-0.04,0.15-0.06C454.02,342.07,454.03,342.06,454.04,342.06z"/>
	<path id="Л_1_" class="st3" d="M516.43,923.52l-0.02-0.01c-0.01,0.01-0.01,0.01-0.01,0.01l0.16,0.05L516.43,923.52z
		 M477.94,895.45v182.9c0,1.57-0.58,2.95-1.74,4.13c-1.16,1.18-2.51,1.77-4.06,1.77h-5.8v17.7h8.12c5.8,0,10.73-2.07,14.79-6.2
		s6.08-9.14,6.08-15.04V978.59c-5.81-1.74-11.12-3.29-13.73-4.06c0.15-0.26,0.31-0.54,0.48-0.85c2.69-4.69,7.92-13.81,13.25-23.12
		v-37.41h17.4v8.8c0.88,0.34,2.4,0.91,4.25,1.6c1.1,0.41,2.32,0.87,3.58,1.34c0.04,0.02,0.08,0.03,0.12,0.04
		c1.08,0.41,2.19,0.83,3.3,1.25h0.01c0.08,0.03,0.16,0.06,0.24,0.09c1.73,0.65,3.42,1.29,4.92,1.85c0.13,0.05,0.26,0.1,0.39,0.15
		c0.19,0.07,0.37,0.14,0.55,0.21c0.01,0,0.02,0.01,0.03,0.01v-33.04H477.94z M518.8,986.13c-0.62-0.35-2.9-1.15-6.07-2.17v117.99
		h17.39v-100.72C527.61,998.06,527.7,997.49,518.8,986.13z"/>
	<path class="st37" d="M454,342.03c-0.23-0.16-1.5-1.1-2.85-2.55c0.78,0.48,1.51,0.98,2.2,1.51
		C453.86,341.37,453.98,341.84,454,342.03z"/>
	<path class="st37" d="M454.01,342.07v0.01c0,0.03,0,0.04,0,0.04h-0.07c-0.03,0-0.05,0.01-0.08,0.01
		C453.91,342.11,453.96,342.09,454.01,342.07z"/>
	<path class="st37" d="M455.59,342.06L455.59,342.06z"/>
	<path class="st38" d="M365.2,437.21c0,0,0.04,3.4-0.47,3.91c-0.51,0.51,32.6-14.55,38.38-41.19c9.48-7.31,28.39-14.35,35.11-17.97
		c4.98-2.68,10.69-8.04,13.28-17.2c0,0,4.95,13.38,19.87,23.16c20.87,17.68,23.62,44.63,23.62,44.63l0.66-0.8
		c0,0-2.59-40.51-24.49-47.84c-9.72-12.56-16.74-34.02-17.63-36.96c-0.88-2.94-60.12,52.85-67.01,62.17S365.2,437.21,365.2,437.21z"
		/>
	<g>
		<path class="st27" d="M406.23,407.57c0.06,0.02,0.01-0.01-0.01-0.03c-0.02-0.02-0.06-0.05-0.1-0.07c-0.07-0.05-0.15-0.1-0.24-0.15
			c-0.17-0.1-0.37-0.18-0.56-0.27c-0.4-0.15-0.83-0.3-1.28-0.37c-0.89-0.17-1.85-0.16-2.83,0.02c-0.97,0.2-1.96,0.57-2.91,1.07
			c-0.48,0.25-0.93,0.57-1.4,0.85l-1.34,1.03l-0.06,0.05c-0.34,0.26-0.83,0.2-1.09-0.14c-0.22-0.29-0.21-0.68,0-0.95l1.13-1.46
			c0.43-0.45,0.84-0.93,1.31-1.36c0.94-0.86,2.01-1.64,3.23-2.25c1.23-0.58,2.6-0.99,4.05-1.11c0.72-0.07,1.46-0.04,2.2,0.03
			c0.37,0.05,0.74,0.1,1.12,0.2c0.19,0.04,0.38,0.09,0.58,0.15c0.1,0.03,0.19,0.06,0.31,0.1c0.11,0.04,0.2,0.07,0.38,0.16
			c1.24,0.69,1.69,2.26,1,3.5C409.04,407.82,407.47,408.26,406.23,407.57z"/>
	</g>
	<path class="st37" d="M454.04,342.06c0,0-0.01,0.01-0.03,0.02c-0.02,0.01-0.04,0.02-0.07,0.04c-0.03,0-0.05,0.01-0.08,0.01
		c0.05-0.02,0.1-0.04,0.15-0.06l-0.01-0.01C454.03,342.06,454.04,342.06,454.04,342.06z"/>
	<linearGradient id="SVGID_6_" gradientUnits="userSpaceOnUse" x1="358.1773" y1="381.571" x2="503.7755" y2="381.571">
		<stop  offset="0.055" style="stop-color:#FBED60"/>
		<stop  offset="0.1656" style="stop-color:#CBDD8F"/>
		<stop  offset="0.2777" style="stop-color:#97CDAD"/>
		<stop  offset="0.3928" style="stop-color:#5ABFC1"/>
		<stop  offset="0.5089" style="stop-color:#00B3D0"/>
		<stop  offset="0.6266" style="stop-color:#00A9D9"/>
		<stop  offset="0.7461" style="stop-color:#00A4DF"/>
		<stop  offset="0.869" style="stop-color:#00A0E2"/>
		<stop  offset="1" style="stop-color:#009FE3"/>
	</linearGradient>
	<path class="st39" d="M495.56,431.79c0,0-3.04-31.92-23.3-46.97c-16.96-12.6-19.12-28.44-18.88-36.86
		c-1.44,9.13-6.28,26-22.54,32.73c-15.57,6.45-24.79,12.07-29.65,16.69c-1.08,2.1-2.08,4.24-2.97,6.42
		c-8,19.48-32.66,35.63-32.54,33.85c0.68-10.29-9.14-27.38-7.27-43.06c1.74-14.56,8.5-25.13,17.68-32.79
		c1.03-2.58,2.34-5.27,3.99-8.06c13.47-22.77,53.1-25.35,71.07-14.26c1.35,1.45,2.62,2.39,2.85,2.55v0.03l0.01,0.01
		c-0.05,0.02-0.1,0.04-0.15,0.06c0.03,0,0.05-0.01,0.08-0.01h0.07c0,0,0-0.01,0-0.04c0.02-0.01,0.03-0.02,0.03-0.02
		s-0.01-0.01-0.04-0.03c-0.02-0.19-0.14-0.66-0.65-1.04c-0.69-0.53-1.42-1.03-2.2-1.51c-1.38-1.47-2.86-3.48-3.43-5.77
		c-1.2-4.77,0-6.18,0-6.18s5.2,6.36,6.29,14.32c-0.22-1.67-1.28-12.56,7.36-16.02c9.23-3.69-6.89,15.7-7.32,16.22
		c0.41-0.38,10.25-9.25,20.25,0.01c10.22,9.47,20.64,12.55,27.24,38.41C508.94,409.49,495.56,431.79,495.56,431.79z"/>
	<path class="st40" d="M454,342.03c-0.23-0.16-1.5-1.1-2.85-2.55c0.78,0.48,1.51,0.98,2.2,1.51
		C453.86,341.37,453.98,341.84,454,342.03z"/>
	<path class="st41" d="M453.37,439.71c0,0,13.2,1.66,16-6"/>
	<path class="st41" d="M409.23,439.71c0,0-13.2,1.66-16-6"/>
	<path class="st42" d="M418.31,479.87c0,0,11.91,8.68,24.34,0"/>
	<g>
		<path class="st27" d="M455.67,403.48c0.18-0.09,0.27-0.12,0.38-0.16c0.11-0.04,0.2-0.07,0.3-0.1c0.2-0.07,0.39-0.12,0.57-0.16
			c0.38-0.1,0.74-0.15,1.11-0.21c0.74-0.08,1.47-0.13,2.19-0.06c1.44,0.1,2.82,0.48,4.07,1.05c1.24,0.58,2.33,1.35,3.29,2.2
			c0.48,0.42,0.9,0.9,1.35,1.34l1.17,1.45c0.34,0.42,0.27,1.03-0.15,1.36c-0.36,0.29-0.87,0.28-1.21,0l-0.08-0.06l-1.3-1.04
			c-0.46-0.29-0.9-0.62-1.37-0.87c-0.93-0.51-1.9-0.9-2.86-1.12c-0.96-0.19-1.92-0.23-2.81-0.08c-0.45,0.06-0.88,0.2-1.28,0.34
			c-0.2,0.08-0.4,0.16-0.57,0.26c-0.09,0.05-0.18,0.09-0.25,0.14c-0.04,0.02-0.08,0.05-0.1,0.07c-0.02,0.02-0.07,0.05-0.02,0.03
			c-1.21,0.67-2.73,0.23-3.4-0.97C454.02,405.67,454.46,404.15,455.67,403.48z"/>
	</g>
	<path class="st43" d="M421.45,457.39c0,1.5-0.21,4.22,0.62,5.24c1.57,1.95,4.68,1.55,4.68,1.55s1.82,3.04,3.56,3.04
		c1.6,0,3.93-2.81,3.93-2.81s3.03,0.87,4.75-1.03c0.98-1.09,1.02-4.35,1.02-6c0-6.58-3.47-22.92-8.6-22.92
		S421.45,450.81,421.45,457.39z"/>
	<path class="st44" d="M501.24,440.64"/>
	<path class="st28" d="M346.52,929.91l-17.67-5.8l-5.37-1.76c5.83-2.13,10.94-2.67,14.95-1.38c1.29,0.41,2.47,1.02,3.53,1.82
		C344.15,924.46,345.66,926.87,346.52,929.91z"/>
	<path class="st44" d="M495.4,444.3"/>
	<path class="st20" d="M424.75,953.54l-3.65,1.2l-3.24,1.06l-3.7,1.22l-17.39,5.71l-7.2,2.36l-3.11,1.02l-7.36,2.42l-17.6,5.77
		l-4.11,1.35l-0.65,0.22l-0.81,0.26c-3.83-3.02-10.12-7.59-17.14-12.56c-5.63-3.99-11.73-8.23-17.4-12.14
		c-6.28-4.34-12.02-8.26-16-10.97c-3.54-1.18-7.09-2.38-10.65-3.6c8.41-7.18,16.55-12.58,23.78-15.8c0.98-0.43,1.93-0.82,2.87-1.17
		c0.13-0.06,0.26-0.1,0.39-0.15h0.01l4.87,1.59l0.5,0.17l7.95,2.61l3.68,1.21l6.04,1.98h0.01l0.82,0.27l16.32,5.36l17.39,5.71
		l17.4,5.71l17.39,5.71L424.75,953.54z"/>
	<path class="st45" d="M495.77,450.95c1.21,0.22,8.51-6.06,4.94-11.59c-3.32-5.14-6.77,2.67-7.39,4.19c-0.06,0.16-0.1,0.25-0.1,0.25
		"/>
	<path class="st45" d="M368.17,455.07c-1.21,0.22-8.51-6.06-4.94-11.59c3.32-5.14,6.77,2.67,7.39,4.19c0.06,0.16,0.1,0.25,0.1,0.25"
		/>
	<path class="st46" d="M456.61,710.51"/>
	<path class="st47" d="M707.85,830.53"/>
	<path class="st48" d="M785.59,820.68L785.59,820.68z"/>
	<g class="st49">
		<path class="st50" d="M516.56,923.57l-0.16-0.05c0,0,0,0,0.01-0.01l0.02,0.01L516.56,923.57z"/>
		<path class="st50" d="M712.42,864.32l-106.92,35.1l-17.4,5.71l-0.08,0.03l-23.01,7.55l-0.1,0.03l-17.39,5.71l-17.4,5.71
			l-0.03,0.01l-3.45,1.14l-2.43,0.79l-0.22,0.08h-0.01c-1.11-0.42-2.22-0.84-3.3-1.25c-0.04-0.01-0.08-0.02-0.12-0.04
			c-1.26-0.47-2.48-0.93-3.58-1.34c-1.85-0.69-3.37-1.26-4.25-1.6c-0.12-0.04-0.22-0.07-0.31-0.11c-0.33-0.12-0.51-0.19-0.51-0.19
			l-0.02,0.03l-0.07,0.14c-0.03,0.05-0.06,0.1-0.08,0.15c-0.01,0.02-0.02,0.05-0.03,0.07c0,0-0.01,0-0.02,0l-1.34,2.33l-1.2,2.09
			l-2.04,3.57l-1,1.74c-0.06,0.11-0.13,0.23-0.19,0.34h-0.01l-10.58,3.48l-0.83,0.27l-0.08,0.03l-0.21,0.06l-0.05,0.02l-16.22,5.33
			l-20.13,6.6l-3.06,1.01l-17.4,5.71l-11.54,3.79l-7.95-2.61l-3.7-1.22l-17.39-5.71l-17.4-5.71l-17.39-5.71l-16.08-5.28h-0.01
			l-7.1-2.33l-10.57-3.47l3.24-1.06l0.52-0.17l3.13-1.03l2.69-0.88l0.99-0.33l2.24-0.73l19.83-6.51l17.49-5.75l24.18-7.94h0.01
			l19.86-6.52l3.41-1.12l3.24-1.06l8.35-2.74l1.27-0.42c3.75-1.54,7.2-3.22,10.38-5.02c1.05-0.58,2.06-1.18,3.05-1.79
			c7.77-4.8,13.79-10.26,18.43-15.75c14.4-17.05,15.67-34.54,15.67-34.54l203.12-26.64l10.14-1.33c6.17-0.81,12.16,0.36,17.35,3.06
			c1.75,0.91,3.41,1.99,4.95,3.23c5.24,4.2,9.12,10.21,10.68,17.31C735.8,844.03,727.13,859.5,712.42,864.32z"/>
	</g>
	<g>
		<path class="st29" d="M516.56,923.57l-0.16-0.05c0,0,0,0,0.01-0.01l0.02,0.01L516.56,923.57z"/>
		<path class="st29" d="M532.54,927.45l-2.42,0.66l-0.03,0.01l-0.45,0.12l-0.1,0.03c-0.13-0.05-0.26-0.1-0.39-0.15
			c-1.5-0.56-3.19-1.2-4.92-1.85c-0.08-0.03-0.16-0.06-0.24-0.09h-0.01c-1.11-0.42-2.22-0.84-3.3-1.25
			c-0.04-0.01-0.08-0.02-0.12-0.04c-1.26-0.47-2.48-0.93-3.58-1.34c-1.85-0.69-3.37-1.26-4.25-1.6c-0.12-0.04-0.22-0.07-0.31-0.11
			c-0.33-0.12-0.51-0.19-0.51-0.19l-0.02,0.03l-0.07,0.14c-0.03,0.05-0.06,0.1-0.08,0.15c-0.01,0.02-0.02,0.05-0.03,0.07
			c0,0-0.01,0-0.02,0l-1.34,2.33l-1.2,2.09l-2.04,3.57l-1,1.74c-0.06,0.11-0.13,0.23-0.19,0.34h-0.01l-1.42,2.48
			c-0.12,0.21-0.24,0.42-0.36,0.64h-0.01l-8.79,2.4l-1.62,0.45l-0.09,0.02l-0.19,0.06l-0.06,0.01l-15.43,4.22l-20.13,5.51
			l-3.06,0.84l-17.4,4.76l-10.91,2.99l-5.34-1.75l-6.94-2.28l-17.39-5.71l-17.4-5.72l-17.39-5.71l-15.45-5.07h-0.01l-7.73-2.54
			l-7.33-2.4l-2.61-0.86l-5.37-1.76h-0.01l-2.08-0.68l-2.87-0.95l-24.37-8.03h-0.09l-54.48-17.88h-0.09l-109.34-35.93
			c-14.71-4.82-23.38-20.29-20.02-35.68c0.95-4.34,2.77-8.26,5.23-11.62c0.07-0.1,0.15-0.2,0.23-0.3c0.7-0.94,1.45-1.82,2.25-2.66
			c0.01-0.01,0.02-0.02,0.04-0.03c6.35-6.68,15.59-10.26,25.23-8.99l1.55,0.2l9.19,1.21l0.06,0.01l201.97,26.56
			c0,0,1.62,18.9,17.84,36.55c3.93,4.28,8.72,8.49,14.56,12.33c4.54,3.01,9.72,5.79,15.62,8.21l22.54,7.4l2.61,0.86l6.95,2.28h0.01
			l8.55,2.81h0.01l33.37,10.96l17.39,5.71l5.87,1.92l11.24,3.69l0.03,0.01l0.26,0.09l11.3,3.71l2.61,0.86l3.45,1.13l0.03,0.01
			l0.97,0.32L532.54,927.45z"/>
		<path class="st20" d="M511.69,922.04l-1.34,2.33l-1.2,2.09l-2.04,3.57l-1,1.74c-0.06,0.11-0.13,0.23-0.19,0.34h-0.01l-1.42,2.48
			c-0.12,0.21-0.24,0.42-0.36,0.64c-0.26,0.45-0.52,0.9-0.78,1.35l-0.43,0.75l-0.47,0.82c-0.09,0.17-0.19,0.34-0.29,0.51l-1.53,2.67
			c-0.11,0.18-0.21,0.37-0.32,0.56c-0.21,0.37-0.43,0.74-0.64,1.12c-1.42,2.47-2.88,5.02-4.34,7.55
			c-5.33,9.31-10.56,18.43-13.25,23.12c-0.17,0.31-0.33,0.59-0.48,0.85c-1.09-0.32-1.71-0.5-1.71-0.5l13.48-35.86l0.42-1.11
			l0.42-1.11l1.12-2.98l2.82-7.49l0.48-1.3l2.08-5.52C502.41,919.11,506.61,920.39,511.69,922.04z"/>
		<path class="st20" d="M534.35,930.09c-0.14-0.05-0.37-0.14-0.69-0.26c-0.76-0.29-2.01-0.77-3.54-1.34c-0.01,0-0.02-0.01-0.03-0.01
			c-0.18-0.07-0.36-0.14-0.55-0.21c-0.13-0.05-0.26-0.1-0.39-0.15c-1.5-0.56-3.19-1.2-4.92-1.85c1.72,0.61,3.41,1.22,5.01,1.82
			c0.14,0.05,0.27,0.1,0.4,0.15c0.15,0.06,0.3,0.11,0.45,0.17c0.01,0,0.02,0.01,0.03,0.01c1.27,0.48,2.47,0.95,3.58,1.4
			C533.92,929.91,534.14,930,534.35,930.09z"/>
		<path class="st20" d="M605.5,1013.69c-3.73-9.64-9.65-20.52-17.4-31.65c-3.61-5.21-7.64-10.47-12.02-15.69
			c-2.9-3.45-6.9-7.54-11.17-11.65c-6.02-5.78-12.59-11.61-17.39-15.75c-3.8-3.28-6.5-5.51-6.95-5.81c-0.25-0.16-0.5-0.32-0.75-0.46
			c-0.9-0.56-2.26-1.22-3.94-1.95c-0.45-0.19-0.91-0.39-1.4-0.58c0,0,0-0.01-0.01-0.01c-0.02-0.01-0.06-0.03-0.12-0.05
			c-0.14-0.05-0.37-0.14-0.69-0.26c-0.76-0.29-2.01-0.77-3.54-1.34c-0.01,0-0.02-0.01-0.03-0.01c-0.18-0.07-0.36-0.14-0.55-0.21
			c-0.13-0.05-0.26-0.1-0.39-0.15c-1.5-0.56-3.19-1.2-4.92-1.85c-0.08-0.03-0.16-0.06-0.24-0.09h-0.01
			c-1.11-0.42-2.22-0.84-3.3-1.25c-0.04-0.01-0.08-0.02-0.12-0.04c-1.26-0.47-2.48-0.93-3.58-1.34c-1.85-0.69-3.37-1.26-4.25-1.6
			c-0.12-0.04-0.22-0.07-0.31-0.11c-0.33-0.12-0.51-0.19-0.51-0.19l-0.02,0.03l-0.07,0.14c-0.03,0.05-0.06,0.1-0.08,0.15
			c-0.01,0.02-0.02,0.05-0.03,0.07c0,0-0.01,0-0.02,0l-1.34,2.33l-1.2,2.09l-2.04,3.57l-1,1.74c-0.06,0.11-0.13,0.23-0.19,0.34
			h-0.01l-1.42,2.48c-0.12,0.21-0.24,0.42-0.36,0.64c-0.26,0.45-0.52,0.9-0.78,1.35l-0.43,0.75l-0.47,0.82
			c-0.09,0.17-0.19,0.34-0.29,0.51l-1.53,2.67c-0.11,0.18-0.21,0.37-0.32,0.56c-0.21,0.37-0.43,0.74-0.64,1.12
			c-1.42,2.47-2.88,5.02-4.34,7.55c-5.33,9.31-10.56,18.43-13.25,23.12c-0.17,0.31-0.33,0.59-0.48,0.85
			c2.61,0.77,7.92,2.32,13.73,4.06c6.08,1.82,12.71,3.84,17.4,5.37c3.17,1.02,5.45,1.82,6.07,2.17c8.9,11.36,8.81,11.93,11.32,15.1
			c0.48,0.61,1.06,1.31,1.82,2.21c5.11,6.04,10.35,11.61,15.58,16.63c8.36,8.02,16.71,14.64,24.46,19.51
			c5.78,3.63,11.24,6.29,16.12,7.84c7.38,2.33,13.46,2.11,17.4-1.17c0.01-0.01,0.03-0.02,0.04-0.03
			C611.84,1040.93,611.36,1028.83,605.5,1013.69z M516.4,923.52C516.4,923.52,516.4,923.52,516.4,923.52h0.03l0.13,0.05
			L516.4,923.52z"/>
	</g>
	<path class="st48" d="M777.44,821.37L777.44,821.37z"/>
	<path class="st20" d="M511.74,921.97c-0.01,0.02-0.02,0.05-0.03,0.07c0,0-0.01,0-0.02,0l-1.34,2.33l-1.2,2.09l-2.04,3.57l-1,1.74
		c-0.06,0.11-0.13,0.23-0.19,0.34h-0.01l-1.42,2.48c-0.12,0.21-0.24,0.42-0.36,0.64c-0.26,0.45-0.52,0.9-0.78,1.35l-0.43,0.75
		l-0.47,0.82h-0.01l-7.11,2.68l-2.99,1.12l0.3-0.84l1.07-3.03l0.79-2.22l0.83-2.35l3.3-9.33l1.95-5.49l0.13-0.37l11.01,3.65H511.74z
		"/>
	<path class="st20" d="M529.69,927.92l-0.45,0.17l-0.09,0.03c-1.5-0.56-3.19-1.2-4.92-1.85c-0.08-0.03-0.16-0.06-0.24-0.09h-0.01
		c-1.11-0.42-2.22-0.84-3.3-1.25l3.53,1.17L529.69,927.92z"/>
	<path class="st48" d="M816.01,775.19L816.01,775.19z"/>
	<path class="st20" d="M156.42,815.43c-11.4,2-27.82-2.24-31.96-2.62c-3.21-0.3-6.25-0.71-9.1-1.23
		c6.28-8.56,16.75-13.43,27.75-11.98l10.74,1.41L156.42,815.43z"/>
	<path class="st48" d="M777.44,821.37L777.44,821.37z"/>
	<path class="st20" d="M814.08,760.74c-5.74,1.48-13.49,6.11-20.88,11.25c7.9-9.45,17.9-22.03,21.16-28.87
		c2.55-5.36-0.64-13.53-8.43-5.87c-4.96,4.88-10.16,14.89-14.39,24.43c-0.22-1.13-0.57-2.18-1.04-3.12
		c-6.39-12.58-19.71-35.53-26.17-32.47c-9.51,4.5,14.49,30.25,10.85,38.25c-6.21,13.62-28.73,14.52-28.81-3.02
		c-0.05-9.25,26.47-38.29,10.64-36.08c-8.63,1.21-9.88,16.17-21.62,27.91c-10.39,10.4-21.93,12.59-24.44,12.95
		c-0.36-0.12-0.73-0.23-1.1-0.33l-0.53-0.14l-2.38-0.64l-2.54-0.71c-1.7-0.48-3.41-0.96-5.13-1.49c-3.44-1.01-6.88-2.12-10.31-3.2
		c-3.43-1.13-6.86-2.27-10.28-3.45c-1.34-0.49-2.69-0.96-4.04-1.44c-2.06-0.73-4.12-1.46-6.16-2.23
		c-13.55-5.04-26.9-10.57-39.8-16.81c-12.9-6.23-25.45-13.01-37.31-20.54c-2.94-1.91-5.78-3.92-8.68-5.86
		c-2.96-1.9-5.63-4.06-8.38-6.14l-4.11-3.14l-1.03-0.78l-0.91-0.79l-1.83-1.57l-1.83-1.56l-1.78-1.69
		c-1.17-1.15-2.39-2.22-3.54-3.42c-4.68-4.7-9.11-9.88-13.42-15.22c-4.25-5.43-8.34-11.08-12.26-16.93
		c-7.79-11.73-14.97-24.12-21.58-36.92c-3.33-6.38-6.5-12.87-9.56-19.43c-3.08-6.56-6.02-13.19-8.85-19.88
		c-0.25-0.59-0.5-1.18-0.74-1.78l-1.98-4.76c-4.24,3.87-11.22,9.51-16.17,12.81c-6.17,4.12-11.53,6.81-12.7,5.67
		c-0.14,0.29,1.17,8.73,3.22,21.6c0.5,1.07,1,2.13,1.51,3.19c3.32,7,6.79,13.94,10.44,20.82c7.25,13.77,15.2,27.3,24.09,40.46
		c4.47,6.57,9.22,13.03,14.26,19.36c5.13,6.28,10.5,12.47,16.44,18.35c1.46,1.49,3.05,2.9,4.57,4.35l2.32,2.15l2.45,2.08l2.45,2.07
		l1.23,1.03l1.21,0.92l4.85,3.65c3.24,2.42,6.44,4.92,9.8,7.07c3.33,2.21,6.64,4.48,10,6.62c13.5,8.45,27.43,15.81,41.56,22.5
		c14.13,6.7,28.54,12.54,43.12,17.84c3.64,1.34,7.32,2.56,10.98,3.85c3.67,1.24,7.36,2.43,11.06,3.62c3.11,0.96,6.23,1.93,9.37,2.85
		l6.88,1.96c1.68,0.39,5.19,1.57,11.32,2.33h0.03c3.72,0.46,8.39,0.77,14.21,0.67c4.98-0.09,10.79-0.48,17.56-1.35
		c20.47-3.04,33.7-9.72,41.23-14.82c0,0,0.01,0,0.01-0.01c11.14-4.27,31.21-12.33,38.86-17.6
		C821.94,765.93,824.65,758,814.08,760.74z"/>
	
		<radialGradient id="SVGID_7_" cx="237.8287" cy="582.5759" r="245.3722" fx="209.6987" fy="574.6744" gradientUnits="userSpaceOnUse">
		<stop  offset="0.4608" style="stop-color:#F6EB63"/>
		<stop  offset="0.4712" style="stop-color:#F4E775"/>
		<stop  offset="0.5011" style="stop-color:#F0DB9A"/>
		<stop  offset="0.5325" style="stop-color:#EDD1B2"/>
		<stop  offset="0.565" style="stop-color:#EAC7C1"/>
		<stop  offset="0.599" style="stop-color:#E9BFCB"/>
		<stop  offset="0.6351" style="stop-color:#E7B9D1"/>
		<stop  offset="0.6747" style="stop-color:#E7B6D4"/>
		<stop  offset="0.7248" style="stop-color:#E7B5D4"/>
	</radialGradient>
	<path class="st51" d="M43.94,763.85c7.65,5.27,27.72,13.33,38.86,17.6c0,0.01,0.01,0.01,0.01,0.01
		c7.53,5.1,20.76,11.78,41.23,14.82c6.77,0.87,12.58,1.26,17.56,1.35c5.82,0.1,10.49-0.21,14.21-0.67h0.03
		c6.13-0.76,9.64-1.94,11.32-2.33l6.88-1.96c3.14-0.92,6.26-1.89,9.37-2.85c3.7-1.19,7.39-2.38,11.06-3.62
		c3.66-1.29,7.34-2.51,10.98-3.85c14.58-5.3,28.99-11.14,43.12-17.84c14.13-6.69,28.06-14.05,41.56-22.5
		c3.36-2.14,6.67-4.41,10-6.62c3.36-2.15,6.56-4.65,9.8-7.07l4.85-3.65l1.21-0.92l1.23-1.03l2.45-2.07l2.45-2.08l2.32-2.15
		c1.52-1.45,3.11-2.86,4.57-4.35c5.94-5.88,11.31-12.07,16.44-18.35c5.04-6.33,9.79-12.79,14.26-19.36
		c8.89-13.16,16.84-26.69,24.09-40.46c3.65-6.88,7.12-13.82,10.44-20.82c0.51-1.06,1.01-2.12,1.51-3.19
		c2.05-12.87,3.36-21.31,3.22-21.6c-1.17,1.14-6.53-1.55-12.7-5.67c-4.95-3.3-11.93-8.94-16.17-12.81l-1.98,4.76
		c-0.24,0.6-0.49,1.19-0.74,1.78c-2.83,6.69-5.77,13.32-8.85,19.88c-3.06,6.56-6.23,13.05-9.56,19.43
		c-6.61,12.8-13.79,25.19-21.58,36.92c-3.92,5.85-8.01,11.5-12.26,16.93c-4.31,5.34-8.74,10.52-13.42,15.22
		c-1.15,1.2-2.37,2.27-3.54,3.42l-1.78,1.69l-1.83,1.56l-1.83,1.57l-0.91,0.79l-1.03,0.78l-4.11,3.14
		c-2.75,2.08-5.42,4.24-8.38,6.14c-2.9,1.94-5.74,3.95-8.68,5.86c-11.86,7.53-24.41,14.31-37.31,20.54
		c-12.9,6.24-26.25,11.77-39.8,16.81c-2.04,0.77-4.1,1.5-6.16,2.23c-1.35,0.48-2.7,0.95-4.04,1.44c-3.42,1.18-6.85,2.32-10.28,3.45
		c-3.43,1.08-6.87,2.19-10.31,3.2c-1.72,0.53-3.43,1.01-5.13,1.49l-2.54,0.71l-2.38,0.64l-0.53,0.14c-0.37,0.1-0.74,0.21-1.1,0.33
		c-2.51-0.36-14.05-2.55-24.44-12.95c-11.74-11.74-12.99-26.7-21.62-27.91c-15.83-2.21,10.69,26.83,10.64,36.08
		c-0.08,17.54-22.6,16.64-28.81,3.02c-3.64-8,20.36-33.75,10.85-38.25c-6.46-3.06-19.78,19.89-26.17,32.47
		c-0.47,0.94-0.82,1.99-1.04,3.12c-4.23-9.54-9.43-19.55-14.39-24.43c-7.79-7.66-10.98,0.51-8.43,5.87
		c3.26,6.84,13.26,19.42,21.16,28.87c-7.39-5.14-15.14-9.77-20.88-11.25C36.34,752.56,39.05,760.49,43.94,763.85z"/>
	<path class="st38" d="M365.08,582.05l-2.84,6.77c0,0,21.04,16.07,30.7,19l1.01-7.29L365.08,582.05z"/>
	<path class="st38" d="M492.97,580.19l3.04,7.24c0,0-19.35,17.56-30.89,18.53l-1.01-7.29L492.97,580.19z"/>
	<path class="st38" d="M361.67,754.64c0,0,35.79,20,123,5.07l0.68,11.2c0,0-73.17,19.11-125.14-5.51L361.67,754.64z"/>
	<linearGradient id="SVGID_8_" gradientUnits="userSpaceOnUse" x1="318.7332" y1="587.9915" x2="475.6178" y2="676.0653">
		<stop  offset="0.1389" style="stop-color:#F0F6EB"/>
		<stop  offset="0.1519" style="stop-color:#F1F6E6"/>
		<stop  offset="0.2314" style="stop-color:#F4F4CB"/>
		<stop  offset="0.3147" style="stop-color:#F6F2B2"/>
		<stop  offset="0.4019" style="stop-color:#F8F19D"/>
		<stop  offset="0.4945" style="stop-color:#FAF08D"/>
		<stop  offset="0.5963" style="stop-color:#FAEF83"/>
		<stop  offset="0.7248" style="stop-color:#FBEF7F"/>
	</linearGradient>
	<path class="st52" d="M493.89,581.25c-0.48,0.46-11.22,9.51-16.17,12.81c-6.17,4.12-11.53,6.81-12.7,5.67
		c-0.14,0.29,1.17,8.73,3.22,21.6c6.46,40.52,20.27,124.9,19.13,136.12c-1.54,15.17-129.86,9.7-128.85-6.13
		c1.01-15.83,34.04-151.04,34.04-151.04c-3.83,1.92-36.34-20.76-32.89-29.45c-0.51-0.62,10.06-21.79,18.65-33.71
		c9.03-14.88,36.44-19.94,39.37-20.96c-1.01,5.93,5.58,9.06,12.16,9.13c6.42,0.06,12.83-2.77,12.19-8.74
		c1.44,0.57,21.9,4.82,35.63,21.88c3.4,3.59,19.09,26.53,21.88,34.34C500.12,574.36,497.69,577.57,493.89,581.25z"/>
	<path class="st53" d="M415.74,972.76c-23.79,10.13-39.84,16.38-46.97,14.48c-12.03-6.83-18.44-20.71-21.65-35.15
		C372.73,960.15,396.44,967.2,415.74,972.76z"/>
	<path class="st54" d="M424.35,458.5c0,0.98,0.79,1.78,1.78,1.78c0.98,0,1.38-0.78,1.03-1.56c-0.71-1.55,0.58-6.34-0.24-7.56
		C425.86,449.59,424.35,457.52,424.35,458.5z"/>
	<path class="st38" d="M419.1,503.81c0,0,8.73,4.21,21.55,0.49l0.63,5.51c0,0-8.85,5.85-22.87,0L419.1,503.81z"/>
	<path class="st55" d="M422.78,778.72c0,0-3.57,9.45,0,10.85c3.57,1.4,2.04-4.72,1.27-5.43"/>
	<linearGradient id="SVGID_9_" gradientUnits="userSpaceOnUse" x1="516.458" y1="923.4448" x2="516.488" y2="923.5813">
		<stop  offset="0.3523" style="stop-color:#F6EB63"/>
		<stop  offset="0.374" style="stop-color:#F5DA65"/>
		<stop  offset="0.4029" style="stop-color:#F5C765"/>
		<stop  offset="0.4356" style="stop-color:#F4B464"/>
		<stop  offset="0.4726" style="stop-color:#F3A461"/>
		<stop  offset="0.5158" style="stop-color:#F29760"/>
		<stop  offset="0.5692" style="stop-color:#F18D5E"/>
		<stop  offset="0.644" style="stop-color:#F1885D"/>
		<stop  offset="0.852" style="stop-color:#F1865D"/>
	</linearGradient>
	<path class="st56" d="M516.56,923.57l-0.16-0.05c0,0,0,0,0.01-0.01l0.02,0.01L516.56,923.57z"/>
	<linearGradient id="SVGID_10_" gradientUnits="userSpaceOnUse" x1="369.4465" y1="596.8398" x2="453.3223" y2="978.7098">
		<stop  offset="0.3523" style="stop-color:#F6EB63"/>
		<stop  offset="0.374" style="stop-color:#F5DA65"/>
		<stop  offset="0.4029" style="stop-color:#F5C765"/>
		<stop  offset="0.4356" style="stop-color:#F4B464"/>
		<stop  offset="0.4726" style="stop-color:#F3A461"/>
		<stop  offset="0.5158" style="stop-color:#F29760"/>
		<stop  offset="0.5692" style="stop-color:#F18D5E"/>
		<stop  offset="0.644" style="stop-color:#F1885D"/>
		<stop  offset="0.852" style="stop-color:#F1865D"/>
	</linearGradient>
	<path class="st57" d="M716.06,864.35c-16.84,11.53-42.11,21.39-71.72,31.1c-6.93,2.27-14.1,4.53-21.45,6.81
		c-5.69,1.76-11.5,3.53-17.39,5.31c-5.72,1.74-11.53,3.49-17.4,5.26c0,0,0,0-0.01,0c-7.61,2.3-15.32,4.64-23.08,7.03
		c-0.03,0.01-0.07,0.02-0.1,0.03c-5.77,1.78-11.58,3.6-17.39,5.44c-4.6,1.48-9.21,2.97-13.82,4.49c-0.01,0-0.03,0.01-0.04,0.01
		c-0.76-0.29-2.01-0.77-3.54-1.34c-0.01,0-0.02-0.01-0.03-0.01c-0.18-0.07-0.36-0.14-0.55-0.21c-0.13-0.05-0.26-0.1-0.39-0.15
		c-1.5-0.56-3.19-1.2-4.92-1.85c-0.08-0.03-0.16-0.06-0.24-0.09h-0.01c-1.11-0.42-2.22-0.84-3.3-1.25
		c-0.04-0.01-0.08-0.02-0.12-0.04c-1.26-0.47-2.48-0.93-3.58-1.34c-1.85-0.69-3.37-1.26-4.25-1.6c-0.12-0.04-0.22-0.07-0.31-0.11
		c-0.33-0.12-0.51-0.19-0.51-0.19l-0.02,0.03l-0.07,0.14c-0.03,0.05-0.06,0.1-0.08,0.15c-0.01,0.02-0.02,0.05-0.03,0.07
		c0,0-0.01,0-0.02,0l-1.34,2.33l-1.2,2.09l-2.04,3.57l-1,1.74c-0.06,0.11-0.13,0.23-0.19,0.34h-0.01l-1.42,2.48
		c-0.12,0.21-0.24,0.42-0.36,0.64c-0.26,0.45-0.52,0.9-0.78,1.35l-0.43,0.75l-0.47,0.82c-0.09,0.17-0.19,0.34-0.29,0.51l-1.53,2.67
		h-0.01c-1.51,0.5-3.59,0.95-5.29,1.43c-0.61,0.17-1.17,0.34-1.64,0.52c-0.16,0.06-0.28,0.19-0.32,0.35
		c-2.51,10.21-6.52,21.41-11.29,30.05c-0.17,0.31-0.33,0.59-0.48,0.85c-1.18,2.07-2.4,3.98-3.66,5.68
		c-4.26,5.77-8.89,9.1-13.46,7.98c-1.54-0.37-4.88-1.24-9.73-2.55c-4.55-1.22-10.42-2.83-17.4-4.79c-6.11-1.7-13.06-3.67-20.7-5.87
		c-0.82-0.24-1.65-0.48-2.49-0.72c-0.38-0.11-0.77-0.22-1.16-0.33h-0.01c-5.14-1.49-10.55-3.08-16.22-4.75
		c-3.35-0.99-6.79-2.02-10.31-3.07c-2.39-0.72-4.8-1.44-7.25-2.18c-5.61-1.7-11.39-3.47-17.31-5.3c-4.52-1.39-9.12-2.83-13.79-4.3
		h-0.01c-0.03,0-0.04-0.01-0.07-0.02c-0.14-0.04-0.28-0.09-0.42-0.13c-2.91-0.92-5.85-1.85-8.82-2.79
		c-5.73-1.84-11.54-3.71-17.4-5.63c-5.3-1.73-10.64-3.5-16-5.3c-3.54-1.18-7.09-2.38-10.65-3.6c-5.99-2.04-11.99-4.11-17.98-6.23
		c-5.94-2.08-11.86-4.2-17.74-6.35c-12.33-4.48-24.48-9.08-36.2-13.74c-5.91-2.35-11.7-4.71-17.36-7.08l-0.03-0.01
		c-49.84-20.89-88.9-42.52-95.92-60.89c-0.02-0.04-0.03-0.08-0.03-0.12c-2.38-15.2,0.58-25.1,6.34-31.47l0.01-0.01
		c0.64-0.71,1.3-1.37,2.01-2c0.01-0.01,0.02-0.02,0.04-0.03c7.02-6.2,17.1-8.33,26.78-8.79c0.67-0.03,1.33-0.05,2-0.07h0.03
		c11.21-0.28,21.52,1.5,25.43,1.5h0.03c5.2,0.44,176.08,24.14,179.82,23.46c3.46-0.63,6.2-40.43,6.59-46.4
		c0.02-0.37,0.4-0.6,0.74-0.43c7.99,3.87,62.04,34.42,127.98,2.4c0.36-0.17,0.78,0.1,0.74,0.5c-0.57,6.6-3.81,47.04,2.76,46.57
		c7.15-0.51,188.5-22.61,197.36-24.25C723.89,796.78,757.22,836.19,716.06,864.35z"/>
	<path class="st53" d="M512.73,920.06c-0.09,0.17-0.17,0.34-0.26,0.51c-0.01,0.02-0.02,0.04-0.03,0.07
		c-0.18,0.33-0.35,0.67-0.53,1.01l-0.02,0.03l-0.07,0.14c-0.03,0.05-0.06,0.1-0.08,0.15c-0.01,0.02-0.02,0.05-0.03,0.07
		c0,0-0.01,0-0.02,0l-1.34,2.33l-1.2,2.09l-2.04,3.57l-1,1.74c-0.06,0.11-0.13,0.23-0.19,0.34h-0.01l-1.42,2.48
		c-0.12,0.21-0.24,0.42-0.36,0.64c-0.26,0.45-0.52,0.9-0.78,1.35l-0.43,0.75c-1.17,0.43-4.94,1.81-7.59,2.79
		c-1.32,0.49-2.36,0.87-2.69,0.99c-0.07,0.03-0.11,0.04-0.11,0.04l1.09-3.05l0.8-2.21l0.91-2.55l2.82-7.86l2.43-6.79l0.13-0.37
		l0.49-1.37l0.11-0.3c0.24-1.34,0.11-2.5-0.3-3.5c-0.13-0.35-0.3-0.68-0.5-1c-0.02-0.03-0.04-0.06-0.06-0.09
		c-0.01-0.03-0.03-0.06-0.06-0.09c-0.03-0.06-0.07-0.12-0.12-0.18c-1.33-1.83-3.58-3.06-5.67-4.02c-4.01-1.42-9.68-3.24-16.66-5.39
		c-0.07-0.01-0.14-0.03-0.21-0.06c-10.77-3.29-24.63-7.33-40.33-11.79c-15.05-4.28-31.79-8.95-49.12-13.73
		c-76.47-21.07-164.23-44.22-167.78-45.16c3.34,0.67,79,15.95,153.22,32.83c16.31,3.71,32.54,7.5,47.92,11.22h0.01
		c10.65,2.58,20.88,5.14,30.45,7.61c1.93,0.5,3.83,1,5.7,1.5h0.01c14.4,3.78,27.08,7.37,37.05,10.59c0.07,0.02,0.13,0.04,0.19,0.06
		c11.87,3.84,19.9,7.14,22.45,9.63C518.83,906.8,516.14,913.33,512.73,920.06z"/>
	<path class="st53" d="M452.48,886.08c0,0,187.1-45.13,191.83-46.81c4.09-1.45-226.02,36.98-226.02,36.98L452.48,886.08z"/>
	<path class="st58" d="M631.88,845.11L631.88,845.11z"/>
	<path class="st58" d="M459.38,788.47L459.38,788.47z"/>
	<path class="st38" d="M358.55,978.32c-0.01-0.01-0.01-0.01-0.02-0.01c-0.65-0.59-1.53-1.32-2.6-2.18
		c-3.83-3.02-10.12-7.59-17.14-12.56c-5.63-3.99-11.73-8.23-17.4-12.14c-6.28-4.34-12.02-8.26-16-10.97
		c-3.45-2.35-5.58-3.79-5.58-3.79l21.58,7.03l17.4,5.67l8.33,2.72h0.01l0.97,2.24h0.01l9.28,21.32L358.55,978.32z"/>
	<g>
		<g>
			<path class="st59" d="M417.93,596.09"/>
		</g>
	</g>
	<path class="st60" d="M392.56,600.28l3.52-13.28l-11.2,10.46C384.88,597.47,391.47,601.62,392.56,600.28z"/>
	<path class="st60" d="M465.06,599.77l-3.52-13.28l11.34,10.59C472.88,597.09,466.15,601.11,465.06,599.77z"/>
	<path class="st61" d="M511.91,921.65l-0.02,0.03l-0.07,0.14l-0.09,0.15h-0.01l-0.03,0.07l-1.34,2.33l-1.2,2.09l-2.04,3.57l-1,1.74
		c-0.06,0.11-0.13,0.23-0.19,0.34h-0.01l-1.42,2.48c-0.12,0.21-0.24,0.42-0.36,0.64c-0.26,0.45-0.52,0.9-0.78,1.35l-0.43,0.75
		l-0.47,0.82c-0.09,0.17-0.19,0.34-0.29,0.51l-1.53,2.67c-0.11,0.18-0.21,0.37-0.32,0.56c-0.21,0.37-0.43,0.74-0.64,1.12
		c-1.42,2.47-2.88,5.02-4.34,7.55c-5.33,9.31-10.56,18.43-13.25,23.12c-0.17,0.31-0.33,0.59-0.48,0.85l5.6-17.04
		c0,0,2.98-9.55,6.23-19.33c0.12-0.37,0.24-0.74,0.36-1.1s0.24-0.73,0.37-1.09c0.39-1.17,0.78-2.33,1.17-3.47
		c2.18-6.39,4.25-12.06,5.38-14.18L511.91,921.65z"/>
	<g>
		<g>
			<linearGradient id="SVGID_11_" gradientUnits="userSpaceOnUse" x1="445.1329" y1="446.6398" x2="446.0989" y2="446.6398">
				<stop  offset="0.1389" style="stop-color:#F0F6EB"/>
				<stop  offset="0.1519" style="stop-color:#F1F6E6"/>
				<stop  offset="0.2314" style="stop-color:#F4F4CB"/>
				<stop  offset="0.3147" style="stop-color:#F6F2B2"/>
				<stop  offset="0.4019" style="stop-color:#F8F19D"/>
				<stop  offset="0.4945" style="stop-color:#FAF08D"/>
				<stop  offset="0.5963" style="stop-color:#FAEF83"/>
				<stop  offset="0.7248" style="stop-color:#FBEF7F"/>
			</linearGradient>
			<path class="st62" d="M445.62,447.14c0.64,0,0.64-1,0-1C444.97,446.14,444.97,447.14,445.62,447.14L445.62,447.14z"/>
		</g>
	</g>
	<g>
		<g>
			<linearGradient id="SVGID_12_" gradientUnits="userSpaceOnUse" x1="454.3882" y1="454.7462" x2="455.3542" y2="454.7462">
				<stop  offset="0.1389" style="stop-color:#F0F6EB"/>
				<stop  offset="0.1519" style="stop-color:#F1F6E6"/>
				<stop  offset="0.2314" style="stop-color:#F4F4CB"/>
				<stop  offset="0.3147" style="stop-color:#F6F2B2"/>
				<stop  offset="0.4019" style="stop-color:#F8F19D"/>
				<stop  offset="0.4945" style="stop-color:#FAF08D"/>
				<stop  offset="0.5963" style="stop-color:#FAEF83"/>
				<stop  offset="0.7248" style="stop-color:#FBEF7F"/>
			</linearGradient>
			<path class="st63" d="M454.87,455.25c0.64,0,0.64-1,0-1C454.23,454.25,454.23,455.25,454.87,455.25L454.87,455.25z"/>
		</g>
	</g>
	<g>
		<g>
			<linearGradient id="SVGID_13_" gradientUnits="userSpaceOnUse" x1="447.5584" y1="454.4908" x2="448.5244" y2="454.4908">
				<stop  offset="0.1389" style="stop-color:#F0F6EB"/>
				<stop  offset="0.1519" style="stop-color:#F1F6E6"/>
				<stop  offset="0.2314" style="stop-color:#F4F4CB"/>
				<stop  offset="0.3147" style="stop-color:#F6F2B2"/>
				<stop  offset="0.4019" style="stop-color:#F8F19D"/>
				<stop  offset="0.4945" style="stop-color:#FAF08D"/>
				<stop  offset="0.5963" style="stop-color:#FAEF83"/>
				<stop  offset="0.7248" style="stop-color:#FBEF7F"/>
			</linearGradient>
			<path class="st64" d="M448.04,454.99c0.64,0,0.64-1,0-1C447.4,453.99,447.4,454.99,448.04,454.99L448.04,454.99z"/>
		</g>
	</g>
	<g>
		<g>
			<linearGradient id="SVGID_14_" gradientUnits="userSpaceOnUse" x1="456.1755" y1="449.2568" x2="457.1414" y2="449.2568">
				<stop  offset="0.1389" style="stop-color:#F0F6EB"/>
				<stop  offset="0.1519" style="stop-color:#F1F6E6"/>
				<stop  offset="0.2314" style="stop-color:#F4F4CB"/>
				<stop  offset="0.3147" style="stop-color:#F6F2B2"/>
				<stop  offset="0.4019" style="stop-color:#F8F19D"/>
				<stop  offset="0.4945" style="stop-color:#FAF08D"/>
				<stop  offset="0.5963" style="stop-color:#FAEF83"/>
				<stop  offset="0.7248" style="stop-color:#FBEF7F"/>
			</linearGradient>
			<path class="st65" d="M456.66,449.76c0.64,0,0.64-1,0-1C456.02,448.76,456.01,449.76,456.66,449.76L456.66,449.76z"/>
		</g>
	</g>
	<g>
		<g>
			<linearGradient id="SVGID_15_" gradientUnits="userSpaceOnUse" x1="417.0052" y1="447.6823" x2="417.9713" y2="447.6823">
				<stop  offset="0.1389" style="stop-color:#F0F6EB"/>
				<stop  offset="0.1519" style="stop-color:#F1F6E6"/>
				<stop  offset="0.2314" style="stop-color:#F4F4CB"/>
				<stop  offset="0.3147" style="stop-color:#F6F2B2"/>
				<stop  offset="0.4019" style="stop-color:#F8F19D"/>
				<stop  offset="0.4945" style="stop-color:#FAF08D"/>
				<stop  offset="0.5963" style="stop-color:#FAEF83"/>
				<stop  offset="0.7248" style="stop-color:#FBEF7F"/>
			</linearGradient>
			<path class="st66" d="M417.49,448.18c0.64,0,0.64-1,0-1C416.84,447.18,416.84,448.18,417.49,448.18L417.49,448.18z"/>
		</g>
	</g>
	<g>
		<g>
			<linearGradient id="SVGID_16_" gradientUnits="userSpaceOnUse" x1="409.9414" y1="451.9376" x2="410.9074" y2="451.9376">
				<stop  offset="0.1389" style="stop-color:#F0F6EB"/>
				<stop  offset="0.1519" style="stop-color:#F1F6E6"/>
				<stop  offset="0.2314" style="stop-color:#F4F4CB"/>
				<stop  offset="0.3147" style="stop-color:#F6F2B2"/>
				<stop  offset="0.4019" style="stop-color:#F8F19D"/>
				<stop  offset="0.4945" style="stop-color:#FAF08D"/>
				<stop  offset="0.5963" style="stop-color:#FAEF83"/>
				<stop  offset="0.7248" style="stop-color:#FBEF7F"/>
			</linearGradient>
			<path class="st67" d="M410.42,452.44c0.64,0,0.64-1,0-1C409.78,451.44,409.78,452.44,410.42,452.44L410.42,452.44z"/>
		</g>
	</g>
	<g>
		<g>
			<linearGradient id="SVGID_17_" gradientUnits="userSpaceOnUse" x1="401.6861" y1="454.5759" x2="402.6521" y2="454.5759">
				<stop  offset="0.1389" style="stop-color:#F0F6EB"/>
				<stop  offset="0.1519" style="stop-color:#F1F6E6"/>
				<stop  offset="0.2314" style="stop-color:#F4F4CB"/>
				<stop  offset="0.3147" style="stop-color:#F6F2B2"/>
				<stop  offset="0.4019" style="stop-color:#F8F19D"/>
				<stop  offset="0.4945" style="stop-color:#FAF08D"/>
				<stop  offset="0.5963" style="stop-color:#FAEF83"/>
				<stop  offset="0.7248" style="stop-color:#FBEF7F"/>
			</linearGradient>
			<path class="st68" d="M402.17,455.08c0.64,0,0.64-1,0-1C401.53,454.08,401.52,455.08,402.17,455.08L402.17,455.08z"/>
		</g>
	</g>
	<g>
		<g>
			<linearGradient id="SVGID_18_" gradientUnits="userSpaceOnUse" x1="402.4521" y1="448.278" x2="403.4181" y2="448.278">
				<stop  offset="0.1389" style="stop-color:#F0F6EB"/>
				<stop  offset="0.1519" style="stop-color:#F1F6E6"/>
				<stop  offset="0.2314" style="stop-color:#F4F4CB"/>
				<stop  offset="0.3147" style="stop-color:#F6F2B2"/>
				<stop  offset="0.4019" style="stop-color:#F8F19D"/>
				<stop  offset="0.4945" style="stop-color:#FAF08D"/>
				<stop  offset="0.5963" style="stop-color:#FAEF83"/>
				<stop  offset="0.7248" style="stop-color:#FBEF7F"/>
			</linearGradient>
			<path class="st69" d="M402.94,448.78c0.64,0,0.64-1,0-1C402.29,447.78,402.29,448.78,402.94,448.78L402.94,448.78z"/>
		</g>
	</g>
	<g>
		<g>
			<linearGradient id="SVGID_19_" gradientUnits="userSpaceOnUse" x1="408.0691" y1="462.5759" x2="409.0351" y2="462.5759">
				<stop  offset="0.1389" style="stop-color:#F0F6EB"/>
				<stop  offset="0.1519" style="stop-color:#F1F6E6"/>
				<stop  offset="0.2314" style="stop-color:#F4F4CB"/>
				<stop  offset="0.3147" style="stop-color:#F6F2B2"/>
				<stop  offset="0.4019" style="stop-color:#F8F19D"/>
				<stop  offset="0.4945" style="stop-color:#FAF08D"/>
				<stop  offset="0.5963" style="stop-color:#FAEF83"/>
				<stop  offset="0.7248" style="stop-color:#FBEF7F"/>
			</linearGradient>
			<path class="st70" d="M408.55,463.08c0.64,0,0.64-1,0-1C407.91,462.08,407.91,463.08,408.55,463.08L408.55,463.08z"/>
		</g>
	</g>
	<g>
		<g>
			<linearGradient id="SVGID_20_" gradientUnits="userSpaceOnUse" x1="417.0052" y1="454.9164" x2="417.9713" y2="454.9164">
				<stop  offset="0.1389" style="stop-color:#F0F6EB"/>
				<stop  offset="0.1519" style="stop-color:#F1F6E6"/>
				<stop  offset="0.2314" style="stop-color:#F4F4CB"/>
				<stop  offset="0.3147" style="stop-color:#F6F2B2"/>
				<stop  offset="0.4019" style="stop-color:#F8F19D"/>
				<stop  offset="0.4945" style="stop-color:#FAF08D"/>
				<stop  offset="0.5963" style="stop-color:#FAEF83"/>
				<stop  offset="0.7248" style="stop-color:#FBEF7F"/>
			</linearGradient>
			<path class="st71" d="M417.49,455.42c0.64,0,0.64-1,0-1C416.84,454.42,416.84,455.42,417.49,455.42L417.49,455.42z"/>
		</g>
	</g>
	<g>
		<g>
			<linearGradient id="SVGID_21_" gradientUnits="userSpaceOnUse" x1="420.0691" y1="444.9589" x2="421.0351" y2="444.9589">
				<stop  offset="0.1389" style="stop-color:#F0F6EB"/>
				<stop  offset="0.1519" style="stop-color:#F1F6E6"/>
				<stop  offset="0.2314" style="stop-color:#F4F4CB"/>
				<stop  offset="0.3147" style="stop-color:#F6F2B2"/>
				<stop  offset="0.4019" style="stop-color:#F8F19D"/>
				<stop  offset="0.4945" style="stop-color:#FAF08D"/>
				<stop  offset="0.5963" style="stop-color:#FAEF83"/>
				<stop  offset="0.7248" style="stop-color:#FBEF7F"/>
			</linearGradient>
			<path class="st72" d="M420.55,445.46c0.64,0,0.64-1,0-1C419.91,444.46,419.91,445.46,420.55,445.46L420.55,445.46z"/>
		</g>
	</g>
	<g>
		<g>
			<linearGradient id="SVGID_22_" gradientUnits="userSpaceOnUse" x1="460.3244" y1="456.7887" x2="461.2904" y2="456.7887">
				<stop  offset="0.1389" style="stop-color:#F0F6EB"/>
				<stop  offset="0.1519" style="stop-color:#F1F6E6"/>
				<stop  offset="0.2314" style="stop-color:#F4F4CB"/>
				<stop  offset="0.3147" style="stop-color:#F6F2B2"/>
				<stop  offset="0.4019" style="stop-color:#F8F19D"/>
				<stop  offset="0.4945" style="stop-color:#FAF08D"/>
				<stop  offset="0.5963" style="stop-color:#FAEF83"/>
				<stop  offset="0.7248" style="stop-color:#FBEF7F"/>
			</linearGradient>
			<path class="st73" d="M460.81,457.29c0.64,0,0.64-1,0-1C460.16,456.29,460.16,457.29,460.81,457.29L460.81,457.29z"/>
		</g>
	</g>
	<g>
		<g>
			<linearGradient id="SVGID_23_" gradientUnits="userSpaceOnUse" x1="468.4095" y1="457.9802" x2="469.3755" y2="457.9802">
				<stop  offset="0.1389" style="stop-color:#F0F6EB"/>
				<stop  offset="0.1519" style="stop-color:#F1F6E6"/>
				<stop  offset="0.2314" style="stop-color:#F4F4CB"/>
				<stop  offset="0.3147" style="stop-color:#F6F2B2"/>
				<stop  offset="0.4019" style="stop-color:#F8F19D"/>
				<stop  offset="0.4945" style="stop-color:#FAF08D"/>
				<stop  offset="0.5963" style="stop-color:#FAEF83"/>
				<stop  offset="0.7248" style="stop-color:#FBEF7F"/>
			</linearGradient>
			<path class="st74" d="M468.89,458.48c0.64,0,0.64-1,0-1C468.25,457.48,468.25,458.48,468.89,458.48L468.89,458.48z"/>
		</g>
	</g>
	<g>
		<g>
			<linearGradient id="SVGID_24_" gradientUnits="userSpaceOnUse" x1="475.7287" y1="452.3632" x2="476.6946" y2="452.3632">
				<stop  offset="0.1389" style="stop-color:#F0F6EB"/>
				<stop  offset="0.1519" style="stop-color:#F1F6E6"/>
				<stop  offset="0.2314" style="stop-color:#F4F4CB"/>
				<stop  offset="0.3147" style="stop-color:#F6F2B2"/>
				<stop  offset="0.4019" style="stop-color:#F8F19D"/>
				<stop  offset="0.4945" style="stop-color:#FAF08D"/>
				<stop  offset="0.5963" style="stop-color:#FAEF83"/>
				<stop  offset="0.7248" style="stop-color:#FBEF7F"/>
			</linearGradient>
			<path class="st75" d="M476.21,452.86c0.64,0,0.64-1,0-1C475.57,451.86,475.57,452.86,476.21,452.86L476.21,452.86z"/>
		</g>
	</g>
	<g>
		<g>
			<linearGradient id="SVGID_25_" gradientUnits="userSpaceOnUse" x1="452.5797" y1="458.5759" x2="453.5457" y2="458.5759">
				<stop  offset="0.1389" style="stop-color:#F0F6EB"/>
				<stop  offset="0.1519" style="stop-color:#F1F6E6"/>
				<stop  offset="0.2314" style="stop-color:#F4F4CB"/>
				<stop  offset="0.3147" style="stop-color:#F6F2B2"/>
				<stop  offset="0.4019" style="stop-color:#F8F19D"/>
				<stop  offset="0.4945" style="stop-color:#FAF08D"/>
				<stop  offset="0.5963" style="stop-color:#FAEF83"/>
				<stop  offset="0.7248" style="stop-color:#FBEF7F"/>
			</linearGradient>
			<path class="st76" d="M453.06,459.08c0.64,0,0.64-1,0-1C452.42,458.08,452.42,459.08,453.06,459.08L453.06,459.08z"/>
		</g>
	</g>
	<g>
		<g>
			<linearGradient id="SVGID_26_" gradientUnits="userSpaceOnUse" x1="447.3031" y1="461.2993" x2="448.2691" y2="461.2993">
				<stop  offset="0.1389" style="stop-color:#F0F6EB"/>
				<stop  offset="0.1519" style="stop-color:#F1F6E6"/>
				<stop  offset="0.2314" style="stop-color:#F4F4CB"/>
				<stop  offset="0.3147" style="stop-color:#F6F2B2"/>
				<stop  offset="0.4019" style="stop-color:#F8F19D"/>
				<stop  offset="0.4945" style="stop-color:#FAF08D"/>
				<stop  offset="0.5963" style="stop-color:#FAEF83"/>
				<stop  offset="0.7248" style="stop-color:#FBEF7F"/>
			</linearGradient>
			<path class="st77" d="M447.79,461.8c0.64,0,0.64-1,0-1C447.14,460.8,447.14,461.8,447.79,461.8L447.79,461.8z"/>
		</g>
	</g>
	<g>
		<g>
			<linearGradient id="SVGID_27_" gradientUnits="userSpaceOnUse" x1="418.1116" y1="461.7249" x2="419.0776" y2="461.7249">
				<stop  offset="0.1389" style="stop-color:#F0F6EB"/>
				<stop  offset="0.1519" style="stop-color:#F1F6E6"/>
				<stop  offset="0.2314" style="stop-color:#F4F4CB"/>
				<stop  offset="0.3147" style="stop-color:#F6F2B2"/>
				<stop  offset="0.4019" style="stop-color:#F8F19D"/>
				<stop  offset="0.4945" style="stop-color:#FAF08D"/>
				<stop  offset="0.5963" style="stop-color:#FAEF83"/>
				<stop  offset="0.7248" style="stop-color:#FBEF7F"/>
			</linearGradient>
			<path class="st78" d="M418.59,462.22c0.64,0,0.64-1,0-1C417.95,461.22,417.95,462.22,418.59,462.22L418.59,462.22z"/>
		</g>
	</g>
	<g>
		<g>
			<linearGradient id="SVGID_28_" gradientUnits="userSpaceOnUse" x1="390.367" y1="449.2568" x2="391.3329" y2="449.2568">
				<stop  offset="0.1389" style="stop-color:#F0F6EB"/>
				<stop  offset="0.1519" style="stop-color:#F1F6E6"/>
				<stop  offset="0.2314" style="stop-color:#F4F4CB"/>
				<stop  offset="0.3147" style="stop-color:#F6F2B2"/>
				<stop  offset="0.4019" style="stop-color:#F8F19D"/>
				<stop  offset="0.4945" style="stop-color:#FAF08D"/>
				<stop  offset="0.5963" style="stop-color:#FAEF83"/>
				<stop  offset="0.7248" style="stop-color:#FBEF7F"/>
			</linearGradient>
			<path class="st79" d="M390.85,449.76c0.64,0,0.64-1,0-1C390.21,448.76,390.21,449.76,390.85,449.76L390.85,449.76z"/>
		</g>
	</g>
	<g>
		<g>
			<linearGradient id="SVGID_29_" gradientUnits="userSpaceOnUse" x1="385.3882" y1="444.0227" x2="386.3542" y2="444.0227">
				<stop  offset="0.1389" style="stop-color:#F0F6EB"/>
				<stop  offset="0.1519" style="stop-color:#F1F6E6"/>
				<stop  offset="0.2314" style="stop-color:#F4F4CB"/>
				<stop  offset="0.3147" style="stop-color:#F6F2B2"/>
				<stop  offset="0.4019" style="stop-color:#F8F19D"/>
				<stop  offset="0.4945" style="stop-color:#FAF08D"/>
				<stop  offset="0.5963" style="stop-color:#FAEF83"/>
				<stop  offset="0.7248" style="stop-color:#FBEF7F"/>
			</linearGradient>
			<path class="st80" d="M385.87,444.52c0.64,0,0.64-1,0-1C385.23,443.52,385.23,444.52,385.87,444.52L385.87,444.52z"/>
		</g>
	</g>
	<g>
		<g>
			<linearGradient id="SVGID_30_" gradientUnits="userSpaceOnUse" x1="398.7925" y1="455.0015" x2="399.7585" y2="455.0015">
				<stop  offset="0.1389" style="stop-color:#F0F6EB"/>
				<stop  offset="0.1519" style="stop-color:#F1F6E6"/>
				<stop  offset="0.2314" style="stop-color:#F4F4CB"/>
				<stop  offset="0.3147" style="stop-color:#F6F2B2"/>
				<stop  offset="0.4019" style="stop-color:#F8F19D"/>
				<stop  offset="0.4945" style="stop-color:#FAF08D"/>
				<stop  offset="0.5963" style="stop-color:#FAEF83"/>
				<stop  offset="0.7248" style="stop-color:#FBEF7F"/>
			</linearGradient>
			<path class="st81" d="M399.28,455.5c0.64,0,0.64-1,0-1C398.63,454.5,398.63,455.5,399.28,455.5L399.28,455.5z"/>
		</g>
	</g>
	<g>
		<g>
			<linearGradient id="SVGID_31_" gradientUnits="userSpaceOnUse" x1="395.984" y1="461.8951" x2="396.95" y2="461.8951">
				<stop  offset="0.1389" style="stop-color:#F0F6EB"/>
				<stop  offset="0.1519" style="stop-color:#F1F6E6"/>
				<stop  offset="0.2314" style="stop-color:#F4F4CB"/>
				<stop  offset="0.3147" style="stop-color:#F6F2B2"/>
				<stop  offset="0.4019" style="stop-color:#F8F19D"/>
				<stop  offset="0.4945" style="stop-color:#FAF08D"/>
				<stop  offset="0.5963" style="stop-color:#FAEF83"/>
				<stop  offset="0.7248" style="stop-color:#FBEF7F"/>
			</linearGradient>
			<path class="st82" d="M396.47,462.4c0.64,0,0.64-1,0-1C395.82,461.4,395.82,462.4,396.47,462.4L396.47,462.4z"/>
		</g>
	</g>
	<g>
		<g>
			<linearGradient id="SVGID_32_" gradientUnits="userSpaceOnUse" x1="402.1116" y1="461.5121" x2="403.0776" y2="461.5121">
				<stop  offset="0.1389" style="stop-color:#F0F6EB"/>
				<stop  offset="0.1519" style="stop-color:#F1F6E6"/>
				<stop  offset="0.2314" style="stop-color:#F4F4CB"/>
				<stop  offset="0.3147" style="stop-color:#F6F2B2"/>
				<stop  offset="0.4019" style="stop-color:#F8F19D"/>
				<stop  offset="0.4945" style="stop-color:#FAF08D"/>
				<stop  offset="0.5963" style="stop-color:#FAEF83"/>
				<stop  offset="0.7248" style="stop-color:#FBEF7F"/>
			</linearGradient>
			<path class="st83" d="M402.59,462.01c0.64,0,0.64-1,0-1C401.95,461.01,401.95,462.01,402.59,462.01L402.59,462.01z"/>
		</g>
	</g>
	<g>
		<g>
			<linearGradient id="SVGID_33_" gradientUnits="userSpaceOnUse" x1="382.1967" y1="461.5121" x2="383.1627" y2="461.5121">
				<stop  offset="0.1389" style="stop-color:#F0F6EB"/>
				<stop  offset="0.1519" style="stop-color:#F1F6E6"/>
				<stop  offset="0.2314" style="stop-color:#F4F4CB"/>
				<stop  offset="0.3147" style="stop-color:#F6F2B2"/>
				<stop  offset="0.4019" style="stop-color:#F8F19D"/>
				<stop  offset="0.4945" style="stop-color:#FAF08D"/>
				<stop  offset="0.5963" style="stop-color:#FAEF83"/>
				<stop  offset="0.7248" style="stop-color:#FBEF7F"/>
			</linearGradient>
			<path class="st84" d="M382.68,462.01c0.64,0,0.64-1,0-1C382.04,461.01,382.04,462.01,382.68,462.01L382.68,462.01z"/>
		</g>
	</g>
	<g>
		<g>
			<linearGradient id="SVGID_34_" gradientUnits="userSpaceOnUse" x1="464.4095" y1="450.5334" x2="465.3755" y2="450.5334">
				<stop  offset="0.1389" style="stop-color:#F0F6EB"/>
				<stop  offset="0.1519" style="stop-color:#F1F6E6"/>
				<stop  offset="0.2314" style="stop-color:#F4F4CB"/>
				<stop  offset="0.3147" style="stop-color:#F6F2B2"/>
				<stop  offset="0.4019" style="stop-color:#F8F19D"/>
				<stop  offset="0.4945" style="stop-color:#FAF08D"/>
				<stop  offset="0.5963" style="stop-color:#FAEF83"/>
				<stop  offset="0.7248" style="stop-color:#FBEF7F"/>
			</linearGradient>
			<path class="st85" d="M464.89,451.03c0.64,0,0.64-1,0-1C464.25,450.03,464.25,451.03,464.89,451.03L464.89,451.03z"/>
		</g>
	</g>
	<g>
		<g>
			<linearGradient id="SVGID_35_" gradientUnits="userSpaceOnUse" x1="439.2606" y1="444.0227" x2="440.2266" y2="444.0227">
				<stop  offset="0.1389" style="stop-color:#F0F6EB"/>
				<stop  offset="0.1519" style="stop-color:#F1F6E6"/>
				<stop  offset="0.2314" style="stop-color:#F4F4CB"/>
				<stop  offset="0.3147" style="stop-color:#F6F2B2"/>
				<stop  offset="0.4019" style="stop-color:#F8F19D"/>
				<stop  offset="0.4945" style="stop-color:#FAF08D"/>
				<stop  offset="0.5963" style="stop-color:#FAEF83"/>
				<stop  offset="0.7248" style="stop-color:#FBEF7F"/>
			</linearGradient>
			<path class="st86" d="M439.74,444.52c0.64,0,0.64-1,0-1C439.1,443.52,439.1,444.52,439.74,444.52L439.74,444.52z"/>
		</g>
	</g>
	<g>
		<g>
			<linearGradient id="SVGID_36_" gradientUnits="userSpaceOnUse" x1="443.0904" y1="452.3206" x2="444.0563" y2="452.3206">
				<stop  offset="0.1389" style="stop-color:#F0F6EB"/>
				<stop  offset="0.1519" style="stop-color:#F1F6E6"/>
				<stop  offset="0.2314" style="stop-color:#F4F4CB"/>
				<stop  offset="0.3147" style="stop-color:#F6F2B2"/>
				<stop  offset="0.4019" style="stop-color:#F8F19D"/>
				<stop  offset="0.4945" style="stop-color:#FAF08D"/>
				<stop  offset="0.5963" style="stop-color:#FAEF83"/>
				<stop  offset="0.7248" style="stop-color:#FBEF7F"/>
			</linearGradient>
			<path class="st87" d="M443.57,452.82c0.64,0,0.64-1,0-1C442.93,451.82,442.93,452.82,443.57,452.82L443.57,452.82z"/>
		</g>
	</g>
	<g>
		<g>
			<linearGradient id="SVGID_37_" gradientUnits="userSpaceOnUse" x1="475.2606" y1="445.5547" x2="476.2266" y2="445.5547">
				<stop  offset="0.1389" style="stop-color:#F0F6EB"/>
				<stop  offset="0.1519" style="stop-color:#F1F6E6"/>
				<stop  offset="0.2314" style="stop-color:#F4F4CB"/>
				<stop  offset="0.3147" style="stop-color:#F6F2B2"/>
				<stop  offset="0.4019" style="stop-color:#F8F19D"/>
				<stop  offset="0.4945" style="stop-color:#FAF08D"/>
				<stop  offset="0.5963" style="stop-color:#FAEF83"/>
				<stop  offset="0.7248" style="stop-color:#FBEF7F"/>
			</linearGradient>
			<path class="st88" d="M475.74,446.05c0.64,0,0.64-1,0-1C475.1,445.05,475.1,446.05,475.74,446.05L475.74,446.05z"/>
		</g>
	</g>
	<g>
		<g>
			<linearGradient id="SVGID_38_" gradientUnits="userSpaceOnUse" x1="480.6223" y1="438.5334" x2="481.5883" y2="438.5334">
				<stop  offset="0.1389" style="stop-color:#F0F6EB"/>
				<stop  offset="0.1519" style="stop-color:#F1F6E6"/>
				<stop  offset="0.2314" style="stop-color:#F4F4CB"/>
				<stop  offset="0.3147" style="stop-color:#F6F2B2"/>
				<stop  offset="0.4019" style="stop-color:#F8F19D"/>
				<stop  offset="0.4945" style="stop-color:#FAF08D"/>
				<stop  offset="0.5963" style="stop-color:#FAEF83"/>
				<stop  offset="0.7248" style="stop-color:#FBEF7F"/>
			</linearGradient>
			<path class="st89" d="M481.11,439.03c0.64,0,0.64-1,0-1C480.46,438.03,480.46,439.03,481.11,439.03L481.11,439.03z"/>
		</g>
	</g>
	<g>
		<g>
			<linearGradient id="SVGID_39_" gradientUnits="userSpaceOnUse" x1="470.6648" y1="451.427" x2="471.6308" y2="451.427">
				<stop  offset="0.1389" style="stop-color:#F0F6EB"/>
				<stop  offset="0.1519" style="stop-color:#F1F6E6"/>
				<stop  offset="0.2314" style="stop-color:#F4F4CB"/>
				<stop  offset="0.3147" style="stop-color:#F6F2B2"/>
				<stop  offset="0.4019" style="stop-color:#F8F19D"/>
				<stop  offset="0.4945" style="stop-color:#FAF08D"/>
				<stop  offset="0.5963" style="stop-color:#FAEF83"/>
				<stop  offset="0.7248" style="stop-color:#FBEF7F"/>
			</linearGradient>
			<path class="st90" d="M471.15,451.93c0.64,0,0.64-1,0-1C470.5,450.93,470.5,451.93,471.15,451.93L471.15,451.93z"/>
		</g>
	</g>
	<g>
		<g>
			<linearGradient id="SVGID_40_" gradientUnits="userSpaceOnUse" x1="383.601" y1="436.8738" x2="384.567" y2="436.8738">
				<stop  offset="0.1389" style="stop-color:#F0F6EB"/>
				<stop  offset="0.1519" style="stop-color:#F1F6E6"/>
				<stop  offset="0.2314" style="stop-color:#F4F4CB"/>
				<stop  offset="0.3147" style="stop-color:#F6F2B2"/>
				<stop  offset="0.4019" style="stop-color:#F8F19D"/>
				<stop  offset="0.4945" style="stop-color:#FAF08D"/>
				<stop  offset="0.5963" style="stop-color:#FAEF83"/>
				<stop  offset="0.7248" style="stop-color:#FBEF7F"/>
			</linearGradient>
			<path class="st91" d="M384.08,437.37c0.64,0,0.64-1,0-1C383.44,436.37,383.44,437.37,384.08,437.37L384.08,437.37z"/>
		</g>
	</g>
	<g>
		<g>
			<linearGradient id="SVGID_41_" gradientUnits="userSpaceOnUse" x1="397.5159" y1="448.8738" x2="398.4819" y2="448.8738">
				<stop  offset="0.1389" style="stop-color:#F0F6EB"/>
				<stop  offset="0.1519" style="stop-color:#F1F6E6"/>
				<stop  offset="0.2314" style="stop-color:#F4F4CB"/>
				<stop  offset="0.3147" style="stop-color:#F6F2B2"/>
				<stop  offset="0.4019" style="stop-color:#F8F19D"/>
				<stop  offset="0.4945" style="stop-color:#FAF08D"/>
				<stop  offset="0.5963" style="stop-color:#FAEF83"/>
				<stop  offset="0.7248" style="stop-color:#FBEF7F"/>
			</linearGradient>
			<path class="st92" d="M398,449.37c0.64,0,0.64-1,0-1C397.36,448.37,397.35,449.37,398,449.37L398,449.37z"/>
		</g>
	</g>
	<g>
		<g>
			<linearGradient id="SVGID_42_" gradientUnits="userSpaceOnUse" x1="390.367" y1="455.7674" x2="391.3329" y2="455.7674">
				<stop  offset="0.1389" style="stop-color:#F0F6EB"/>
				<stop  offset="0.1519" style="stop-color:#F1F6E6"/>
				<stop  offset="0.2314" style="stop-color:#F4F4CB"/>
				<stop  offset="0.3147" style="stop-color:#F6F2B2"/>
				<stop  offset="0.4019" style="stop-color:#F8F19D"/>
				<stop  offset="0.4945" style="stop-color:#FAF08D"/>
				<stop  offset="0.5963" style="stop-color:#FAEF83"/>
				<stop  offset="0.7248" style="stop-color:#FBEF7F"/>
			</linearGradient>
			<path class="st93" d="M390.85,456.27c0.64,0,0.64-1,0-1C390.21,455.27,390.21,456.27,390.85,456.27L390.85,456.27z"/>
		</g>
	</g>
	<g>
		<g>
			<linearGradient id="SVGID_43_" gradientUnits="userSpaceOnUse" x1="383.218" y1="449.5121" x2="384.184" y2="449.5121">
				<stop  offset="0.1389" style="stop-color:#F0F6EB"/>
				<stop  offset="0.1519" style="stop-color:#F1F6E6"/>
				<stop  offset="0.2314" style="stop-color:#F4F4CB"/>
				<stop  offset="0.3147" style="stop-color:#F6F2B2"/>
				<stop  offset="0.4019" style="stop-color:#F8F19D"/>
				<stop  offset="0.4945" style="stop-color:#FAF08D"/>
				<stop  offset="0.5963" style="stop-color:#FAEF83"/>
				<stop  offset="0.7248" style="stop-color:#FBEF7F"/>
			</linearGradient>
			<path class="st94" d="M383.7,450.01c0.64,0,0.64-1,0-1C383.06,449.01,383.06,450.01,383.7,450.01L383.7,450.01z"/>
		</g>
	</g>
	<g>
		<g>
			<linearGradient id="SVGID_44_" gradientUnits="userSpaceOnUse" x1="460.7074" y1="464.8312" x2="461.6734" y2="464.8312">
				<stop  offset="0.1389" style="stop-color:#F0F6EB"/>
				<stop  offset="0.1519" style="stop-color:#F1F6E6"/>
				<stop  offset="0.2314" style="stop-color:#F4F4CB"/>
				<stop  offset="0.3147" style="stop-color:#F6F2B2"/>
				<stop  offset="0.4019" style="stop-color:#F8F19D"/>
				<stop  offset="0.4945" style="stop-color:#FAF08D"/>
				<stop  offset="0.5963" style="stop-color:#FAEF83"/>
				<stop  offset="0.7248" style="stop-color:#FBEF7F"/>
			</linearGradient>
			<path class="st95" d="M461.19,465.33c0.64,0,0.64-1,0-1C460.55,464.33,460.55,465.33,461.19,465.33L461.19,465.33z"/>
		</g>
	</g>
	<g>
		<g>
			<linearGradient id="SVGID_45_" gradientUnits="userSpaceOnUse" x1="480.6223" y1="447.9802" x2="481.5883" y2="447.9802">
				<stop  offset="0.1389" style="stop-color:#F0F6EB"/>
				<stop  offset="0.1519" style="stop-color:#F1F6E6"/>
				<stop  offset="0.2314" style="stop-color:#F4F4CB"/>
				<stop  offset="0.3147" style="stop-color:#F6F2B2"/>
				<stop  offset="0.4019" style="stop-color:#F8F19D"/>
				<stop  offset="0.4945" style="stop-color:#FAF08D"/>
				<stop  offset="0.5963" style="stop-color:#FAEF83"/>
				<stop  offset="0.7248" style="stop-color:#FBEF7F"/>
			</linearGradient>
			<path class="st96" d="M481.11,448.48c0.64,0,0.64-1,0-1C480.46,447.48,480.46,448.48,481.11,448.48L481.11,448.48z"/>
		</g>
	</g>
	<g>
		<g>
			<linearGradient id="SVGID_46_" gradientUnits="userSpaceOnUse" x1="483.6861" y1="432.7887" x2="484.6521" y2="432.7887">
				<stop  offset="0.1389" style="stop-color:#F0F6EB"/>
				<stop  offset="0.1519" style="stop-color:#F1F6E6"/>
				<stop  offset="0.2314" style="stop-color:#F4F4CB"/>
				<stop  offset="0.3147" style="stop-color:#F6F2B2"/>
				<stop  offset="0.4019" style="stop-color:#F8F19D"/>
				<stop  offset="0.4945" style="stop-color:#FAF08D"/>
				<stop  offset="0.5963" style="stop-color:#FAEF83"/>
				<stop  offset="0.7248" style="stop-color:#FBEF7F"/>
			</linearGradient>
			<path class="st97" d="M484.17,433.29c0.64,0,0.64-1,0-1C483.53,432.29,483.52,433.29,484.17,433.29L484.17,433.29z"/>
		</g>
	</g>
	<g>
		<g>
			<linearGradient id="SVGID_47_" gradientUnits="userSpaceOnUse" x1="422.8776" y1="441.4695" x2="423.8436" y2="441.4695">
				<stop  offset="0.1389" style="stop-color:#F0F6EB"/>
				<stop  offset="0.1519" style="stop-color:#F1F6E6"/>
				<stop  offset="0.2314" style="stop-color:#F4F4CB"/>
				<stop  offset="0.3147" style="stop-color:#F6F2B2"/>
				<stop  offset="0.4019" style="stop-color:#F8F19D"/>
				<stop  offset="0.4945" style="stop-color:#FAF08D"/>
				<stop  offset="0.5963" style="stop-color:#FAEF83"/>
				<stop  offset="0.7248" style="stop-color:#FBEF7F"/>
			</linearGradient>
			<path class="st98" d="M423.36,441.97c0.64,0,0.64-1,0-1C422.72,440.97,422.72,441.97,423.36,441.97L423.36,441.97z"/>
		</g>
	</g>
	<g>
		<g>
			<linearGradient id="SVGID_48_" gradientUnits="userSpaceOnUse" x1="441.601" y1="459.3419" x2="442.567" y2="459.3419">
				<stop  offset="0.1389" style="stop-color:#F0F6EB"/>
				<stop  offset="0.1519" style="stop-color:#F1F6E6"/>
				<stop  offset="0.2314" style="stop-color:#F4F4CB"/>
				<stop  offset="0.3147" style="stop-color:#F6F2B2"/>
				<stop  offset="0.4019" style="stop-color:#F8F19D"/>
				<stop  offset="0.4945" style="stop-color:#FAF08D"/>
				<stop  offset="0.5963" style="stop-color:#FAEF83"/>
				<stop  offset="0.7248" style="stop-color:#FBEF7F"/>
			</linearGradient>
			<path class="st99" d="M442.08,459.84c0.64,0,0.64-1,0-1C441.44,458.84,441.44,459.84,442.08,459.84L442.08,459.84z"/>
		</g>
	</g>
	<g>
		<linearGradient id="SVGID_49_" gradientUnits="userSpaceOnUse" x1="365.6848" y1="388.9632" x2="453.2323" y2="388.9632">
			<stop  offset="0.1389" style="stop-color:#F0F6EB"/>
			<stop  offset="0.1519" style="stop-color:#F1F6E6"/>
			<stop  offset="0.2314" style="stop-color:#F4F4CB"/>
			<stop  offset="0.3147" style="stop-color:#F6F2B2"/>
			<stop  offset="0.4019" style="stop-color:#F8F19D"/>
			<stop  offset="0.4945" style="stop-color:#FAF08D"/>
			<stop  offset="0.5963" style="stop-color:#FAEF83"/>
			<stop  offset="0.7248" style="stop-color:#FBEF7F"/>
		</linearGradient>
		<path class="st100" d="M453.24,342.23c-10.18-2.66-20.97-2.77-31.21-0.35c-4.74,1.12-9.65,2.67-13.84,5.2
			c-1.85,1.11-3.56,2.48-4.87,4.2c-1.44,1.9-2.13,4.1-2.44,6.44c-0.34,2.57-0.33,5.23-1.21,7.7c-0.75,2.1-2.14,3.9-3.79,5.38
			c-3.47,3.11-7.88,4.77-12.07,6.63c-4.28,1.9-8.48,4.18-11.2,8.12c-2.61,3.77-3.61,8.38-4.13,12.87
			c-0.63,5.39-0.8,10.84-1.15,16.25c-0.37,5.9-0.75,11.81-1.12,17.71c-0.09,1.46-0.38,3.79-0.52,5.24
			c-0.05,0.52,0.83-0.26,1.25-1.02c0.67-11.42,1.36-22.69,2.17-34.11c0.32-4.6,0.81-9.37,2.76-13.6c0.96-2.09,2.28-3.99,3.98-5.55
			c1.71-1.57,3.73-2.77,5.81-3.81c4.08-2.04,8.47-3.46,12.3-6c1.78-1.18,3.43-2.58,4.73-4.28c1.37-1.79,2.21-3.85,2.58-6.07
			c0.41-2.47,0.37-5.01,1.01-7.45c0.58-2.22,1.83-4.11,3.52-5.65c3.47-3.15,8.23-4.85,12.64-6.19c9.95-3.03,20.65-3.58,30.86-1.55
			c1.24,0.25,2.47,0.53,3.7,0.85C453.6,343.35,453.86,342.39,453.24,342.23L453.24,342.23z"/>
	</g>
	<g>
		<linearGradient id="SVGID_50_" gradientUnits="userSpaceOnUse" x1="453.2901" y1="385.8649" x2="497.8604" y2="385.8649">
			<stop  offset="0.1389" style="stop-color:#F0F6EB"/>
			<stop  offset="0.1519" style="stop-color:#F1F6E6"/>
			<stop  offset="0.2314" style="stop-color:#F4F4CB"/>
			<stop  offset="0.3147" style="stop-color:#F6F2B2"/>
			<stop  offset="0.4019" style="stop-color:#F8F19D"/>
			<stop  offset="0.4945" style="stop-color:#FAF08D"/>
			<stop  offset="0.5963" style="stop-color:#FAEF83"/>
			<stop  offset="0.7248" style="stop-color:#FBEF7F"/>
		</linearGradient>
		<path class="st101" d="M454.41,344.67c1.8-2.71,5.27-4.25,8.48-3.59c3.12,0.63,5.72,3.12,6.46,6.21c0.47,1.96,0.28,4.01,0.29,6
			c0.01,1.84,0.22,3.68,0.65,5.47c0.86,3.57,2.58,6.84,4.91,9.66c4.57,5.52,10.99,9.18,15.29,14.94c2.05,2.75,3.62,5.97,3.76,9.44
			c0.16,3.97-1.44,7.77-1.38,11.74c0.06,3.9,1.5,7.58,2.59,11.27c0.89,3.01,1.98,6.41,0.95,9.52c-0.28,0.84-0.69,3.66-1.13,4.42
			l0.26,2.02c0.82-1.41,2.07-6.47,2.25-8.11c0.17-1.55-0.11-3.11-0.45-4.61c-0.9-3.95-2.51-7.73-3.2-11.73
			c-0.36-2.07-0.32-4.12,0.02-6.19c0.33-2.02,0.81-4.01,1.02-6.05c0.37-3.67-0.62-7.18-2.53-10.31
			c-3.9-6.41-10.49-10.27-15.51-15.66c-2.69-2.89-4.74-6.26-5.76-10.1c-0.52-1.95-0.75-3.95-0.75-5.96c0-2.01,0.15-4.06-0.33-6.04
			c-0.74-3.08-3.15-5.62-6.13-6.63c-3.1-1.06-6.62-0.2-9.06,1.94c-0.61,0.54-1.13,1.16-1.58,1.84
			C453.19,344.71,454.06,345.21,454.41,344.67L454.41,344.67z"/>
	</g>
	<g>
		<linearGradient id="SVGID_51_" gradientUnits="userSpaceOnUse" x1="365.8371" y1="390.3064" x2="453.8026" y2="390.3064">
			<stop  offset="0.1389" style="stop-color:#F0F6EB"/>
			<stop  offset="0.1519" style="stop-color:#F1F6E6"/>
			<stop  offset="0.2314" style="stop-color:#F4F4CB"/>
			<stop  offset="0.3147" style="stop-color:#F6F2B2"/>
			<stop  offset="0.4019" style="stop-color:#F8F19D"/>
			<stop  offset="0.4945" style="stop-color:#FAF08D"/>
			<stop  offset="0.5963" style="stop-color:#FAEF83"/>
			<stop  offset="0.7248" style="stop-color:#FBEF7F"/>
		</linearGradient>
		<path class="st102" d="M452.77,343.31c0.23,4.71-1.05,9.42-3.58,13.39c-2.57,4.03-6.44,7.12-10.91,8.79
			c-2.2,0.82-4.52,1.32-6.86,1.44c-2.49,0.13-4.91-0.3-7.37-0.65c-2.4-0.35-4.96-0.61-7.29,0.24c-2.04,0.75-3.6,2.26-4.72,4.09
			c-2.47,4.05-2.53,9.12-5.26,13.03c-2.44,3.5-6.66,5.11-10.32,6.98c-1.85,0.95-3.67,1.99-5.24,3.36c-1.66,1.45-2.99,3.24-4.06,5.17
			c-2.23,4.02-3.41,8.51-4.99,12.79c-1.54,4.17-3.38,8.22-5.72,12.01c-2.3,3.73-5.06,7.13-8.07,10.3c-0.8,0.84-1.62,1.67-2.45,2.48
			c-0.2,0.58-0.67,1.56,0.71,0.71c0.29-0.21,6.26-6.52,8.86-10.22c2.49-3.54,4.52-7.37,6.2-11.36c1.81-4.31,3.04-8.83,4.85-13.14
			c0.89-2.11,1.96-4.18,3.4-5.97c1.38-1.71,3.07-3.04,4.95-4.15c3.62-2.12,7.77-3.47,10.91-6.36c1.66-1.53,2.79-3.44,3.59-5.54
			c0.86-2.27,1.35-4.65,2.22-6.92c0.79-2.06,1.94-4.16,3.79-5.45c2.09-1.46,4.66-1.53,7.1-1.26c2.54,0.28,5.05,0.86,7.62,0.88
			c2.3,0.02,4.61-0.32,6.82-0.97c4.48-1.32,8.57-3.95,11.53-7.59c2.92-3.59,4.74-8.01,5.22-12.62c0.12-1.16,0.15-2.32,0.09-3.48
			C453.74,342.67,452.74,342.67,452.77,343.31L452.77,343.31z"/>
	</g>
	<g>
		<linearGradient id="SVGID_52_" gradientUnits="userSpaceOnUse" x1="369.2007" y1="476.7049" x2="398.6513" y2="476.7049">
			<stop  offset="0.0624" style="stop-color:#FBED60"/>
			<stop  offset="0.0934" style="stop-color:#FCF080"/>
			<stop  offset="0.1406" style="stop-color:#FDF3A3"/>
			<stop  offset="0.1938" style="stop-color:#FEF7BF"/>
			<stop  offset="0.2526" style="stop-color:#FEF9D5"/>
			<stop  offset="0.3189" style="stop-color:#FFFCE5"/>
			<stop  offset="0.3965" style="stop-color:#FFFDF1"/>
			<stop  offset="0.4923" style="stop-color:#FFFEF9"/>
			<stop  offset="0.6268" style="stop-color:#FFFFFE"/>
			<stop  offset="1" style="stop-color:#FFFFFF"/>
		</linearGradient>
		<path class="st103" d="M377.77,460.34c-2.77,3.05-6.15,7-7.62,10.91c-1.19,3.17-1.64,7.63,0.99,10.26
			c1.27,1.27,3.06,1.57,4.77,1.19c1.96-0.43,3.6-1.61,5.39-2.45c1.83-0.87,3.78-1.16,5.57-0.04c1.63,1.01,2.67,2.68,3.5,4.36
			c1.73,3.49,3.79,7.87,7.94,8.49l0.83-0.76c-3.89-0.15-6.22-4.67-7.63-7.65c-1.38-2.92-3.63-6.26-7.26-6.21
			c-1.8,0.02-3.45,0.89-4.99,1.74c-1.64,0.9-3.57,1.99-5.51,1.63c-3.8-0.71-3.88-5.83-3.14-8.72c1.14-4.45,4.65-8.34,7.66-11.65
			L377.77,460.34z"/>
	</g>
	<g>
		<linearGradient id="SVGID_53_" gradientUnits="userSpaceOnUse" x1="471.8677" y1="475.0899" x2="496.726" y2="475.0899">
			<stop  offset="0.0624" style="stop-color:#FBED60"/>
			<stop  offset="0.0934" style="stop-color:#FCF080"/>
			<stop  offset="0.1406" style="stop-color:#FDF3A3"/>
			<stop  offset="0.1938" style="stop-color:#FEF7BF"/>
			<stop  offset="0.2526" style="stop-color:#FEF9D5"/>
			<stop  offset="0.3189" style="stop-color:#FFFCE5"/>
			<stop  offset="0.3965" style="stop-color:#FFFDF1"/>
			<stop  offset="0.4923" style="stop-color:#FFFEF9"/>
			<stop  offset="0.6268" style="stop-color:#FFFFFE"/>
			<stop  offset="1" style="stop-color:#FFFFFF"/>
		</linearGradient>
		<path class="st104" d="M494.93,457.73c-1.98,3.39-5.72,4.37-8.33,7.14c-1.4,1.48-2.16,3.4-1.92,5.45c0.25,2.15,1.52,3.82,3.3,4.99
			c1.88,1.24,4.12,1.91,5.85,3.38c0.81,0.69,1.51,1.55,1.78,2.61c0.29,1.14-0.02,2.31-0.6,3.3c-2.29,3.95-7.78,5.41-11.96,4.12
			c-1.36-0.42-2.65-1.05-4.06-1.26c-1.11-0.17-2.22-0.03-3.26,0.41c-2.04,0.86-3.55,2.31-3.86,4.52l0.9,0.56
			c0.28-2.04,1.74-3.66,3.71-4.31c2.42-0.8,4.59,0.64,6.88,1.21c4.13,1.03,9.01-0.32,11.75-3.67c1.34-1.64,2.08-3.8,1.22-5.84
			c-0.81-1.92-2.66-3.17-4.45-4.08c-1.93-0.99-4.22-1.85-5.42-3.77c-1.17-1.86-1.08-4.33,0.18-6.12c1.25-1.77,3.22-2.84,5.02-3.95
			c1.79-1.11,3.6-3.35,4.68-5.2C495.35,457.64,494.93,457.73,494.93,457.73z"/>
	</g>
	<path class="st3" d="M530.09,895.39v33.09c-0.18-0.07-0.36-0.14-0.55-0.21c-0.13-0.05-0.26-0.1-0.39-0.15
		c-1.5-0.56-3.19-1.2-4.92-1.85c-0.08-0.03-0.16-0.06-0.24-0.09h-0.01c-1.11-0.42-2.22-0.84-3.3-1.25
		c-0.04-0.01-0.08-0.02-0.12-0.04c-1.26-0.47-2.48-0.93-3.58-1.34c-1.85-0.69-3.37-1.26-4.25-1.6c-0.12-0.04-0.22-0.07-0.31-0.11
		l0.05-1.19v-0.08l0.26-6.83l0.06-1.59H500.5c-0.02-0.03-0.03-0.06-0.05-0.09c-0.01-0.03-0.03-0.06-0.06-0.09
		c-0.03-0.06-0.07-0.12-0.12-0.18c-1.06-1.36-4.37-2.66-4.37-2.66l-17.96-6.73l-0.21-0.08v-6.93H530.09z"/>
	<polygon class="st3" points="588.1,914.49 605.5,907.86 605.5,895.45 587.94,895.3 588.1,914.49 	"/>
	<polygon class="st3" points="547.52,926.88 565.01,921.6 565.01,895.39 547.52,895.39 547.52,916.11 	"/>
	<path class="st3" d="M660,895.45c5.8,0,10.73,2.07,14.79,6.2c4.06,4.13,6.09,9.14,6.09,15.04v31.56c0,10.23-0.2,20.01-0.58,29.35
		c-0.39,9.34-1.64,17.65-3.77,24.93c-5.8,19.08-17.88,28.62-36.24,28.62v70.8h-17.39v-206.5H660z M663.48,946.48v-27.44
		c0-1.57-0.58-2.95-1.74-4.13c-1.16-1.18-2.51-1.77-4.06-1.77h-17.39v100.3c5.22,0,9.37-1.28,12.47-3.83
		c3.09-2.55,5.46-6.54,7.1-11.95c1.64-5.41,2.65-12.34,3.04-20.8C663.28,968.41,663.48,958.28,663.48,946.48z"/>
	<path class="st3" d="M258.62,924.14L258.62,924.14z"/>
	<polygon class="st3" points="259.02,942.72 259.02,913.02 238.34,913.02 238.34,895.15 297.4,895.06 297.4,913.02 276.81,913.1 
		276.72,943.49 	"/>
	<path class="st20" d="M500.31,941.89c-0.21,0.37-0.43,0.74-0.64,1.12c-0.01,0-0.01,0-0.01,0L500.31,941.89z"/>
	<path class="st20" d="M500.63,941.33c-0.11,0.18-0.21,0.37-0.32,0.56l0.31-0.56H500.63z"/>
	<path class="st20" d="M502.45,938.15c-0.09,0.17-0.19,0.34-0.29,0.51l0.28-0.51H502.45z"/>
	<path class="st20" d="M504.49,934.59c-0.12,0.21-0.24,0.42-0.36,0.64c-0.26,0.45-0.52,0.9-0.78,1.35l0.77-1.35L504.49,934.59z"/>
	<path class="st20" d="M506.11,931.77c-0.06,0.11-0.13,0.23-0.19,0.34h-0.01L506.11,931.77z"/>
	<path class="st20" d="M511.82,921.82c-0.03,0.05-0.06,0.1-0.08,0.15c-0.01,0.02-0.02,0.05-0.03,0.07c0,0-0.01,0-0.02,0l0.03-0.07
		h0.01L511.82,921.82z"/>
	<path class="st20" d="M516.56,923.57l-0.16-0.05c0,0,0,0,0.01-0.01l0.02,0.01L516.56,923.57z"/>
</g>
<g id="Слой_9">
	<polygon class="st3" points="205.43,903.45 205.43,895.45 222.82,895.45 222.82,911.17 	"/>
</g>
</svg>
