<?xml version="1.0" encoding="utf-8"?>
<!-- Generator: Adobe Illustrator 24.2.3, SVG Export Plug-In . SVG Version: 6.00 Build 0)  -->
<svg version="1.1" id="Слой_1" xmlns="http://www.w3.org/2000/svg" xmlns:xlink="http://www.w3.org/1999/xlink" x="0px" y="0px"
	 viewBox="0 0 200 200" style="enable-background:new 0 0 200 200;" xml:space="preserve">
<g>
	<g>
		<path d="M28.78,19.4c-5.2,8.65-5.92,19.07-4.82,28.89c0.61,5.51,1.69,10.95,2.67,16.4c0.95,5.28,1.72,10.58,2.24,15.92
			c2.1,21.49,0.72,43.29-4.2,64.32c-2.26,9.66-5.44,19.98-1.41,29.63c1.67,3.99,4.43,7.62,8.33,9.65c4.6,2.4,9.87,2.41,14.94,2.42
			c22.56,0.05,45.12-0.31,67.67-0.95c11.15-0.32,22.3-0.68,33.45-1.03c5.61-0.18,11.22-0.36,16.83-0.54
			c5.03-0.16,10.56,0.2,15.4-1.38c9.53-3.11,12.23-13.8,13.97-22.54c2.12-10.64,2.54-21.59,1.13-32.34
			c-1.37-10.49-4.45-20.62-6.63-30.94c-1.04-4.93-1.86-9.9-2.08-14.94c-0.23-5.26,0.32-10.41,1.29-15.58
			c1.85-9.83,4.4-19.7,2.46-29.73c-0.86-4.46-2.71-8.69-5.61-12.19c-2.77-3.34-6.49-5.68-10.48-7.29
			c-8.37-3.37-17.76-3.34-26.63-3.72c-11.3-0.47-22.59-0.95-33.89-1.42c-11.08-0.47-22.17-1.02-33.26-1.36
			c-10.64-0.33-21.3-0.25-31.85,1.3c-5.05,0.74-10.03,1.86-14.88,3.43c-3.05,0.99-1.74,5.82,1.33,4.82
			c19.73-6.38,40.82-4.78,61.21-3.92c10.96,0.46,21.93,0.92,32.89,1.38c5.48,0.23,10.96,0.46,16.45,0.69
			c4.71,0.2,9.43,0.31,14.12,0.74c7.59,0.69,15.82,2.45,21.07,8.44c5.57,6.37,5.87,15.87,4.79,23.82c-0.7,5.15-1.94,10.2-2.84,15.31
			c-0.9,5.13-1.41,10.29-1.16,15.5c0.48,10.12,3.11,19.96,5.48,29.76c2.42,10.01,4.23,20,4.04,30.35
			c-0.1,5.16-0.59,10.31-1.54,15.39c-0.82,4.41-1.74,9.09-3.67,13.17c-1.76,3.73-4.32,6.48-8.44,7.44c-2.2,0.51-4.48,0.55-6.73,0.62
			c-2.72,0.09-5.45,0.17-8.17,0.26c-10.9,0.35-21.79,0.7-32.69,1.04c-21.77,0.68-43.55,1.23-65.33,1.37
			c-5.49,0.04-10.97,0.05-16.46,0.04c-4.53-0.01-9.68,0.39-13.82-1.83c-7.61-4.08-8.39-14.12-7.13-21.67
			c0.85-5.1,2.32-10.09,3.41-15.14c1.11-5.13,2.01-10.31,2.71-15.52c1.42-10.48,2.06-21.05,1.83-31.62
			c-0.22-10.58-1.3-21.13-3.15-31.54c-1.74-9.84-4.08-19.88-2.74-29.92c0.59-4.39,1.93-8.66,4.22-12.47
			C34.76,19.16,30.43,16.65,28.78,19.4L28.78,19.4z"/>
	</g>
</g>
<g>
	<g>
		<path d="M105.15,54.32c-0.76,13.8-1.32,27.67-1.37,41.49c-0.05,13.91,1.33,27.6,3.46,41.33c0.28,1.81,0.7,5.22-1.54,6.06
			c-2.22,0.83-5.23-1.25-7.01-2.36c-4.64-2.91-8.47-7.05-11.72-11.42c-7.35-9.87-13.35-21-17.82-32.45
			c-5.35-13.68-8.5-28.14-9.27-42.81c-0.17-3.2-5.17-3.22-5,0c1.42,27.22,10.79,53.91,26.58,76.14c3.53,4.97,7.49,9.61,12.41,13.28
			c4.56,3.4,12.5,7.75,16.89,1.75c2.05-2.8,1.83-6.27,1.32-9.51c-0.57-3.58-1.15-7.16-1.59-10.76c-0.88-7.25-1.42-14.54-1.61-21.84
			c-0.21-8.06,0.04-16.13,0.3-24.19c0.27-8.24,0.54-16.47,0.99-24.7C110.33,51.1,105.33,51.11,105.15,54.32L105.15,54.32z"/>
	</g>
</g>
<g>
	<g>
		<path d="M149.56,55.19c-0.48,7.46-5.78,13.67-11.5,17.99c-6.56,4.97-14.12,8.41-20.68,13.39c-3.69,2.81-7,5.96-9.6,9.83
			c-0.76,1.14-0.2,2.75,0.9,3.42c6.6,4.02,12.52,9.03,17.59,14.86c5.35,6.15,9.44,13.18,12.77,20.6c1.99,4.42,3.73,8.95,5.47,13.48
			c0.48,1.26,1.68,2.13,3.08,1.75c1.2-0.33,2.23-1.81,1.75-3.08c-3.27-8.49-6.55-17.05-11.23-24.88
			c-4.18-6.98-9.47-13.35-15.58-18.72c-3.52-3.09-7.32-5.89-11.32-8.33c0.3,1.14,0.6,2.28,0.9,3.42
			c4.52-6.73,11.72-10.92,18.52-14.98c7.3-4.36,14.66-8.98,19.5-16.15c2.54-3.76,4.13-8.07,4.42-12.61c0.09-1.35-1.21-2.5-2.5-2.5
			C150.64,52.69,149.65,53.84,149.56,55.19L149.56,55.19z"/>
	</g>
</g>
</svg>
